<svg width="573" height="366" viewBox="0 0 573 366" fill="none" xmlns="http://www.w3.org/2000/svg">
<g filter="url(#filter0_d_0_1)">
<path opacity="0.1" d="M540.336 147.931L408.23 71.5191C407.311 70.9667 406.393 70.8746 405.566 71.1508L404.586 71.4884L403.912 72.1635C403.545 72.5318 403.269 73.0841 403.085 73.6365L373.228 170.855C372.494 173.248 373.596 176.194 375.617 177.391L507.815 253.895C508.09 254.079 508.458 254.171 508.825 254.264L508.458 255L510.754 254.171C511.673 253.803 512.5 252.975 512.867 251.686L542.724 154.468C543.551 152.074 542.449 149.128 540.336 147.931Z" fill="#039DDF"/>
<path opacity="0.1" d="M504.002 259.007L370.17 181.723C368.191 180.592 364.798 180.687 362.441 182.006L275.922 231.958L273 230.827L273.848 234.879C273.942 235.445 274.414 236.105 275.168 236.482L410.32 314.519C412.299 315.65 415.692 315.556 418.048 314.236L504.756 264.19C505.793 263.531 506.453 262.777 506.641 262.023L507.489 258.064L504.002 259.007Z" fill="#039DDF"/>
<path d="M410.508 311.032L274.414 232.429C272.435 231.298 272.717 229.319 274.979 227.999L362.347 177.576C364.609 176.257 368.096 176.069 370.076 177.294L506.17 255.897C508.149 257.028 507.866 259.007 505.604 260.326L418.236 310.749C415.974 312.069 412.487 312.163 410.508 311.032Z" fill="white"/>
<path d="M505.604 259.195L418.236 309.618C415.974 310.938 412.487 311.126 410.508 309.901L274.319 231.392C273.66 231.015 273.283 230.544 273.094 229.978C272.811 230.921 273.188 231.769 274.319 232.429L410.414 311.032C412.393 312.163 415.88 312.069 418.142 310.749L505.51 260.326C507.018 259.478 507.584 258.253 507.301 257.31C507.207 257.97 506.641 258.63 505.604 259.195Z" fill="white"/>
<path d="M339.256 219.705L334.638 217.066C334.261 216.878 334.355 216.501 334.732 216.218L340.199 213.108C340.67 212.825 341.236 212.825 341.613 213.014L346.231 215.653C346.608 215.841 346.513 216.218 346.136 216.501L340.67 219.611C340.293 219.894 339.633 219.894 339.256 219.705Z" fill="#E4F2FD"/>
<path d="M346.419 223.758L341.801 221.119C341.424 220.931 341.518 220.554 341.895 220.271L347.362 217.161C347.833 216.878 348.398 216.878 348.775 217.066L353.394 219.705C353.771 219.894 353.676 220.271 353.299 220.554L347.833 223.664C347.362 223.947 346.796 224.041 346.419 223.758Z" fill="#E4F2FD"/>
<path d="M353.488 227.905L348.87 225.266C348.493 225.078 348.587 224.701 348.964 224.418L354.43 221.308C354.901 221.025 355.467 221.025 355.844 221.213L360.462 223.852C360.839 224.041 360.745 224.418 360.368 224.701L354.901 227.811C354.524 228.093 353.865 228.093 353.488 227.905Z" fill="#E4F2FD"/>
<path d="M363.29 224.512L358.672 221.873C358.295 221.685 358.389 221.308 358.766 221.025L363.29 218.386C363.761 218.103 364.326 218.103 364.703 218.292L369.322 220.931C369.699 221.119 369.604 221.496 369.227 221.779L364.703 224.418C364.326 224.701 363.667 224.701 363.29 224.512Z" fill="#E4F2FD"/>
<path d="M370.358 228.565L365.74 225.926C365.363 225.737 365.457 225.36 365.834 225.078L370.358 222.439C370.829 222.156 371.395 222.156 371.772 222.344L376.39 224.983C376.767 225.172 376.673 225.549 376.296 225.832L371.772 228.47C371.395 228.753 370.735 228.847 370.358 228.565Z" fill="#E4F2FD"/>
<path d="M377.521 232.712L372.903 230.073C372.526 229.884 372.62 229.507 372.997 229.224L377.521 226.585C377.992 226.303 378.558 226.303 378.935 226.491L383.553 229.13C383.93 229.319 383.836 229.696 383.459 229.978L378.935 232.617C378.558 232.9 377.898 232.9 377.521 232.712Z" fill="#E4F2FD"/>
<path d="M384.59 236.764L379.972 234.125C379.595 233.937 379.689 233.56 380.066 233.277L384.59 230.638C385.061 230.355 385.627 230.355 386.003 230.544L390.622 233.183C390.999 233.371 390.904 233.748 390.527 234.031L386.003 236.67C385.627 236.953 384.967 237.047 384.59 236.764Z" fill="#E4F2FD"/>
<path d="M391.658 240.911L387.04 238.272C386.663 238.084 386.757 237.707 387.134 237.424L391.658 234.785C392.13 234.502 392.695 234.502 393.072 234.691L397.69 237.33C398.067 237.518 397.973 237.895 397.596 238.178L393.072 240.817C392.695 241.1 392.035 241.1 391.658 240.911Z" fill="#E4F2FD"/>
<path d="M398.821 244.964L394.203 242.325C393.826 242.136 393.92 241.759 394.297 241.477L398.821 238.838C399.292 238.555 399.858 238.555 400.235 238.743L404.853 241.382C405.23 241.571 405.136 241.948 404.759 242.231L400.235 244.87C399.764 245.152 399.198 245.247 398.821 244.964Z" fill="#E4F2FD"/>
<path d="M405.89 249.111L401.272 246.472C400.895 246.283 400.989 245.906 401.366 245.624L405.89 242.985C406.361 242.702 406.927 242.702 407.304 242.89L411.922 245.529C412.299 245.718 412.204 246.095 411.827 246.378L407.304 249.017C406.927 249.299 406.267 249.299 405.89 249.111Z" fill="#E4F2FD"/>
<path d="M412.958 253.163L408.34 250.525C407.963 250.336 408.058 249.959 408.435 249.676L412.958 247.037C413.43 246.755 413.995 246.755 414.372 246.943L418.99 249.582C419.367 249.771 419.273 250.148 418.896 250.43L414.372 253.069C413.995 253.352 413.335 253.446 412.958 253.163Z" fill="#E4F2FD"/>
<path d="M420.121 257.31L415.503 254.671C415.126 254.483 415.22 254.106 415.597 253.823L420.121 251.184C420.593 250.902 421.158 250.902 421.535 251.09L426.153 253.729C426.53 253.917 426.436 254.294 426.059 254.577L421.535 257.216C421.064 257.499 420.498 257.499 420.121 257.31Z" fill="#E4F2FD"/>
<path d="M427.19 261.363L422.572 258.724C422.195 258.536 422.289 258.159 422.666 257.876L427.19 255.237C427.661 254.954 428.227 254.954 428.604 255.143L433.222 257.782C433.599 257.97 433.505 258.347 433.128 258.63L428.604 261.269C428.227 261.552 427.567 261.552 427.19 261.363Z" fill="#E4F2FD"/>
<path d="M373.751 222.533L369.133 219.894C368.756 219.705 368.85 219.328 369.227 219.046L373.751 216.407C374.222 216.124 374.788 216.124 375.165 216.312L379.783 218.951C380.16 219.14 380.066 219.517 379.689 219.8L375.165 222.439C374.788 222.721 374.128 222.816 373.751 222.533Z" fill="#E4F2FD"/>
<path d="M366.588 218.386L361.97 215.747C361.593 215.558 361.687 215.181 362.064 214.899L366.588 212.26C367.06 211.977 367.625 211.977 368.002 212.166L372.62 214.804C372.997 214.993 372.903 215.37 372.526 215.653L368.002 218.292C367.531 218.574 366.965 218.574 366.588 218.386Z" fill="#E4F2FD"/>
<path d="M359.331 214.239L349.435 208.49C349.058 208.301 349.152 207.924 349.529 207.642L354.053 205.003C354.525 204.72 355.09 204.72 355.467 204.908L365.363 210.658C365.74 210.846 365.646 211.223 365.269 211.506L360.745 214.145C360.368 214.427 359.708 214.427 359.331 214.239Z" fill="#E4F2FD"/>
<path d="M364.421 209.15L356.409 204.531C356.032 204.343 356.127 203.966 356.504 203.683L361.028 201.044C361.499 200.762 362.064 200.762 362.441 200.95L370.452 205.568C370.829 205.757 370.735 206.134 370.358 206.416L365.834 209.055C365.363 209.338 364.798 209.432 364.421 209.15Z" fill="#E4F2FD"/>
<path d="M380.82 226.68L376.202 224.041C375.825 223.852 375.919 223.475 376.296 223.193L380.82 220.554C381.291 220.271 381.856 220.271 382.233 220.459L386.852 223.098C387.229 223.287 387.134 223.664 386.757 223.947L382.233 226.586C381.856 226.868 381.197 226.868 380.82 226.68Z" fill="#E4F2FD"/>
<path d="M387.983 230.732L383.364 228.093C382.987 227.905 383.082 227.528 383.459 227.245L387.983 224.606C388.454 224.324 389.019 224.324 389.396 224.512L394.014 227.151C394.391 227.34 394.297 227.717 393.92 227.999L389.396 230.638C388.925 230.921 388.36 231.015 387.983 230.732Z" fill="#E4F2FD"/>
<path d="M395.051 234.879L390.433 232.24C390.056 232.052 390.15 231.675 390.527 231.392L395.051 228.753C395.523 228.47 396.088 228.47 396.465 228.659L401.083 231.298C401.46 231.486 401.366 231.863 400.989 232.146L396.465 234.785C396.088 235.068 395.428 235.068 395.051 234.879Z" fill="#E4F2FD"/>
<path d="M402.12 238.932L397.502 236.293C397.125 236.105 397.219 235.728 397.596 235.445L402.12 232.806C402.591 232.523 403.157 232.523 403.534 232.712L408.152 235.351C408.529 235.539 408.434 235.916 408.058 236.199L403.534 238.838C403.157 239.121 402.497 239.12 402.12 238.932Z" fill="#E4F2FD"/>
<path d="M409.283 243.079L404.665 240.44C404.288 240.251 404.382 239.874 404.759 239.592L409.283 236.953C409.754 236.67 410.32 236.67 410.697 236.859L415.315 239.497C415.692 239.686 415.597 240.063 415.22 240.346L410.697 242.985C410.225 243.267 409.66 243.267 409.283 243.079Z" fill="#E4F2FD"/>
<path d="M416.351 247.132L411.733 244.493C411.356 244.304 411.45 243.927 411.827 243.644L416.351 241.005C416.823 240.723 417.388 240.723 417.765 240.911L422.383 243.55C422.76 243.739 422.666 244.116 422.289 244.398L417.765 247.037C417.388 247.32 416.728 247.32 416.351 247.132Z" fill="#E4F2FD"/>
<path d="M423.42 251.279L418.802 248.64C418.425 248.451 418.519 248.074 418.896 247.791L423.42 245.152C423.891 244.87 424.457 244.87 424.834 245.058L429.452 247.697C429.829 247.886 429.735 248.263 429.358 248.545L424.834 251.184C424.457 251.467 423.797 251.467 423.42 251.279Z" fill="#E4F2FD"/>
<path d="M430.583 255.331L425.965 252.692C425.588 252.504 425.682 252.127 426.059 251.844L430.583 249.205C431.054 248.922 431.62 248.922 431.997 249.111L436.615 251.75C436.992 251.938 436.897 252.315 436.52 252.598L431.997 255.237C431.525 255.52 430.866 255.52 430.583 255.331Z" fill="#E4F2FD"/>
<path d="M437.652 259.478L433.033 256.839C432.656 256.651 432.751 256.274 433.128 255.991L437.652 253.352C438.123 253.069 438.688 253.069 439.065 253.258L443.683 255.897C444.06 256.085 443.966 256.462 443.589 256.745L439.065 259.384C438.688 259.667 438.029 259.667 437.652 259.478Z" fill="#E4F2FD"/>
<path d="M450.281 266.735L440.29 260.986C439.913 260.798 440.008 260.421 440.385 260.138L444.908 257.499C445.38 257.216 445.945 257.216 446.322 257.405L456.312 263.154C456.689 263.342 456.595 263.719 456.218 264.002L451.694 266.641C451.223 266.924 450.658 266.924 450.281 266.735Z" fill="#E4F2FD"/>
<path d="M464.041 258.724L455.559 253.823C455.182 253.635 455.276 253.258 455.653 252.975L460.177 250.336C460.648 250.053 461.213 250.053 461.59 250.242L470.073 255.143C470.45 255.331 470.355 255.708 469.979 255.991L465.455 258.63C465.078 258.913 464.418 259.007 464.041 258.724Z" fill="#E4F2FD"/>
<path d="M393.261 225.832L388.642 223.193C388.265 223.004 388.36 222.627 388.737 222.344L393.261 219.705C393.732 219.423 394.297 219.423 394.674 219.611L399.292 222.25C399.669 222.439 399.575 222.816 399.198 223.098L394.674 225.737C394.297 226.02 393.638 226.114 393.261 225.832Z" fill="#E4F2FD"/>
<path d="M386.003 221.685L381.385 219.046C381.008 218.857 381.103 218.48 381.48 218.197L386.003 215.558C386.475 215.276 387.04 215.276 387.417 215.464L392.035 218.103C392.412 218.292 392.318 218.669 391.941 218.951L387.417 221.59C387.04 221.873 386.38 221.873 386.003 221.685Z" fill="#E4F2FD"/>
<path d="M378.746 217.443L374.128 214.804C373.751 214.616 373.845 214.239 374.222 213.956L378.746 211.317C379.218 211.035 379.783 211.035 380.16 211.223L384.778 213.862C385.155 214.051 385.061 214.427 384.684 214.71L380.16 217.349C379.783 217.632 379.123 217.632 378.746 217.443Z" fill="#E4F2FD"/>
<path d="M371.489 213.297L366.871 210.658C366.494 210.469 366.588 210.092 366.965 209.809L371.489 207.17C371.96 206.888 372.526 206.888 372.903 207.076L377.521 209.715C377.898 209.904 377.804 210.281 377.427 210.563L372.903 213.202C372.526 213.485 371.866 213.485 371.489 213.297Z" fill="#E4F2FD"/>
<path d="M400.423 229.978L395.805 227.339C395.428 227.151 395.522 226.774 395.899 226.491L400.423 223.852C400.895 223.57 401.46 223.57 401.837 223.758L406.455 226.397C406.832 226.585 406.738 226.962 406.361 227.245L401.837 229.884C401.366 230.167 400.8 230.167 400.423 229.978Z" fill="#E4F2FD"/>
<path d="M407.492 234.031L402.874 231.392C402.497 231.204 402.591 230.827 402.968 230.544L407.492 227.905C407.963 227.622 408.529 227.622 408.906 227.811L413.524 230.45C413.901 230.638 413.807 231.015 413.43 231.298L408.906 233.937C408.529 234.22 407.869 234.314 407.492 234.031Z" fill="#E4F2FD"/>
<path d="M414.561 238.178L409.943 235.539C409.566 235.351 409.66 234.974 410.037 234.691L414.561 232.052C415.032 231.769 415.597 231.769 415.974 231.958L420.593 234.597C420.97 234.785 420.875 235.162 420.498 235.445L415.974 238.084C415.597 238.367 414.938 238.367 414.561 238.178Z" fill="#E4F2FD"/>
<path d="M421.724 242.231L417.105 239.592C416.728 239.403 416.823 239.026 417.2 238.744L421.724 236.105C422.195 235.822 422.76 235.822 423.137 236.01L427.755 238.649C428.132 238.838 428.038 239.215 427.661 239.498L423.137 242.136C422.666 242.419 422.006 242.419 421.724 242.231Z" fill="#E4F2FD"/>
<path d="M428.792 246.378L424.174 243.739C423.797 243.55 423.891 243.173 424.268 242.89L428.792 240.251C429.263 239.969 429.829 239.969 430.206 240.157L434.824 242.796C435.201 242.985 435.107 243.362 434.73 243.644L430.206 246.283C429.829 246.566 429.169 246.566 428.792 246.378Z" fill="#E4F2FD"/>
<path d="M435.861 250.43L431.243 247.791C430.866 247.603 430.96 247.226 431.337 246.943L435.861 244.304C436.332 244.021 436.897 244.021 437.274 244.21L441.893 246.849C442.27 247.037 442.175 247.414 441.798 247.697L437.274 250.336C436.897 250.619 436.238 250.619 435.861 250.43Z" fill="#E4F2FD"/>
<path d="M442.929 254.577L438.311 251.938C437.934 251.75 438.028 251.373 438.405 251.09L442.929 248.451C443.401 248.168 443.966 248.168 444.343 248.357L448.961 250.996C449.338 251.184 449.244 251.561 448.867 251.844L444.343 254.483C443.966 254.766 443.306 254.766 442.929 254.577Z" fill="#E4F2FD"/>
<path d="M450.092 258.63L445.474 255.991C445.097 255.802 445.191 255.425 445.568 255.143L450.092 252.504C450.563 252.221 451.129 252.221 451.506 252.409L456.124 255.048C456.501 255.237 456.407 255.614 456.03 255.897L451.506 258.536C451.035 258.818 450.469 258.818 450.092 258.63Z" fill="#E4F2FD"/>
<path d="M457.161 262.777L452.543 260.138C452.166 259.949 452.26 259.572 452.637 259.29L457.161 256.651C457.632 256.368 458.197 256.368 458.574 256.556L463.193 259.195C463.57 259.384 463.475 259.761 463.098 260.044L458.574 262.683C458.197 262.965 457.538 262.965 457.161 262.777Z" fill="#E4F2FD"/>
<path d="M389.585 215.747L384.967 213.108C384.59 212.92 384.684 212.543 385.061 212.26L389.585 209.621C390.056 209.338 390.622 209.338 390.999 209.527L395.617 212.166C395.994 212.354 395.899 212.731 395.522 213.014L390.999 215.653C390.527 215.935 389.962 215.935 389.585 215.747Z" fill="#E4F2FD"/>
<path d="M382.516 211.694L377.898 209.055C377.521 208.867 377.615 208.49 377.992 208.207L382.516 205.568C382.988 205.285 383.553 205.285 383.93 205.474L388.548 208.113C388.925 208.301 388.831 208.678 388.454 208.961L383.93 211.6C383.459 211.789 382.893 211.883 382.516 211.694Z" fill="#E4F2FD"/>
<path d="M375.448 207.547L370.829 204.908C370.452 204.72 370.547 204.343 370.924 204.06L375.448 201.421C375.919 201.139 376.484 201.139 376.861 201.327L381.48 203.966C381.857 204.154 381.762 204.531 381.385 204.814L376.861 207.453C376.484 207.736 375.825 207.83 375.448 207.547Z" fill="#E4F2FD"/>
<path d="M368.379 203.495L363.761 200.856C363.384 200.667 363.478 200.29 363.855 200.008L368.379 197.369C368.85 197.086 369.416 197.086 369.793 197.274L374.411 199.913C374.788 200.102 374.694 200.479 374.317 200.762L369.793 203.4C369.416 203.683 368.756 203.683 368.379 203.495Z" fill="#E4F2FD"/>
<path d="M375.636 199.348L371.018 196.709C370.641 196.52 370.735 196.143 371.112 195.861L372.62 195.012C373.091 194.73 373.657 194.73 374.034 194.918L378.652 197.557C379.029 197.746 378.935 198.123 378.558 198.405L377.05 199.254C376.673 199.442 376.013 199.536 375.636 199.348Z" fill="#E4F2FD"/>
<path d="M384.873 204.626L380.255 201.987C379.878 201.798 379.972 201.421 380.349 201.139L381.857 200.29C382.328 200.008 382.893 200.008 383.27 200.196L387.889 202.835C388.266 203.023 388.171 203.4 387.794 203.683L386.286 204.531C385.815 204.814 385.25 204.814 384.873 204.626Z" fill="#E4F2FD"/>
<path d="M391.847 208.678L387.229 206.039C386.852 205.851 386.946 205.474 387.323 205.191L388.831 204.343C389.302 204.06 389.868 204.06 390.245 204.249L394.863 206.888C395.24 207.076 395.146 207.453 394.769 207.736L393.261 208.584C392.884 208.867 392.224 208.867 391.847 208.678Z" fill="#E4F2FD"/>
<path d="M398.915 212.731L394.297 210.092C393.92 209.904 394.015 209.527 394.391 209.244L395.899 208.396C396.371 208.113 396.936 208.113 397.313 208.301L401.931 210.94C402.308 211.129 402.214 211.506 401.837 211.789L400.329 212.637C399.952 212.919 399.292 212.92 398.915 212.731Z" fill="#E4F2FD"/>
<path d="M405.984 216.784L401.366 214.145C400.989 213.956 401.083 213.579 401.46 213.297L402.968 212.448C403.439 212.166 404.005 212.166 404.382 212.354L409 214.993C409.377 215.181 409.283 215.558 408.906 215.841L407.398 216.689C406.927 216.972 406.267 216.972 405.984 216.784Z" fill="#E4F2FD"/>
<path d="M445.191 239.497L440.573 236.859C440.196 236.67 440.29 236.293 440.667 236.01L442.175 235.162C442.647 234.879 443.212 234.879 443.589 235.068L448.207 237.707C448.584 237.895 448.49 238.272 448.113 238.555L446.605 239.403C446.228 239.686 445.568 239.686 445.191 239.497Z" fill="#E4F2FD"/>
<path d="M452.26 243.55L447.642 240.911C447.265 240.723 447.359 240.346 447.736 240.063L449.244 239.215C449.715 238.932 450.281 238.932 450.658 239.121L455.276 241.759C455.653 241.948 455.559 242.325 455.182 242.608L453.674 243.456C453.202 243.739 452.637 243.739 452.26 243.55Z" fill="#E4F2FD"/>
<path d="M459.234 247.603L454.616 244.964C454.239 244.775 454.333 244.398 454.71 244.116L456.218 243.267C456.69 242.985 457.255 242.985 457.632 243.173L462.25 245.812C462.627 246.001 462.533 246.378 462.156 246.66L460.648 247.509C460.271 247.791 459.611 247.791 459.234 247.603Z" fill="#E4F2FD"/>
<path d="M466.303 251.655L461.685 249.017C461.308 248.828 461.402 248.451 461.779 248.168L463.287 247.32C463.758 247.037 464.324 247.037 464.701 247.226L469.319 249.865C469.696 250.053 469.601 250.43 469.224 250.713L467.717 251.561C467.34 251.844 466.68 251.844 466.303 251.655Z" fill="#E4F2FD"/>
<path d="M396.654 219.8L392.035 217.161C391.658 216.972 391.753 216.595 392.13 216.312L396.654 213.673C397.125 213.391 397.69 213.391 398.067 213.579L402.685 216.218C403.062 216.407 402.968 216.784 402.591 217.066L398.067 219.705C397.69 219.988 397.031 220.082 396.654 219.8Z" fill="#E4F2FD"/>
<path d="M403.722 223.947L399.104 221.308C398.727 221.119 398.821 220.742 399.198 220.459L403.722 217.82C404.193 217.538 404.759 217.538 405.136 217.726L409.754 220.365C410.131 220.554 410.037 220.931 409.66 221.213L405.136 223.852C404.759 224.135 404.099 224.135 403.722 223.947Z" fill="#E4F2FD"/>
<path d="M410.885 227.999L406.267 225.36C405.89 225.172 405.984 224.795 406.361 224.512L410.885 221.873C411.356 221.59 411.922 221.59 412.299 221.779L416.917 224.418C417.294 224.606 417.2 224.983 416.823 225.266L412.299 227.905C411.827 228.188 411.168 228.188 410.885 227.999Z" fill="#E4F2FD"/>
<path d="M417.953 232.146L413.335 229.507C412.958 229.319 413.053 228.942 413.43 228.659L417.953 226.02C418.425 225.737 418.99 225.737 419.367 225.926L423.985 228.565C424.362 228.753 424.268 229.13 423.891 229.413L419.367 232.052C418.99 232.335 418.33 232.335 417.953 232.146Z" fill="#E4F2FD"/>
<path d="M425.022 236.199L420.404 233.56C420.027 233.371 420.121 232.994 420.498 232.712L425.022 230.073C425.493 229.79 426.059 229.79 426.436 229.978L431.054 232.617C431.431 232.806 431.337 233.183 430.96 233.466L426.436 236.105C426.059 236.387 425.399 236.387 425.022 236.199Z" fill="#E4F2FD"/>
<path d="M432.091 240.346L427.567 237.612C427.19 237.424 427.284 237.047 427.661 236.764L432.185 234.125C432.656 233.843 433.222 233.843 433.599 234.031L438.217 236.67C438.594 236.859 438.5 237.235 438.123 237.518L433.599 240.157C433.128 240.534 432.468 240.534 432.091 240.346Z" fill="#E4F2FD"/>
<path d="M439.254 244.398L434.635 241.759C434.258 241.571 434.353 241.194 434.73 240.911L439.254 238.272C439.725 237.99 440.29 237.99 440.667 238.178L445.285 240.817C445.662 241.005 445.568 241.382 445.191 241.665L440.667 244.304C440.29 244.587 439.631 244.587 439.254 244.398Z" fill="#E4F2FD"/>
<path d="M446.322 248.545L441.704 245.906C441.327 245.718 441.421 245.341 441.798 245.058L446.322 242.419C446.793 242.136 447.359 242.136 447.736 242.325L452.354 244.964C452.731 245.152 452.637 245.529 452.26 245.812L447.736 248.451C447.359 248.734 446.699 248.734 446.322 248.545Z" fill="#E4F2FD"/>
<path d="M453.391 252.598L448.773 249.959C448.396 249.771 448.49 249.394 448.867 249.111L453.391 246.472C453.862 246.189 454.428 246.189 454.805 246.378L459.423 249.017C459.8 249.205 459.705 249.582 459.328 249.865L454.805 252.504C454.428 252.786 453.768 252.786 453.391 252.598Z" fill="#E4F2FD"/>
<path d="M356.033 220.365L342.461 212.543C342.084 212.354 342.178 211.977 342.555 211.694L347.079 209.055C347.55 208.773 348.116 208.773 348.493 208.961L362.064 216.784C362.441 216.972 362.347 217.349 361.97 217.632L357.446 220.271C357.069 220.554 356.41 220.554 356.033 220.365Z" fill="#E4F2FD"/>
<path d="M443.306 270.694L429.735 262.871C429.358 262.683 429.452 262.306 429.829 262.023L434.353 259.384C434.824 259.101 435.39 259.101 435.767 259.29L449.338 267.112C449.715 267.301 449.621 267.678 449.244 267.96L444.72 270.599C444.249 270.882 443.589 270.882 443.306 270.694Z" fill="#E4F2FD"/>
<path d="M414.843 263.342L410.225 260.703C409.848 260.515 409.942 260.138 410.319 259.855L415.786 256.745C416.257 256.462 416.823 256.462 417.2 256.651L421.818 259.29C422.195 259.478 422.1 259.855 421.723 260.138L416.257 263.248C415.88 263.531 415.22 263.531 414.843 263.342Z" fill="#E4F2FD"/>
<path d="M363.384 233.56L356.032 229.319C355.655 229.13 355.75 228.753 356.127 228.47L361.593 225.36C362.064 225.078 362.63 225.078 363.007 225.266L370.358 229.507C370.735 229.696 370.641 230.073 370.264 230.355L364.797 233.466C364.326 233.748 363.667 233.748 363.384 233.56Z" fill="#E4F2FD"/>
<path d="M408.058 259.384L400.706 255.143C400.329 254.954 400.423 254.577 400.8 254.294L406.267 251.184C406.738 250.902 407.304 250.902 407.681 251.09L415.032 255.331C415.409 255.52 415.315 255.897 414.938 256.179L409.471 259.29C409.094 259.572 408.435 259.572 408.058 259.384Z" fill="#E4F2FD"/>
<path d="M373.563 239.497L366.211 235.256C365.834 235.068 365.929 234.691 366.306 234.408L371.772 231.298C372.243 231.015 372.809 231.015 373.186 231.204L380.537 235.445C380.914 235.633 380.82 236.01 380.443 236.293L374.976 239.403C374.599 239.686 373.94 239.686 373.563 239.497Z" fill="#E4F2FD"/>
<path d="M373.28 231.204L405.23 249.676C405.607 249.865 405.607 250.242 405.23 250.525L399.669 253.729C399.292 253.917 398.633 253.917 398.256 253.729L366.306 235.256L373.28 231.204Z" fill="#E4F2FD"/>
<path d="M434.73 270.788L439.819 273.709C440.102 273.898 440.102 274.181 439.725 274.369L437.463 275.689C437.086 275.877 436.615 275.877 436.238 275.783L431.148 272.861C430.866 272.673 430.866 272.39 431.243 272.202L433.504 270.882C433.881 270.599 434.447 270.599 434.73 270.788Z" fill="#E4F2FD"/>
<path d="M427.567 266.641L432.656 269.563C432.939 269.751 432.939 270.034 432.562 270.222L430.394 271.542C430.017 271.73 429.546 271.73 429.169 271.636L424.08 268.714C423.797 268.526 423.797 268.243 424.174 268.055L426.436 266.735C426.719 266.452 427.284 266.452 427.567 266.641Z" fill="#E4F2FD"/>
<path d="M420.498 262.494L425.588 265.416C425.87 265.604 425.87 265.887 425.493 266.075L423.231 267.395C422.855 267.583 422.383 267.583 422.006 267.489L416.917 264.568C416.634 264.379 416.634 264.096 417.011 263.908L419.273 262.588C419.65 262.4 420.121 262.4 420.498 262.494Z" fill="#E4F2FD"/>
<path d="M431.525 264.379L436.615 267.301C436.897 267.489 436.897 267.772 436.52 267.96L434.258 269.28C433.881 269.468 433.41 269.468 433.033 269.374L427.944 266.452C427.661 266.264 427.661 265.981 428.038 265.793L430.3 264.473C430.677 264.19 431.148 264.19 431.525 264.379Z" fill="#E4F2FD"/>
<path d="M505.322 252.598L373.845 176.634C371.772 175.503 370.735 172.581 371.489 170.225L400.8 75.0345C401.554 72.6783 403.816 71.7358 405.796 72.8668L537.272 148.831C539.345 149.962 540.382 152.883 539.628 155.24L510.317 250.43C509.563 252.786 507.395 253.729 505.322 252.598Z" fill="url(#paint0_linear_0_1)"/>
<path opacity="0.4" d="M505.322 252.598L373.845 176.634C371.772 175.503 370.735 172.581 371.489 170.225L400.8 75.0345C401.554 72.6783 403.816 71.7358 405.796 72.8668L537.272 148.831C539.345 149.962 540.382 152.883 539.628 155.24L510.317 250.43C509.563 252.786 507.395 253.729 505.322 252.598Z" fill="#06033E"/>
<path d="M505.322 252.598L373.845 176.634C371.772 175.503 370.735 172.581 371.489 170.225L400.8 75.0345C401.554 72.6783 403.816 71.7358 405.796 72.8668L537.272 148.831C539.345 149.962 540.382 152.883 539.628 155.24L510.317 250.43C509.563 252.786 507.395 253.729 505.322 252.598Z" fill="white"/>
<path opacity="0.2" d="M499.626 242.634L383.36 175.397C381.527 174.396 380.61 171.81 381.277 169.724L407.197 85.4692C407.864 83.3837 409.864 82.5495 411.614 83.5505L527.88 150.788C529.714 151.789 530.631 154.375 529.964 156.46L504.044 240.715C503.377 242.801 501.46 243.635 499.626 242.634Z" fill="#039DDF"/>
<path d="M373.94 278.422C372.714 278.422 371.584 278.139 370.641 277.668L335.015 257.122C334.073 256.556 333.507 255.802 333.507 254.954C333.507 253.917 334.261 252.975 335.486 252.221L353.865 241.665C356.127 240.346 359.426 240.251 361.405 241.382L397.031 261.929C397.973 262.494 398.538 263.248 398.538 264.096C398.538 265.133 397.784 266.075 396.559 266.829L378.181 277.385C376.956 278.139 375.353 278.422 373.94 278.422ZM358.012 241.571C356.692 241.571 355.373 241.854 354.336 242.513L335.958 253.069C335.015 253.635 334.544 254.294 334.544 254.86C334.544 255.52 335.015 255.897 335.486 256.179L371.112 276.726C372.714 277.668 375.73 277.574 377.615 276.443L395.994 265.887C396.936 265.321 397.407 264.662 397.407 264.096C397.407 263.437 396.936 263.06 396.465 262.777L360.839 242.136C360.085 241.759 359.049 241.571 358.012 241.571Z" fill="#E4F2FD"/>
</g>
<g filter="url(#filter1_d_0_1)">
<path d="M206.087 187.68C178.56 208.862 148.912 231.681 116.888 256.336C69.1874 219.702 78.3401 145.526 30.8444 107.29C66.1815 88.3877 98.8964 70.8811 129.278 54.629C169.916 89.8412 165.363 153.705 206.087 187.68Z" fill="white"/>
</g>
<path d="M129.17 84.5677C112.48 94.1024 95.1019 104.035 76.9846 114.394C75.3094 111.857 73.5231 109.376 71.6106 106.968C89.858 96.761 107.359 86.9684 124.164 77.5608C125.945 79.8429 127.605 82.1779 129.17 84.5677Z" fill="#E4F2FD"/>
<path d="M74.4032 134.549C71.8946 136.04 69.3696 137.531 66.8357 139.036C65.6524 136.637 64.416 134.276 63.1037 131.959C65.6485 130.473 68.1844 129.001 70.6977 127.533C72.0027 129.837 73.2282 132.178 74.4032 134.549Z" fill="#E4F2FD"/>
<path d="M146.138 87.9023C123.823 101.013 100.233 114.877 75.2541 129.56C74.6236 128.366 73.9804 127.179 73.3157 126.013C98.3467 111.435 121.985 97.6693 144.351 84.6467C144.961 85.718 145.556 86.8065 146.138 87.9023Z" fill="#E4F2FD"/>
<path d="M149.398 94.4094C127.166 107.708 103.66 121.776 78.7656 136.663C78.1982 135.433 77.6119 134.213 77.013 133C101.95 118.216 125.495 104.259 147.766 91.0563C148.322 92.1667 148.867 93.2844 149.398 94.4094Z" fill="#E4F2FD"/>
<path d="M68.791 136.981C68.6962 137.036 68.5958 137.051 68.4998 137.031C67.4103 136.793 66.3172 136.548 65.2114 136.31C65.0094 136.267 64.8891 136.058 64.9614 135.848C65.0338 135.638 65.2512 135.504 65.4595 135.544C66.4231 135.754 67.3831 135.958 68.3404 136.171C68.9684 133.349 69.5522 130.553 70.0928 127.798C70.1326 127.59 70.3391 127.437 70.5527 127.457C70.7663 127.476 70.9083 127.664 70.8685 127.872C70.2942 130.773 69.673 133.709 69.005 136.68C68.9756 136.79 68.91 136.895 68.8126 136.96C68.8099 136.97 68.8036 136.974 68.791 136.981Z" fill="#039DDF" fill-opacity="0.3"/>
<path d="M82.4221 153.209C79.93 154.757 77.4279 156.303 74.9042 157.87C73.941 155.326 72.95 152.807 71.9146 150.314C74.4366 148.773 76.9497 147.246 79.45 145.727C80.4708 148.195 81.4572 150.692 82.4221 153.209Z" fill="#E4F2FD"/>
<path d="M153.916 104.714C131.777 118.321 108.372 132.71 83.5831 147.94C83.0753 146.666 82.5648 145.403 82.038 144.14C106.857 129.02 130.295 114.746 152.459 101.242C152.956 102.396 153.437 103.55 153.916 104.714Z" fill="#E4F2FD"/>
<path d="M156.641 111.58C134.555 125.393 111.199 139.998 86.4666 155.473C85.9903 154.181 85.5041 152.887 85.0152 151.602C109.778 136.253 133.157 121.761 155.269 108.051C155.729 109.226 156.188 110.401 156.641 111.58Z" fill="#E4F2FD"/>
<path d="M76.9122 155.716C76.8175 155.771 76.7208 155.793 76.6311 155.769C75.6084 155.5 74.5857 155.232 73.5567 154.967C73.361 154.92 73.2723 154.693 73.3536 154.469C73.4349 154.245 73.6587 154.108 73.848 154.158C74.7475 154.389 75.6407 154.623 76.5338 154.857C77.3322 151.877 78.1089 148.919 78.8549 145.995C78.9137 145.776 79.1166 145.616 79.3175 145.644C79.5185 145.671 79.6352 145.873 79.5765 146.092C78.794 149.172 77.9772 152.28 77.1326 155.412C77.1005 155.532 77.025 155.634 76.9312 155.705C76.9249 155.709 76.9186 155.713 76.9122 155.716Z" fill="#039DDF" fill-opacity="0.3"/>
<path d="M89.397 172.657C86.9151 174.267 84.4233 175.874 81.9161 177.498C81.0115 174.896 80.1132 172.289 79.206 169.697C81.7177 168.095 84.2205 166.507 86.7007 164.923C87.5971 167.497 88.497 170.077 89.397 172.657Z" fill="#E4F2FD"/>
<path d="M160.637 122.278C138.616 136.424 115.326 151.378 90.6621 167.218C90.2012 165.909 89.7429 164.59 89.282 163.281C113.973 147.56 137.279 132.723 159.323 118.69C159.765 119.893 160.199 121.082 160.637 122.278Z" fill="#E4F2FD"/>
<path d="M163.209 129.301C141.227 143.66 117.977 158.843 93.3538 174.929C92.8892 173.614 92.431 172.295 91.9764 170.983C116.624 155.026 139.897 139.955 161.892 125.706C162.329 126.902 162.771 128.105 163.209 129.301Z" fill="#E4F2FD"/>
<path d="M83.923 175.27C83.8319 175.331 83.7315 175.347 83.6419 175.323C82.6454 175.056 81.6453 174.782 80.6489 174.515C80.4595 174.465 80.3771 174.234 80.4647 174.007C80.5487 173.773 80.7689 173.629 80.9582 173.68C81.8351 173.915 82.7056 174.153 83.5725 174.386C84.4238 171.308 85.2697 168.251 86.1004 165.211C86.1681 164.978 86.3709 164.819 86.562 164.843C86.753 164.868 86.8571 165.077 86.7957 165.306C85.9187 168.5 85.03 171.716 84.1423 174.95C84.1103 175.069 84.0321 175.182 83.9383 175.253C83.942 175.259 83.9356 175.263 83.923 175.27Z" fill="#039DDF" fill-opacity="0.3"/>
<path d="M96.4599 192.214C93.9946 193.882 91.5103 195.56 89.0134 197.246C88.0257 194.675 87.0632 192.089 86.126 189.488C88.6276 187.825 91.1165 186.169 93.5901 184.53C94.5227 187.108 95.4768 189.665 96.4599 192.214Z" fill="#E4F2FD"/>
<path d="M167.257 140.061C145.347 154.749 122.168 170.288 97.6091 186.749C97.1255 185.445 96.6384 184.134 96.1611 182.826C120.74 166.488 143.946 151.069 165.882 136.483C166.336 137.678 166.796 138.87 167.257 140.061Z" fill="#E4F2FD"/>
<path d="M170.045 146.992C148.184 161.896 125.064 177.654 100.563 194.36C100.044 193.068 99.5351 191.778 99.029 190.478C123.561 173.897 146.71 158.249 168.601 143.454C169.074 144.639 169.553 145.819 170.045 146.992Z" fill="#E4F2FD"/>
<path d="M90.9947 194.974C90.9036 195.035 90.8069 195.057 90.7109 195.036C89.6964 194.797 88.6784 194.55 87.6639 194.311C87.4746 194.26 87.3895 194.04 87.4635 193.803C87.5475 193.569 87.764 193.419 87.9597 193.466C88.8419 193.681 89.7304 193.893 90.6189 194.104C91.4041 191.014 92.2019 187.917 93.007 184.833C93.0648 184.597 93.2766 184.424 93.4676 184.449C93.6587 184.473 93.769 184.679 93.7113 184.915C92.8698 188.155 92.0319 191.401 91.214 194.653C91.182 194.773 91.1101 194.882 91.02 194.959C91.0037 194.96 90.9974 194.964 90.9947 194.974Z" fill="#039DDF" fill-opacity="0.3"/>
<path d="M104.728 211.101C102.279 212.826 99.8111 214.563 97.3343 216.313C96.1102 213.886 94.9493 211.423 93.8352 208.924C96.3202 207.203 98.7989 205.486 101.252 203.783C102.362 206.259 103.518 208.699 104.728 211.101Z" fill="#E4F2FD"/>
<path d="M174.703 157.409C152.946 172.624 129.934 188.715 105.542 205.771C104.951 204.528 104.369 203.272 103.81 202.012C128.235 185.071 151.293 169.089 173.088 153.97C173.622 155.127 174.154 156.269 174.703 157.409Z" fill="#E4F2FD"/>
<path d="M178.075 163.978C156.404 179.387 133.483 195.678 109.188 212.947C108.538 211.748 107.903 210.531 107.28 209.307C131.62 192.146 154.597 175.95 176.316 160.639C176.886 161.758 177.473 162.877 178.075 163.978Z" fill="#E4F2FD"/>
<path d="M99.2296 214.022C99.1385 214.083 99.0355 214.109 98.9432 214.095C97.8665 213.908 96.7936 213.727 95.7233 213.537C95.5186 213.503 95.4172 213.284 95.4886 213.057C95.5563 212.824 95.7791 212.671 95.9774 212.708C96.9092 212.877 97.8473 213.043 98.7817 213.203C99.3781 210.18 100.01 207.145 100.67 204.102C100.722 203.87 100.924 203.695 101.127 203.712C101.331 203.729 101.454 203.928 101.402 204.16C100.718 207.351 100.06 210.544 99.4463 213.712C99.4206 213.828 99.3523 213.943 99.2586 214.014C99.2486 214.011 99.2423 214.015 99.2296 214.022Z" fill="#039DDF" fill-opacity="0.3"/>
<path d="M115.265 228.433C112.845 230.209 110.417 231.998 107.966 233.793C106.369 231.64 104.86 229.42 103.429 227.146C105.888 225.365 108.337 223.597 110.768 221.84C112.191 224.101 113.686 226.296 115.265 228.433Z" fill="#E4F2FD"/>
<path d="M183.885 173.603C162.384 189.277 139.636 205.855 115.539 223.423C114.776 222.305 114.035 221.167 113.308 220.011C137.476 202.537 160.291 186.046 181.853 170.464C182.515 171.522 183.195 172.57 183.885 173.603Z" fill="#E4F2FD"/>
<path d="M188.173 179.5C166.809 195.322 144.215 212.064 120.266 229.799C119.411 228.743 118.589 227.668 117.785 226.582C141.814 208.927 164.492 192.271 185.929 176.517C186.656 177.529 187.405 178.52 188.173 179.5Z" fill="#E4F2FD"/>
<path d="M109.729 231.536C109.641 231.604 109.532 231.633 109.427 231.626C108.255 231.537 107.086 231.437 105.923 231.334C105.703 231.317 105.563 231.12 105.616 230.904C105.664 230.682 105.877 230.526 106.097 230.542C107.109 230.632 108.125 230.727 109.149 230.81C109.442 227.962 109.792 225.081 110.18 222.179C110.213 221.958 110.405 221.78 110.624 221.78C110.836 221.783 110.987 221.957 110.959 222.185C110.553 225.232 110.205 228.246 109.907 231.232C109.894 231.34 109.838 231.448 109.748 231.525C109.748 231.525 109.735 231.533 109.729 231.536Z" fill="#039DDF" fill-opacity="0.3"/>
<g filter="url(#filter2_d_0_1)">
<path d="M282.516 196.264C242.471 212.916 199.339 230.857 152.748 250.243C107.056 190.643 142.066 104.139 97.1393 42.6752C145.867 31.2969 190.982 20.755 232.877 10.972C270.509 66.5736 244.38 142.127 282.516 196.264Z" fill="white"/>
<path d="M223.071 47.0456C199.86 53.1516 175.691 59.5146 150.492 66.1534C149.292 62.5525 147.939 58.9828 146.411 55.4603C171.717 49.0473 195.989 42.8924 219.298 36.9769C220.708 40.3048 221.956 43.6575 223.071 47.0456Z" fill="#E4F2FD"/>
<path d="M140.865 89.6284C137.358 90.6154 133.831 91.5982 130.288 92.5946C129.637 89.318 128.908 86.0715 128.074 82.8532C131.624 81.8832 135.158 80.9268 138.664 79.9686C139.493 83.1693 140.214 86.3894 140.865 89.6284Z" fill="#E4F2FD"/>
<path d="M242.459 56.551C211.308 65.1524 178.376 74.25 143.504 83.8861C143.13 82.242 142.737 80.6027 142.312 78.9815C177.213 69.4885 210.172 60.5253 241.355 52.047C241.745 53.5362 242.111 55.0412 242.459 56.551Z" fill="#E4F2FD"/>
<path d="M244.287 65.4526C213.176 74.3074 180.28 83.6784 145.444 93.5879C145.157 91.9202 144.844 90.2596 144.514 88.6038C179.367 78.8309 212.275 69.6078 243.402 60.8809C243.715 62.4001 244.01 63.924 244.287 65.4526Z" fill="#E4F2FD"/>
<path d="M133.311 90.7475C133.179 90.7829 133.053 90.7696 132.943 90.714C131.707 90.0742 130.467 89.4256 129.21 88.7817C128.981 88.6641 128.903 88.3737 129.058 88.1436C129.213 87.9134 129.519 87.8221 129.757 87.9374C130.852 88.5022 131.944 89.0583 133.029 89.6255C134.698 86.4248 136.306 83.2406 137.849 80.0928C137.964 79.8545 138.262 79.7368 138.514 79.8298C138.765 79.9228 138.875 80.1949 138.76 80.4332C137.13 83.7459 135.432 87.0863 133.666 90.4544C133.595 90.5771 133.482 90.6828 133.344 90.7293C133.337 90.7405 133.328 90.7428 133.311 90.7475Z" fill="#039DDF" fill-opacity="0.3"/>
<path d="M144.507 114.725C141.001 115.787 137.484 116.843 133.933 117.917C133.594 114.538 133.213 111.179 132.77 107.837C136.309 106.794 139.833 105.765 143.34 104.741C143.774 108.048 144.157 111.377 144.507 114.725Z" fill="#E4F2FD"/>
<path d="M246.406 79.3404C215.308 88.5972 182.43 98.3876 147.61 108.745C147.409 107.045 147.202 105.356 146.974 103.663C181.794 93.4471 214.675 83.8069 245.771 74.6828C245.998 76.2343 246.205 77.7818 246.406 79.3404Z" fill="#E4F2FD"/>
<path d="M247.474 88.5023C216.372 98.0242 183.483 108.091 148.653 118.763C148.496 117.051 148.328 115.333 148.153 113.625C182.979 103.115 215.86 93.1922 246.96 83.8028C247.134 85.3685 247.309 86.9343 247.474 88.5023Z" fill="#E4F2FD"/>
<path d="M137.051 115.969C136.919 116.004 136.795 115.999 136.695 115.941C135.548 115.287 134.402 114.632 133.246 113.98C133.026 113.86 132.992 113.558 133.162 113.314C133.333 113.071 133.647 112.977 133.859 113.099C134.869 113.668 135.871 114.239 136.873 114.809C138.798 111.474 140.691 108.157 142.536 104.871C142.678 104.626 142.974 104.5 143.207 104.597C143.441 104.695 143.516 104.976 143.375 105.222C141.436 108.683 139.446 112.168 137.415 115.673C137.338 115.807 137.214 115.906 137.078 115.961C137.069 115.964 137.06 115.966 137.051 115.969Z" fill="#039DDF" fill-opacity="0.3"/>
<path d="M146.634 140.435C143.12 141.574 139.596 142.708 136.047 143.856C135.797 140.425 135.556 136.991 135.299 133.571C138.846 132.451 142.378 131.344 145.881 130.236C146.131 133.63 146.382 137.032 146.634 140.435Z" fill="#E4F2FD"/>
<path d="M248.836 102.697C217.705 112.641 184.784 123.15 149.917 134.284C149.785 132.556 149.658 130.818 149.525 129.09C184.385 118.108 217.289 107.745 248.411 97.9448C248.555 99.5375 248.694 101.113 248.836 102.697Z" fill="#E4F2FD"/>
<path d="M249.668 111.997C218.516 122.212 185.568 133.011 150.672 144.454C150.537 142.718 150.41 140.979 150.286 139.249C185.17 127.969 218.109 117.314 249.241 107.237C249.383 108.821 249.527 110.413 249.668 111.997Z" fill="#E4F2FD"/>
<path d="M139.187 141.817C139.058 141.862 138.932 141.848 138.831 141.79C137.716 141.146 136.598 140.493 135.482 139.849C135.27 139.727 135.245 139.422 135.425 139.176C135.602 138.922 135.914 138.819 136.126 138.942C137.107 139.508 138.08 140.077 139.051 140.638C141.072 137.201 143.08 133.787 145.064 130.389C145.221 130.13 145.517 130.004 145.74 130.095C145.962 130.186 146.02 130.472 145.872 130.729C143.782 134.297 141.671 137.889 139.556 141.502C139.478 141.636 139.348 141.746 139.211 141.802C139.214 141.81 139.205 141.813 139.187 141.817Z" fill="#039DDF" fill-opacity="0.3"/>
<path d="M148.832 166.305C145.32 167.519 141.781 168.741 138.225 169.967C137.865 166.547 137.54 163.117 137.25 159.677C140.804 158.48 144.341 157.287 147.854 156.11C148.146 159.52 148.47 162.913 148.832 166.305Z" fill="#E4F2FD"/>
<path d="M251.073 126.284C219.901 136.918 186.924 148.168 151.984 160.086C151.823 158.356 151.659 156.618 151.506 154.886C186.43 143.124 219.401 132.026 250.571 121.524C250.732 123.112 250.903 124.698 251.073 126.284Z" fill="#E4F2FD"/>
<path d="M252.196 135.544C221.014 146.455 188.036 157.988 153.087 170.219C152.879 168.493 152.682 166.773 152.492 165.041C187.437 152.972 220.415 141.58 251.598 130.811C251.785 132.392 251.982 133.97 252.196 135.544Z" fill="#E4F2FD"/>
<path d="M141.349 167.867C141.219 167.911 141.096 167.906 140.986 167.851C139.84 167.234 138.692 166.608 137.546 165.991C137.334 165.869 137.303 165.575 137.468 165.314C137.645 165.059 137.955 164.948 138.176 165.068C139.17 165.612 140.174 166.155 141.177 166.697C143.122 163.224 145.085 159.746 147.053 156.287C147.199 156.021 147.51 155.881 147.733 155.973C147.955 156.064 148.022 156.348 147.876 156.613C145.814 160.249 143.755 163.894 141.717 167.551C141.64 167.685 141.518 167.793 141.384 167.857C141.364 167.853 141.356 167.856 141.349 167.867Z" fill="#039DDF" fill-opacity="0.3"/>
<path d="M152.7 191.756C149.189 193.045 145.652 194.342 142.099 195.652C141.407 192.33 140.803 188.984 140.266 185.611C143.82 184.338 147.364 183.068 150.874 181.807C151.411 185.151 152.017 188.469 152.7 191.756Z" fill="#E4F2FD"/>
<path d="M254.448 149.613C223.29 160.932 190.335 172.902 155.405 185.59C155.093 183.901 154.797 182.198 154.53 180.497C189.463 167.959 222.438 156.134 253.611 144.943C253.881 146.512 254.154 148.06 254.448 149.613Z" fill="#E4F2FD"/>
<path d="M256.391 158.625C225.275 170.206 192.365 182.448 157.483 195.424C157.086 193.767 156.714 192.095 156.358 190.417C191.26 177.586 224.206 165.477 255.348 154.03C255.675 155.564 256.021 157.103 256.391 158.625Z" fill="#E4F2FD"/>
<path d="M145.125 193.503C144.995 193.547 144.863 193.544 144.756 193.498C143.518 192.924 142.282 192.359 141.053 191.784C140.817 191.677 140.766 191.38 140.925 191.13C141.082 190.871 141.4 190.757 141.627 190.866C142.696 191.372 143.774 191.875 144.85 192.369C146.546 188.916 148.288 185.46 150.068 182.004C150.205 181.741 150.505 181.594 150.745 181.681C150.986 181.767 151.07 182.046 150.933 182.309C149.076 185.937 147.251 189.576 145.487 193.198C145.418 193.33 145.299 193.447 145.162 193.502C145.151 193.495 145.143 193.498 145.125 193.503Z" fill="#039DDF" fill-opacity="0.3"/>
<path d="M159.808 216.065C156.316 217.425 152.808 218.798 149.272 220.17C148.042 217.058 146.939 213.893 145.949 210.688C149.49 209.334 153.015 207.993 156.515 206.66C157.501 209.847 158.594 212.977 159.808 216.065Z" fill="#E4F2FD"/>
<path d="M260.288 172.112C229.291 184.067 196.498 196.71 161.758 210.111C161.199 208.516 160.672 206.904 160.17 205.275C194.965 192.01 227.811 179.494 258.852 167.669C259.308 169.159 259.79 170.642 260.288 172.112Z" fill="#E4F2FD"/>
<path d="M263.555 180.609C232.674 192.787 200.014 205.678 165.397 219.329C164.708 217.779 164.063 216.216 163.445 214.647C198.132 201.119 230.865 188.359 261.812 176.286C262.362 177.742 262.945 179.179 263.555 180.609Z" fill="#E4F2FD"/>
<path d="M152.128 218.019C152.001 218.072 151.859 218.072 151.735 218.03C150.35 217.543 148.972 217.045 147.603 216.544C147.343 216.453 147.238 216.17 147.371 215.927C147.502 215.675 147.809 215.555 148.069 215.646C149.261 216.081 150.455 216.525 151.664 216.955C152.938 213.615 154.291 210.254 155.696 206.879C155.807 206.623 156.096 206.47 156.36 206.541C156.616 206.614 156.741 206.872 156.633 207.137C155.159 210.681 153.765 214.205 152.441 217.709C152.39 217.836 152.288 217.948 152.154 218.012C152.154 218.012 152.137 218.017 152.128 218.019Z" fill="#039DDF" fill-opacity="0.3"/>
</g>
<defs>
<filter id="filter0_d_0_1" x="243" y="61" width="330" height="304.302" filterUnits="userSpaceOnUse" color-interpolation-filters="sRGB">
<feFlood flood-opacity="0" result="BackgroundImageFix"/>
<feColorMatrix in="SourceAlpha" type="matrix" values="0 0 0 0 0 0 0 0 0 0 0 0 0 0 0 0 0 0 127 0" result="hardAlpha"/>
<feOffset dy="20"/>
<feGaussianBlur stdDeviation="15"/>
<feComposite in2="hardAlpha" operator="out"/>
<feColorMatrix type="matrix" values="0 0 0 0 0.25474 0 0 0 0 0.517844 0 0 0 0 0.9125 0 0 0 0.07 0"/>
<feBlend mode="normal" in2="BackgroundImageFix" result="effect1_dropShadow_0_1"/>
<feBlend mode="normal" in="SourceGraphic" in2="effect1_dropShadow_0_1" result="shape"/>
</filter>
<filter id="filter1_d_0_1" x="0.844391" y="44.629" width="235.242" height="261.707" filterUnits="userSpaceOnUse" color-interpolation-filters="sRGB">
<feFlood flood-opacity="0" result="BackgroundImageFix"/>
<feColorMatrix in="SourceAlpha" type="matrix" values="0 0 0 0 0 0 0 0 0 0 0 0 0 0 0 0 0 0 127 0" result="hardAlpha"/>
<feOffset dy="20"/>
<feGaussianBlur stdDeviation="15"/>
<feComposite in2="hardAlpha" operator="out"/>
<feColorMatrix type="matrix" values="0 0 0 0 0.25474 0 0 0 0 0.517844 0 0 0 0 0.9125 0 0 0 0.07 0"/>
<feBlend mode="normal" in2="BackgroundImageFix" result="effect1_dropShadow_0_1"/>
<feBlend mode="normal" in="SourceGraphic" in2="effect1_dropShadow_0_1" result="shape"/>
</filter>
<filter id="filter2_d_0_1" x="67.1393" y="0.971981" width="245.377" height="299.271" filterUnits="userSpaceOnUse" color-interpolation-filters="sRGB">
<feFlood flood-opacity="0" result="BackgroundImageFix"/>
<feColorMatrix in="SourceAlpha" type="matrix" values="0 0 0 0 0 0 0 0 0 0 0 0 0 0 0 0 0 0 127 0" result="hardAlpha"/>
<feOffset dy="20"/>
<feGaussianBlur stdDeviation="15"/>
<feComposite in2="hardAlpha" operator="out"/>
<feColorMatrix type="matrix" values="0 0 0 0 0.25474 0 0 0 0 0.517844 0 0 0 0 0.9125 0 0 0 0.07 0"/>
<feBlend mode="normal" in2="BackgroundImageFix" result="effect1_dropShadow_0_1"/>
<feBlend mode="normal" in="SourceGraphic" in2="effect1_dropShadow_0_1" result="shape"/>
</filter>
<linearGradient id="paint0_linear_0_1" x1="371.193" y1="162.73" x2="539.865" y2="162.73" gradientUnits="userSpaceOnUse">
<stop stop-color="#3919BB"/>
<stop offset="1" stop-color="#6507FA"/>
</linearGradient>
</defs>
</svg>