<svg width="360" height="291" viewBox="0 0 360 291" fill="none" xmlns="http://www.w3.org/2000/svg">
<g filter="url(#filter0_d_0_1)">
<path opacity="0.1" d="M371.938 111.266L269.678 52.1171C268.967 51.6895 268.256 51.6182 267.616 51.832L266.858 52.0933L266.336 52.6159C266.051 52.901 265.838 53.3285 265.696 53.7561L242.584 129.01C242.015 130.863 242.869 133.143 244.433 134.07L346.764 193.29C346.977 193.432 347.262 193.504 347.546 193.575L347.262 194.145L349.039 193.504C349.751 193.218 350.391 192.577 350.675 191.579L373.787 116.325C374.427 114.472 373.573 112.192 371.938 111.266Z" fill="#039DDF"/>
<path opacity="0.1" d="M343.813 197.246L240.217 137.423C238.685 136.548 236.058 136.621 234.234 137.642L167.262 176.308L165 175.433L165.657 178.57C165.73 179.008 166.094 179.518 166.678 179.81L271.295 240.217C272.828 241.092 275.454 241.02 277.278 239.998L344.396 201.259C345.199 200.748 345.71 200.165 345.855 199.581L346.512 196.517L343.813 197.246Z" fill="#039DDF"/>
<path d="M271.441 237.518L166.094 176.673C164.562 175.798 164.781 174.266 166.532 173.244L234.161 134.213C235.912 133.192 238.612 133.046 240.144 133.994L345.491 194.839C347.023 195.714 346.804 197.247 345.053 198.268L277.424 237.299C275.673 238.32 272.973 238.393 271.441 237.518Z" fill="white"/>
<path d="M345.053 197.392L277.424 236.423C275.673 237.445 272.973 237.591 271.441 236.642L166.021 175.871C165.511 175.579 165.219 175.214 165.073 174.776C164.854 175.506 165.146 176.163 166.021 176.673L271.368 237.518C272.9 238.393 275.6 238.32 277.351 237.299L344.98 198.268C346.147 197.611 346.585 196.663 346.366 195.933C346.293 196.444 345.855 196.955 345.053 197.392Z" fill="white"/>
<path d="M216.287 166.824L212.713 164.781C212.421 164.636 212.494 164.344 212.786 164.125L217.017 161.717C217.382 161.499 217.819 161.499 218.111 161.644L221.686 163.687C221.978 163.833 221.905 164.125 221.613 164.344L217.382 166.751C217.09 166.97 216.579 166.97 216.287 166.824Z" fill="#E4F2FD"/>
<path d="M221.832 169.961L218.257 167.919C217.965 167.773 218.038 167.481 218.33 167.262L222.561 164.854C222.926 164.636 223.364 164.636 223.656 164.781L227.231 166.824C227.522 166.97 227.449 167.262 227.158 167.481L222.926 169.888C222.561 170.107 222.124 170.18 221.832 169.961Z" fill="#E4F2FD"/>
<path d="M227.304 173.171L223.729 171.129C223.437 170.983 223.51 170.691 223.802 170.472L228.033 168.064C228.398 167.846 228.836 167.846 229.127 167.992L232.702 170.034C232.994 170.18 232.921 170.472 232.629 170.691L228.398 173.098C228.106 173.317 227.595 173.317 227.304 173.171Z" fill="#E4F2FD"/>
<path d="M234.891 170.545L231.316 168.502C231.024 168.356 231.097 168.064 231.389 167.846L234.891 165.803C235.256 165.584 235.694 165.584 235.985 165.73L239.56 167.773C239.852 167.919 239.779 168.21 239.487 168.429L235.985 170.472C235.694 170.691 235.183 170.691 234.891 170.545Z" fill="#E4F2FD"/>
<path d="M240.362 173.682L236.788 171.639C236.496 171.493 236.569 171.201 236.861 170.983L240.362 168.94C240.727 168.721 241.165 168.721 241.457 168.867L245.032 170.91C245.323 171.056 245.25 171.347 244.959 171.566L241.457 173.609C241.165 173.828 240.654 173.901 240.362 173.682Z" fill="#E4F2FD"/>
<path d="M245.907 176.892L242.332 174.849C242.04 174.703 242.113 174.412 242.405 174.193L245.907 172.15C246.272 171.931 246.71 171.931 247.001 172.077L250.576 174.12C250.868 174.266 250.795 174.557 250.503 174.776L247.001 176.819C246.71 177.038 246.199 177.038 245.907 176.892Z" fill="#E4F2FD"/>
<path d="M251.379 180.029L247.804 177.986C247.512 177.84 247.585 177.549 247.877 177.33L251.379 175.287C251.744 175.068 252.181 175.068 252.473 175.214L256.048 177.257C256.34 177.403 256.267 177.695 255.975 177.913L252.473 179.956C252.181 180.175 251.671 180.248 251.379 180.029Z" fill="#E4F2FD"/>
<path d="M256.85 183.239L253.276 181.196C252.984 181.05 253.057 180.759 253.349 180.54L256.85 178.497C257.215 178.278 257.653 178.278 257.945 178.424L261.52 180.467C261.811 180.613 261.738 180.905 261.447 181.123L257.945 183.166C257.653 183.385 257.142 183.385 256.85 183.239Z" fill="#E4F2FD"/>
<path d="M262.395 186.376L258.82 184.333C258.528 184.187 258.601 183.896 258.893 183.677L262.395 181.634C262.76 181.415 263.197 181.415 263.489 181.561L267.064 183.604C267.356 183.75 267.283 184.042 266.991 184.26L263.489 186.303C263.124 186.522 262.687 186.595 262.395 186.376Z" fill="#E4F2FD"/>
<path d="M267.867 189.586L264.292 187.543C264 187.397 264.073 187.106 264.365 186.887L267.867 184.844C268.231 184.625 268.669 184.625 268.961 184.771L272.536 186.814C272.828 186.96 272.755 187.252 272.463 187.47L268.961 189.513C268.669 189.732 268.158 189.732 267.867 189.586Z" fill="#E4F2FD"/>
<path d="M273.338 192.723L269.763 190.681C269.472 190.535 269.545 190.243 269.836 190.024L273.338 187.981C273.703 187.762 274.141 187.762 274.433 187.908L278.007 189.951C278.299 190.097 278.226 190.389 277.934 190.608L274.433 192.65C274.141 192.869 273.63 192.942 273.338 192.723Z" fill="#E4F2FD"/>
<path d="M278.883 195.933L275.308 193.891C275.016 193.745 275.089 193.453 275.381 193.234L278.883 191.191C279.248 190.972 279.685 190.972 279.977 191.118L283.552 193.161C283.844 193.307 283.771 193.599 283.479 193.818L279.977 195.86C279.612 196.079 279.175 196.079 278.883 195.933Z" fill="#E4F2FD"/>
<path d="M284.355 199.07L280.78 197.028C280.488 196.882 280.561 196.59 280.853 196.371L284.355 194.328C284.719 194.109 285.157 194.109 285.449 194.255L289.024 196.298C289.316 196.444 289.243 196.736 288.951 196.955L285.449 198.997C285.157 199.216 284.646 199.216 284.355 199.07Z" fill="#E4F2FD"/>
<path d="M242.989 169.013L239.414 166.97C239.122 166.824 239.195 166.532 239.487 166.314L242.989 164.271C243.354 164.052 243.792 164.052 244.083 164.198L247.658 166.241C247.95 166.387 247.877 166.678 247.585 166.897L244.083 168.94C243.792 169.159 243.281 169.232 242.989 169.013Z" fill="#E4F2FD"/>
<path d="M237.444 165.803L233.87 163.76C233.578 163.614 233.651 163.322 233.943 163.103L237.444 161.061C237.809 160.842 238.247 160.842 238.539 160.988L242.114 163.031C242.405 163.176 242.332 163.468 242.041 163.687L238.539 165.73C238.174 165.949 237.736 165.949 237.444 165.803Z" fill="#E4F2FD"/>
<path d="M231.827 162.593L224.166 158.143C223.875 157.997 223.948 157.705 224.239 157.486L227.741 155.443C228.106 155.224 228.544 155.224 228.836 155.37L236.496 159.82C236.788 159.966 236.715 160.258 236.423 160.477L232.921 162.52C232.629 162.739 232.119 162.739 231.827 162.593Z" fill="#E4F2FD"/>
<path d="M235.766 158.653L229.565 155.078C229.273 154.933 229.346 154.641 229.638 154.422L233.14 152.379C233.505 152.16 233.942 152.16 234.234 152.306L240.435 155.881C240.727 156.027 240.654 156.319 240.363 156.538L236.861 158.58C236.496 158.799 236.058 158.872 235.766 158.653Z" fill="#E4F2FD"/>
<path d="M248.46 172.223L244.886 170.18C244.594 170.034 244.667 169.742 244.959 169.524L248.46 167.481C248.825 167.262 249.263 167.262 249.555 167.408L253.13 169.451C253.421 169.596 253.348 169.888 253.057 170.107L249.555 172.15C249.263 172.369 248.752 172.369 248.46 172.223Z" fill="#E4F2FD"/>
<path d="M254.005 175.36L250.43 173.317C250.139 173.171 250.212 172.88 250.503 172.661L254.005 170.618C254.37 170.399 254.808 170.399 255.1 170.545L258.674 172.588C258.966 172.734 258.893 173.025 258.601 173.244L255.1 175.287C254.735 175.506 254.297 175.579 254.005 175.36Z" fill="#E4F2FD"/>
<path d="M259.477 178.57L255.902 176.527C255.61 176.381 255.683 176.089 255.975 175.871L259.477 173.828C259.842 173.609 260.279 173.609 260.571 173.755L264.146 175.798C264.438 175.944 264.365 176.235 264.073 176.454L260.571 178.497C260.279 178.716 259.769 178.716 259.477 178.57Z" fill="#E4F2FD"/>
<path d="M264.948 181.707L261.374 179.664C261.082 179.518 261.155 179.227 261.447 179.008L264.948 176.965C265.313 176.746 265.751 176.746 266.043 176.892L269.618 178.935C269.909 179.081 269.836 179.372 269.545 179.591L266.043 181.634C265.751 181.853 265.24 181.853 264.948 181.707Z" fill="#E4F2FD"/>
<path d="M270.493 184.917L266.918 182.874C266.626 182.728 266.699 182.437 266.991 182.218L270.493 180.175C270.858 179.956 271.296 179.956 271.587 180.102L275.162 182.145C275.454 182.291 275.381 182.582 275.089 182.801L271.587 184.844C271.223 185.063 270.785 185.063 270.493 184.917Z" fill="#E4F2FD"/>
<path d="M275.965 188.054L272.39 186.011C272.098 185.865 272.171 185.574 272.463 185.355L275.965 183.312C276.329 183.093 276.767 183.093 277.059 183.239L280.634 185.282C280.926 185.428 280.853 185.72 280.561 185.938L277.059 187.981C276.767 188.2 276.256 188.2 275.965 188.054Z" fill="#E4F2FD"/>
<path d="M281.436 191.264L277.862 189.221C277.57 189.075 277.643 188.784 277.935 188.565L281.436 186.522C281.801 186.303 282.239 186.303 282.531 186.449L286.105 188.492C286.397 188.638 286.324 188.93 286.033 189.148L282.531 191.191C282.239 191.41 281.728 191.41 281.436 191.264Z" fill="#E4F2FD"/>
<path d="M286.981 194.401L283.406 192.358C283.114 192.213 283.187 191.921 283.479 191.702L286.981 189.659C287.346 189.44 287.783 189.44 288.075 189.586L291.65 191.629C291.942 191.775 291.869 192.067 291.577 192.285L288.075 194.328C287.71 194.547 287.2 194.547 286.981 194.401Z" fill="#E4F2FD"/>
<path d="M292.453 197.611L288.878 195.568C288.586 195.423 288.659 195.131 288.951 194.912L292.453 192.869C292.817 192.65 293.255 192.65 293.547 192.796L297.122 194.839C297.414 194.985 297.341 195.277 297.049 195.496L293.547 197.538C293.255 197.757 292.744 197.757 292.453 197.611Z" fill="#E4F2FD"/>
<path d="M302.228 203.229L294.495 198.779C294.203 198.633 294.276 198.341 294.568 198.122L298.07 196.079C298.435 195.86 298.873 195.86 299.164 196.006L306.898 200.456C307.189 200.602 307.116 200.894 306.825 201.113L303.323 203.156C302.958 203.375 302.52 203.375 302.228 203.229Z" fill="#E4F2FD"/>
<path d="M312.88 197.028L306.314 193.234C306.022 193.088 306.095 192.796 306.387 192.577L309.889 190.535C310.253 190.316 310.691 190.316 310.983 190.462L317.549 194.255C317.841 194.401 317.768 194.693 317.476 194.912L313.974 196.955C313.682 197.173 313.172 197.246 312.88 197.028Z" fill="#E4F2FD"/>
<path d="M258.091 171.566L254.516 169.524C254.224 169.378 254.297 169.086 254.589 168.867L258.091 166.824C258.455 166.605 258.893 166.605 259.185 166.751L262.76 168.794C263.052 168.94 262.979 169.232 262.687 169.451L259.185 171.493C258.893 171.712 258.382 171.785 258.091 171.566Z" fill="#E4F2FD"/>
<path d="M252.473 168.356L248.898 166.313C248.606 166.168 248.679 165.876 248.971 165.657L252.473 163.614C252.838 163.395 253.276 163.395 253.567 163.541L257.142 165.584C257.434 165.73 257.361 166.022 257.069 166.241L253.567 168.283C253.276 168.502 252.765 168.502 252.473 168.356Z" fill="#E4F2FD"/>
<path d="M246.856 165.073L243.281 163.031C242.989 162.885 243.062 162.593 243.354 162.374L246.856 160.331C247.22 160.112 247.658 160.112 247.95 160.258L251.525 162.301C251.816 162.447 251.744 162.739 251.452 162.958L247.95 165C247.658 165.219 247.147 165.219 246.856 165.073Z" fill="#E4F2FD"/>
<path d="M241.238 161.863L237.663 159.821C237.371 159.675 237.444 159.383 237.736 159.164L241.238 157.121C241.603 156.902 242.04 156.902 242.332 157.048L245.907 159.091C246.199 159.237 246.126 159.529 245.834 159.748L242.332 161.79C242.04 162.009 241.53 162.009 241.238 161.863Z" fill="#E4F2FD"/>
<path d="M263.635 174.776L260.06 172.734C259.768 172.588 259.841 172.296 260.133 172.077L263.635 170.034C264 169.815 264.438 169.815 264.729 169.961L268.304 172.004C268.596 172.15 268.523 172.442 268.231 172.661L264.729 174.703C264.365 174.922 263.927 174.922 263.635 174.776Z" fill="#E4F2FD"/>
<path d="M269.107 177.913L265.532 175.871C265.24 175.725 265.313 175.433 265.605 175.214L269.107 173.171C269.472 172.952 269.909 172.952 270.201 173.098L273.776 175.141C274.068 175.287 273.995 175.579 273.703 175.798L270.201 177.84C269.909 178.059 269.399 178.132 269.107 177.913Z" fill="#E4F2FD"/>
<path d="M274.579 181.123L271.004 179.081C270.712 178.935 270.785 178.643 271.077 178.424L274.579 176.381C274.943 176.162 275.381 176.162 275.673 176.308L279.248 178.351C279.54 178.497 279.467 178.789 279.175 179.008L275.673 181.05C275.381 181.269 274.87 181.269 274.579 181.123Z" fill="#E4F2FD"/>
<path d="M280.123 184.26L276.548 182.218C276.256 182.072 276.329 181.78 276.621 181.561L280.123 179.518C280.488 179.3 280.926 179.3 281.217 179.445L284.792 181.488C285.084 181.634 285.011 181.926 284.719 182.145L281.217 184.188C280.853 184.406 280.342 184.406 280.123 184.26Z" fill="#E4F2FD"/>
<path d="M285.595 187.47L282.02 185.428C281.728 185.282 281.801 184.99 282.093 184.771L285.595 182.728C285.959 182.509 286.397 182.509 286.689 182.655L290.264 184.698C290.556 184.844 290.483 185.136 290.191 185.355L286.689 187.397C286.397 187.616 285.886 187.616 285.595 187.47Z" fill="#E4F2FD"/>
<path d="M291.066 190.608L287.492 188.565C287.2 188.419 287.273 188.127 287.565 187.908L291.066 185.865C291.431 185.647 291.869 185.647 292.161 185.793L295.735 187.835C296.027 187.981 295.954 188.273 295.663 188.492L292.161 190.535C291.869 190.753 291.358 190.753 291.066 190.608Z" fill="#E4F2FD"/>
<path d="M296.538 193.818L292.963 191.775C292.671 191.629 292.744 191.337 293.036 191.118L296.538 189.075C296.903 188.857 297.34 188.857 297.632 189.003L301.207 191.045C301.499 191.191 301.426 191.483 301.134 191.702L297.632 193.745C297.34 193.963 296.83 193.963 296.538 193.818Z" fill="#E4F2FD"/>
<path d="M302.083 196.955L298.508 194.912C298.216 194.766 298.289 194.474 298.581 194.255L302.083 192.213C302.447 191.994 302.885 191.994 303.177 192.14L306.752 194.182C307.044 194.328 306.971 194.62 306.679 194.839L303.177 196.882C302.812 197.101 302.374 197.101 302.083 196.955Z" fill="#E4F2FD"/>
<path d="M307.554 200.165L303.979 198.122C303.688 197.976 303.76 197.684 304.052 197.465L307.554 195.423C307.919 195.204 308.357 195.204 308.648 195.35L312.223 197.392C312.515 197.538 312.442 197.83 312.15 198.049L308.648 200.092C308.357 200.311 307.846 200.311 307.554 200.165Z" fill="#E4F2FD"/>
<path d="M255.245 163.76L251.671 161.717C251.379 161.571 251.452 161.28 251.743 161.061L255.245 159.018C255.61 158.799 256.048 158.799 256.34 158.945L259.914 160.988C260.206 161.134 260.133 161.426 259.841 161.644L256.34 163.687C255.975 163.906 255.537 163.906 255.245 163.76Z" fill="#E4F2FD"/>
<path d="M249.774 160.623L246.199 158.58C245.907 158.434 245.98 158.143 246.272 157.924L249.774 155.881C250.139 155.662 250.576 155.662 250.868 155.808L254.443 157.851C254.735 157.997 254.662 158.288 254.37 158.507L250.868 160.55C250.503 160.696 250.066 160.769 249.774 160.623Z" fill="#E4F2FD"/>
<path d="M244.302 157.413L240.727 155.37C240.435 155.224 240.508 154.933 240.8 154.714L244.302 152.671C244.667 152.452 245.105 152.452 245.396 152.598L248.971 154.641C249.263 154.787 249.19 155.078 248.898 155.297L245.396 157.34C245.105 157.559 244.594 157.632 244.302 157.413Z" fill="#E4F2FD"/>
<path d="M238.831 154.276L235.256 152.233C234.964 152.087 235.037 151.795 235.329 151.577L238.831 149.534C239.195 149.315 239.633 149.315 239.925 149.461L243.5 151.504C243.792 151.65 243.719 151.941 243.427 152.16L239.925 154.203C239.633 154.422 239.122 154.422 238.831 154.276Z" fill="#E4F2FD"/>
<path d="M244.448 151.066L240.873 149.023C240.581 148.877 240.654 148.585 240.946 148.367L242.113 147.71C242.478 147.491 242.916 147.491 243.208 147.637L246.783 149.68C247.074 149.826 247.001 150.117 246.71 150.336L245.542 150.993C245.25 151.139 244.74 151.212 244.448 151.066Z" fill="#E4F2FD"/>
<path d="M251.598 155.151L248.023 153.109C247.731 152.963 247.804 152.671 248.096 152.452L249.263 151.795C249.628 151.577 250.066 151.577 250.357 151.723L253.932 153.765C254.224 153.911 254.151 154.203 253.859 154.422L252.692 155.078C252.327 155.297 251.89 155.297 251.598 155.151Z" fill="#E4F2FD"/>
<path d="M256.996 158.288L253.422 156.246C253.13 156.1 253.203 155.808 253.495 155.589L254.662 154.933C255.027 154.714 255.464 154.714 255.756 154.86L259.331 156.902C259.623 157.048 259.55 157.34 259.258 157.559L258.091 158.215C257.799 158.434 257.288 158.434 256.996 158.288Z" fill="#E4F2FD"/>
<path d="M262.468 161.426L258.893 159.383C258.601 159.237 258.674 158.945 258.966 158.726L260.133 158.07C260.498 157.851 260.936 157.851 261.228 157.997L264.803 160.039C265.094 160.185 265.021 160.477 264.73 160.696L263.562 161.353C263.27 161.571 262.76 161.571 262.468 161.426Z" fill="#E4F2FD"/>
<path d="M267.94 164.563L264.365 162.52C264.073 162.374 264.146 162.082 264.438 161.863L265.605 161.207C265.97 160.988 266.407 160.988 266.699 161.134L270.274 163.176C270.566 163.322 270.493 163.614 270.201 163.833L269.034 164.49C268.669 164.708 268.158 164.708 267.94 164.563Z" fill="#E4F2FD"/>
<path d="M298.289 182.145L294.714 180.102C294.422 179.956 294.495 179.664 294.787 179.445L295.954 178.789C296.319 178.57 296.757 178.57 297.049 178.716L300.623 180.759C300.915 180.905 300.842 181.196 300.55 181.415L299.383 182.072C299.091 182.291 298.581 182.291 298.289 182.145Z" fill="#E4F2FD"/>
<path d="M303.76 185.282L300.186 183.239C299.894 183.093 299.967 182.801 300.259 182.582L301.426 181.926C301.791 181.707 302.228 181.707 302.52 181.853L306.095 183.896C306.387 184.042 306.314 184.333 306.022 184.552L304.855 185.209C304.49 185.428 304.052 185.428 303.76 185.282Z" fill="#E4F2FD"/>
<path d="M309.159 188.419L305.584 186.376C305.293 186.23 305.366 185.938 305.657 185.72L306.825 185.063C307.189 184.844 307.627 184.844 307.919 184.99L311.494 187.033C311.786 187.179 311.713 187.47 311.421 187.689L310.254 188.346C309.962 188.565 309.451 188.565 309.159 188.419Z" fill="#E4F2FD"/>
<path d="M314.631 191.556L311.056 189.513C310.764 189.367 310.837 189.075 311.129 188.857L312.296 188.2C312.661 187.981 313.099 187.981 313.39 188.127L316.965 190.17C317.257 190.316 317.184 190.608 316.892 190.826L315.725 191.483C315.433 191.702 314.923 191.702 314.631 191.556Z" fill="#E4F2FD"/>
<path d="M260.717 166.897L257.142 164.854C256.85 164.709 256.923 164.417 257.215 164.198L260.717 162.155C261.082 161.936 261.52 161.936 261.811 162.082L265.386 164.125C265.678 164.271 265.605 164.563 265.313 164.781L261.811 166.824C261.52 167.043 261.009 167.116 260.717 166.897Z" fill="#E4F2FD"/>
<path d="M266.189 170.107L262.614 168.064C262.322 167.919 262.395 167.627 262.687 167.408L266.189 165.365C266.553 165.146 266.991 165.146 267.283 165.292L270.858 167.335C271.149 167.481 271.077 167.773 270.785 167.991L267.283 170.034C266.991 170.253 266.48 170.253 266.189 170.107Z" fill="#E4F2FD"/>
<path d="M271.733 173.244L268.158 171.202C267.867 171.056 267.94 170.764 268.231 170.545L271.733 168.502C272.098 168.283 272.536 168.283 272.828 168.429L276.402 170.472C276.694 170.618 276.621 170.91 276.329 171.129L272.828 173.171C272.463 173.39 271.952 173.39 271.733 173.244Z" fill="#E4F2FD"/>
<path d="M277.205 176.454L273.63 174.412C273.338 174.266 273.411 173.974 273.703 173.755L277.205 171.712C277.57 171.493 278.007 171.493 278.299 171.639L281.874 173.682C282.166 173.828 282.093 174.12 281.801 174.339L278.299 176.381C278.007 176.6 277.497 176.6 277.205 176.454Z" fill="#E4F2FD"/>
<path d="M282.676 179.591L279.102 177.549C278.81 177.403 278.883 177.111 279.175 176.892L282.676 174.849C283.041 174.63 283.479 174.63 283.771 174.776L287.346 176.819C287.637 176.965 287.564 177.257 287.273 177.476L283.771 179.518C283.479 179.737 282.968 179.737 282.676 179.591Z" fill="#E4F2FD"/>
<path d="M288.148 182.801L284.646 180.686C284.354 180.54 284.427 180.248 284.719 180.029L288.221 177.986C288.586 177.767 289.024 177.767 289.315 177.913L292.89 179.956C293.182 180.102 293.109 180.394 292.817 180.613L289.315 182.655C288.951 182.947 288.44 182.947 288.148 182.801Z" fill="#E4F2FD"/>
<path d="M293.693 185.938L290.118 183.896C289.826 183.75 289.899 183.458 290.191 183.239L293.693 181.196C294.057 180.977 294.495 180.977 294.787 181.123L298.362 183.166C298.654 183.312 298.581 183.604 298.289 183.823L294.787 185.865C294.495 186.084 293.984 186.084 293.693 185.938Z" fill="#E4F2FD"/>
<path d="M299.164 189.148L295.59 187.106C295.298 186.96 295.371 186.668 295.663 186.449L299.164 184.406C299.529 184.188 299.967 184.188 300.259 184.333L303.833 186.376C304.125 186.522 304.052 186.814 303.761 187.033L300.259 189.076C299.967 189.294 299.456 189.294 299.164 189.148Z" fill="#E4F2FD"/>
<path d="M304.636 192.285L301.061 190.243C300.769 190.097 300.842 189.805 301.134 189.586L304.636 187.543C305.001 187.325 305.438 187.325 305.73 187.47L309.305 189.513C309.597 189.659 309.524 189.951 309.232 190.17L305.73 192.213C305.438 192.431 304.928 192.431 304.636 192.285Z" fill="#E4F2FD"/>
<path d="M229.273 167.335L218.768 161.28C218.476 161.134 218.549 160.842 218.841 160.623L222.343 158.58C222.707 158.361 223.145 158.361 223.437 158.507L233.943 164.563C234.234 164.709 234.161 165 233.87 165.219L230.368 167.262C230.076 167.481 229.565 167.481 229.273 167.335Z" fill="#E4F2FD"/>
<path d="M296.83 206.293L286.324 200.238C286.033 200.092 286.106 199.8 286.397 199.581L289.899 197.538C290.264 197.319 290.702 197.319 290.994 197.465L301.499 203.521C301.791 203.666 301.718 203.958 301.426 204.177L297.924 206.22C297.56 206.439 297.049 206.439 296.83 206.293Z" fill="#E4F2FD"/>
<path d="M274.797 200.602L271.223 198.56C270.931 198.414 271.004 198.122 271.296 197.903L275.527 195.496C275.892 195.277 276.329 195.277 276.621 195.423L280.196 197.465C280.488 197.611 280.415 197.903 280.123 198.122L275.892 200.529C275.6 200.748 275.089 200.748 274.797 200.602Z" fill="#E4F2FD"/>
<path d="M234.964 177.549L229.273 174.266C228.981 174.12 229.054 173.828 229.346 173.609L233.578 171.201C233.942 170.983 234.38 170.983 234.672 171.129L240.362 174.411C240.654 174.557 240.581 174.849 240.29 175.068L236.058 177.476C235.693 177.694 235.183 177.694 234.964 177.549Z" fill="#E4F2FD"/>
<path d="M269.545 197.538L263.854 194.255C263.562 194.109 263.635 193.818 263.927 193.599L268.158 191.191C268.523 190.972 268.961 190.972 269.253 191.118L274.943 194.401C275.235 194.547 275.162 194.839 274.87 195.058L270.639 197.465C270.347 197.684 269.836 197.684 269.545 197.538Z" fill="#E4F2FD"/>
<path d="M242.843 182.145L237.153 178.862C236.861 178.716 236.934 178.424 237.226 178.205L241.457 175.798C241.822 175.579 242.259 175.579 242.551 175.725L248.242 179.008C248.534 179.154 248.461 179.445 248.169 179.664L243.937 182.072C243.646 182.291 243.135 182.291 242.843 182.145Z" fill="#E4F2FD"/>
<path d="M242.624 175.725L267.356 190.024C267.648 190.17 267.648 190.462 267.356 190.68L263.052 193.161C262.76 193.307 262.249 193.307 261.957 193.161L237.225 178.862L242.624 175.725Z" fill="#E4F2FD"/>
<path d="M290.191 206.366L294.13 208.627C294.349 208.773 294.349 208.992 294.057 209.138L292.307 210.159C292.015 210.305 291.65 210.305 291.358 210.232L287.419 207.971C287.2 207.825 287.2 207.606 287.492 207.46L289.242 206.439C289.534 206.22 289.972 206.22 290.191 206.366Z" fill="#E4F2FD"/>
<path d="M284.646 203.156L288.586 205.417C288.805 205.563 288.805 205.782 288.513 205.928L286.835 206.949C286.543 207.095 286.178 207.095 285.887 207.022L281.947 204.761C281.728 204.615 281.728 204.396 282.02 204.25L283.771 203.229C283.99 203.01 284.427 203.01 284.646 203.156Z" fill="#E4F2FD"/>
<path d="M279.175 199.946L283.114 202.207C283.333 202.353 283.333 202.572 283.041 202.718L281.29 203.739C280.999 203.885 280.634 203.885 280.342 203.812L276.402 201.551C276.184 201.405 276.184 201.186 276.475 201.04L278.226 200.019C278.518 199.873 278.883 199.873 279.175 199.946Z" fill="#E4F2FD"/>
<path d="M287.71 201.405L291.65 203.666C291.869 203.812 291.869 204.031 291.577 204.177L289.826 205.199C289.534 205.344 289.17 205.344 288.878 205.271L284.938 203.01C284.719 202.864 284.719 202.645 285.011 202.499L286.762 201.478C287.054 201.259 287.419 201.259 287.71 201.405Z" fill="#E4F2FD"/>
<path d="M344.834 192.286L243.062 133.484C241.457 132.608 240.654 130.347 241.238 128.523L263.927 54.8383C264.511 53.0144 266.262 52.2849 267.794 53.1603L369.566 111.962C371.171 112.838 371.973 115.099 371.39 116.923L348.701 190.608C348.117 192.431 346.439 193.161 344.834 192.286Z" fill="url(#paint0_linear_0_1)"/>
<path opacity="0.4" d="M344.834 192.286L243.062 133.484C241.457 132.608 240.654 130.347 241.238 128.523L263.927 54.8383C264.511 53.0144 266.262 52.2849 267.794 53.1603L369.566 111.962C371.171 112.838 371.973 115.099 371.39 116.923L348.701 190.608C348.117 192.431 346.439 193.161 344.834 192.286Z" fill="#06033E"/>
<path d="M344.834 192.286L243.062 133.484C241.457 132.608 240.654 130.347 241.238 128.523L263.927 54.8383C264.511 53.0144 266.262 52.2849 267.794 53.1603L369.566 111.962C371.171 112.838 371.973 115.099 371.39 116.923L348.701 190.608C348.117 192.431 346.439 193.161 344.834 192.286Z" fill="white"/>
<path opacity="0.2" d="M340.426 184.573L250.427 132.526C249.008 131.751 248.298 129.749 248.814 128.135L268.878 62.9155C269.394 61.3011 270.943 60.6554 272.298 61.4303L362.296 113.477C363.716 114.252 364.425 116.253 363.909 117.868L343.845 183.087C343.329 184.702 341.845 185.347 340.426 184.573Z" fill="#039DDF"/>
<path d="M243.135 212.275C242.186 212.275 241.311 212.056 240.581 211.692L213.004 195.787C212.275 195.35 211.837 194.766 211.837 194.109C211.837 193.307 212.421 192.577 213.369 191.994L227.595 183.823C229.346 182.801 231.9 182.728 233.432 183.604L261.009 199.508C261.738 199.946 262.176 200.529 262.176 201.186C262.176 201.989 261.592 202.718 260.644 203.302L246.418 211.473C245.469 212.056 244.229 212.275 243.135 212.275ZM230.805 183.75C229.784 183.75 228.763 183.969 227.96 184.479L213.734 192.65C213.004 193.088 212.64 193.599 212.64 194.036C212.64 194.547 213.004 194.839 213.369 195.058L240.946 210.962C242.186 211.692 244.521 211.619 245.98 210.743L260.206 202.572C260.936 202.134 261.301 201.624 261.301 201.186C261.301 200.675 260.936 200.384 260.571 200.165L232.994 184.188C232.41 183.896 231.608 183.75 230.805 183.75Z" fill="#E4F2FD"/>
</g>
<g filter="url(#filter1_d_0_1)">
<path d="M115.039 144.244C94.2074 160.274 71.7714 177.543 47.5367 196.2C11.4391 168.477 18.3655 112.344 -17.5772 83.4089C9.16438 69.1042 33.9216 55.856 56.9132 43.557C87.6659 70.2042 84.2207 118.533 115.039 144.244Z" fill="white"/>
</g>
<path d="M56.8313 66.2134C44.2013 73.4288 31.0502 80.9451 17.3398 88.7844C16.072 86.8646 14.7203 84.9871 13.2729 83.1647C27.0818 75.4407 40.3258 68.0301 53.0432 60.9108C54.3909 62.6378 55.6469 64.4049 56.8313 66.2134Z" fill="#E4F2FD"/>
<path d="M15.3863 104.037C13.4879 105.165 11.5771 106.294 9.65958 107.433C8.76412 105.617 7.8284 103.831 6.83531 102.077C8.76116 100.953 10.6802 99.8384 12.5821 98.7276C13.5697 100.471 14.4972 102.243 15.3863 104.037Z" fill="#E4F2FD"/>
<path d="M69.6722 68.7369C52.7851 78.6588 34.9331 89.1505 16.0301 100.262C15.553 99.358 15.0663 98.4598 14.5632 97.5774C33.5056 86.5454 51.3942 76.1281 68.3199 66.2732C68.7816 67.0839 69.2317 67.9076 69.6722 68.7369Z" fill="#E4F2FD"/>
<path d="M72.1394 73.6612C55.3153 83.7251 37.527 94.3713 18.6877 105.637C18.2583 104.706 17.8146 103.783 17.3614 102.865C36.2325 91.6766 54.0507 81.1152 70.9039 71.1237C71.3253 71.964 71.7371 72.8098 72.1394 73.6612Z" fill="#E4F2FD"/>
<path d="M11.1393 105.877C11.0675 105.919 10.9916 105.931 10.919 105.915C10.0945 105.735 9.2672 105.55 8.43038 105.37C8.27755 105.337 8.18647 105.179 8.24122 105.02C8.29597 104.861 8.46053 104.76 8.61815 104.79C9.34737 104.949 10.0738 105.103 10.7983 105.265C11.2735 103.129 11.7153 101.013 12.1244 98.9281C12.1545 98.7705 12.3108 98.6548 12.4725 98.6698C12.6341 98.6849 12.7416 98.8268 12.7114 98.9844C12.2769 101.179 11.8068 103.401 11.3012 105.65C11.279 105.733 11.2294 105.813 11.1556 105.862C11.1536 105.869 11.1488 105.872 11.1393 105.877Z" fill="#039DDF" fill-opacity="0.3"/>
<path d="M21.4547 118.158C19.5688 119.33 17.6753 120.5 15.7655 121.685C15.0366 119.76 14.2866 117.854 13.5031 115.967C15.4117 114.801 17.3134 113.646 19.2056 112.496C19.978 114.364 20.7246 116.253 21.4547 118.158Z" fill="#E4F2FD"/>
<path d="M75.5579 81.4591C58.8047 91.7563 41.0927 102.645 22.3333 114.171C21.949 113.207 21.5627 112.251 21.1641 111.295C39.9458 99.8526 57.6827 89.0513 74.4555 78.8321C74.8319 79.7048 75.1959 80.5782 75.5579 81.4591Z" fill="#E4F2FD"/>
<path d="M77.6205 86.6551C60.9063 97.1082 43.2314 108.161 24.5153 119.871C24.1549 118.894 23.7869 117.914 23.417 116.942C42.1561 105.327 59.8485 94.3597 76.5823 83.9846C76.9299 84.8738 77.2776 85.7631 77.6205 86.6551Z" fill="#E4F2FD"/>
<path d="M17.285 120.056C17.2133 120.097 17.1401 120.114 17.0723 120.096C16.2983 119.892 15.5244 119.689 14.7457 119.488C14.5977 119.453 14.5305 119.281 14.592 119.112C14.6536 118.942 14.8229 118.838 14.9662 118.877C15.6469 119.051 16.3228 119.228 16.9987 119.405C17.6028 117.15 18.1906 114.912 18.7552 112.699C18.7996 112.533 18.9532 112.412 19.1053 112.433C19.2574 112.453 19.3457 112.606 19.3012 112.772C18.7091 115.103 18.091 117.455 17.4518 119.825C17.4275 119.916 17.3704 119.994 17.2994 120.047C17.2946 120.05 17.2898 120.053 17.285 120.056Z" fill="#039DDF" fill-opacity="0.3"/>
<path d="M26.7329 132.876C24.8547 134.094 22.969 135.31 21.0717 136.539C20.3871 134.57 19.7073 132.597 19.0208 130.635C20.9216 129.423 22.8156 128.221 24.6925 127.023C25.3708 128.971 26.0518 130.923 26.7329 132.876Z" fill="#E4F2FD"/>
<path d="M80.6442 94.7511C63.9797 105.456 46.3553 116.772 27.6903 128.76C27.3415 127.769 26.9947 126.771 26.6459 125.78C45.3311 113.883 62.9683 102.655 79.6502 92.0359C79.9843 92.9457 80.3129 93.846 80.6442 94.7511Z" fill="#E4F2FD"/>
<path d="M82.5904 100.065C65.9555 110.932 48.3612 122.422 29.7273 134.595C29.3757 133.6 29.0289 132.602 28.6849 131.608C47.3371 119.533 64.9488 108.128 81.5937 97.3453C81.9251 98.2504 82.2591 99.1602 82.5904 100.065Z" fill="#E4F2FD"/>
<path d="M22.5904 134.853C22.5214 134.899 22.4455 134.911 22.3776 134.893C21.6236 134.691 20.8667 134.484 20.1127 134.282C19.9694 134.244 19.907 134.069 19.9733 133.897C20.0369 133.72 20.2035 133.611 20.3467 133.65C21.0103 133.827 21.6691 134.008 22.3252 134.184C22.9694 131.855 23.6095 129.541 24.2381 127.241C24.2894 127.064 24.4429 126.944 24.5874 126.962C24.732 126.981 24.8108 127.139 24.7643 127.313C24.1006 129.729 23.4281 132.164 22.7564 134.61C22.7321 134.701 22.6729 134.786 22.602 134.84C22.6047 134.845 22.5999 134.847 22.5904 134.853Z" fill="#039DDF" fill-opacity="0.3"/>
<path d="M32.0778 147.675C30.2121 148.937 28.3321 150.208 26.4425 151.484C25.6951 149.538 24.9668 147.58 24.2575 145.612C26.1506 144.354 28.0341 143.101 29.906 141.86C30.6117 143.811 31.3338 145.747 32.0778 147.675Z" fill="#E4F2FD"/>
<path d="M85.6536 108.208C69.0731 119.324 51.5321 131.083 32.9473 143.54C32.5814 142.553 32.2127 141.561 31.8516 140.571C50.4519 128.207 68.0131 116.538 84.6131 105.501C84.9567 106.405 85.3052 107.307 85.6536 108.208Z" fill="#E4F2FD"/>
<path d="M87.764 113.453C71.2205 124.732 53.7241 136.657 35.1826 149.299C34.79 148.321 34.405 147.345 34.0219 146.362C52.5865 133.814 70.1052 121.972 86.6709 110.776C87.0289 111.672 87.3916 112.566 87.764 113.453Z" fill="#E4F2FD"/>
<path d="M27.9419 149.764C27.873 149.81 27.7998 149.827 27.7272 149.811C26.9595 149.63 26.189 149.444 25.4214 149.262C25.2781 149.224 25.2137 149.057 25.2697 148.878C25.3333 148.701 25.4971 148.587 25.6452 148.623C26.3128 148.786 26.9852 148.946 27.6576 149.106C28.2518 146.767 28.8555 144.424 29.4648 142.09C29.5085 141.911 29.6688 141.781 29.8134 141.799C29.9579 141.818 30.0415 141.973 29.9977 142.152C29.3609 144.604 28.7269 147.06 28.1079 149.521C28.0837 149.612 28.0293 149.694 27.9611 149.753C27.9487 149.753 27.944 149.756 27.9419 149.764Z" fill="#039DDF" fill-opacity="0.3"/>
<path d="M38.3345 161.968C36.4813 163.274 34.6138 164.588 32.7395 165.912C31.8132 164.076 30.9346 162.212 30.0916 160.321C31.9721 159.019 33.8479 157.719 35.7045 156.43C36.5441 158.304 37.4191 160.151 38.3345 161.968Z" fill="#E4F2FD"/>
<path d="M91.2891 121.336C74.8241 132.85 57.4095 145.027 38.9507 157.935C38.5035 156.994 38.0631 156.044 37.6398 155.09C56.1237 142.27 73.5728 130.175 90.067 118.734C90.4707 119.61 90.8738 120.474 91.2891 121.336Z" fill="#E4F2FD"/>
<path d="M93.8404 126.308C77.4411 137.969 60.095 150.297 41.7101 163.366C41.2179 162.458 40.7373 161.537 40.2662 160.611C58.6856 147.624 76.0731 135.367 92.5091 123.781C92.9408 124.628 93.3848 125.474 93.8404 126.308Z" fill="#E4F2FD"/>
<path d="M34.1739 164.179C34.105 164.225 34.027 164.245 33.9571 164.234C33.1424 164.093 32.3304 163.956 31.5205 163.812C31.3656 163.786 31.2889 163.62 31.3429 163.449C31.3941 163.273 31.5627 163.156 31.7128 163.184C32.4179 163.313 33.1278 163.438 33.835 163.559C34.2863 161.271 34.7643 158.975 35.2641 156.672C35.303 156.497 35.4558 156.364 35.6099 156.377C35.7641 156.39 35.8572 156.54 35.8182 156.715C35.3004 159.131 34.8024 161.547 34.3379 163.944C34.3184 164.032 34.2668 164.119 34.1958 164.173C34.1883 164.171 34.1835 164.174 34.1739 164.179Z" fill="#039DDF" fill-opacity="0.3"/>
<path d="M46.3088 175.084C44.4777 176.428 42.6398 177.783 40.7849 179.14C39.5767 177.511 38.4346 175.831 37.352 174.111C39.2125 172.763 41.0662 171.425 42.9055 170.095C43.9826 171.806 45.1136 173.467 46.3088 175.084Z" fill="#E4F2FD"/>
<path d="M98.2371 133.592C81.966 145.453 64.7517 157.998 46.5164 171.293C45.9389 170.447 45.3777 169.585 44.8281 168.711C63.1171 155.487 80.3824 143.008 96.6997 131.216C97.2003 132.017 97.7153 132.809 98.2371 133.592Z" fill="#E4F2FD"/>
<path d="M101.483 138.054C85.3148 150.027 68.2167 162.697 50.0929 176.118C49.4464 175.319 48.8239 174.505 48.2156 173.684C66.3999 160.323 83.5613 147.719 99.7842 135.796C100.335 136.562 100.901 137.312 101.483 138.054Z" fill="#E4F2FD"/>
<path d="M42.1193 177.433C42.0531 177.484 41.9704 177.506 41.8909 177.501C41.004 177.433 40.119 177.358 39.2388 177.279C39.0724 177.267 38.9669 177.118 39.0066 176.955C39.0435 176.787 39.2046 176.668 39.371 176.68C40.1368 176.748 40.9054 176.821 41.6807 176.883C41.9026 174.728 42.1674 172.548 42.461 170.352C42.4855 170.184 42.6308 170.05 42.7965 170.05C42.9574 170.052 43.0716 170.184 43.0498 170.356C42.7431 172.662 42.4793 174.943 42.2539 177.202C42.244 177.284 42.2019 177.366 42.1337 177.425C42.1337 177.425 42.1241 177.43 42.1193 177.433Z" fill="#039DDF" fill-opacity="0.3"/>
<g filter="url(#filter2_d_0_1)">
<path d="M172.877 150.74C142.573 163.342 109.932 176.918 74.6737 191.589C40.0966 146.487 66.5908 81.0243 32.5918 34.5109C69.4672 25.9004 103.608 17.9227 135.312 10.5193C163.791 52.5962 144.017 109.772 172.877 150.74Z" fill="white"/>
<path d="M127.891 37.8183C110.327 42.4391 92.0365 47.2543 72.9672 52.2783C72.0586 49.5532 71.0351 46.8519 69.8784 44.1862C89.0291 39.3331 107.397 34.6753 125.036 30.1988C126.104 32.7171 127.047 35.2543 127.891 37.8183Z" fill="#E4F2FD"/>
<path d="M65.682 70.0431C63.0279 70.79 60.3586 71.5337 57.6777 72.2877C57.1846 69.8082 56.6333 67.3513 56.0022 64.9159C58.6883 64.1819 61.363 63.4581 64.0159 62.733C64.6435 65.1551 65.1894 67.592 65.682 70.0431Z" fill="#E4F2FD"/>
<path d="M142.563 45.0115C118.99 51.5207 94.0682 58.4054 67.6788 65.6976C67.3954 64.4534 67.0987 63.2128 66.7771 61.986C93.1883 54.8021 118.13 48.0191 141.729 41.6031C142.023 42.7301 142.3 43.869 142.563 45.0115Z" fill="#E4F2FD"/>
<path d="M143.947 51.7479C120.404 58.4488 95.5091 65.5403 69.1467 73.0394C68.9298 71.7774 68.693 70.5207 68.4429 69.2677C94.8188 61.872 119.722 54.8924 143.277 48.2882C143.514 49.4378 143.737 50.5911 143.947 51.7479Z" fill="#E4F2FD"/>
<path d="M59.9649 70.89C59.8651 70.9167 59.7696 70.9066 59.687 70.8646C58.7509 70.3804 57.813 69.8896 56.8619 69.4023C56.6882 69.3133 56.6293 69.0936 56.7467 68.9194C56.8642 68.7452 57.0954 68.6761 57.2758 68.7634C58.1039 69.1908 58.9302 69.6116 59.7517 70.0409C61.0151 67.6187 62.2318 65.209 63.3989 62.8269C63.4861 62.6466 63.712 62.5575 63.9021 62.6279C64.0923 62.6982 64.176 62.9042 64.0887 63.0845C62.8552 65.5915 61.5702 68.1193 60.2337 70.6681C60.1801 70.761 60.0945 70.841 59.9898 70.8762C59.9849 70.8846 59.9782 70.8864 59.9649 70.89Z" fill="#039DDF" fill-opacity="0.3"/>
<path d="M68.4376 89.0352C65.7843 89.8389 63.1227 90.6378 60.4361 91.4504C60.1791 88.8933 59.8906 86.3518 59.5555 83.8227C62.234 83.0337 64.901 82.2548 67.5547 81.4795C67.8827 83.9819 68.1726 86.5017 68.4376 89.0352Z" fill="#E4F2FD"/>
<path d="M145.55 62.2576C122.017 69.2627 97.1359 76.6717 70.7858 84.5099C70.6338 83.2234 70.4768 81.9454 70.3048 80.6642C96.655 72.9329 121.538 65.6376 145.07 58.7329C145.242 59.9071 145.398 61.0781 145.55 62.2576Z" fill="#E4F2FD"/>
<path d="M146.359 69.1909C122.822 76.3967 97.933 84.0148 71.5752 92.0906C71.4565 90.7952 71.3293 89.4949 71.1972 88.203C97.552 80.2493 122.435 72.74 145.97 65.6346C146.102 66.8194 146.234 68.0043 146.359 69.1909Z" fill="#E4F2FD"/>
<path d="M62.7954 89.9762C62.6956 90.0029 62.6019 89.9995 62.5259 89.9556C61.6582 89.4603 60.7905 88.9649 59.9161 88.4714C59.7491 88.3805 59.7235 88.1519 59.8525 87.9675C59.9814 87.7831 60.2193 87.7122 60.3797 87.8048C61.1444 88.235 61.9023 88.667 62.6603 89.099C64.1176 86.5749 65.55 84.0646 66.946 81.5784C67.0533 81.3927 67.2774 81.2969 67.4542 81.3709C67.631 81.4448 67.6881 81.6579 67.5808 81.8436C66.1135 84.4631 64.6079 87.1 63.0709 89.7525C63.0124 89.8538 62.9184 89.929 62.8154 89.9708C62.8088 89.9726 62.8021 89.9744 62.7954 89.9762Z" fill="#039DDF" fill-opacity="0.3"/>
<path d="M70.0473 108.491C67.3884 109.354 64.721 110.211 62.0354 111.081C61.8463 108.484 61.6638 105.885 61.4698 103.297C64.1541 102.449 66.8268 101.612 69.4778 100.773C69.6664 103.341 69.8569 105.916 70.0473 108.491Z" fill="#E4F2FD"/>
<path d="M147.389 79.9325C123.831 87.458 98.9175 95.4109 72.5322 103.837C72.4316 102.529 72.3359 101.213 72.2354 99.9059C98.6159 91.5956 123.516 83.7533 147.068 76.3366C147.177 77.5419 147.282 78.7339 147.389 79.9325Z" fill="#E4F2FD"/>
<path d="M148.019 86.9709C124.444 94.7006 99.5111 102.873 73.103 111.533C73.0006 110.219 72.9049 108.903 72.811 107.594C99.2095 99.0575 124.136 90.9941 147.696 83.3683C147.803 84.5669 147.912 85.7722 148.019 86.9709Z" fill="#E4F2FD"/>
<path d="M64.4122 109.537C64.3141 109.571 64.2187 109.561 64.1427 109.517C63.2985 109.03 62.4526 108.536 61.6084 108.048C61.448 107.956 61.4291 107.725 61.5647 107.539C61.6986 107.346 61.9347 107.269 62.0951 107.361C62.8379 107.79 63.5742 108.221 64.3086 108.645C65.8381 106.044 67.3579 103.461 68.8596 100.889C68.9783 100.693 69.2024 100.597 69.3708 100.666C69.5391 100.735 69.5829 100.952 69.4708 101.146C67.8894 103.846 66.2916 106.565 64.6908 109.299C64.6323 109.4 64.5334 109.484 64.4304 109.525C64.4322 109.532 64.4255 109.534 64.4122 109.537Z" fill="#039DDF" fill-opacity="0.3"/>
<path d="M71.7108 128.069C69.0529 128.988 66.3749 129.912 63.6836 130.84C63.411 128.252 63.1651 125.656 62.9457 123.053C65.6357 122.147 68.3123 121.244 70.9708 120.353C71.1914 122.934 71.4369 125.502 71.7108 128.069Z" fill="#E4F2FD"/>
<path d="M149.082 97.7822C125.493 105.83 100.537 114.344 74.0962 123.362C73.9738 122.053 73.8497 120.738 73.7341 119.427C100.163 110.526 125.114 102.128 148.702 94.1805C148.825 95.3823 148.953 96.5822 149.082 97.7822Z" fill="#E4F2FD"/>
<path d="M149.932 104.79C126.335 113.047 101.379 121.775 74.9307 131.031C74.7733 129.724 74.6243 128.422 74.4803 127.112C100.926 117.978 125.881 109.358 149.479 101.208C149.621 102.404 149.77 103.599 149.932 104.79Z" fill="#E4F2FD"/>
<path d="M66.048 129.251C65.9499 129.284 65.8562 129.281 65.7736 129.238C64.9064 128.772 64.0374 128.298 63.1701 127.831C63.0097 127.738 62.9859 127.516 63.1114 127.319C63.2452 127.126 63.4795 127.042 63.6466 127.133C64.3992 127.545 65.1585 127.955 65.9178 128.365C67.39 125.737 68.8756 123.105 70.3647 120.487C70.475 120.286 70.7106 120.18 70.879 120.25C71.0473 120.319 71.0978 120.533 70.9875 120.734C69.427 123.486 67.8683 126.244 66.3266 129.012C66.2681 129.113 66.1758 129.195 66.0747 129.243C66.0596 129.24 66.0529 129.242 66.048 129.251Z" fill="#039DDF" fill-opacity="0.3"/>
<path d="M74.638 147.329C71.9809 148.305 69.3039 149.286 66.6154 150.277C66.0916 147.763 65.6344 145.231 65.2286 142.678C67.9176 141.715 70.6 140.754 73.2557 139.8C73.6627 142.331 74.1213 144.841 74.638 147.329Z" fill="#E4F2FD"/>
<path d="M151.636 115.437C128.057 124.003 103.119 133.061 76.6845 142.663C76.449 141.384 76.225 140.096 76.0228 138.808C102.459 129.32 127.412 120.372 151.003 111.903C151.207 113.09 151.414 114.262 151.636 115.437Z" fill="#E4F2FD"/>
<path d="M153.107 122.257C129.56 131.021 104.655 140.285 78.2577 150.105C77.9574 148.851 77.6753 147.585 77.4065 146.316C103.819 136.605 128.75 127.442 152.318 118.779C152.565 119.94 152.827 121.105 153.107 122.257Z" fill="#E4F2FD"/>
<path d="M68.9054 148.651C68.8073 148.684 68.707 148.682 68.6262 148.647C67.6893 148.213 66.7541 147.786 65.8239 147.35C65.6453 147.269 65.6064 147.044 65.727 146.855C65.8457 146.659 66.0867 146.573 66.2586 146.655C67.0676 147.038 67.8832 147.419 68.6971 147.793C69.9806 145.18 71.2993 142.565 72.6463 139.949C72.75 139.75 72.9772 139.639 73.1588 139.704C73.3405 139.77 73.4042 139.981 73.3006 140.18C71.8955 142.926 70.514 145.679 69.1791 148.42C69.1273 148.52 69.0368 148.608 68.9338 148.65C68.9254 148.645 68.9187 148.647 68.9054 148.651Z" fill="#039DDF" fill-opacity="0.3"/>
<path d="M80.0168 165.725C77.3741 166.754 74.7198 167.793 72.0437 168.832C71.113 166.476 70.2785 164.081 69.5288 161.656C72.2084 160.631 74.8765 159.617 77.5246 158.607C78.2707 161.019 79.0981 163.388 80.0168 165.725Z" fill="#E4F2FD"/>
<path d="M156.056 132.463C132.598 141.51 107.782 151.078 81.4926 161.219C81.0694 160.012 80.671 158.792 80.2908 157.559C106.622 147.521 131.479 138.049 154.969 129.101C155.314 130.228 155.679 131.351 156.056 132.463Z" fill="#E4F2FD"/>
<path d="M158.528 138.893C135.159 148.109 110.443 157.865 84.2467 168.195C83.7253 167.022 83.2373 165.839 82.7692 164.652C109.019 154.414 133.79 144.758 157.209 135.622C157.626 136.723 158.067 137.811 158.528 138.893Z" fill="#E4F2FD"/>
<path d="M74.205 167.204C74.1087 167.244 74.0017 167.244 73.9075 167.212C72.8597 166.843 71.8167 166.466 70.7805 166.087C70.5837 166.019 70.5048 165.804 70.6054 165.621C70.7042 165.43 70.9367 165.339 71.1335 165.408C72.0352 165.737 72.9387 166.073 73.8537 166.399C74.8177 163.871 75.8416 161.328 76.9055 158.773C76.9892 158.58 77.2079 158.464 77.4078 158.517C77.601 158.573 77.6962 158.768 77.6143 158.969C76.4991 161.651 75.4438 164.317 74.4418 166.969C74.4033 167.065 74.3261 167.15 74.225 167.198C74.225 167.198 74.2116 167.202 74.205 167.204Z" fill="#039DDF" fill-opacity="0.3"/>
</g>
<defs>
<filter id="filter0_d_0_1" x="135" y="41.7153" width="269" height="249.108" filterUnits="userSpaceOnUse" color-interpolation-filters="sRGB">
<feFlood flood-opacity="0" result="BackgroundImageFix"/>
<feColorMatrix in="SourceAlpha" type="matrix" values="0 0 0 0 0 0 0 0 0 0 0 0 0 0 0 0 0 0 127 0" result="hardAlpha"/>
<feOffset dy="20"/>
<feGaussianBlur stdDeviation="15"/>
<feComposite in2="hardAlpha" operator="out"/>
<feColorMatrix type="matrix" values="0 0 0 0 0.25474 0 0 0 0 0.517844 0 0 0 0 0.9125 0 0 0 0.07 0"/>
<feBlend mode="normal" in2="BackgroundImageFix" result="effect1_dropShadow_0_1"/>
<feBlend mode="normal" in="SourceGraphic" in2="effect1_dropShadow_0_1" result="shape"/>
</filter>
<filter id="filter1_d_0_1" x="-47.5773" y="33.557" width="192.616" height="212.643" filterUnits="userSpaceOnUse" color-interpolation-filters="sRGB">
<feFlood flood-opacity="0" result="BackgroundImageFix"/>
<feColorMatrix in="SourceAlpha" type="matrix" values="0 0 0 0 0 0 0 0 0 0 0 0 0 0 0 0 0 0 127 0" result="hardAlpha"/>
<feOffset dy="20"/>
<feGaussianBlur stdDeviation="15"/>
<feComposite in2="hardAlpha" operator="out"/>
<feColorMatrix type="matrix" values="0 0 0 0 0.25474 0 0 0 0 0.517844 0 0 0 0 0.9125 0 0 0 0.07 0"/>
<feBlend mode="normal" in2="BackgroundImageFix" result="effect1_dropShadow_0_1"/>
<feBlend mode="normal" in="SourceGraphic" in2="effect1_dropShadow_0_1" result="shape"/>
</filter>
<filter id="filter2_d_0_1" x="2.5918" y="0.519318" width="200.285" height="241.07" filterUnits="userSpaceOnUse" color-interpolation-filters="sRGB">
<feFlood flood-opacity="0" result="BackgroundImageFix"/>
<feColorMatrix in="SourceAlpha" type="matrix" values="0 0 0 0 0 0 0 0 0 0 0 0 0 0 0 0 0 0 127 0" result="hardAlpha"/>
<feOffset dy="20"/>
<feGaussianBlur stdDeviation="15"/>
<feComposite in2="hardAlpha" operator="out"/>
<feColorMatrix type="matrix" values="0 0 0 0 0.25474 0 0 0 0 0.517844 0 0 0 0 0.9125 0 0 0 0.07 0"/>
<feBlend mode="normal" in2="BackgroundImageFix" result="effect1_dropShadow_0_1"/>
<feBlend mode="normal" in="SourceGraphic" in2="effect1_dropShadow_0_1" result="shape"/>
</filter>
<linearGradient id="paint0_linear_0_1" x1="241.009" y1="122.721" x2="371.574" y2="122.721" gradientUnits="userSpaceOnUse">
<stop stop-color="#3919BB"/>
<stop offset="1" stop-color="#6507FA"/>
</linearGradient>
</defs>
</svg>