<svg width="629" height="266" viewBox="0 0 629 266" fill="none" xmlns="http://www.w3.org/2000/svg">
<g filter="url(#filter0_d_475_1138)">
<path d="M307.964 103.343C316.094 150.354 274.977 198.523 215.971 198.523C156.966 198.523 115.848 150.586 123.978 103.343C131.877 56.0995 172.995 24.6041 215.971 24.3726C258.947 24.6041 299.833 56.0995 307.964 103.343Z" fill="white"/>
<path d="M193.903 27.1516C177.874 36.4149 163.471 49.6152 152.785 63.9734C145.119 74.163 138.383 85.7422 136.292 98.2477C135.13 104.269 135.13 110.29 135.827 116.311C136.524 122.796 137.453 131.364 141.402 136.922C146.049 142.943 153.25 145.954 157.896 151.744C161.613 156.375 163.704 162.165 166.956 167.26C174.39 178.607 184.844 184.86 198.317 187.407C205.286 188.797 212.72 189.26 219.689 189.492C226.194 189.492 234.325 189.492 239.435 184.397C248.031 175.828 246.404 161.933 253.606 152.438C261.736 141.554 277.069 141.091 288.452 135.533C300.299 129.975 308.43 120.943 308.43 107.279C308.43 106.816 308.43 106.353 308.43 105.89C308.43 104.964 308.198 104.269 307.965 103.343C300.067 56.0995 258.949 24.6041 215.972 24.3726C208.539 24.3726 201.105 25.5305 193.903 27.1516Z" fill="white"/>
<path d="M306.57 123.027C297.51 138.312 276.835 134.143 262.2 141.322C251.978 146.185 245.241 153.596 242.454 164.017C240.828 169.807 241.06 185.092 236.182 189.028C227.122 196.671 218.759 192.039 208.073 190.881C196.69 189.723 185.539 187.639 176.015 180.691C172.065 177.681 168.581 173.744 165.793 169.575C162.076 164.017 159.753 156.838 155.107 152.207C150.461 147.575 144.421 144.564 140.472 139.47C136.987 134.838 135.361 129.048 134.432 123.259C132.574 111.68 132.341 100.332 136.29 89.2159C140.472 77.4052 147.209 66.7523 155.107 57.489C163.935 47.2993 174.156 37.5728 185.771 29.9305C155.107 40.5834 130.018 67.4471 123.978 103.343C115.848 150.354 156.966 198.523 215.971 198.523C268.704 198.523 306.802 160.312 308.893 118.859C308.196 120.248 307.499 121.638 306.57 123.027Z" fill="white"/>
<path d="M306.57 123.027C297.51 138.312 276.835 134.143 262.2 141.322C251.978 146.185 245.241 153.596 242.454 164.017C240.828 169.807 241.06 185.092 236.182 189.028C227.122 196.671 218.759 192.039 208.073 190.881C196.69 189.723 185.539 187.639 176.015 180.691C172.065 177.681 168.581 173.744 165.793 169.575C162.076 164.017 159.753 156.838 155.107 152.207C150.461 147.575 144.421 144.564 140.472 139.47C136.987 134.838 135.361 129.048 134.432 123.259C132.574 111.68 132.341 100.332 136.29 89.2159C140.472 77.4052 147.209 66.7523 155.107 57.489C163.935 47.2993 174.156 37.5728 185.771 29.9305C155.107 40.5834 130.018 67.4471 123.978 103.343C115.848 150.354 156.966 198.523 215.971 198.523C268.704 198.523 306.802 160.312 308.893 118.859C308.196 120.248 307.499 121.638 306.57 123.027Z" fill="#F1F9FF"/>
<path d="M261.966 81.1104C265.915 104.732 245.472 128.585 215.97 128.585C186.467 128.585 166.024 104.5 169.973 81.1104C173.923 57.4889 194.365 41.7412 215.97 41.7412C237.342 41.7412 257.785 57.4889 261.966 81.1104Z" fill="#E4F2FD"/>
<path d="M261.966 81.1104C265.915 104.732 245.472 128.585 215.97 128.585C186.467 128.585 166.024 104.5 169.973 81.1104C173.923 57.4889 194.365 41.7412 215.97 41.7412C237.342 41.7412 257.785 57.4889 261.966 81.1104Z" fill="#F1F9FF"/>
<path d="M163.47 44.2888C156.501 38.036 137.452 53.5521 132.806 57.2575C114.222 71.1525 88.9003 106.122 110.737 128.122C116.08 133.448 127.928 136.228 134.897 133.217C140.704 130.901 144.421 124.648 145.815 119.09C147.209 112.838 143.957 107.974 142.33 102.185C140.472 95.7004 143.26 91.3003 147.209 86.437C153.946 77.8684 160.915 68.8367 164.632 58.647C166.026 54.0153 167.652 47.9941 163.47 44.2888Z" fill="white"/>
<path d="M163.47 44.2887C162.076 43.1308 160.45 42.6676 158.359 42.8992C159.056 43.8255 159.753 44.9835 159.986 46.373C161.147 52.1625 157.895 58.4153 154.642 62.8154C150.229 68.605 144.421 73.2367 140.24 79.2578C138.149 82.2684 136.29 85.7422 135.826 89.4475C135.129 94.0792 136.29 98.7108 137.452 103.343C139.31 109.827 141.633 117.932 137.22 123.953C134.2 128.122 129.321 130.206 124.211 129.975C117.938 129.743 111.898 127.89 107.717 123.027C106.323 121.406 105.162 119.553 104 117.701C105.394 121.406 107.485 124.88 110.737 127.89C116.08 133.217 127.927 135.996 134.897 132.985C140.704 130.669 144.421 124.417 145.815 118.859C147.209 112.606 143.956 107.743 142.33 101.953C140.472 95.4687 143.26 91.0686 147.209 86.2053C153.946 77.6367 160.915 68.605 164.632 58.4153C166.025 54.0152 167.652 47.994 163.47 44.2887Z" fill="#C28242"/>
<path d="M163.47 44.2887C162.076 43.1308 160.45 42.6676 158.359 42.8992C159.056 43.8255 159.753 44.9835 159.986 46.373C161.147 52.1625 157.895 58.4153 154.642 62.8154C150.229 68.605 144.421 73.2367 140.24 79.2578C138.149 82.2684 136.29 85.7422 135.826 89.4475C135.129 94.0792 136.29 98.7108 137.452 103.343C139.31 109.827 141.633 117.932 137.22 123.953C134.2 128.122 129.321 130.206 124.211 129.975C117.938 129.743 111.898 127.89 107.717 123.027C106.323 121.406 105.162 119.553 104 117.701C105.394 121.406 107.485 124.88 110.737 127.89C116.08 133.217 127.927 135.996 134.897 132.985C140.704 130.669 144.421 124.417 145.815 118.859C147.209 112.606 143.956 107.743 142.33 101.953C140.472 95.4687 143.26 91.0686 147.209 86.2053C153.946 77.6367 160.915 68.605 164.632 58.4153C166.025 54.0152 167.652 47.994 163.47 44.2887Z" fill="#F1F9FF"/>
<path d="M264.988 44.2888C271.957 38.036 291.006 53.5521 295.652 57.2575C314.236 71.1525 339.557 106.122 317.721 128.122C312.378 133.448 300.53 136.228 293.561 133.217C287.753 130.901 284.037 124.648 282.643 119.09C281.249 112.838 284.501 107.974 286.127 102.185C287.986 95.7004 285.198 91.3003 281.249 86.437C274.512 77.8684 267.543 68.8367 263.826 58.647C262.432 54.0153 260.806 47.9941 264.988 44.2888Z" fill="white"/>
<path d="M264.988 44.2885C266.381 43.1305 268.008 42.6674 270.098 42.899C269.401 43.8253 268.704 44.9832 268.472 46.3727C267.311 52.1623 270.563 58.4151 273.815 62.8151C278.229 68.6047 284.037 73.2364 288.218 79.2576C290.309 82.2682 292.167 85.7419 292.632 89.4473C293.329 94.0789 292.167 98.7106 291.006 103.342C289.147 109.827 286.824 117.932 291.238 123.953C294.258 128.122 299.136 130.206 304.247 129.974C310.519 129.743 316.559 127.89 320.741 123.027C322.135 121.406 323.296 119.553 324.458 117.7C323.064 121.406 320.973 124.88 317.721 127.89C312.378 133.217 300.53 135.996 293.561 132.985C287.753 130.669 284.037 124.416 282.643 118.858C281.249 112.606 284.501 107.742 286.127 101.953C287.986 95.4684 285.198 91.0683 281.249 86.2051C274.512 77.6365 267.543 68.6047 263.826 58.4151C262.432 54.015 260.806 47.9938 264.988 44.2885Z" fill="#C28242"/>
<path d="M264.988 44.2885C266.381 43.1305 268.008 42.6674 270.098 42.899C269.401 43.8253 268.704 44.9832 268.472 46.3727C267.311 52.1623 270.563 58.4151 273.815 62.8151C278.229 68.6047 284.037 73.2364 288.218 79.2576C290.309 82.2682 292.167 85.7419 292.632 89.4473C293.329 94.0789 292.167 98.7106 291.006 103.342C289.147 109.827 286.824 117.932 291.238 123.953C294.258 128.122 299.136 130.206 304.247 129.974C310.519 129.743 316.559 127.89 320.741 123.027C322.135 121.406 323.296 119.553 324.458 117.7C323.064 121.406 320.973 124.88 317.721 127.89C312.378 133.217 300.53 135.996 293.561 132.985C287.753 130.669 284.037 124.416 282.643 118.858C281.249 112.606 284.501 107.742 286.127 101.953C287.986 95.4684 285.198 91.0683 281.249 86.2051C274.512 77.6365 267.543 68.6047 263.826 58.4151C262.432 54.015 260.806 47.9938 264.988 44.2885Z" fill="#F1F9FF"/>
<path d="M165.792 211.028C174.387 205.47 181.356 196.67 183.911 187.175C189.719 164.712 173.69 139.469 147.439 147.575C140.703 149.659 136.753 156.606 135.824 164.017C134.663 172.122 138.147 174.901 135.592 183.007C133.733 189.26 129.552 194.586 127.694 200.607C121.886 218.671 155.338 217.744 165.792 211.028Z" fill="#F1F9FF"/>
<path d="M162.074 181.617C162.074 199.218 150.226 213.576 135.591 213.576C120.956 213.576 109.108 199.218 109.108 181.617C109.108 164.017 120.956 149.659 135.591 149.659C150.226 149.659 162.074 163.786 162.074 181.617Z" fill="white"/>
<path d="M149.993 190.186C149.993 195.049 143.489 199.218 135.358 199.218C127.227 199.218 120.723 195.281 120.723 190.186C120.723 185.323 127.227 181.154 135.358 181.154C143.489 181.154 149.993 185.091 149.993 190.186Z" fill="#E4F2FD"/>
<path d="M140.7 170.733C140.7 174.438 138.377 177.449 135.589 177.449C132.802 177.449 130.479 174.438 130.479 170.733C130.479 167.028 132.802 164.017 135.589 164.017C138.377 164.017 140.7 167.028 140.7 170.733Z" fill="#E4F2FD"/>
<path d="M128.852 175.596C128.852 179.301 126.529 182.312 123.742 182.312C120.954 182.312 118.631 179.301 118.631 175.596C118.631 171.891 120.954 168.88 123.742 168.88C126.529 168.88 128.852 171.891 128.852 175.596Z" fill="#E4F2FD"/>
<path d="M152.549 175.596C152.549 179.301 150.226 182.312 147.438 182.312C144.65 182.312 142.327 179.301 142.327 175.596C142.327 171.891 144.65 168.88 147.438 168.88C150.226 168.88 152.549 171.891 152.549 175.596Z" fill="#E4F2FD"/>
<path d="M263.361 211.029C254.533 205.471 247.796 196.67 245.241 187.176C239.433 164.712 255.695 139.238 281.945 147.575C288.682 149.659 292.631 156.607 293.56 164.017C294.722 172.123 291.469 174.902 293.793 183.007C295.651 189.26 299.832 194.586 301.691 200.607C307.266 218.671 273.814 217.745 263.361 211.029Z" fill="#F1F9FF"/>
<path d="M267.076 181.617C267.076 199.218 278.924 213.576 293.559 213.576C308.194 213.576 320.042 199.218 320.042 181.617C320.042 164.017 308.194 149.659 293.559 149.659C278.924 149.659 267.076 163.786 267.076 181.617Z" fill="white"/>
<path d="M279.154 190.186C279.154 195.05 285.659 199.218 293.79 199.218C301.92 199.218 308.425 195.281 308.425 190.186C308.425 185.323 301.92 181.155 293.79 181.155C285.659 181.155 279.154 185.091 279.154 190.186Z" fill="#E4F2FD"/>
<path d="M288.447 170.733C288.447 174.439 290.77 177.449 293.558 177.449C296.346 177.449 298.669 174.439 298.669 170.733C298.669 167.028 296.346 164.017 293.558 164.017C290.77 164.017 288.447 167.028 288.447 170.733Z" fill="#E4F2FD"/>
<path d="M300.527 175.597C300.527 179.302 302.85 182.312 305.638 182.312C308.426 182.312 310.749 179.302 310.749 175.597C310.749 171.891 308.426 168.881 305.638 168.881C302.618 168.881 300.527 171.891 300.527 175.597Z" fill="#E4F2FD"/>
<path d="M276.601 175.597C276.601 179.302 278.924 182.312 281.711 182.312C284.499 182.312 286.822 179.302 286.822 175.597C286.822 171.891 284.499 168.881 281.711 168.881C278.924 168.881 276.601 171.891 276.601 175.597Z" fill="#E4F2FD"/>
<circle cx="212.455" cy="25.1136" r="6.9275" transform="rotate(-90 212.455 25.1136)" fill="white"/>
<circle cx="222.172" cy="18.816" r="6.9275" transform="rotate(-90 222.172 18.816)" fill="white"/>
<circle cx="215.408" cy="14.4084" r="4.40841" transform="rotate(-90 215.408 14.4084)" fill="white"/>
<circle cx="217.493" cy="32.851" r="4.40841" transform="rotate(-90 217.493 32.851)" fill="white"/>
<circle cx="220.011" cy="26.3732" r="4.40841" transform="rotate(-90 220.011 26.3732)" fill="white"/>
<path d="M568.792 160.75C553.819 162.3 543.084 175.555 544.638 190.575C546.193 205.594 559.415 216.37 574.388 214.821C589.36 213.271 600.071 199.785 598.541 184.996C596.987 169.977 583.765 159.201 568.792 160.75Z" fill="white"/>
<path d="M568.486 171.292C560.424 172.126 554.644 179.263 555.481 187.351C556.318 195.438 563.437 201.241 571.499 200.406C579.538 199.341 585.318 192.203 584.505 184.347C583.668 176.26 576.549 170.457 568.486 171.292Z" fill="#E4F2FD"/>
<path d="M559.179 67.86C544.206 69.4096 530.984 58.6336 529.429 43.614C527.875 28.5944 538.61 15.339 553.583 13.7894C568.556 12.2399 581.801 23.247 583.332 38.0355C584.886 53.0551 574.152 66.3105 559.179 67.86Z" fill="white"/>
<path d="M556.721 57.6047C548.659 58.4391 541.539 52.6366 540.702 44.5491C539.865 36.4616 545.646 29.3241 553.708 28.4898C561.77 27.6554 568.89 33.4578 569.727 41.5453C570.564 49.6328 564.784 56.7703 556.721 57.6047Z" fill="#E4F2FD"/>
<path d="M513.793 211.983C555.841 197.589 587.974 157.13 583.167 110.684C578.36 64.2392 538.647 31.449 494.542 25.971C452.305 20.5333 412.151 66.7271 416.852 127.897C424.778 188.732 473.54 225.724 513.793 211.983Z" fill="white"/>
<path d="M494.542 25.9714C538.647 31.4495 578.384 64.4707 583.167 110.685C587.95 156.899 555.817 197.358 513.769 211.752C473.54 225.725 424.778 188.733 416.852 127.897C412.151 66.7275 452.305 20.5337 494.542 25.9714ZM425.244 116.753C431.848 169.318 472.411 201.319 505.873 189.449C540.693 177.204 567.133 142.472 562.995 102.496C558.858 62.5212 525.867 33.9398 489.277 29.0853C454.07 24.0878 420.944 63.9492 425.244 116.753Z" fill="#F1F9FF"/>
<path d="M452.958 89.8295C461.894 88.4376 473.199 91.9386 479.008 98.5773C481.924 102.012 486.28 108.101 487.356 118.499C488.456 129.128 485.44 135.98 483.265 139.708C478.938 147.396 468.59 153.137 459.558 153.605C459.558 153.605 441.193 153.871 437.504 122.724C437.528 122.955 433.958 92.9635 452.958 89.8295Z" fill="#E4F2FD"/>
<path d="M452.958 89.8295C461.894 88.4376 473.199 91.9386 479.008 98.5773C481.924 102.012 486.28 108.101 487.356 118.499C488.456 129.128 485.44 135.98 483.265 139.708C478.938 147.396 468.59 153.137 459.558 153.605C459.558 153.605 441.193 153.871 437.504 122.724C437.528 122.955 433.958 92.9635 452.958 89.8295Z" fill="#F1F9FF"/>
<path opacity="0.3" d="M476.661 111.899C475.246 109.476 472.775 108.097 469.669 109.586C469.669 109.586 460.56 113.799 462.136 122.277C462.329 130.898 472.109 133.156 472.109 133.156C476.74 132.91 478.756 129.899 479.223 125.413C479.397 122.592 478.934 115.868 476.661 111.899Z" fill="#039DDF"/>
<path opacity="0.3" d="M498.092 130C492.563 130.572 488.545 134.491 489 138.882C489.454 143.272 494.189 146.285 499.718 145.713C505.246 145.141 509.264 141.222 508.81 136.831C508.356 132.441 503.62 129.428 498.092 130Z" fill="#039DDF"/>
<path d="M502.009 136.367C499.936 136.582 498.491 138.366 498.706 140.446C498.921 142.525 500.701 143.976 502.774 143.761C504.847 143.547 506.293 141.762 506.077 139.683C505.862 137.603 504.082 136.152 502.009 136.367Z" fill="white"/>
<path d="M495.027 136.39C494.106 136.485 493.28 137.505 493.376 138.429C493.472 139.353 494.489 140.182 495.41 140.087C496.332 139.991 497.157 138.972 497.062 138.048C496.942 136.892 495.949 136.294 495.027 136.39Z" fill="white"/>
<path opacity="0.3" d="M495.772 107.586C490.243 108.158 485.508 105.145 485.053 100.755C484.599 96.3645 488.617 92.4455 494.145 91.8733C499.674 91.3012 504.409 94.3143 504.864 98.7046C505.294 102.864 501.3 107.014 495.772 107.586Z" fill="#039DDF"/>
<path d="M498.304 100.551C496.23 100.766 494.451 99.3153 494.235 97.2357C494.02 95.156 495.465 93.3716 497.538 93.1571C499.612 92.9425 501.391 94.3931 501.607 96.4728C501.822 98.5524 500.377 100.337 498.304 100.551Z" fill="white"/>
<path d="M491.464 101.96C490.542 102.055 489.525 101.226 489.43 100.302C489.334 99.3776 490.16 98.358 491.081 98.2626C492.003 98.1673 493.02 98.9962 493.115 99.9205C493.211 100.845 492.385 101.864 491.464 101.96Z" fill="white"/>
<path d="M471.799 112.168C470.211 112.566 469.481 114.51 469.926 116.566C470.372 118.622 472.128 119.841 473.716 119.443C475.305 119.045 476.035 117.101 475.59 115.046C475.12 112.759 473.364 111.539 471.799 112.168Z" fill="white"/>
</g>
<path d="M349.503 129C344.089 129 339.923 133.174 337.243 138.561C334.562 143.949 333.044 150.996 333.044 158.769V171.935C333.08 173.762 331.635 175.272 329.817 175.307C327.949 175.344 326.425 173.812 326.461 171.935V155.461H320.225C318.575 155.463 317.182 156.692 316.966 158.336L310.029 211.26C309.769 213.242 311.305 215.002 313.295 215H385.705C387.695 215.001 389.231 213.242 388.971 211.26L382.034 158.336C381.818 156.692 380.424 155.463 378.774 155.461H372.544V171.935C372.579 173.762 371.135 175.273 369.316 175.307C367.448 175.344 365.924 173.812 365.961 171.935V158.769C365.961 150.995 364.443 143.948 361.762 138.561C359.082 133.174 354.917 129 349.503 129ZM349.503 135.615C351.383 135.615 353.801 137.342 355.881 141.521C357.617 145.01 358.837 149.935 359.211 155.462H339.796C340.169 149.935 341.39 145.009 343.126 141.521C345.206 137.342 347.624 135.615 349.504 135.615H349.503Z" fill="#039DDF"/>
<g filter="url(#filter1_d_475_1138)">
<circle cx="61.7534" cy="196.049" r="7.04934" fill="white"/>
<circle cx="68.1626" cy="203.74" r="7.04934" fill="white"/>
<circle cx="74.5699" cy="196.049" r="4.48595" fill="white"/>
<circle cx="52.7818" cy="201.176" r="4.48595" fill="white"/>
<circle cx="60.4723" cy="203.739" r="4.48595" fill="white"/>
</g>
<g filter="url(#filter2_d_475_1138)">
<circle r="7.04934" transform="matrix(1 0 0 -1 24.4009 207.951)" fill="white"/>
<circle r="7.04934" transform="matrix(1 0 0 -1 30.8101 200.26)" fill="white"/>
<circle r="4.48595" transform="matrix(1 0 0 -1 37.2174 207.951)" fill="white"/>
<circle r="4.48595" transform="matrix(1 0 0 -1 15.4293 202.824)" fill="white"/>
<circle r="4.48595" transform="matrix(1 0 0 -1 23.1197 200.261)" fill="white"/>
</g>
<defs>
<filter id="filter0_d_475_1138" x="72.2998" y="0" width="556.387" height="265.464" filterUnits="userSpaceOnUse" color-interpolation-filters="sRGB">
<feFlood flood-opacity="0" result="BackgroundImageFix"/>
<feColorMatrix in="SourceAlpha" type="matrix" values="0 0 0 0 0 0 0 0 0 0 0 0 0 0 0 0 0 0 127 0" result="hardAlpha"/>
<feOffset dy="20"/>
<feGaussianBlur stdDeviation="15"/>
<feComposite in2="hardAlpha" operator="out"/>
<feColorMatrix type="matrix" values="0 0 0 0 0.25474 0 0 0 0 0.517844 0 0 0 0 0.9125 0 0 0 0.07 0"/>
<feBlend mode="normal" in2="BackgroundImageFix" result="effect1_dropShadow_475_1138"/>
<feBlend mode="normal" in="SourceGraphic" in2="effect1_dropShadow_475_1138" result="shape"/>
</filter>
<filter id="filter1_d_475_1138" x="38.2959" y="189" width="50.7598" height="41.7888" filterUnits="userSpaceOnUse" color-interpolation-filters="sRGB">
<feFlood flood-opacity="0" result="BackgroundImageFix"/>
<feColorMatrix in="SourceAlpha" type="matrix" values="0 0 0 0 0 0 0 0 0 0 0 0 0 0 0 0 0 0 127 0" result="hardAlpha"/>
<feOffset dy="10"/>
<feGaussianBlur stdDeviation="5"/>
<feComposite in2="hardAlpha" operator="out"/>
<feColorMatrix type="matrix" values="0 0 0 0 0.25474 0 0 0 0 0.517844 0 0 0 0 0.9125 0 0 0 0.07 0"/>
<feBlend mode="normal" in2="BackgroundImageFix" result="effect1_dropShadow_475_1138"/>
<feBlend mode="normal" in="SourceGraphic" in2="effect1_dropShadow_475_1138" result="shape"/>
</filter>
<filter id="filter2_d_475_1138" x="0.943359" y="193.211" width="50.7598" height="41.7888" filterUnits="userSpaceOnUse" color-interpolation-filters="sRGB">
<feFlood flood-opacity="0" result="BackgroundImageFix"/>
<feColorMatrix in="SourceAlpha" type="matrix" values="0 0 0 0 0 0 0 0 0 0 0 0 0 0 0 0 0 0 127 0" result="hardAlpha"/>
<feOffset dy="10"/>
<feGaussianBlur stdDeviation="5"/>
<feComposite in2="hardAlpha" operator="out"/>
<feColorMatrix type="matrix" values="0 0 0 0 0.25474 0 0 0 0 0.517844 0 0 0 0 0.9125 0 0 0 0.07 0"/>
<feBlend mode="normal" in2="BackgroundImageFix" result="effect1_dropShadow_475_1138"/>
<feBlend mode="normal" in="SourceGraphic" in2="effect1_dropShadow_475_1138" result="shape"/>
</filter>
</defs>
</svg>
