<svg width="360" height="201" viewBox="0 0 360 201" fill="none" xmlns="http://www.w3.org/2000/svg">
<g filter="url(#filter0_d_475_1139)">
<path d="M160.803 73.9051C166.37 106.091 138.219 139.069 97.8225 139.069C57.4256 139.069 29.275 106.249 34.8415 73.9051C40.2489 41.5611 68.3995 19.9984 97.8225 19.8398C127.245 19.9984 155.237 41.5611 160.803 73.9051Z" fill="white"/>
<path d="M82.7143 21.7424C71.7403 28.0844 61.8797 37.1217 54.5637 46.9517C49.3153 53.9279 44.703 61.8553 43.2716 70.417C42.4764 74.5393 42.4764 78.6615 42.9535 82.7838C43.4307 87.2232 44.0668 93.0895 46.7706 96.8947C49.9514 101.017 54.8818 103.078 58.0626 107.042C60.6073 110.213 62.0387 114.177 64.2653 117.665C69.3547 125.433 76.5116 129.714 85.7361 131.458C90.5074 132.41 95.5968 132.727 100.368 132.885C104.821 132.885 110.388 132.885 113.887 129.397C119.771 123.531 118.658 114.018 123.588 107.517C129.155 100.066 139.652 99.7486 147.445 95.9434C155.556 92.1382 161.122 85.9548 161.122 76.6004C161.122 76.2833 161.122 75.9662 161.122 75.6491C161.122 75.0149 160.963 74.5393 160.804 73.9051C155.397 41.5611 127.246 19.9984 97.8234 19.8398C92.734 19.8398 87.6446 20.6326 82.7143 21.7424Z" fill="white"/>
<path d="M159.849 87.382C153.647 97.8462 139.492 94.9923 129.472 99.9073C122.474 103.237 117.862 108.31 115.953 115.445C114.84 119.409 114.999 129.873 111.659 132.568C105.457 137.801 99.731 134.63 92.415 133.837C84.6219 133.044 76.9879 131.617 70.4671 126.861C67.7634 124.8 65.3777 122.104 63.4692 119.25C60.9245 115.445 59.3341 110.53 56.1532 107.359C52.9724 104.188 48.8373 102.127 46.1335 98.6389C43.7479 95.468 42.6346 91.5042 41.9984 87.5405C40.7261 79.6131 40.567 71.8442 43.2708 64.2338C46.1335 56.1478 50.7458 48.8545 56.1532 42.5126C62.1969 35.5364 69.1948 28.8774 77.1469 23.6453C56.1532 30.9385 38.9766 49.3302 34.8415 73.9053C29.275 106.091 57.4256 139.069 97.8225 139.069C133.925 139.069 160.008 112.908 161.44 84.5281C160.963 85.4794 160.485 86.4307 159.849 87.382Z" fill="white"/>
<path d="M159.849 87.382C153.647 97.8462 139.492 94.9923 129.472 99.9073C122.474 103.237 117.862 108.31 115.953 115.445C114.84 119.409 114.999 129.873 111.659 132.568C105.457 137.801 99.731 134.63 92.415 133.837C84.6219 133.044 76.9879 131.617 70.4671 126.861C67.7634 124.8 65.3777 122.104 63.4692 119.25C60.9245 115.445 59.3341 110.53 56.1532 107.359C52.9724 104.188 48.8373 102.127 46.1335 98.6389C43.7479 95.468 42.6346 91.5042 41.9984 87.5405C40.7261 79.6131 40.567 71.8442 43.2708 64.2338C46.1335 56.1478 50.7458 48.8545 56.1532 42.5126C62.1969 35.5364 69.1948 28.8774 77.1469 23.6453C56.1532 30.9385 38.9766 49.3302 34.8415 73.9053C29.275 106.091 57.4256 139.069 97.8225 139.069C133.925 139.069 160.008 112.908 161.44 84.5281C160.963 85.4794 160.485 86.4307 159.849 87.382Z" fill="#F1F9FF"/>
<path d="M129.311 58.6842C132.015 74.8562 118.019 91.1867 97.8207 91.1867C77.6222 91.1867 63.6265 74.6976 66.3302 58.6842C69.0339 42.5122 83.0297 31.7308 97.8207 31.7308C112.453 31.7308 126.448 42.5122 129.311 58.6842Z" fill="#E4F2FD"/>
<path d="M129.311 58.6842C132.015 74.8562 118.019 91.1867 97.8207 91.1867C77.6222 91.1867 63.6265 74.6976 66.3302 58.6842C69.0339 42.5122 83.0297 31.7308 97.8207 31.7308C112.453 31.7308 126.448 42.5122 129.311 58.6842Z" fill="#F1F9FF"/>
<path d="M61.8791 33.475C57.1078 29.1942 44.0663 39.817 40.8854 42.3538C28.162 51.8667 10.8263 75.8076 25.7763 90.8697C29.4343 94.5164 37.5455 96.419 42.3168 94.3578C46.2929 92.7723 48.8376 88.4915 49.7918 84.6863C50.7461 80.4055 48.5195 77.076 47.4062 73.1123C46.1338 68.6729 48.0423 65.6605 50.7461 62.3309C55.3583 56.4646 60.1296 50.2812 62.6743 43.305C63.6285 40.1341 64.7418 36.0118 61.8791 33.475Z" fill="white"/>
<path d="M61.8791 33.4749C60.9248 32.6822 59.8115 32.3651 58.3801 32.5236C58.8572 33.1578 59.3344 33.9506 59.4934 34.9019C60.2886 38.8656 58.062 43.1464 55.8354 46.1589C52.8136 50.1226 48.8375 53.2936 45.9748 57.4158C44.5434 59.477 43.271 61.8552 42.9529 64.392C42.4758 67.563 43.271 70.734 44.0662 73.9049C45.3386 78.3443 46.929 83.8935 43.9072 88.0158C41.8396 90.8697 38.4997 92.2966 35.0008 92.1381C30.7066 91.9795 26.5715 90.7111 23.7087 87.3816C22.7545 86.2718 21.9593 85.0034 21.1641 83.735C22.1183 86.2718 23.5497 88.65 25.7763 90.7111C29.4343 94.3578 37.5455 96.2604 42.3168 94.1992C46.2928 92.6137 48.8375 88.3329 49.7918 84.5277C50.746 80.2469 48.5194 76.9174 47.4061 72.9536C46.1338 68.5143 48.0423 65.5018 50.746 62.1723C55.3583 56.306 60.1296 50.1226 62.6743 43.1464C63.6285 40.134 64.7418 36.0117 61.8791 33.4749Z" fill="#C28242"/>
<path d="M61.8791 33.4749C60.9248 32.6822 59.8115 32.3651 58.3801 32.5236C58.8572 33.1578 59.3344 33.9506 59.4934 34.9019C60.2886 38.8656 58.062 43.1464 55.8354 46.1589C52.8136 50.1226 48.8375 53.2936 45.9748 57.4158C44.5434 59.477 43.271 61.8552 42.9529 64.392C42.4758 67.563 43.271 70.734 44.0662 73.9049C45.3386 78.3443 46.929 83.8935 43.9072 88.0158C41.8396 90.8697 38.4997 92.2966 35.0008 92.1381C30.7066 91.9795 26.5715 90.7111 23.7087 87.3816C22.7545 86.2718 21.9593 85.0034 21.1641 83.735C22.1183 86.2718 23.5497 88.65 25.7763 90.7111C29.4343 94.3578 37.5455 96.2604 42.3168 94.1992C46.2928 92.6137 48.8375 88.3329 49.7918 84.5277C50.746 80.2469 48.5194 76.9174 47.4061 72.9536C46.1338 68.5143 48.0423 65.5018 50.746 62.1723C55.3583 56.306 60.1296 50.1226 62.6743 43.1464C63.6285 40.134 64.7418 36.0117 61.8791 33.4749Z" fill="#F1F9FF"/>
<path d="M131.38 33.4754C136.152 29.1946 149.193 39.8173 152.374 42.3541C165.097 51.8671 182.433 75.808 167.483 90.8701C163.825 94.5167 155.714 96.4193 150.943 94.3582C146.966 92.7727 144.422 88.4919 143.468 84.6867C142.513 80.4059 144.74 77.0764 145.853 73.1126C147.126 68.6733 145.217 65.6608 142.513 62.3313C137.901 56.465 133.13 50.2816 130.585 43.3054C129.631 40.1344 128.517 36.0122 131.38 33.4754Z" fill="white"/>
<path d="M131.38 33.4751C132.335 32.6823 133.448 32.3652 134.879 32.5238C134.402 33.158 133.925 33.9507 133.766 34.902C132.971 38.8657 135.197 43.1466 137.424 46.159C140.446 50.1227 144.422 53.2937 147.285 57.416C148.716 59.4771 149.988 61.8553 150.306 64.3921C150.784 67.5631 149.988 70.7341 149.193 73.9051C147.921 78.3444 146.33 83.8937 149.352 88.0159C151.42 90.8698 154.76 92.2968 158.259 92.1382C162.553 91.9797 166.688 90.7113 169.551 87.3817C170.505 86.2719 171.3 85.0035 172.095 83.7351C171.141 86.2719 169.71 88.6501 167.483 90.7113C163.825 94.3579 155.714 96.2605 150.943 94.1993C146.966 92.6139 144.422 88.333 143.468 84.5278C142.513 80.247 144.74 76.9175 145.853 72.9538C147.126 68.5144 145.217 65.502 142.513 62.1724C137.901 56.3061 133.13 50.1227 130.585 43.1465C129.631 40.1341 128.517 36.0118 131.38 33.4751Z" fill="#C28242"/>
<path d="M131.38 33.4751C132.335 32.6823 133.448 32.3652 134.879 32.5238C134.402 33.158 133.925 33.9507 133.766 34.902C132.971 38.8657 135.197 43.1466 137.424 46.159C140.446 50.1227 144.422 53.2937 147.285 57.416C148.716 59.4771 149.988 61.8553 150.306 64.3921C150.784 67.5631 149.988 70.7341 149.193 73.9051C147.921 78.3444 146.33 83.8937 149.352 88.0159C151.42 90.8698 154.76 92.2968 158.259 92.1382C162.553 91.9797 166.688 90.7113 169.551 87.3817C170.505 86.2719 171.3 85.0035 172.095 83.7351C171.141 86.2719 169.71 88.6501 167.483 90.7113C163.825 94.3579 155.714 96.2605 150.943 94.1993C146.966 92.6139 144.422 88.333 143.468 84.5278C142.513 80.247 144.74 76.9175 145.853 72.9538C147.126 68.5144 145.217 65.502 142.513 62.1724C137.901 56.3061 133.13 50.1227 130.585 43.1465C129.631 40.1341 128.517 36.0118 131.38 33.4751Z" fill="#F1F9FF"/>
<path d="M63.467 147.63C69.3516 143.825 74.1228 137.8 75.8723 131.299C79.8484 115.92 68.8744 98.638 50.9026 104.187C46.2903 105.614 43.5866 110.371 42.9504 115.444C42.1552 120.993 44.5409 122.896 42.7914 128.445C41.519 132.726 38.6563 136.373 37.3839 140.495C33.4079 152.862 56.31 152.228 63.467 147.63Z" fill="#F1F9FF"/>
<path d="M60.9219 127.494C60.9219 139.544 52.8108 149.374 42.791 149.374C32.7713 149.374 24.6602 139.544 24.6602 127.494C24.6602 115.444 32.7713 105.614 42.791 105.614C52.8108 105.614 60.9219 115.286 60.9219 127.494Z" fill="white"/>
<path d="M52.6517 133.36C52.6517 136.69 48.1985 139.544 42.632 139.544C37.0655 139.544 32.6123 136.848 32.6123 133.36C32.6123 130.031 37.0655 127.177 42.632 127.177C48.1985 127.177 52.6517 129.872 52.6517 133.36Z" fill="#E4F2FD"/>
<path d="M46.287 120.042C46.287 122.579 44.6965 124.64 42.788 124.64C40.8795 124.64 39.2891 122.579 39.2891 120.042C39.2891 117.505 40.8795 115.444 42.788 115.444C44.6965 115.444 46.287 117.505 46.287 120.042Z" fill="#E4F2FD"/>
<path d="M38.1776 123.371C38.1776 125.908 36.5871 127.969 34.6786 127.969C32.7701 127.969 31.1797 125.908 31.1797 123.371C31.1797 120.835 32.7701 118.773 34.6786 118.773C36.5871 118.773 38.1776 120.835 38.1776 123.371Z" fill="#E4F2FD"/>
<path d="M54.4012 123.371C54.4012 125.908 52.8108 127.969 50.9023 127.969C48.9937 127.969 47.4033 125.908 47.4033 123.371C47.4033 120.835 48.9937 118.773 50.9023 118.773C52.8108 118.773 54.4012 120.835 54.4012 123.371Z" fill="#E4F2FD"/>
<path d="M130.268 147.63C124.224 143.825 119.612 137.8 117.862 131.3C113.886 115.92 125.019 98.4799 142.991 104.188C147.603 105.615 150.307 110.371 150.943 115.445C151.738 120.994 149.512 122.896 151.102 128.446C152.375 132.726 155.237 136.373 156.51 140.495C160.327 152.862 137.425 152.228 130.268 147.63Z" fill="#F1F9FF"/>
<path d="M132.812 127.495C132.812 139.544 140.924 149.374 150.943 149.374C160.963 149.374 169.074 139.544 169.074 127.495C169.074 115.445 160.963 105.615 150.943 105.615C140.924 105.615 132.812 115.286 132.812 127.495Z" fill="white"/>
<path d="M141.081 133.361C141.081 136.69 145.534 139.544 151.101 139.544C156.667 139.544 161.12 136.849 161.12 133.361C161.12 130.031 156.667 127.177 151.101 127.177C145.534 127.177 141.081 129.873 141.081 133.361Z" fill="#E4F2FD"/>
<path d="M147.443 120.043C147.443 122.58 149.034 124.641 150.942 124.641C152.851 124.641 154.441 122.58 154.441 120.043C154.441 117.506 152.851 115.445 150.942 115.445C149.034 115.445 147.443 117.506 147.443 120.043Z" fill="#E4F2FD"/>
<path d="M155.714 123.373C155.714 125.909 157.304 127.971 159.213 127.971C161.121 127.971 162.712 125.909 162.712 123.373C162.712 120.836 161.121 118.775 159.213 118.775C157.145 118.775 155.714 120.836 155.714 123.373Z" fill="#E4F2FD"/>
<path d="M139.333 123.373C139.333 125.909 140.923 127.971 142.832 127.971C144.74 127.971 146.331 125.909 146.331 123.373C146.331 120.836 144.74 118.775 142.832 118.775C140.923 118.775 139.333 120.836 139.333 123.373Z" fill="#E4F2FD"/>
<circle cx="95.4156" cy="20.3472" r="4.74277" transform="rotate(-90 95.4156 20.3472)" fill="white"/>
<circle cx="102.068" cy="16.0358" r="4.74277" transform="rotate(-90 102.068 16.0358)" fill="white"/>
<circle cx="97.439" cy="13.0182" r="3.01813" transform="rotate(-90 97.439 13.0182)" fill="white"/>
<circle cx="98.8648" cy="25.6445" r="3.01813" transform="rotate(-90 98.8648 25.6445)" fill="white"/>
<circle cx="100.588" cy="21.2097" r="3.01813" transform="rotate(-90 100.588 21.2097)" fill="white"/>
</g>
<g filter="url(#filter1_d_475_1139)">
<path d="M318.841 113.651C308.608 114.71 301.271 123.77 302.333 134.035C303.396 144.3 312.432 151.665 322.666 150.606C332.899 149.547 340.22 140.33 339.174 130.222C338.111 119.957 329.075 112.592 318.841 113.651Z" fill="white"/>
<path d="M318.631 120.856C313.121 121.426 309.171 126.304 309.743 131.832C310.315 137.359 315.181 141.325 320.691 140.755C326.185 140.026 330.135 135.148 329.58 129.779C329.008 124.251 324.142 120.285 318.631 120.856Z" fill="#E4F2FD"/>
<path d="M312.269 50.1644C302.036 51.2235 292.999 43.8585 291.937 33.5932C290.875 23.3279 298.211 14.2684 308.445 13.2094C318.678 12.1503 327.731 19.6732 328.777 29.7806C329.84 40.0458 322.503 49.1053 312.269 50.1644Z" fill="white"/>
<path d="M310.589 43.1554C305.079 43.7257 300.213 39.7599 299.641 34.2325C299.069 28.705 303.02 23.8268 308.53 23.2565C314.04 22.6863 318.906 26.652 319.478 32.1795C320.05 37.7069 316.1 42.5851 310.589 43.1554Z" fill="#E4F2FD"/>
<path d="M281.252 148.667C309.99 138.829 331.951 111.177 328.666 79.4333C325.381 47.6899 298.238 25.2791 268.095 21.5351C239.227 17.8187 211.784 49.3903 214.996 91.1972C220.413 132.776 253.741 158.058 281.252 148.667Z" fill="white"/>
<path d="M268.094 21.5351C298.237 25.2791 325.396 47.8478 328.665 79.4333C331.934 111.019 309.973 138.671 281.235 148.509C253.74 158.058 220.413 132.776 214.996 91.1972C211.783 49.3903 239.226 17.8187 268.094 21.5351ZM220.731 83.5803C225.245 119.506 252.968 141.378 275.838 133.265C299.636 124.896 317.706 101.158 314.879 73.8369C312.051 46.5154 289.503 26.9812 264.495 23.6634C240.432 20.2478 217.792 47.4914 220.731 83.5803Z" fill="#F1F9FF"/>
<path d="M239.674 65.1795C245.782 64.2282 253.508 66.621 257.478 71.1583C259.472 73.5059 262.448 77.6672 263.184 84.7739C263.935 92.0386 261.874 96.7212 260.387 99.2694C257.431 104.524 250.358 108.448 244.185 108.768C244.185 108.768 231.633 108.949 229.112 87.6616C229.128 87.8195 226.689 67.3215 239.674 65.1795Z" fill="#E4F2FD"/>
<path d="M239.674 65.1795C245.782 64.2282 253.508 66.621 257.478 71.1583C259.472 73.5059 262.448 77.6672 263.184 84.7739C263.935 92.0386 261.874 96.7212 260.387 99.2694C257.431 104.524 250.358 108.448 244.185 108.768C244.185 108.768 231.633 108.949 229.112 87.6616C229.128 87.8195 226.689 67.3215 239.674 65.1795Z" fill="#F1F9FF"/>
<path opacity="0.3" d="M255.871 80.2631C254.904 78.6074 253.216 77.6648 251.093 78.6826C251.093 78.6826 244.867 81.5616 245.944 87.356C246.077 93.2482 252.76 94.7912 252.76 94.7912C255.925 94.6232 257.304 92.5652 257.623 89.4994C257.742 87.5716 257.425 82.9755 255.871 80.2631Z" fill="#039DDF"/>
<path opacity="0.3" d="M270.517 92.6342C266.739 93.0252 263.993 95.7037 264.303 98.7043C264.614 101.705 267.85 103.764 271.629 103.373C275.407 102.982 278.153 100.304 277.843 97.3031C277.532 94.3025 274.296 92.2431 270.517 92.6342Z" fill="#039DDF"/>
<path d="M273.193 96.9861C271.776 97.1327 270.789 98.3523 270.936 99.7736C271.083 101.195 272.299 102.186 273.716 102.04C275.133 101.893 276.121 100.674 275.974 99.2522C275.827 97.8309 274.61 96.8394 273.193 96.9861Z" fill="white"/>
<path d="M268.423 97.0012C267.794 97.0664 267.229 97.7633 267.295 98.395C267.36 99.0267 268.055 99.5932 268.685 99.5281C269.315 99.4629 269.879 98.766 269.814 98.1343C269.732 97.3446 269.053 96.936 268.423 97.0012Z" fill="white"/>
<path opacity="0.3" d="M268.933 77.3156C265.155 77.7066 261.918 75.6473 261.608 72.6467C261.297 69.6461 264.043 66.9676 267.822 66.5765C271.6 66.1855 274.837 68.2448 275.147 71.2455C275.442 74.0882 272.712 76.9246 268.933 77.3156Z" fill="#039DDF"/>
<path d="M270.663 72.5078C269.246 72.6544 268.029 71.663 267.882 70.2416C267.735 68.8203 268.723 67.6007 270.14 67.4541C271.557 67.3074 272.773 68.2989 272.92 69.7202C273.067 71.1416 272.08 72.3611 270.663 72.5078Z" fill="white"/>
<path d="M265.99 73.4702C265.36 73.5354 264.665 72.9688 264.599 72.3371C264.534 71.7054 265.098 71.0085 265.728 70.9433C266.358 70.8782 267.053 71.4447 267.118 72.0764C267.184 72.7081 266.619 73.405 265.99 73.4702Z" fill="white"/>
<path d="M252.549 80.4473C251.463 80.7193 250.964 82.0479 251.269 83.4529C251.573 84.858 252.773 85.6915 253.859 85.4195C254.945 85.1475 255.444 83.8189 255.139 82.4139C254.818 80.8509 253.618 80.0174 252.549 80.4473Z" fill="white"/>
</g>
<path d="M180.502 95C177.007 95 174.317 97.7178 172.587 101.226C170.857 104.734 169.877 109.323 169.877 114.384V122.958C169.9 124.147 168.967 125.13 167.793 125.154C166.587 125.178 165.603 124.18 165.627 122.958V112.23H161.601C160.536 112.232 159.636 113.032 159.497 114.103L155.019 148.564C154.851 149.855 155.843 151.001 157.127 151H203.873C205.158 151.001 206.149 149.855 205.981 148.564L201.503 114.103C201.363 113.032 200.464 112.232 199.399 112.23H195.377V122.958C195.399 124.147 194.467 125.131 193.293 125.154C192.087 125.178 191.103 124.18 191.127 122.958V114.384C191.127 109.322 190.147 104.734 188.416 101.226C186.686 97.7178 183.997 95 180.502 95ZM180.502 99.3077C181.716 99.3077 183.277 100.432 184.619 103.153C185.74 105.425 186.528 108.632 186.769 112.231H174.235C174.476 108.632 175.265 105.425 176.385 103.153C177.728 100.432 179.289 99.3077 180.503 99.3077H180.502Z" fill="#039DDF"/>
<defs>
<filter id="filter0_d_475_1139" x="-10" y="0.00012207" width="213.26" height="200.667" filterUnits="userSpaceOnUse" color-interpolation-filters="sRGB">
<feFlood flood-opacity="0" result="BackgroundImageFix"/>
<feColorMatrix in="SourceAlpha" type="matrix" values="0 0 0 0 0 0 0 0 0 0 0 0 0 0 0 0 0 0 127 0" result="hardAlpha"/>
<feOffset dy="20"/>
<feGaussianBlur stdDeviation="15"/>
<feComposite in2="hardAlpha" operator="out"/>
<feColorMatrix type="matrix" values="0 0 0 0 0.25474 0 0 0 0 0.517844 0 0 0 0 0.9125 0 0 0 0.07 0"/>
<feBlend mode="normal" in2="BackgroundImageFix" result="effect1_dropShadow_475_1139"/>
<feBlend mode="normal" in="SourceGraphic" in2="effect1_dropShadow_475_1139" result="shape"/>
</filter>
<filter id="filter1_d_475_1139" x="184.739" y="3.10986" width="184.534" height="197.597" filterUnits="userSpaceOnUse" color-interpolation-filters="sRGB">
<feFlood flood-opacity="0" result="BackgroundImageFix"/>
<feColorMatrix in="SourceAlpha" type="matrix" values="0 0 0 0 0 0 0 0 0 0 0 0 0 0 0 0 0 0 127 0" result="hardAlpha"/>
<feOffset dy="20"/>
<feGaussianBlur stdDeviation="15"/>
<feComposite in2="hardAlpha" operator="out"/>
<feColorMatrix type="matrix" values="0 0 0 0 0.25474 0 0 0 0 0.517844 0 0 0 0 0.9125 0 0 0 0.07 0"/>
<feBlend mode="normal" in2="BackgroundImageFix" result="effect1_dropShadow_475_1139"/>
<feBlend mode="normal" in="SourceGraphic" in2="effect1_dropShadow_475_1139" result="shape"/>
</filter>
</defs>
</svg>
