<svg width="360" height="287" viewBox="0 0 360 287" fill="none" xmlns="http://www.w3.org/2000/svg">
<g filter="url(#filter0_d_475_1140)">
<path d="M56.9477 80.2677L71.8344 80.0957C72.3604 80.0916 72.8764 80.238 73.3208 80.5174C78.026 84.9559 83.452 82.3982 85.8605 80.8392C86.7739 80.242 87.8403 79.9167 88.9339 79.9016L105.519 79.7129C111.739 79.6408 113.142 70.9747 107.241 69.0107L107.011 68.9385C113.449 63.4848 99.054 52.2943 83.7482 68.184C84.8937 62.941 71.147 64.9883 67.0174 72.1786C65.4639 67.5071 52.4269 75.8015 56.9477 80.2677Z" fill="white"/>
</g>
<g filter="url(#filter1_d_475_1140)">
<path d="M20.6544 53H55.0782C59.4921 53 60.5275 46.8686 56.3861 45.4322L56.2304 45.3782C60.8311 41.5712 50.7266 33.5478 39.7424 44.66C40.5987 40.9534 30.8445 42.297 27.8552 47.3474C26.7965 44.0423 17.486 49.8107 20.6544 53Z" fill="white"/>
</g>
<g filter="url(#filter2_d_475_1140)">
<path d="M150.158 15.8094L327.521 118.315L326.437 120.203L149.073 17.6975L150.158 15.8094Z" fill="white"/>
<path d="M232.539 216.57L262.146 201.406L261.421 200.135C257.166 192.78 157.209 18.8984 153.225 12.0884L152.5 10.908L143.265 15.6296L232.539 216.57ZM258.162 200.226L233.897 212.575L147.068 16.9916L151.505 14.7216C160.74 30.884 248.293 183.156 258.162 200.226Z" fill="white"/>
<path d="M217.872 179.342L239.149 164.088L237.52 161.727L216.152 176.981L217.872 179.342Z" fill="white"/>
<path d="M225.476 196.685L247.658 182.883L246.119 180.432L223.936 194.233L225.476 196.685Z" fill="white"/>
<path d="M217.232 176.666L245.092 180.767L244.671 183.641L216.811 179.541L217.232 176.666Z" fill="white"/>
<path d="M151.42 28.5502L163.056 30.3279L162.619 33.2004L150.983 31.4227L151.42 28.5502Z" fill="white"/>
<path d="M161.489 31.248L164.224 32.2088L159.433 45.9189L156.699 44.958L161.489 31.248Z" fill="white"/>
<path d="M171.875 49.2256L172.418 46.4108L158.384 43.9592L157.841 46.774L171.875 49.2256Z" fill="white"/>
<path d="M170.763 47.3079L173.51 48.2336L167.942 64.845L165.196 63.9193L170.763 47.3079Z" fill="white"/>
<path d="M166.544 62.9788L183.227 65.2892L182.83 68.1675L166.148 65.8571L166.544 62.9788Z" fill="white"/>
<path d="M181.652 66.3014L184.393 67.2448L177.66 86.911L174.92 85.9676L181.652 66.3014Z" fill="white"/>
<path d="M176.466 84.9424L195.794 87.2636L195.449 90.1486L176.121 87.8274L176.466 84.9424Z" fill="white"/>
<path d="M194.281 88.1967L197.017 89.1544L188.959 112.3L186.224 111.342L194.281 88.1967Z" fill="white"/>
<path d="M187.728 109.995L210.615 113.051L210.233 115.931L187.346 112.875L187.728 109.995Z" fill="white"/>
<path d="M209.118 113.951L211.848 114.925L202.194 142.127L199.464 141.153L209.118 113.951Z" fill="white"/>
<path d="M201.027 140.625L228.887 144.72L228.467 147.595L200.607 143.5L201.027 140.625Z" fill="white"/>
<path d="M227.313 145.642L230.035 146.638L218.4 178.624L215.678 177.629L227.313 145.642Z" fill="white"/>
<path d="M227.906 144.9L229.406 147.386L209.032 159.749L207.533 157.263L227.906 144.9Z" fill="white"/>
<path d="M218.748 128.976L220.259 131.456L201.562 142.913L200.052 140.433L218.748 128.976Z" fill="white"/>
<path d="M209.67 113.253L211.238 115.696L194.338 126.607L192.77 124.164L209.67 113.253Z" fill="white"/>
<path d="M230.998 166.539C230.184 167.901 229.731 169.445 229.731 170.988V216.298H292.204C295.373 216.298 297.908 213.755 297.908 210.577V126.587C297.908 123.409 295.283 120.867 292.204 120.867H263.503C260.515 120.867 257.708 122.41 256.169 125.044L243.584 145.928L230.998 166.539Z" fill="white"/>
<path d="M243.402 145.928L297.817 200.498V126.587C297.817 123.409 295.192 120.867 292.113 120.867H263.412C260.424 120.867 257.617 122.41 255.987 125.044L243.402 145.928Z" fill="white"/>
<path d="M242.408 162.362H287.859V127.768H264.953C263.957 127.768 262.961 128.312 262.508 129.13L242.408 162.362Z" fill="#E4F2FD"/>
<g opacity="0.1">
<path d="M267.216 127.858L287.859 148.561V139.027L276.723 127.858H267.216Z" fill="#E4F2FD"/>
</g>
<path d="M188.083 216.116H311.219V237H188.083V216.116Z" fill="white"/>
<path d="M300.805 226.558C300.805 232.278 305.423 237 311.218 237C316.922 237 321.63 232.369 321.63 226.558C321.63 220.838 317.012 216.116 311.218 216.116C305.423 216.116 300.805 220.838 300.805 226.558Z" fill="white"/>
<path d="M177.67 226.558C177.67 232.278 182.287 237 188.082 237C193.786 237 198.494 232.369 198.494 226.558C198.494 220.838 193.877 216.116 188.082 216.116C182.378 216.116 177.67 220.838 177.67 226.558Z" fill="white"/>
<path d="M303.702 226.558C303.702 230.735 307.052 234.094 311.217 234.094C315.381 234.094 318.731 230.735 318.731 226.558C318.731 222.381 315.381 219.022 311.217 219.022C307.052 219.022 303.702 222.381 303.702 226.558Z" fill="#E4F2FD"/>
<path d="M180.568 226.558C180.568 230.735 183.918 234.094 188.083 234.094C192.248 234.094 195.598 230.735 195.598 226.558C195.598 222.381 192.248 219.022 188.083 219.022C183.918 219.022 180.568 222.381 180.568 226.558Z" fill="#E4F2FD"/>
<path d="M291.752 226.558C291.752 229.1 293.743 231.098 296.279 231.098C298.814 231.098 300.806 229.1 300.806 226.558C300.806 224.016 298.814 222.018 296.279 222.018C293.834 222.018 291.752 224.106 291.752 226.558Z" fill="#E4F2FD"/>
<path d="M144.261 16.7192H146.434V88.6328H144.261V16.7192Z" fill="white"/>
<path d="M232.629 231.098H266.672L269.569 222.018H229.731L232.629 231.098Z" fill="#E4F2FD"/>
<path d="M280.072 226.558C280.072 229.1 282.064 231.098 284.599 231.098C287.134 231.098 289.126 229.1 289.126 226.558C289.126 224.016 287.134 222.018 284.599 222.018C282.154 222.018 280.072 224.106 280.072 226.558Z" fill="#E4F2FD"/>
<path d="M210.174 226.558C210.174 229.1 212.166 231.098 214.701 231.098C217.237 231.098 219.229 229.1 219.229 226.558C219.229 224.016 217.237 222.018 214.701 222.018C212.257 222.018 210.174 224.106 210.174 226.558Z" fill="#E4F2FD"/>
<path d="M198.495 226.558C198.495 229.1 200.487 231.098 203.022 231.098C205.557 231.098 207.549 229.1 207.549 226.558C207.549 224.016 205.557 222.018 203.022 222.018C200.577 222.018 198.495 224.106 198.495 226.558Z" fill="#E4F2FD"/>
<path d="M191.704 210.123H307.597V216.388H191.704V210.123Z" fill="white"/>
<path d="M297.908 174.348V210.123H334.577C337.746 210.123 340.281 207.49 340.281 204.403V180.159C340.281 176.981 337.656 174.439 334.577 174.439H297.908V174.348Z" fill="white"/>
<path d="M297.908 174.348V200.498L307.505 210.123H334.577C337.746 210.123 340.281 207.49 340.281 204.403V180.159C340.281 176.981 337.656 174.439 334.577 174.439H297.908V174.348Z" fill="white"/>
<path d="M314.477 198.047C315.292 198.047 315.926 197.411 315.926 196.594V183.065C315.926 182.248 315.292 181.612 314.477 181.612C313.662 181.612 313.028 182.248 313.028 183.065V196.594C313.119 197.411 313.753 198.047 314.477 198.047Z" fill="white"/>
<path d="M320.001 198.047C320.815 198.047 321.449 197.411 321.449 196.594V183.065C321.449 182.248 320.815 181.612 320.001 181.612C319.186 181.612 318.552 182.248 318.552 183.065V196.594C318.552 197.411 319.186 198.047 320.001 198.047Z" fill="white"/>
<path d="M325.523 198.047C326.338 198.047 326.972 197.411 326.972 196.594V183.065C326.972 182.248 326.338 181.612 325.523 181.612C324.708 181.612 324.074 182.248 324.074 183.065V196.594C324.074 197.411 324.708 198.047 325.523 198.047Z" fill="white"/>
<path d="M331.045 198.047C331.86 198.047 332.494 197.411 332.494 196.594V183.065C332.494 182.248 331.86 181.612 331.045 181.612C330.231 181.612 329.597 182.248 329.597 183.065V196.594C329.597 197.411 330.231 198.047 331.045 198.047Z" fill="white"/>
<path d="M305.06 174.893L323.802 122.32H329.597V174.348H332.494V119.414H321.81L302.344 173.894L305.06 174.893Z" fill="white"/>
<path d="M311.217 152.102H331.046V155.008H311.217V152.102Z" fill="white"/>
<path d="M318.462 119.323C318.462 124.045 322.264 127.858 326.973 127.858C331.681 127.858 335.483 124.045 335.483 119.323C335.483 114.602 331.681 110.788 326.973 110.788C322.264 110.788 318.462 114.602 318.462 119.323Z" fill="white"/>
<path d="M142.993 16.7192C142.993 20.442 145.98 23.4384 149.693 23.4384C153.405 23.4384 156.393 20.442 156.393 16.7192C156.393 12.9964 153.405 10 149.693 10C145.98 10 142.993 12.9964 142.993 16.7192Z" fill="white"/>
<path d="M322.263 119.323C322.263 121.956 324.346 124.045 326.972 124.045C329.597 124.045 331.68 121.956 331.68 119.323C331.68 116.69 329.597 114.602 326.972 114.602C324.346 114.602 322.263 116.69 322.263 119.323Z" fill="white"/>
<path d="M148.696 101.072C148.696 101.072 148.878 101.254 148.968 101.799C149.33 103.342 147.7 105.885 145.165 104.523C144.079 103.887 143.898 102.616 144.079 101.89C144.35 100.982 145.437 99.6196 145.89 98.8932C146.795 97.622 146.252 94.9888 145.98 95.1704C145.89 95.1704 145.799 95.352 145.799 95.4428C144.169 98.1668 140.367 99.2564 141.091 102.798C142.359 108.246 150.688 107.61 149.783 102.434C149.692 101.89 149.511 101.345 149.059 100.982C148.968 100.8 148.878 100.8 148.878 100.8C148.787 100.709 148.515 100.891 148.696 101.072Z" fill="white"/>
<path d="M141.093 95.7152C141.093 96.6232 141.817 97.4404 142.813 97.4404H148.155C149.06 97.4404 149.875 96.714 149.875 95.7152V86.8168L145.529 83.4572L141.183 86.8168V95.7152H141.093Z" fill="white"/>
</g>
<g filter="url(#filter3_d_475_1140)">
<path d="M52.1569 188H45.1572V234.839H52.1569V188Z" fill="white"/>
<path d="M57.1298 232.942H40.5137V236.867H57.1298V232.942Z" fill="white"/>
<path d="M103.904 188H96.9043V234.839H103.904V188Z" fill="white"/>
<path d="M108.679 232.942H92.0625V236.867H108.679V232.942Z" fill="white"/>
<path d="M112.604 204.616C112.604 208.018 109.857 210.765 106.455 210.765H42.1493C38.7476 210.765 36 208.018 36 204.616V198.663C36 195.196 38.7476 192.448 42.1493 192.448H106.455C109.857 192.448 112.604 195.196 112.604 198.598V204.616Z" fill="#E4F2FD"/>
<path d="M42.1493 192.448C38.7476 192.448 36 195.196 36 198.598V204.551C36 204.616 36 204.616 36 204.682L48.2331 192.448H42.1493Z" fill="#E4F2FD"/>
<path d="M48.2986 192.448L36 204.747C36.0654 207.495 37.9625 209.85 40.5793 210.504L58.6346 192.448H48.2986Z" fill="white"/>
<path d="M58.569 192.448L40.5137 210.504C41.037 210.635 41.5604 210.7 42.1491 210.7H50.6534L68.9704 192.383H58.569V192.448Z" fill="#E4F2FD"/>
<path d="M61.0548 210.765L79.3718 192.448H69.0358L50.7188 210.765H61.0548Z" fill="white"/>
<path d="M71.4571 210.765L89.7087 192.448H79.3727L61.1211 210.765H71.4571Z" fill="#E4F2FD"/>
<path d="M81.7267 210.765L100.044 192.448H89.7076L71.3906 210.765H81.7267Z" fill="white"/>
<path d="M102.53 210.765L112.605 200.691V198.598C112.605 196.374 111.427 194.411 109.595 193.299L92.1943 210.765H102.53Z" fill="white"/>
<path d="M112.605 200.626L102.53 210.7H106.455C109.857 210.7 112.605 207.952 112.605 204.551V200.626Z" fill="#E4F2FD"/>
<path d="M92.1944 210.765L109.596 193.364C108.68 192.841 107.633 192.514 106.456 192.514H100.11L81.793 210.831H92.1944V210.765Z" fill="#E4F2FD"/>
</g>
<path d="M170.648 128.391C169.919 127.668 168.413 126.27 168.413 126.27C161.974 119.943 155.403 113.746 148.882 107.5C146.792 105.5 144.262 105.5 142.178 107.5C137.674 111.806 133.175 116.113 128.676 120.425C125.869 123.113 123.056 125.801 120.262 128.501C118.858 129.859 118.605 131.935 119.605 133.507C120.659 135.172 122.677 135.929 124.61 135.345C125.11 135.189 125.574 134.923 126.116 134.681V135.519V153.462C126.116 155.225 126.929 156 128.772 156H138.336C138.559 156 138.782 155.983 139.041 155.971V155.191V141.959C139.041 140.161 139.83 139.41 141.727 139.41H149.34C151.171 139.41 151.978 140.19 151.978 141.959V155.249V155.919C152.098 155.965 152.14 155.988 152.177 155.988C155.682 155.988 159.181 156 162.686 155.988C163.469 155.988 164.174 155.688 164.523 155.011C164.77 154.532 164.89 153.942 164.89 153.398C164.921 147.415 164.908 141.439 164.908 135.455V134.617L164.995 134.668C165.176 134.775 165.285 134.84 165.39 134.9C167.372 136.01 169.691 135.634 171.04 133.981C172.449 132.252 172.298 130.01 170.648 128.391Z" fill="#039DDF"/>
<defs>
<filter id="filter0_d_475_1140" x="26" y="50" width="115" height="83" filterUnits="userSpaceOnUse" color-interpolation-filters="sRGB">
<feFlood flood-opacity="0" result="BackgroundImageFix"/>
<feColorMatrix in="SourceAlpha" type="matrix" values="0 0 0 0 0 0 0 0 0 0 0 0 0 0 0 0 0 0 127 0" result="hardAlpha"/>
<feOffset dy="20"/>
<feGaussianBlur stdDeviation="15"/>
<feComposite in2="hardAlpha" operator="out"/>
<feColorMatrix type="matrix" values="0 0 0 0 0.25474 0 0 0 0 0.517844 0 0 0 0 0.9125 0 0 0 0.07 0"/>
<feBlend mode="normal" in2="BackgroundImageFix" result="effect1_dropShadow_475_1140"/>
<feBlend mode="normal" in="SourceGraphic" in2="effect1_dropShadow_475_1140" result="shape"/>
</filter>
<filter id="filter1_d_475_1140" x="-10" y="29" width="99" height="74" filterUnits="userSpaceOnUse" color-interpolation-filters="sRGB">
<feFlood flood-opacity="0" result="BackgroundImageFix"/>
<feColorMatrix in="SourceAlpha" type="matrix" values="0 0 0 0 0 0 0 0 0 0 0 0 0 0 0 0 0 0 127 0" result="hardAlpha"/>
<feOffset dy="20"/>
<feGaussianBlur stdDeviation="15"/>
<feComposite in2="hardAlpha" operator="out"/>
<feColorMatrix type="matrix" values="0 0 0 0 0.25474 0 0 0 0 0.517844 0 0 0 0 0.9125 0 0 0 0.07 0"/>
<feBlend mode="normal" in2="BackgroundImageFix" result="effect1_dropShadow_475_1140"/>
<feBlend mode="normal" in="SourceGraphic" in2="effect1_dropShadow_475_1140" result="shape"/>
</filter>
<filter id="filter2_d_475_1140" x="111" y="0" width="259.281" height="287" filterUnits="userSpaceOnUse" color-interpolation-filters="sRGB">
<feFlood flood-opacity="0" result="BackgroundImageFix"/>
<feColorMatrix in="SourceAlpha" type="matrix" values="0 0 0 0 0 0 0 0 0 0 0 0 0 0 0 0 0 0 127 0" result="hardAlpha"/>
<feOffset dy="20"/>
<feGaussianBlur stdDeviation="15"/>
<feComposite in2="hardAlpha" operator="out"/>
<feColorMatrix type="matrix" values="0 0 0 0 0.25474 0 0 0 0 0.517844 0 0 0 0 0.9125 0 0 0 0.07 0"/>
<feBlend mode="normal" in2="BackgroundImageFix" result="effect1_dropShadow_475_1140"/>
<feBlend mode="normal" in="SourceGraphic" in2="effect1_dropShadow_475_1140" result="shape"/>
</filter>
<filter id="filter3_d_475_1140" x="6" y="178" width="136.604" height="108.867" filterUnits="userSpaceOnUse" color-interpolation-filters="sRGB">
<feFlood flood-opacity="0" result="BackgroundImageFix"/>
<feColorMatrix in="SourceAlpha" type="matrix" values="0 0 0 0 0 0 0 0 0 0 0 0 0 0 0 0 0 0 127 0" result="hardAlpha"/>
<feOffset dy="20"/>
<feGaussianBlur stdDeviation="15"/>
<feComposite in2="hardAlpha" operator="out"/>
<feColorMatrix type="matrix" values="0 0 0 0 0.25474 0 0 0 0 0.517844 0 0 0 0 0.9125 0 0 0 0.07 0"/>
<feBlend mode="normal" in2="BackgroundImageFix" result="effect1_dropShadow_475_1140"/>
<feBlend mode="normal" in="SourceGraphic" in2="effect1_dropShadow_475_1140" result="shape"/>
</filter>
</defs>
</svg>
