<svg width="360" height="251" viewBox="0 0 360 251" fill="none" xmlns="http://www.w3.org/2000/svg">
<g filter="url(#filter0_d_475_1128)">
<path d="M26.1916 129.227H27.81C29.3888 129.227 29.3888 129.831 30.928 131.039C31.2725 131.399 31.747 131.599 32.2441 131.599C32.7412 131.599 33.2157 131.399 33.5602 131.039C33.5602 131.039 35.7067 128.904 36.3958 128.865C37.0849 128.826 38.0141 128.865 38.7032 128.14C39.3924 127.415 38.1356 123.791 37.3278 122.743C36.5173 121.695 36.5992 121.254 36.5596 119.399H36.5568C36.5992 118.104 35.9129 116.89 34.7747 116.258C33.8031 115.494 34.3285 113.437 34.7747 112.875C35.6841 112.052 35.8875 110.706 35.2605 109.653C34.9611 109.144 34.9131 108.529 35.1249 107.981C35.3368 107.433 35.7915 107.011 36.3535 106.834C37.3307 106.494 38.0367 105.638 38.1751 104.618C38.1751 103.409 37.1217 102.241 36.0286 101.637C34.9356 101.033 33.7608 99.3018 35.0966 99.0181C36.4325 98.7371 36.6358 96.7619 37.8898 96.7619C39.1438 96.7619 37.8898 98.414 40.2792 99.0181C42.6685 99.6221 42.1404 95.3122 42.8718 93.4999C43.7163 91.7355 45.1454 90.311 46.9219 89.4737C48.4611 88.6279 47.4472 86.8551 46.9219 85.97C46.3599 84.5175 46.3599 82.9103 46.9219 81.4578C47.4896 80.0474 50.972 78.1957 51.2939 77.7912C51.6187 77.3894 51.8192 76.4229 53.1975 76.6645C54.5729 76.9061 55.4654 74.8916 58.1767 74.5713V74.5685C59.826 74.2987 61.5094 74.7539 62.7944 75.8188C64.0484 76.5437 63.9693 74.8522 64.0088 74.4084C64.0484 73.9644 64.3732 72.436 65.9124 72.7563C67.4516 73.0794 68.7875 73.2002 68.7875 73.2002H73.2019C75.3061 73.2002 74.9416 73.8043 76.4414 73.8043C77.9383 73.8043 79.0736 71.9921 79.6809 70.6209C80.2881 69.2527 80.2881 69.6937 81.8274 69.4128C83.3666 69.1318 84.4991 66.4318 85.1064 65.7069L85.1036 65.7097C85.7701 64.9343 86.7473 64.4903 87.7753 64.4987C88.8683 64.4987 90.368 62.3241 91.0148 61.5571V61.5599C91.4159 61.1075 91.879 60.7142 92.3902 60.3911C93.0906 60.3096 93.7967 60.3096 94.4972 60.3911C96.0364 60.3911 96.6013 60.0286 97.0898 58.1349C97.5756 56.2412 98.9115 56.4042 98.9115 56.4042H103.769C104.865 56.5251 105.854 57.1123 106.481 58.0142C106.884 58.8205 105.995 58.9414 105.427 59.787C104.859 60.6327 105.792 62.7287 105.792 62.7287C105.84 63.8554 106 64.9764 106.277 66.0721C106.509 68.7498 106.605 71.4385 106.563 74.1272C106.238 76.5491 104.159 78.3557 101.702 78.3557C98.0585 78.3557 96.155 72.7561 95.9121 71.9104C95.7935 70.382 95.7935 68.8479 95.9121 67.3195C95.9121 67.3195 95.9121 65.468 95.4659 65.8304H95.4687C94.7316 66.7885 94.3475 67.9658 94.3757 69.171C94.3757 70.8625 92.7574 71.548 91.9468 71.7081L91.944 71.7109C90.6562 72.5145 89.5293 73.5512 88.6255 74.7706C88.0663 76.6363 87.8884 78.5945 88.1002 80.5304C88.2018 80.9687 88.4815 81.3452 88.8712 81.5727C89.261 81.8003 89.7298 81.8621 90.1647 81.7385C90.933 81.4969 90.6901 79.2407 90.772 78.4765C90.8539 77.7123 91.2182 77.1475 92.3112 77.4285C93.4042 77.7095 93.6076 81.0951 93.6076 81.0951H93.6047C94.0227 81.7048 94.4802 82.2836 94.983 82.8258C96.1579 84.2363 96.8046 81.6992 97.1295 80.8928C97.4543 80.0864 98.9511 80.1286 99.5584 80.3702C100.626 80.6596 101.739 80.7411 102.837 80.6118C104.134 80.6118 103.848 80.6118 104.416 81.0558C104.984 81.4997 104.984 82.3033 104.416 83.7137C103.848 85.1241 104.741 85.2449 104.741 85.2449C104.741 85.2449 108.184 80.491 110.045 79.7661C111.906 79.0412 112.191 76.7851 113.203 76.7036C114.214 76.6221 114.335 78.7968 114.699 79.2407C115.064 79.6846 114.62 81.2552 114.62 81.2552C114.569 81.6092 114.377 81.9239 114.086 82.129C113.796 82.3369 113.431 82.4128 113.081 82.3425C111.906 82.3425 112.513 81.5362 111.542 81.2946C110.57 81.0529 110.288 82.705 110.288 82.705C109.895 83.9047 110.09 85.2168 110.813 86.2507C111.824 87.1358 111.824 86.2507 113.649 85.6073V85.6045C114.928 84.9976 116.417 84.9976 117.696 85.6045C119.642 86.0035 121.622 86.1945 123.607 86.1693C124.387 86.2929 125.149 86.5092 125.875 86.8155C126.643 87.2173 125.875 87.9028 125.875 87.9028C125.875 87.9028 124.257 88.5884 124.296 89.5942C124.336 90.6001 126.2 90.1983 127.496 90.7209H127.493C129.084 91.2098 130.73 91.4935 132.394 91.5666C133.526 91.5666 133.608 92.5332 132.961 93.7806C132.314 95.028 133.69 94.9494 133.772 94.8286C134.187 94.2105 134.76 93.7103 135.43 93.3788C136.562 92.7354 135.955 91.7689 136.362 91.0018C136.766 90.2376 137.13 89.996 139.034 91.0018V91.0047C141.502 93.626 143.428 96.7054 144.702 100.066C145.027 101.314 145.795 101.918 146.605 101.637C147.416 101.356 147.009 99.785 147.009 99.785C146.823 99.3524 146.741 98.8832 146.766 98.414C146.766 97.9701 147.577 97.9701 146.766 96.8827V96.8855C146.309 96.3348 146.17 95.5875 146.402 94.9104C146.402 94.9104 147.535 93.0588 148.063 92.3733C148.376 91.8198 148.529 91.1932 148.509 90.5611C148.509 90.5611 148.509 89.072 149.238 89.072V89.0692C149.608 89.0832 149.972 88.9512 150.249 88.7067L151.909 87.4171C151.909 87.4171 154.256 84.2759 155.352 84.3546C156.445 84.436 156.12 84.3546 156.363 83.5903C156.606 82.8261 157.578 82.0198 158.145 82.1406C158.713 82.2614 159.399 82.9863 158.549 83.5089C157.699 84.0314 158.145 84.717 158.145 84.717V84.7198C158.806 85.2818 159.227 86.0741 159.32 86.9366C159.089 88.2515 158.453 89.4625 157.496 90.3981C156.985 91.1989 156.589 92.067 156.324 92.9773C155.855 94.68 155.273 96.3461 154.581 97.9728C154.126 98.8045 153.85 99.7233 153.773 100.67C153.686 101.662 153.686 102.659 153.773 103.651C153.762 104.682 153.423 105.685 152.799 106.511L150.167 108.928C148.87 110.136 145.145 109.13 143.688 109.13C142.23 109.13 143.323 110.057 143.323 110.057C143.323 110.057 146.038 113.28 147.374 113.401C148.709 113.521 151.746 111.145 152.678 110.459C153.697 109.616 154.42 108.473 154.745 107.197C154.937 106.039 155.846 105.132 157.01 104.941C158.507 104.578 159.156 105.584 159.439 106.632H159.442C159.656 107.576 159.557 108.568 159.156 109.45C159.156 109.45 157.374 111.827 159.521 112.19C161.667 112.552 161.382 110.58 160.532 109.976C159.682 109.372 160.532 108.366 160.857 107.762V107.759C161.365 106.986 161.554 106.048 161.385 105.14C161.06 103.932 159.238 103.126 159.238 103.126V103.129C158.408 103.14 157.58 103.058 156.767 102.887C155.471 102.564 156.564 100.308 156.564 100.229C156.564 100.148 158.021 96.8857 158.467 96.2001C158.795 95.4387 158.933 94.6098 158.874 93.7838C158.874 93.7838 158.592 91.3281 160.049 91.2467C160.885 91.2186 161.614 90.6679 161.87 89.8756C161.87 89.8756 162.153 85.8466 162.924 86.7344C163.692 87.6195 161.467 92.2526 161.467 92.2526C161.467 92.2526 159.442 94.7504 161.992 95.1128C164.542 95.4753 164.339 94.9105 163.61 93.3821C162.882 91.8509 164.096 92.0139 165.593 91.0052C167.09 89.9993 167.739 91.0052 167.739 91.0052C168.318 91.8649 168.954 92.6853 169.643 93.4608C170.168 93.9047 171.465 94.8291 172.193 93.7839C172.922 92.736 171.747 90.7636 170.897 88.5074C170.047 86.2513 172.558 86.0518 172.558 86.0518C172.558 86.0518 177.294 86.0518 178.794 86.2934C180.29 86.5351 179.969 85.1668 179.969 85.1668V85.1639C179.381 84.3632 179.031 83.4135 178.957 82.4245C178.957 81.3766 182.358 78.9603 184.058 78.1539C185.662 77.4908 187.351 77.0412 189.08 76.8249C190.294 76.6226 190.012 75.8583 190.74 75.8583C191.469 75.8583 190.74 76.704 191.672 76.985C192.604 77.2659 192.362 76.4624 192.847 76.0578C193.333 75.656 194.587 76.0578 194.587 76.0578C194.587 76.0578 194.141 76.0578 194.587 74.8103C195.033 73.5628 197.423 74.2455 196.894 73.7623L196.892 73.7651C196.171 72.9166 195.861 71.7984 196.042 70.7026C196.355 69.5872 197.231 68.7162 198.349 68.4071C199.563 68.0447 200.778 69.4945 200.778 69.576C200.778 69.6574 200.089 70.461 200.778 70.7448C201.467 71.0257 201.71 71.3095 202.317 72.3547C202.924 73.4027 204.139 72.3547 205.517 71.6692C206.892 70.9836 208.353 72.1131 209.081 72.675C209.81 73.2397 211.185 74.9311 210.863 75.7375H210.861C210.513 76.6338 210.375 77.6002 210.457 78.5584C210.457 80.4914 209.039 81.014 208.31 81.9412C207.875 82.579 207.596 83.3094 207.5 84.0765C207.5 84.0765 205.192 87.0969 204.3 88.1056L204.303 88.1028C203.78 88.7799 203.613 89.6622 203.856 90.4798C203.856 90.4798 208.471 87.0155 209.485 85.8888C210.496 84.7621 209.485 83.8349 210.457 83.2309C211.428 82.6268 211.996 83.7535 212.925 84.4391C213.857 85.1246 214.504 84.4391 214.504 84.4391C214.504 84.4391 216.447 82.1829 217.743 82.1042C219.04 82.0228 219.283 82.6268 220.376 83.1916V83.1887C221.683 83.599 223.062 83.7366 224.426 83.5933C225.194 83.5933 226.572 83.3517 226.329 81.5788C226.304 80.5842 225.931 79.6289 225.276 78.8787C224.79 78.1539 225.923 77.5105 226.651 77.4683C227.38 77.429 227.34 78.0331 228.634 78.5163C229.93 78.9996 229.645 78.5163 230.859 77.9122C232.074 77.3082 234.138 78.9602 234.909 79.8453C235.678 80.7303 234.909 81.1349 234.909 81.1349C234.909 81.1349 232.684 81.739 234.627 82.1829C236.57 82.6268 236.813 83.7928 238.677 84.439C240.538 85.0824 241.431 85.1639 241.47 83.8743C241.51 82.5846 240.013 81.2164 240.62 80.41C241.227 79.6036 242.078 80.41 242.967 80.41C243.857 80.41 244.06 80.0082 244.142 78.7579C244.224 77.5104 245.599 77.7521 245.681 77.7521C245.763 77.7521 248.678 77.7521 248.638 77.4711C248.599 77.1902 247.302 76.6254 247.263 76.1029C247.223 75.5803 248.881 75.8612 248.881 75.8612C248.881 75.8612 251.474 75.1757 248.881 73.6472C246.289 72.116 247.463 68.6517 247.463 68.6517C247.463 68.6517 249.892 66.8002 251.028 66.0725C252.16 65.3476 252.485 66.0725 252.485 66.0725C252.485 66.0725 254.024 69.1743 254.711 68.4888C255.4 67.8032 255.114 66.3956 255.075 65.991C254.648 65.2408 254.648 64.3249 255.075 63.5747C255.764 62.448 256.857 62.6896 257.1 63.1307C257.38 63.8725 258.049 64.4007 258.84 64.499C259.763 64.4653 260.619 64.0045 261.15 63.2515C261.294 63.0661 261.52 62.9565 261.757 62.9565C261.994 62.9565 262.217 63.0661 262.364 63.2515C262.647 63.6954 263.457 63.5746 263.983 63.5325C264.508 63.4931 265.115 62.1221 265.683 61.3971C266.251 60.6722 266.008 59.3432 267.019 57.3681V57.3709C267.442 56.2414 268.304 55.3283 269.408 54.8338C270.157 54.4882 270.973 54.3112 271.798 54.3084C273.376 54.3084 273.944 55.9605 274.755 56.1206L274.752 56.1234C275.831 56.1571 276.904 55.9801 277.912 55.598C279.045 55.2749 278.155 54.9124 277.508 54.3505C276.861 53.7857 276.941 52.659 277.508 51.7713C278.076 50.8862 280.101 48.1861 280.505 47.3798L280.502 47.3826C280.815 46.2194 280.731 44.986 280.259 43.8761C279.855 43.3114 280.259 42.0639 280.663 41.9431C281.067 41.8223 281.31 41.9431 281.431 43.0304C281.553 44.1177 283.171 44.1992 284.388 43.9576C285.603 43.716 286.778 41.5807 285.764 40.8164H285.766C284.651 40.1758 283.36 39.9089 282.081 40.0494C280.502 40.0494 281.191 37.3915 281.191 37.3915C281.191 37.3915 282.405 34.6521 283.741 32.2751V32.2779C284.769 30.609 286.037 29.103 287.506 27.805C287.506 27.805 293.578 21.7221 294.957 20.4353C295.626 19.7104 296.527 19.2412 297.507 19.1063C298.851 19.2918 300.213 19.2918 301.557 19.1063C302.611 18.7439 302.69 16.7715 301.882 17.0525C301.136 17.3952 300.278 17.3952 299.532 17.0525C298.843 16.69 299.128 14.7176 299.207 14.0714C300.258 12.3323 301.791 10.9331 303.622 10.0424C304.958 9.76142 305.443 10.9275 305.808 12.0569C306.994 13.6387 308.674 14.7851 310.586 15.319C312.247 15.7207 311.355 16.8895 311.355 16.8895C310.843 16.9514 310.462 17.384 310.465 17.8982C310.423 18.4966 310.112 19.0445 309.615 19.3873C309.615 19.3873 307.632 20.4746 306.536 21.1995C305.443 21.9243 305.929 23.214 305.969 24.3407H305.971C306.045 24.9475 305.641 25.5095 305.039 25.6303H303.014C303.014 25.6303 301.517 26.2344 301.597 27.1194V27.1222C301.678 27.6364 302.128 28.0129 302.65 28.0073H305.565C307.008 28.4063 308.14 29.5189 308.561 30.9489C308.702 31.6794 308.44 32.4324 307.872 32.9213C307.265 33.4018 306.768 34.0058 306.415 34.6942C305.889 35.6214 306.415 36.748 307.062 36.748C307.708 36.748 307.951 35.4191 308.558 34.5341C309.166 33.649 309.733 33.8907 309.733 33.8907L313.015 33.8879C313.473 33.9412 313.933 33.826 314.312 33.5647C315.512 32.5533 317.167 32.2611 318.644 32.8005C319.776 33.4439 318.644 35.7815 318.198 36.3041C317.751 36.8267 317.551 36.6273 317.63 37.8354C317.992 39.5718 318.619 41.2435 319.494 42.7888C320.231 44.6628 320.773 46.6071 321.112 48.5907C322.027 50.7513 323.27 52.763 324.798 54.55C325.244 55.0726 324.798 55.4772 323.787 55.4772C322.776 55.4772 321.965 55.8003 320.951 57.25C319.94 58.6998 320.951 61.2791 320.951 61.2791C320.951 61.2791 321.923 63.6561 321.559 64.1C321.194 64.5439 320.019 64.1 320.019 64.1V64.0972C320.132 64.513 320.31 64.9064 320.545 65.266C320.824 65.7099 320.824 66.2718 320.545 66.7158C320.22 67.362 319.839 67.9829 319.412 68.5673C318.805 69.3315 319.412 70.0171 320.627 70.5818C321.525 71.2337 322.214 72.1271 322.612 73.1611C322.612 73.1611 325.366 76.586 326.055 76.586C326.744 76.586 327.108 76.1421 327.391 75.0969C327.673 74.0489 328.281 75.0969 328.97 76.0241L328.967 76.0213C329.331 76.5439 329.91 76.8838 330.546 76.9457C331.706 76.9935 332.862 77.1564 333.988 77.429C334.678 77.7914 334.435 78.7186 333.988 80.5702C333.542 82.4217 337.431 82.905 339.089 83.7535C340.75 84.5992 339.535 86.1698 339.089 87.7826C338.643 89.3925 340.668 91.3283 342.368 91.8116L342.371 91.8088C342.792 91.938 343.128 92.2583 343.272 92.6713C343.416 93.0872 343.351 93.5451 343.1 93.9047C343.1 93.9047 341.967 95.0736 342.331 96.1187C342.696 97.1667 343.828 97.0459 345.207 98.0911L345.204 98.0939C346.105 98.8104 346.743 99.7994 347.025 100.912C347.449 102.404 347.587 103.963 347.432 105.503C347.39 106.27 345.407 105.424 345.407 105.424L337.31 102.12C334.963 101.193 331.116 99.0183 328.97 97.8494L328.967 97.8523C326.143 95.5624 323.697 92.8427 321.72 89.7943C321.009 87.6814 320.678 85.459 320.749 83.231C320.667 82.0368 320.277 80.8849 319.616 79.8875C319.616 79.8875 316.863 74.9735 316.659 74.33V74.3272C316.185 72.8549 315.914 71.3237 315.851 69.7756C316.052 68.6377 315.428 67.5167 314.352 67.0783C313.208 66.3197 312.163 65.4263 311.234 64.4204C310.841 63.2741 310.598 62.0828 310.505 60.8747C309.822 61.445 309.212 62.094 308.683 62.8077C308.28 63.4932 308.683 65.991 309.898 66.1905C311.112 66.3928 312.612 67.6009 312.287 67.6796C311.962 67.7611 311.64 69.4524 311.962 70.0959V70.0987C312.592 71.4951 312.951 73.0011 313.016 74.5295C312.733 75.1336 311.033 74.5295 311.033 74.5295C310.067 73.9789 309.048 73.5181 307.994 73.1613C307.266 73.1613 306.577 75.3359 305.93 76.3446V76.3418C305.478 77.4825 305.678 78.7749 306.458 79.7246C306.884 80.3624 307.252 81.0367 307.551 81.7391C307.551 81.7391 307.551 84.841 307.794 86.2092C308.037 87.5775 309.412 88.6649 310.019 89.1903C310.494 89.5527 311.084 89.7269 311.68 89.6735C312.033 89.7859 312.27 90.1118 312.27 90.4799C312.27 90.8479 312.033 91.1739 311.68 91.2863C310.505 91.851 310.466 93.3795 310.223 94.1072C309.98 94.832 309.412 96.2818 308.198 96.4026C306.983 96.5234 306.658 95.0344 305.444 94.9922C304.229 94.9529 304.837 96.2004 304.069 96.7651C303.3 97.3298 303.665 98.4565 303.543 100.109C303.422 101.761 299.493 103.171 299.493 104.138V104.135C299.753 104.924 299.414 105.787 298.683 106.189C297.485 106.68 296.42 107.439 295.565 108.405C294.652 109.58 294.054 110.965 293.825 112.432V135.027V135.03C293.862 135.954 293.573 136.867 293.014 137.606C292.721 138.207 292.582 138.873 292.61 139.539C292.61 140.545 294.311 139.941 295.203 138.775H295.2C295.728 138.126 296.686 138.016 297.347 138.533C297.347 138.533 298.44 140.466 299.086 140.104C299.733 139.741 299.086 137.848 299.815 137.769C300.544 137.687 300.058 138.575 300.908 139.46C301.758 140.345 302.73 139.46 303.216 138.856C303.701 138.252 303.216 136.721 303.216 135.353L303.218 135.35C303.097 134.639 303.506 133.942 304.19 133.701H307.833C309.262 133.549 310.663 134.161 311.519 135.311C311.762 136.117 313.058 136.881 314.191 137.364C315.323 137.848 316.173 140.427 316.416 141.393C316.789 142.574 317.235 143.731 317.752 144.858C319.032 146.268 320.382 147.614 321.802 148.884C322.833 150.002 323.497 151.41 323.706 152.913C323.706 153.919 325.528 155.773 325.245 156.658H325.242C324.796 159.71 324.867 162.814 325.446 165.843C326.174 168.035 326.395 170.361 326.095 172.651C325.714 174.205 325.632 175.818 325.852 177.402C326.186 180.226 326.186 183.078 325.852 185.901C325.31 188.211 323.847 190.203 321.802 191.419C320.689 191.461 319.577 191.38 318.481 191.178C317.106 190.897 317.185 193.313 317.185 193.313V195.811C317.185 196.575 316.538 197.783 316.052 197.381C315.566 196.98 316.052 194.723 316.052 194.723C315.041 193.394 316.052 193.718 315.202 191.341C314.352 188.964 311.395 187.876 311.152 187.312C310.909 186.747 312.205 186.264 312.284 185.418C312.366 184.572 312.852 184.21 314.795 183.364H314.798C315.402 183.19 315.882 182.726 316.077 182.131C316.272 181.532 316.156 180.878 315.769 180.383C315.405 179.9 316.216 177.764 315.001 175.913H314.998C313.934 173.665 313.264 171.255 313.016 168.782C313.016 168.782 311.923 165.559 310.466 166.203V166.206C308.593 167.883 307.195 170.024 306.415 172.409C305.605 174.014 303.882 174.961 302.083 174.783C300.626 174.503 299.247 171.763 298.033 171.561C296.819 171.359 296.98 172.005 296.172 172.005C295.361 172.005 294.553 171.44 293.864 171.401C292.596 171.328 291.342 171.682 290.303 172.409C289.569 172.952 288.563 172.952 287.832 172.409C287.832 172.409 278.356 164.354 277.548 163.75V163.747C276.303 162.944 274.936 162.345 273.498 161.977C272.769 161.977 273.134 162.46 271.555 162.983C270.228 163.289 268.861 163.371 267.505 163.225L261.633 168.018C261.633 168.018 259.083 170.193 261.633 170.555C264.184 170.917 263.737 172.648 263.373 173.778H263.376C262.913 175.115 262.639 176.511 262.565 177.927C262.602 179.391 263.113 180.805 264.023 181.954C264.316 182.119 264.494 182.426 264.494 182.76C264.494 183.094 264.316 183.401 264.023 183.566C263.254 184.01 261.594 186.708 260.701 187.191H260.704C259.458 187.531 258.142 187.531 256.897 187.191C255.979 186.966 255.007 187.242 254.347 187.916C253.335 188.722 252.364 187.916 251.39 187.312C250.418 186.708 249.446 187.756 249.446 187.756C247.856 189.852 246.097 191.818 244.185 193.636C240.914 195.676 237.152 196.803 233.292 196.898C231.552 196.898 230.456 194.642 229.77 194.319C229.081 193.996 227.827 194.319 226.895 194.319C225.963 194.319 223.98 193.634 222.845 193.513L222.848 193.515C221.709 193.634 220.633 194.097 219.769 194.844C218.326 195.679 216.62 195.937 214.993 195.569C212.725 195.207 211.875 191.824 211.471 191.139C211.067 190.453 211.471 190.453 207.989 190.211H207.986C205.826 189.992 203.761 189.217 201.996 187.955C201.996 188.84 201.106 190.13 199.728 191.501C198.909 192.189 198.576 193.296 198.878 194.319C199.457 195.021 199.948 195.794 200.335 196.617C200.66 197.502 198.392 198.632 198.392 198.632H195.192C192.724 198.632 192.56 198.188 192.56 198.188C191.673 198.281 190.778 198.281 189.888 198.188C188.552 198.188 188.27 196.699 187.945 196.053C187.86 195.71 187.612 195.432 187.281 195.302C186.954 195.176 186.581 195.215 186.284 195.406C185.135 195.743 183.898 195.614 182.844 195.044C181.986 194.794 181.071 194.794 180.212 195.044C179.289 195.991 178.269 196.839 177.176 197.584C176.168 198.174 175.027 198.505 173.855 198.55C172.923 198.55 172.315 199.84 171.262 200.483C170.208 201.127 168.63 200.121 168.144 200.483C167.658 200.846 165.351 201.248 164.865 200.806C164.379 200.363 164.54 197.986 163.732 197.786C162.922 197.584 162.436 198.873 161.303 198.55C159.182 197.775 157.638 195.932 157.253 193.715C156.686 190.695 154.418 190.695 154.418 190.695H154.421C152.955 190.877 151.472 190.877 150.006 190.695C148.913 190.293 148.71 189.245 148.388 188.601C148.063 187.958 147.577 187.475 145.999 188.36C144.42 189.245 143.934 188.36 143.934 188.36C143.988 187.101 143.877 185.842 143.609 184.612C142.852 182.833 142.386 180.942 142.234 179.015C142.234 177.647 140.33 174.986 139.765 173.578L139.763 173.575C139.477 172.46 139.638 171.277 140.209 170.274C139.121 169.934 137.944 170.035 136.93 170.555C135.224 171.272 133.394 171.654 131.544 171.685C130.908 171.701 130.284 171.519 129.762 171.159C129.276 171.159 130.651 169.67 130.694 169.468C130.733 169.265 130.329 168.541 129.358 168.341C128.386 168.139 128.669 167.335 127.861 166.408C127.05 165.481 126.161 165.964 125.189 165.602C124.218 165.239 126.079 161.977 126.039 160.929C126 159.881 124.379 160.123 123.893 160.044C123.407 159.963 123.368 159.803 122.232 158.755C121.933 158.423 121.506 158.232 121.057 158.232C120.608 158.232 120.182 158.423 119.882 158.755C119.159 159.125 118.298 159.125 117.575 158.755C116.886 158.311 114.982 158.754 114.417 158.232V158.229C113.172 157.923 111.892 157.788 110.61 157.827C108.805 157.456 107.04 156.903 105.349 156.175C104.295 155.45 103.688 155.894 102.555 155.773C101.423 155.653 101.988 154.405 100.045 154.121C98.1014 153.84 98.5872 156.658 98.7482 157.586C98.9092 158.513 97.7371 158.271 96.6017 158.15C95.4692 158.03 95.1048 159.639 94.4552 160.244C94.1078 160.586 93.5486 160.586 93.2012 160.244C93.0091 160.033 92.738 159.915 92.4527 159.915C92.1675 159.915 91.8935 160.033 91.7014 160.244C90.9332 161.008 92.2691 162.66 93.2407 163.91C93.8422 164.556 93.8422 165.557 93.2407 166.206C93.2407 166.206 89.8402 166.891 88.8687 165.843C87.8971 164.795 87.2503 165.36 86.1545 165.118C85.0615 164.877 85.2648 162.056 85.2225 161.373C85.1829 160.688 84.8186 159.923 84.0476 159.884C83.2794 159.845 81.8221 159.884 81.6187 159.319L81.6215 159.316C81.4323 158.566 80.7403 158.047 79.9608 158.069C78.896 158.187 77.82 158.018 76.8428 157.586C76.357 157.142 75.9107 155.692 75.5888 155.532C75.264 155.372 74.3743 155.813 74.7387 154.846C74.9222 154.161 74.9222 153.439 74.7387 152.753C74.7584 151.938 74.6087 151.126 74.2924 150.376C73.8066 149.53 72.6317 149.691 72.2674 149.249C71.9031 148.806 72.0245 148.404 71.4173 147.398C70.81 146.392 69.5956 146.634 69.0279 146.069C68.4602 145.504 68.4602 144.74 68.5817 144.701L68.5845 144.695C66.9097 144.791 65.2321 144.642 63.6025 144.254C62.7863 143.99 61.9079 143.99 61.0917 144.254L58.9057 146.549C58.338 147.114 57.4088 146.549 57.2874 145.544V145.541C57.2676 144.698 57.4766 143.863 57.8946 143.124C57.8946 143.124 55.5871 143.729 55.0194 143.124C54.6975 142.838 54.2795 142.681 53.8445 142.683C52.9662 143.737 51.9099 144.636 50.7265 145.341C49.7663 145.709 48.8738 146.24 48.0971 146.912C48.0971 147.114 48.6648 147.597 48.6224 148.12C48.5829 148.643 47.7723 149.289 47.4899 150.135C47.2075 150.98 48.4219 151.382 49.1082 152.028C49.7973 152.672 49.4726 154.203 49.5121 154.928C49.5516 155.653 48.2581 157.021 47.73 157.223C47.2047 157.426 47.0409 158.229 47.3261 158.875C47.5267 159.485 47.2301 160.148 46.637 160.404C46.1117 160.685 44.9368 160.081 44.9368 160.081H42.7112V160.083C41.9035 159.904 41.1776 159.465 40.6467 158.833C40.079 158.069 39.3107 159.075 38.2573 159.76C37.2039 160.446 34.614 160.606 34.2073 161.21C33.8034 161.814 34.4897 163.91 34.2073 164.877C33.1482 166.315 31.9704 167.661 30.6854 168.903C30.2165 169.954 29.9934 171.097 30.0386 172.246C30.0075 173.393 29.7308 174.519 29.228 175.551C27.8611 175.646 26.4856 175.48 25.178 175.067C24.8532 175.067 24.8532 173.497 25.178 172.57C25.5028 171.642 24.6527 170.597 24.5312 170.193C24.1838 169.17 24.0454 168.088 24.1273 167.012C24.5482 165.711 24.6611 164.332 24.4493 162.983C24.0454 161.775 22.06 160.929 21.0489 160.162C20.0378 159.398 20.6026 156.133 20.3202 155.209C20.0378 154.282 18.2161 152.874 17.688 152.025C17.1627 151.18 17.1627 148.884 16.756 147.996C16.3521 147.114 14.3694 145.704 14.3694 145.704V138.494C14.0164 137.393 14.0164 136.21 14.3694 135.109C14.6829 134.03 14.5954 132.872 14.1265 131.847C14.1265 131.847 13.6408 130.678 14.5728 130.557C15.5048 130.436 16.6374 133.819 16.6374 133.819L16.6345 133.822C17.2446 133.221 17.9394 132.721 18.7019 132.33C19.5125 132.007 20.2807 133.016 20.6846 133.578C21.0885 134.142 21.4952 133.62 21.4952 133.62C21.4952 133.62 22.5486 130.799 23.4383 130.88C24.8674 131.394 26.2287 132.086 27.4883 132.934C27.9741 132.131 26.192 129.228 26.192 129.228L26.1916 129.227ZM119.316 81.4578C119.316 81.8595 119.316 82.6266 120.692 82.6266C122.067 82.6266 122.431 82.6266 122.717 82.385C122.926 81.9551 122.929 81.4549 122.725 81.0251C122.519 80.5952 122.129 80.2805 121.663 80.1682C121.18 80.008 120.652 80.0558 120.206 80.3002C119.76 80.5447 119.435 80.9661 119.316 81.4578L119.316 81.4578ZM135.957 89.3107C136.2 89.8333 136.768 89.7547 137.415 89.3107C138.061 88.8668 137.982 88.1419 137.818 87.7402C137.657 87.3384 137.172 86.1696 136.361 86.3297C135.551 86.4899 135.672 87.9397 135.672 87.9397V87.9425C135.68 88.4117 135.776 88.8781 135.957 89.3108V89.3107ZM132.636 81.6182C132.636 81.6182 134.458 84.5992 135.268 84.2761C136.079 83.953 136.158 81.2951 136.079 80.5309C136.062 79.4323 136.435 78.3618 137.129 77.5105C138.036 76.3866 139.149 75.4426 140.411 74.7318C141.544 74.33 142.193 74.0069 142.272 73.5236C142.354 73.0403 143.569 73.5236 144.094 73.0797C145.396 72.2087 146.746 71.4136 148.144 70.7027C149.604 70.2503 151.093 69.8879 152.598 69.6154L159.156 69.1715C159.156 69.1715 162.963 68.2049 162.356 66.6344C161.749 65.0639 161.059 65.3447 160.088 65.4656C159.116 65.5864 158.752 66.3928 157.213 66.3928C155.815 66.2972 154.442 65.9573 153.163 65.387C152.112 64.9627 150.937 64.9627 149.884 65.387C148.842 66.1877 147.641 66.7665 146.362 67.0784C144.961 67.5111 143.605 68.0758 142.312 68.7698C141.459 69.2756 140.716 69.947 140.126 70.745C139.194 72.0346 138.222 71.7508 137.129 71.8717C136.036 71.9925 135.147 73.4029 135.147 73.4029C134.748 73.8215 134.189 74.0576 133.607 74.0463C132.432 74.0463 131.503 76.7464 131.543 77.5106C131.582 78.2748 132.271 77.5106 132.271 77.5106C132.271 77.5106 132.839 76.6255 133.325 77.1088C133.811 77.5921 134.378 78.036 133.771 78.8003C133.161 79.5645 132.271 80.5703 132.636 81.579L132.636 81.6182ZM157.659 43.5135C158.873 43.2718 160.006 42.9487 159.684 42.4655V42.4683C158.845 41.7856 157.837 41.3416 156.766 41.1787C155.956 41.1787 155.673 42.8308 155.673 42.8308C155.755 43.5135 156.484 43.6765 157.659 43.4742V43.5135ZM164.866 48.79C165.556 48.79 165.474 48.2674 165.474 47.5818C165.474 46.8963 165.474 46.7361 164.463 47.0171C163.451 47.298 163.652 48.7899 163.652 48.7899H163.649C164.053 48.8517 164.465 48.8405 164.866 48.7506L164.866 48.79ZM166.527 47.8627C166.245 48.1044 166.123 48.6691 166.527 48.8686C166.931 49.0709 168.51 48.8686 168.388 47.8627C168.267 46.8569 166.767 47.5818 166.524 47.8234L166.527 47.8627ZM189.443 57.8512C189.443 57.8512 190.618 56.6037 190.982 56.1598L190.98 56.1626C191.352 55.6625 191.601 55.0837 191.708 54.4712C191.708 53.7463 190.94 52.8612 190.29 52.7405C189.644 52.6197 188.551 54.2296 187.943 54.8337C187.336 55.4378 187.943 57.6546 187.943 57.6546V57.6518C188.102 57.8962 188.364 58.0564 188.655 58.0873C188.946 58.1182 189.234 58.017 189.443 57.8147V57.8512ZM189.443 61.8803C189.726 63.1278 192.157 63.33 192.965 63.2486C193.776 63.1671 193.776 62.0797 193.733 61.234C193.694 60.3883 193.976 60.1074 193.976 59.3403V59.3431C194.002 58.8936 193.719 58.4806 193.287 58.3373L190.008 58.6183C188.875 59.0229 189.24 60.5513 189.483 61.8016L189.443 61.8803ZM244.183 66.3533C244.183 68.247 244.669 67.9632 244.952 67.8845C245.234 67.803 245.923 66.8366 246.813 66.1117C247.703 65.3868 246.409 64.0578 245.274 64.0578C244.141 64.0578 244.183 65.1451 244.183 65.1451C244.161 65.5469 244.161 65.9515 244.183 66.3533V66.3533ZM194.826 67.5221C194.826 67.5221 196.323 66.2324 197.012 65.7914C197.701 65.3475 197.659 65.7914 198.752 65.3896C199.845 64.9878 199.198 63.5381 199.198 63.5381L197.78 62.0883L197.783 62.0827C197.342 61.6191 196.78 61.2847 196.162 61.1161C195.23 60.8745 194.623 61.8017 194.865 63.2093L194.868 63.2122C195.057 63.9455 194.956 64.7238 194.583 65.3868C194.507 66.1173 194.634 66.8563 194.947 67.5222L194.826 67.5221ZM236.447 59.467H234.786C234.786 59.467 233.694 59.1046 234.097 60.6358L234.1 60.633C234.289 61.7625 234.95 62.7571 235.922 63.3724C236.69 63.8163 236.893 64.4597 237.662 64.4204C238.43 64.381 239.201 63.3724 239.766 62.3665H239.769C240.155 61.7287 240.698 61.2033 241.347 60.8353C241.347 60.8353 242.723 59.6664 241.833 59.4248C241.359 59.2844 240.87 59.1916 240.376 59.1439C240.376 59.1439 242.44 58.419 242.158 57.8149C241.875 57.2108 241.955 56.2836 240.74 56.0842C239.526 55.8819 239.486 56.7276 238.676 56.8906C237.865 57.0507 237.179 56.5281 236.893 57.1715C236.611 57.8149 237.744 59.1832 236.571 59.5457L236.447 59.467ZM247.016 55.4379C248.433 54.994 247.705 53.7465 247.016 53.1425C246.326 52.5384 245.112 53.6651 245.112 53.6651L242.723 55.4379H242.725C244.163 55.8931 245.708 55.879 247.137 55.3958L247.016 55.4379ZM278.233 23.9814C278.515 25.4705 279.851 26.0353 280.458 25.3919C281.065 24.7484 280.458 22.3294 280.458 21.9276C280.458 21.5258 280.133 20.3176 279.244 20.2755C278.354 20.2361 278.233 21.523 278.233 21.523C278.077 22.3266 278.117 23.1554 278.354 23.9393L278.233 23.9814ZM323.5 68.6912C323.096 69.0536 323.5 70.7057 323.5 70.7057V70.7029C323.59 71.4137 323.825 72.0993 324.189 72.7174C324.635 73.1614 325.161 72.7174 325.161 72.3157C325.279 71.7565 325.279 71.1806 325.161 70.6214C325.161 69.978 324.39 68.045 323.621 68.649L323.5 68.6912ZM344.433 72.1555C344.23 71.8324 343.38 71.7537 342.773 71.8745C342.166 71.9953 341.762 73.2849 341.762 73.2849C343.541 73.6446 344.716 72.3943 344.555 72.1133L344.433 72.1555ZM346.052 70.9867C347.105 71.189 347.549 69.8178 347.549 69.8178H346.295C345.405 69.8178 345.405 70.4613 345.405 70.4613C345.405 70.4613 345.08 70.7029 346.173 70.9445L346.052 70.9867ZM349.452 110.257C349.452 109.532 348.684 107.802 347.995 107.962C347.306 108.122 347.712 109.774 347.995 110.861C348.193 111.516 348.571 112.103 349.088 112.553C349.695 112.553 349.452 110.982 349.452 110.257V110.257ZM352.002 116.177C352.367 116.177 352.002 115.332 352.002 115.051H352.005C351.867 114.756 351.559 114.579 351.234 114.607C350.91 114.607 351.234 115.492 351.234 115.492C351.234 115.495 351.438 116.138 351.802 116.18L352.002 116.177ZM352.771 120.206C353.053 120.206 354.188 120.206 353.46 119.321C352.731 118.436 352.084 118.756 352.084 118.756C352.084 118.756 352.288 120.246 352.57 120.366L352.771 120.206ZM354.996 128.261C354.714 128.663 354.996 129.43 354.996 129.43C354.996 129.43 355.361 130.759 355.928 130.88C356.496 131.001 356.778 130.034 356.778 130.034C356.778 130.034 357.103 128.826 356.778 128.343H356.781C356.521 128.028 356.115 127.874 355.711 127.93C355.304 127.989 354.96 128.25 354.799 128.624L354.996 128.261ZM355.643 136.316V139.056C355.643 139.056 355.643 140.104 356.575 138.612C357.507 137.123 357.061 136.597 356.575 136.316C356.095 136.036 355.649 136.319 355.445 136.721L355.643 136.316ZM353.502 145.704C353.418 147.193 353.418 148.685 353.502 150.174C353.502 151.3 354.434 151.382 354.878 150.778C355.324 150.174 354.595 146.308 354.878 145.743C355.16 145.178 355.606 144.937 355.646 144.254C355.685 143.568 354.513 142.321 354.513 142.321C353.502 142.804 353.502 145.704 353.502 145.704V145.704ZM353.177 156.701C354.109 157.586 354.109 156.701 353.988 154.686C354.073 153.593 353.384 152.587 352.327 152.27C351.878 153.849 352.192 155.546 353.177 156.861V156.701ZM312.284 130.962C312.284 131.324 312.041 132.049 311.595 132.17C311.149 132.29 310.867 132.855 311.149 133.176L313.213 134.867C313.942 135.471 315.56 137.848 316.25 138.331C316.939 138.814 317.625 138.129 318.597 138.694H318.599C320.218 139.907 321.59 141.411 322.649 143.124C323.621 144.594 324.765 145.945 326.05 147.154C326.332 147.435 327.386 149.087 328.275 149.449H328.278C330.54 151.23 332.554 153.304 334.269 155.611C334.913 156.549 335.833 157.268 336.901 157.667C336.901 157.667 337.265 157.145 336.576 156.338C335.887 155.532 335.765 154.203 336.576 153.883L336.579 153.88C337.638 153.714 338.717 153.714 339.776 153.88V153.759C339.412 152.391 336.697 152.672 335.726 152.551C334.622 152.371 333.602 151.848 332.811 151.059C331.905 150.09 331.091 149.039 330.382 147.918C329.75 146.873 329.349 145.707 329.207 144.496C329.207 143.369 329.815 143.248 331.151 142.925C332.486 142.602 332.243 142.239 331.961 141.717C331.679 141.194 329.897 141.073 328.925 140.91C326.361 139.823 323.92 138.475 321.638 136.881C320.303 135.915 315.727 131.566 315.727 131.566C314.281 130.251 312.691 129.104 310.988 128.141C309.774 127.778 309.327 128.663 309.734 128.745C310.604 129.236 311.431 129.804 312.203 130.436C312.203 130.436 312.324 130.759 312.284 131.122L312.284 130.962ZM359.535 59.6669C359.925 59.5545 360.179 59.1836 360.142 58.7818C360.12 58.3969 359.885 58.0569 359.535 57.894C359.346 58.1581 359.221 58.4615 359.171 58.7818C359.156 59.1639 359.286 59.5376 359.535 59.827V59.6669ZM370.75 42.1851C369.818 42.4267 368.768 43.4747 369.253 43.8765C369.739 44.2811 371.682 42.1064 370.75 42.348V42.1851ZM226.935 174.099C226.195 176.549 225.19 178.912 223.938 181.146C223.1 182.73 222.066 184.205 220.86 185.537C220.171 186.343 216.81 188.156 216.81 188.518C216.81 188.88 217.62 189.243 219.239 188.88H219.242C220.606 188.512 221.84 187.773 222.803 186.745C223.249 186.262 223.167 184.851 223.328 184.329C223.489 183.806 224.139 183.927 224.139 183.927C226.209 181.986 227.972 179.746 229.364 177.279C229.364 176.757 229.121 176.231 229.161 175.709C229.288 175.099 229.567 174.532 229.971 174.057C230.095 172.112 230.095 170.163 229.971 168.218C229.971 166.769 229.525 166.246 228.796 166.164C228.068 166.083 227.743 167.977 227.621 169.266V169.263C227.506 170.89 227.274 172.503 226.935 174.099L226.935 174.099Z" fill="white"/>
</g>
<g filter="url(#filter1_f_475_1128)">
<ellipse cx="180" cy="166.5" rx="11" ry="3.5" fill="#DAEBFB"/>
</g>
<path d="M159 118.371C159.134 132.514 170.82 145.827 176.702 151.639C177.583 152.511 178.77 153 180.006 153C181.242 153 182.429 152.511 183.309 151.639C189.225 145.735 201 132.356 201 118.125C201 112.524 198.788 107.153 194.851 103.192C190.915 99.2298 185.575 97.0032 180.006 97H178.644C173.287 97.3985 168.28 99.8257 164.635 103.792C160.988 107.759 158.975 112.97 159 118.371H159ZM180.005 109.673H180.006C182.235 109.673 184.373 110.563 185.948 112.148C187.524 113.733 188.41 115.883 188.41 118.125C188.41 120.366 187.524 122.515 185.948 124.101C184.373 125.686 182.235 126.577 180.006 126.577C177.777 126.577 175.639 125.686 174.064 124.101C172.487 122.515 171.602 120.366 171.602 118.125C171.602 115.883 172.487 113.733 174.064 112.148C175.639 110.563 177.777 109.673 180.006 109.673H180.005Z" fill="#039DDF"/>
<defs>
<filter id="filter0_d_475_1128" x="-16" y="0" width="417" height="251" filterUnits="userSpaceOnUse" color-interpolation-filters="sRGB">
<feFlood flood-opacity="0" result="BackgroundImageFix"/>
<feColorMatrix in="SourceAlpha" type="matrix" values="0 0 0 0 0 0 0 0 0 0 0 0 0 0 0 0 0 0 127 0" result="hardAlpha"/>
<feOffset dy="20"/>
<feGaussianBlur stdDeviation="15"/>
<feComposite in2="hardAlpha" operator="out"/>
<feColorMatrix type="matrix" values="0 0 0 0 0.25474 0 0 0 0 0.517844 0 0 0 0 0.9125 0 0 0 0.07 0"/>
<feBlend mode="normal" in2="BackgroundImageFix" result="effect1_dropShadow_475_1128"/>
<feBlend mode="normal" in="SourceGraphic" in2="effect1_dropShadow_475_1128" result="shape"/>
</filter>
<filter id="filter1_f_475_1128" x="164" y="158" width="32" height="17" filterUnits="userSpaceOnUse" color-interpolation-filters="sRGB">
<feFlood flood-opacity="0" result="BackgroundImageFix"/>
<feBlend mode="normal" in="SourceGraphic" in2="BackgroundImageFix" result="shape"/>
<feGaussianBlur stdDeviation="2.5" result="effect1_foregroundBlur_475_1128"/>
</filter>
</defs>
</svg>
