<svg width="360" height="336" viewBox="0 0 360 336" fill="none" xmlns="http://www.w3.org/2000/svg">
<g filter="url(#filter0_d_475_1132)">
<path d="M201.44 256.275H168.279V256.467H201.44V256.275Z" fill="white"/>
<path d="M213.142 256.275H208.282V256.467H213.142V256.275Z" fill="white"/>
<path d="M300.871 259.515H228.943V259.707H300.871V259.515Z" fill="white"/>
<path d="M511.903 253.596H128V253.788H511.903V253.596Z" fill="white"/>
<path d="M329.334 147.585H286.134V286H329.334V147.585Z" fill="white"/>
<path d="M294.151 137.519V148.024H297.576H317.498H320.923V137.519H294.151Z" fill="white"/>
<path d="M294.151 150.806H288.586V156.371H294.151V150.806Z" fill="#E4F2FD"/>
<path d="M304.927 150.806H299.363V156.371H304.927V150.806Z" fill="#E4F2FD"/>
<path d="M315.711 150.806H310.146V156.371H315.711V150.806Z" fill="#E4F2FD"/>
<path d="M326.487 150.806H320.922V156.371H326.487V150.806Z" fill="#E4F2FD"/>
<path d="M294.151 160.919H288.586V166.484H294.151V160.919Z" fill="#E4F2FD"/>
<path d="M304.927 160.919H299.363V166.484H304.927V160.919Z" fill="#E4F2FD"/>
<path d="M315.711 160.919H310.146V166.484H315.711V160.919Z" fill="#E4F2FD"/>
<path d="M326.487 160.919H320.922V166.484H326.487V160.919Z" fill="#E4F2FD"/>
<path d="M294.151 171.033H288.586V176.597H294.151V171.033Z" fill="#E4F2FD"/>
<path d="M304.927 171.033H299.363V176.597H304.927V171.033Z" fill="#E4F2FD"/>
<path d="M315.711 171.033H310.146V176.597H315.711V171.033Z" fill="#E4F2FD"/>
<path d="M304.927 142.067H299.363V147.632H304.927V142.067Z" fill="#E4F2FD"/>
<path d="M315.711 142.067H310.146V147.632H315.711V142.067Z" fill="#E4F2FD"/>
<path d="M326.487 171.033H320.922V176.597H326.487V171.033Z" fill="#E4F2FD"/>
<path d="M294.151 181.146H288.586V186.71H294.151V181.146Z" fill="#E4F2FD"/>
<path d="M304.927 181.146H299.363V186.71H304.927V181.146Z" fill="#E4F2FD"/>
<path d="M315.711 181.146H310.146V186.71H315.711V181.146Z" fill="#E4F2FD"/>
<path d="M326.487 181.146H320.922V186.71H326.487V181.146Z" fill="#E4F2FD"/>
<path d="M294.151 191.259H288.586V196.823H294.151V191.259Z" fill="#E4F2FD"/>
<path d="M304.927 191.259H299.363V196.823H304.927V191.259Z" fill="#E4F2FD"/>
<path d="M315.711 191.259H310.146V196.823H315.711V191.259Z" fill="#E4F2FD"/>
<path d="M326.487 191.259H320.922V196.823H326.487V191.259Z" fill="#E4F2FD"/>
<path d="M294.151 201.365H288.586V206.929H294.151V201.365Z" fill="#E4F2FD"/>
<path d="M304.927 201.365H299.363V206.929H304.927V201.365Z" fill="#E4F2FD"/>
<path d="M315.711 201.365H310.146V206.929H315.711V201.365Z" fill="#E4F2FD"/>
<path d="M326.487 201.365H320.922V206.929H326.487V201.365Z" fill="#E4F2FD"/>
<path d="M294.151 211.478H288.586V217.042H294.151V211.478Z" fill="#E4F2FD"/>
<path d="M304.927 211.478H299.363V217.042H304.927V211.478Z" fill="#E4F2FD"/>
<path d="M315.711 211.478H310.146V217.042H315.711V211.478Z" fill="#E4F2FD"/>
<path d="M326.487 211.478H320.922V217.042H326.487V211.478Z" fill="#E4F2FD"/>
<path d="M284.905 148.079H330.17V146.941H284.905V148.079Z" fill="white"/>
<path d="M287.009 133.836H235.333V229.958H287.009V133.836Z" fill="white"/>
<path d="M245.258 121.347V133.836H249.333H273.011H277.086V121.347H245.258Z" fill="white"/>
<path d="M234.271 133.904H288.079V132.557H234.271V133.904Z" fill="white"/>
<path d="M243.911 121.347H278.44V120H243.911V121.347Z" fill="white"/>
<path d="M276.233 133.836H224.557V229.958H276.233V133.836Z" fill="white"/>
<path d="M234.48 121.347V133.836H238.555H262.233H266.309V121.347H234.48Z" fill="white"/>
<path d="M234.481 137.146H227.867V143.76H234.481V137.146Z" fill="#E4F2FD"/>
<path d="M247.295 137.146H240.681V143.76H247.295V137.146Z" fill="#E4F2FD"/>
<path d="M260.109 137.146H253.495V143.76H260.109V137.146Z" fill="#E4F2FD"/>
<path d="M272.923 137.146H266.309V143.76H272.923V137.146Z" fill="#E4F2FD"/>
<path d="M234.481 149.168H227.867V155.781H234.481V149.168Z" fill="#E4F2FD"/>
<path d="M247.295 149.168H240.681V155.781H247.295V149.168Z" fill="#E4F2FD"/>
<path d="M260.109 149.168H253.495V155.781H260.109V149.168Z" fill="#E4F2FD"/>
<path d="M272.923 149.168H266.309V155.781H272.923V149.168Z" fill="#E4F2FD"/>
<path d="M234.481 161.183H227.867V167.797H234.481V161.183Z" fill="#E4F2FD"/>
<path d="M247.295 161.183H240.681V167.797H247.295V161.183Z" fill="#E4F2FD"/>
<path d="M260.109 161.183H253.495V167.797H260.109V161.183Z" fill="#E4F2FD"/>
<path d="M247.295 126.755H240.681V133.369H247.295V126.755Z" fill="#E4F2FD"/>
<path d="M260.109 126.755H253.495V133.369H260.109V126.755Z" fill="#E4F2FD"/>
<path d="M272.923 161.183H266.309V167.797H272.923V161.183Z" fill="#E4F2FD"/>
<path d="M234.481 173.206H227.867V179.819H234.481V173.206Z" fill="#E4F2FD"/>
<path d="M247.295 173.206H240.681V179.819H247.295V173.206Z" fill="#E4F2FD"/>
<path d="M260.109 173.206H253.495V179.819H260.109V173.206Z" fill="#E4F2FD"/>
<path d="M272.923 173.206H266.309V179.819H272.923V173.206Z" fill="#E4F2FD"/>
<path d="M234.481 185.227H227.867V191.841H234.481V185.227Z" fill="#E4F2FD"/>
<path d="M247.295 185.227H240.681V191.841H247.295V185.227Z" fill="#E4F2FD"/>
<path d="M260.109 185.227H253.495V191.841H260.109V185.227Z" fill="#E4F2FD"/>
<path d="M272.923 185.227H266.309V191.841H272.923V185.227Z" fill="#E4F2FD"/>
<path d="M234.481 197.25H227.867V203.863H234.481V197.25Z" fill="#E4F2FD"/>
<path d="M247.295 197.25H240.681V203.863H247.295V197.25Z" fill="#E4F2FD"/>
<path d="M260.109 197.25H253.495V203.863H260.109V197.25Z" fill="#E4F2FD"/>
<path d="M272.923 197.25H266.309V203.863H272.923V197.25Z" fill="#E4F2FD"/>
<path d="M234.481 209.272H227.867V215.885H234.481V209.272Z" fill="#E4F2FD"/>
<path d="M247.295 209.272H240.681V215.885H247.295V209.272Z" fill="#E4F2FD"/>
<path d="M260.109 209.272H253.495V215.885H260.109V209.272Z" fill="#E4F2FD"/>
<path d="M272.923 209.272H266.309V215.885H272.923V209.272Z" fill="#E4F2FD"/>
<path d="M223.494 133.904H277.302V132.557H223.494V133.904Z" fill="white"/>
<path d="M233.133 121.347H267.663V120H233.133V121.347Z" fill="white"/>
<path d="M224.408 157.23H215.791V229.579H224.408V157.23Z" fill="white"/>
<path d="M198.55 177.375H169.625V229.579H215.791V177.375V157.23L198.55 177.375Z" fill="white"/>
<path d="M180.003 186.582H173.897V193.452H180.003V186.582Z" fill="#E4F2FD"/>
<path d="M180.003 198.143H173.897V205.014H180.003V198.143Z" fill="#E4F2FD"/>
<path d="M180.321 209.602H174.229V216.371H180.321V209.602Z" fill="#E4F2FD"/>
<path d="M191.585 186.582H185.479V193.452H191.585V186.582Z" fill="#E4F2FD"/>
<path d="M191.585 198.143H185.479V205.014H191.585V198.143Z" fill="#E4F2FD"/>
<path d="M191.829 209.602H185.737V216.371H191.829V209.602Z" fill="#E4F2FD"/>
<path d="M203.167 186.582H197.061V193.452H203.167V186.582Z" fill="#E4F2FD"/>
<path d="M203.167 198.143H197.061V205.014H203.167V198.143Z" fill="#E4F2FD"/>
<path d="M203.336 209.602H197.244V216.371H203.336V209.602Z" fill="#E4F2FD"/>
<path d="M214.749 186.582H208.644V193.452H214.749V186.582Z" fill="#E4F2FD"/>
<path d="M214.749 198.143H208.644V205.014H214.749V198.143Z" fill="#E4F2FD"/>
<path d="M214.844 209.602H208.751V216.371H214.844V209.602Z" fill="#E4F2FD"/>
<path d="M244.645 77.92H278.598C282.951 77.92 283.972 71.8236 279.888 70.3955L279.734 70.3417C284.272 66.5565 274.306 58.579 263.472 69.6277C264.317 65.9422 254.696 67.2782 251.748 72.2996C250.703 69.0134 241.52 74.7489 244.645 77.92Z" fill="white"/>
<path d="M283.927 36.9629H332.708C338.958 36.9629 340.471 28.2243 334.566 26.1742L334.339 26.0964C340.868 20.6599 326.543 9.22892 310.952 25.0714C312.167 19.7776 298.329 21.6914 294.1 28.9055C292.632 24.1891 279.438 32.4217 283.927 36.9629Z" fill="white"/>
</g>
<g filter="url(#filter1_d_475_1132)">
<path d="M62.647 10.8711C56.9278 14.3556 51.2086 17.8781 45.4895 21.3626C36.3994 26.9303 27.2714 32.498 18.1434 38.0657C16.0603 39.3534 13.9392 40.6412 11.8561 41.929C11.0607 42.4213 11.7803 43.6712 12.5757 43.1788C18.2949 39.6564 24.0141 36.1719 29.7333 32.6874C38.8613 27.1197 47.9892 21.5141 57.0793 15.9464C59.1625 14.6587 61.2835 13.3709 63.3667 12.0831C64.162 11.6286 63.4424 10.3787 62.647 10.8711Z" fill="white"/>
<path d="M70.4108 12.1968C75.2589 13.2195 80.1069 14.28 84.955 15.3026C96.4691 17.7645 108.021 20.2264 119.535 22.6883C133.511 25.6805 147.525 28.6727 161.501 31.6648C173.583 34.2403 185.666 36.8537 197.786 39.4293C201.763 40.2625 205.74 41.1337 209.717 41.9669C211.61 42.3836 213.504 42.9138 215.436 43.1789C215.512 43.1789 215.587 43.2168 215.701 43.2168C216.61 43.4062 216.989 42.0048 216.08 41.8154C211.232 40.7928 206.384 39.7323 201.536 38.7096C190.021 36.2477 178.469 33.7858 166.955 31.3239C152.979 28.3318 138.965 25.3396 124.989 22.3475C112.907 19.7719 100.825 17.1585 88.7046 14.583C84.7277 13.7497 80.7508 12.8786 76.7739 12.0453C74.8801 11.6287 72.9863 11.0985 71.0547 10.8333C70.9789 10.8333 70.9032 10.7955 70.7896 10.7955C69.8806 10.6061 69.5018 11.9696 70.4108 12.1968Z" fill="white"/>
<path d="M165.501 112.68C165.501 113.627 165.501 114.612 165.501 115.559C165.501 116.392 165.69 116.657 166.296 117.225C167.243 118.096 168.872 119.346 167.584 120.748C166.258 122.149 164.743 120.634 163.986 119.536C163.493 118.778 162.243 119.498 162.736 120.255C163.645 121.619 164.478 122.717 166.296 122.679C168.19 122.641 169.705 121.126 169.478 119.195C169.364 118.399 168.985 117.755 168.417 117.225C168.19 116.998 167.091 115.71 166.826 115.748C167.091 115.71 166.864 116.543 166.978 115.71C167.016 115.331 166.978 114.953 166.978 114.612C166.978 113.968 166.978 113.362 166.978 112.718C166.94 111.733 165.501 111.733 165.501 112.68Z" fill="white"/>
<path d="M166.069 110.332L158.115 58.2911H174.023L166.069 110.332Z" stroke="white" stroke-width="3" stroke-miterlimit="10"/>
<path d="M73.8197 214.376C70.2216 214.376 66.6234 214.376 63.0252 214.376C63.2525 214.679 63.5176 214.982 63.7449 215.247C63.7449 209.944 63.7449 204.68 63.7449 199.377C63.7449 186.802 63.7449 174.19 63.7449 161.615C63.7449 146.276 63.7449 130.936 63.7449 115.597C63.7449 102.454 63.7449 89.2731 63.7449 76.1304C63.7449 71.7368 63.7449 67.3812 63.7449 62.9876C63.7449 61.6241 63.7449 60.2606 63.7449 58.9349C63.7449 58.3289 63.8964 57.382 63.7449 56.776C63.7449 56.7003 63.7449 56.5867 63.7449 56.5109C63.5176 56.8139 63.2525 57.1169 63.0252 57.382C66.6234 57.382 70.2216 57.382 73.8197 57.382C73.5925 57.079 73.3274 56.776 73.1001 56.5109C73.1001 61.8135 73.1001 67.0782 73.1001 72.3807C73.1001 84.9554 73.1001 97.5679 73.1001 110.143C73.1001 125.482 73.1001 140.822 73.1001 156.161C73.1001 169.304 73.1001 182.485 73.1001 195.627C73.1001 200.021 73.1001 204.377 73.1001 208.77C73.1001 210.815 72.9486 212.936 73.1001 214.982C73.1001 215.057 73.1001 215.171 73.1001 215.247C73.1001 216.383 74.5394 216.383 74.5394 215.247C74.5394 209.944 74.5394 204.68 74.5394 199.377C74.5394 186.802 74.5394 174.19 74.5394 161.615C74.5394 146.276 74.5394 130.936 74.5394 115.597C74.5394 102.454 74.5394 89.2731 74.5394 76.1304C74.5394 71.7368 74.5394 67.3812 74.5394 62.9876C74.5394 60.9423 74.6909 58.8213 74.5394 56.776C74.5394 56.7003 74.5394 56.5867 74.5394 56.5109C74.5394 56.0185 74.1985 55.6398 73.8197 55.6398C70.2216 55.6398 66.6234 55.6398 63.0252 55.6398C62.6465 55.6398 62.3056 56.0564 62.3056 56.5109C62.3056 61.8135 62.3056 67.0782 62.3056 72.3807C62.3056 84.9554 62.3056 97.5679 62.3056 110.143C62.3056 125.482 62.3056 140.822 62.3056 156.161C62.3056 169.304 62.3056 182.485 62.3056 195.627C62.3056 200.021 62.3056 204.377 62.3056 208.77C62.3056 210.815 62.1541 212.936 62.3056 214.982C62.3056 215.057 62.3056 215.171 62.3056 215.247C62.3056 215.739 62.6465 216.118 63.0252 216.118C66.6234 216.118 70.2216 216.118 73.8197 216.118C74.7666 216.156 74.7666 214.376 73.8197 214.376Z" fill="white"/>
<path d="M73.2895 55.9048C69.6913 60.2983 66.0932 64.7297 62.495 69.1233C62.0405 69.6535 62.3814 70.6383 62.9874 70.6383C66.3962 70.6383 69.7671 70.6383 73.1759 70.6383C74.1228 70.6383 74.1228 68.8582 73.1759 68.8582C69.7671 68.8582 66.3962 68.8582 62.9874 68.8582C63.1389 69.3505 63.3283 69.8808 63.5176 70.3732C67.1158 65.9796 70.714 61.5482 74.3121 57.1546C74.9939 56.3593 73.9713 55.1094 73.2895 55.9048Z" fill="white"/>
<path d="M73.2895 69.1234C69.6913 73.5169 66.0932 77.9484 62.495 82.3419C62.0405 82.8722 62.3814 83.8569 62.9874 83.8569C66.3962 83.8569 69.7671 83.8569 73.1759 83.8569C74.1228 83.8569 74.1228 82.0768 73.1759 82.0768C69.7671 82.0768 66.3962 82.0768 62.9874 82.0768C63.1389 82.5692 63.3283 83.0994 63.5176 83.5918C67.1158 79.1982 70.714 74.7668 74.3121 70.3733C74.9939 69.5779 73.9713 68.328 73.2895 69.1234Z" fill="white"/>
<path d="M73.2895 82.3419C69.6913 86.7354 66.0932 91.1669 62.495 95.5604C62.0405 96.0907 62.3814 97.0754 62.9874 97.0754C66.3962 97.0754 69.7671 97.0754 73.1759 97.0754C74.1228 97.0754 74.1228 95.2953 73.1759 95.2953C69.7671 95.2953 66.3962 95.2953 62.9874 95.2953C63.1389 95.7877 63.3283 96.3179 63.5176 96.8103C67.1158 92.4168 70.714 87.9853 74.3121 83.5918C74.9939 82.7964 73.9713 81.5465 73.2895 82.3419Z" fill="white"/>
<path d="M73.2895 95.5983C69.6913 99.9918 66.0932 104.423 62.495 108.817C62.0405 109.347 62.3814 110.332 62.9874 110.332C66.3962 110.332 69.7671 110.332 73.1759 110.332C74.1228 110.332 74.1228 108.552 73.1759 108.552C69.7671 108.552 66.3962 108.552 62.9874 108.552C63.1389 109.044 63.3283 109.574 63.5176 110.067C67.1158 105.673 70.714 101.242 74.3121 96.8482C74.9939 96.0528 73.9713 94.765 73.2895 95.5983Z" fill="white"/>
<path d="M73.2895 108.817C69.6913 113.21 66.0932 117.642 62.495 122.035C62.0405 122.566 62.3814 123.55 62.9874 123.55C66.3962 123.55 69.7671 123.55 73.1759 123.55C74.1228 123.55 74.1228 121.77 73.1759 121.77C69.7671 121.77 66.3962 121.77 62.9874 121.77C63.1389 122.263 63.3283 122.793 63.5176 123.285C67.1158 118.892 70.714 114.46 74.3121 110.067C74.9939 109.271 73.9713 108.021 73.2895 108.817Z" fill="white"/>
<path d="M73.2895 122.035C69.6913 126.429 66.0932 130.86 62.495 135.254C62.0405 135.784 62.3814 136.769 62.9874 136.769C66.3962 136.769 69.7671 136.769 73.1759 136.769C74.1228 136.769 74.1228 134.989 73.1759 134.989C69.7671 134.989 66.3962 134.989 62.9874 134.989C63.1389 135.481 63.3283 136.011 63.5176 136.504C67.1158 132.11 70.714 127.679 74.3121 123.285C74.9939 122.49 73.9713 121.24 73.2895 122.035Z" fill="white"/>
<path d="M73.2895 135.254C69.6913 139.647 66.0932 144.079 62.495 148.472C62.0405 149.003 62.3814 149.987 62.9874 149.987C66.3962 149.987 69.7671 149.987 73.1759 149.987C74.1228 149.987 74.1228 148.207 73.1759 148.207C69.7671 148.207 66.3962 148.207 62.9874 148.207C63.1389 148.7 63.3283 149.23 63.5176 149.722C67.1158 145.329 70.714 140.897 74.3121 136.504C74.9939 135.708 73.9713 134.458 73.2895 135.254Z" fill="white"/>
<path d="M73.2895 148.51C69.6913 152.904 66.0932 157.335 62.495 161.729C62.0405 162.259 62.3814 163.244 62.9874 163.244C66.3962 163.244 69.7671 163.244 73.1759 163.244C74.1228 163.244 74.1228 161.464 73.1759 161.464C69.7671 161.464 66.3962 161.464 62.9874 161.464C63.1389 161.956 63.3283 162.486 63.5176 162.979C67.1158 158.585 70.714 154.154 74.3121 149.76C74.9939 148.965 73.9713 147.677 73.2895 148.51Z" fill="white"/>
<path d="M73.2895 161.729C69.6913 166.123 66.0932 170.554 62.495 174.948C62.0405 175.478 62.3814 176.463 62.9874 176.463C66.3962 176.463 69.7671 176.463 73.1759 176.463C74.1228 176.463 74.1228 174.682 73.1759 174.682C69.7671 174.682 66.3962 174.682 62.9874 174.682C63.1389 175.175 63.3283 175.705 63.5176 176.198C67.1158 171.804 70.714 167.373 74.3121 162.979C74.9939 162.184 73.9713 160.934 73.2895 161.729Z" fill="white"/>
<path d="M73.2895 174.947C69.6913 179.341 66.0932 183.772 62.495 188.166C62.0405 188.696 62.3814 189.681 62.9874 189.681C66.3962 189.681 69.7671 189.681 73.1759 189.681C74.1228 189.681 74.1228 187.901 73.1759 187.901C69.7671 187.901 66.3962 187.901 62.9874 187.901C63.1389 188.393 63.3283 188.923 63.5176 189.416C67.1158 185.022 70.714 180.591 74.3121 176.197C74.9939 175.402 73.9713 174.152 73.2895 174.947Z" fill="white"/>
<path d="M73.2895 188.166C69.6913 192.559 66.0932 196.991 62.495 201.384C62.0405 201.915 62.3814 202.899 62.9874 202.899C66.3962 202.899 69.7671 202.899 73.1759 202.899C74.1228 202.899 74.1228 201.119 73.1759 201.119C69.7671 201.119 66.3962 201.119 62.9874 201.119C63.1389 201.612 63.3283 202.142 63.5176 202.634C67.1158 198.241 70.714 193.809 74.3121 189.416C74.9939 188.62 73.9713 187.37 73.2895 188.166Z" fill="white"/>
<path d="M73.2895 201.422C69.6913 205.816 66.0932 210.247 62.495 214.641C62.0405 215.171 62.3814 216.156 62.9874 216.156C66.3962 216.156 69.7671 216.156 73.1759 216.156C74.1228 216.156 74.1228 214.375 73.1759 214.375C69.7671 214.375 66.3962 214.375 62.9874 214.375C63.1389 214.868 63.3283 215.398 63.5176 215.89C67.1158 211.497 70.714 207.065 74.3121 202.672C74.9939 201.877 73.9713 200.589 73.2895 201.422Z" fill="white"/>
<path d="M71.3195 42.2699C68.5546 42.2699 65.7897 42.2699 63.0248 42.2699C63.2521 42.4971 63.5172 42.7622 63.7444 42.9895C63.7444 33.5585 63.7444 24.1654 63.7444 14.7344C63.7444 13.4088 63.7444 12.0831 63.7444 10.7196C63.5172 10.9469 63.2521 11.212 63.0248 11.4393C65.7897 11.4393 68.5546 11.4393 71.3195 11.4393C71.0923 11.212 70.8271 10.9469 70.5999 10.7196C70.5999 20.1506 70.5999 29.5437 70.5999 38.9747C70.5999 40.3003 70.5999 41.626 70.5999 42.9895C70.5999 43.9364 72.0392 43.9364 72.0392 42.9895C72.0392 33.5585 72.0392 24.1654 72.0392 14.7344C72.0392 13.4088 72.0392 12.0831 72.0392 10.7196C72.0392 10.3409 71.6983 10 71.3195 10C68.5546 10 65.7897 10 63.0248 10C62.6461 10 62.3052 10.3409 62.3052 10.7196C62.3052 20.1506 62.3052 29.5437 62.3052 38.9747C62.3052 40.3003 62.3052 41.626 62.3052 42.9895C62.3052 43.3682 62.6461 43.7091 63.0248 43.7091C65.7897 43.7091 68.5546 43.7091 71.3195 43.7091C72.2285 43.747 72.2285 42.2699 71.3195 42.2699Z" fill="white"/>
<path d="M70.6759 10.3788C67.911 13.977 65.1461 17.5373 62.3812 21.1354C62.0403 21.5899 62.4948 22.2338 62.9872 22.2338C65.6006 22.2338 68.1761 22.2338 70.7895 22.2338C71.7364 22.2338 71.7364 20.7945 70.7895 20.7945C68.1761 20.7945 65.6006 20.7945 62.9872 20.7945C63.1766 21.1733 63.4038 21.5142 63.5932 21.8929C66.3581 18.2948 69.123 14.7345 71.8879 11.1363C72.4939 10.3788 71.244 9.65917 70.6759 10.3788Z" fill="white"/>
<path d="M70.6759 21.1354C67.911 24.7336 65.1461 28.2938 62.3812 31.892C62.0403 32.3465 62.4948 32.9904 62.9872 32.9904C65.6006 32.9904 68.1761 32.9904 70.7895 32.9904C71.7364 32.9904 71.7364 31.5511 70.7895 31.5511C68.1761 31.5511 65.6006 31.5511 62.9872 31.5511C63.1766 31.9299 63.4038 32.2708 63.5932 32.6495C66.3581 29.0514 69.123 25.4911 71.8879 21.8929C72.4939 21.1354 71.244 20.4158 70.6759 21.1354Z" fill="white"/>
<path d="M70.6759 31.892C67.911 35.4902 65.1461 39.0504 62.3812 42.6486C62.0403 43.1031 62.4948 43.747 62.9872 43.747C65.6006 43.747 68.1761 43.747 70.7895 43.747C71.7364 43.747 71.7364 42.3077 70.7895 42.3077C68.1761 42.3077 65.6006 42.3077 62.9872 42.3077C63.1766 42.6865 63.4038 43.0274 63.5932 43.4061C66.3581 39.8079 69.123 36.2477 71.8879 32.6495C72.4939 31.892 71.244 31.1724 70.6759 31.892Z" fill="white"/>
<path d="M85.3717 42.0044C85.3717 45.6026 85.3717 49.2008 85.3717 52.7989C85.599 52.5717 85.8641 52.3065 86.0914 52.0793C77.5694 52.0793 69.0474 52.0793 60.5255 52.0793C47.0797 52.0793 33.596 52.0793 20.1503 52.0793C17.0445 52.0793 13.9387 52.0793 10.8329 52.0793C11.0602 52.3065 11.3253 52.5717 11.5525 52.7989C11.5525 49.2008 11.5525 45.6026 11.5525 42.0044C11.3253 42.2317 11.0602 42.4968 10.8329 42.7241C19.3549 42.7241 27.8769 42.7241 36.3988 42.7241C49.8446 42.7241 63.3283 42.7241 76.774 42.7241C79.8798 42.7241 82.9856 42.7241 86.0914 42.7241C87.0383 42.7241 87.0383 41.2848 86.0914 41.2848C77.5694 41.2848 69.0474 41.2848 60.5255 41.2848C47.0797 41.2848 33.596 41.2848 20.1503 41.2848C17.0445 41.2848 13.9387 41.2848 10.8329 41.2848C10.4542 41.2848 10.1133 41.6257 10.1133 42.0044C10.1133 45.6026 10.1133 49.2008 10.1133 52.7989C10.1133 53.1777 10.4542 53.5186 10.8329 53.5186C19.3549 53.5186 27.8769 53.5186 36.3988 53.5186C49.8446 53.5186 63.3283 53.5186 76.774 53.5186C79.8798 53.5186 82.9856 53.5186 86.0914 53.5186C86.4701 53.5186 86.811 53.1777 86.811 52.7989C86.811 49.2008 86.811 45.6026 86.811 42.0044C86.811 41.0954 85.3717 41.0954 85.3717 42.0044Z" fill="white"/>
<path d="M10.3411 42.5349C13.9392 46.1331 17.4995 49.7312 21.0977 53.3294C21.5522 53.7839 22.3476 53.443 22.3476 52.837C22.3476 49.4282 22.3476 46.0573 22.3476 42.6485C22.3476 41.7016 20.9083 41.7016 20.9083 42.6485C20.9083 46.0573 20.9083 49.4282 20.9083 52.837C21.3249 52.6855 21.7416 52.4961 22.1582 52.3446C18.56 48.7465 14.9997 45.1483 11.4016 41.5501C10.6819 40.8684 9.6593 41.891 10.3411 42.5349Z" fill="white"/>
<path d="M21.0599 42.5349C24.658 46.1331 28.2183 49.7312 31.8165 53.3294C32.271 53.7839 33.0664 53.443 33.0664 52.837C33.0664 49.4282 33.0664 46.0573 33.0664 42.6485C33.0664 41.7016 31.6271 41.7016 31.6271 42.6485C31.6271 46.0573 31.6271 49.4282 31.6271 52.837C32.0437 52.6855 32.4604 52.4961 32.877 52.3446C29.2788 48.7465 25.7185 45.1483 22.1204 41.5501C21.4386 40.8684 20.416 41.891 21.0599 42.5349Z" fill="white"/>
<path d="M31.8162 42.5349C35.4144 46.1331 38.9747 49.7312 42.5728 53.3294C43.0273 53.7839 43.8227 53.443 43.8227 52.837C43.8227 49.4282 43.8227 46.0573 43.8227 42.6485C43.8227 41.7016 42.3835 41.7016 42.3835 42.6485C42.3835 46.0573 42.3835 49.4282 42.3835 52.837C42.8001 52.6855 43.2167 52.4961 43.6333 52.3446C40.0352 48.7465 36.4749 45.1483 32.8767 41.5501C32.195 40.8684 31.1723 41.891 31.8162 42.5349Z" fill="white"/>
<path d="M42.573 42.5349C46.1712 46.1331 49.7315 49.7312 53.3297 53.3294C53.7842 53.7839 54.5796 53.443 54.5796 52.837C54.5796 49.4282 54.5796 46.0573 54.5796 42.6485C54.5796 41.7016 53.1403 41.7016 53.1403 42.6485C53.1403 46.0573 53.1403 49.4282 53.1403 52.837C53.5569 52.6855 53.9736 52.4961 54.3902 52.3446C50.792 48.7465 47.2317 45.1483 43.6336 41.5501C42.9518 40.8684 41.9292 41.891 42.573 42.5349Z" fill="white"/>
<path d="M53.3294 42.5349C56.9276 46.1331 60.4879 49.7312 64.086 53.3294C64.5405 53.7839 65.3359 53.443 65.3359 52.837C65.3359 49.4282 65.3359 46.0573 65.3359 42.6485C65.3359 41.7016 63.8966 41.7016 63.8966 42.6485C63.8966 46.0573 63.8966 49.4282 63.8966 52.837C64.3133 52.6855 64.7299 52.4961 65.1465 52.3446C61.5484 48.7465 57.9881 45.1483 54.3899 41.5501C53.7082 40.8684 52.6855 41.891 53.3294 42.5349Z" fill="white"/>
<path d="M64.0857 42.5349C67.6839 46.1331 71.2441 49.7312 74.8423 53.3294C75.2968 53.7839 76.0922 53.443 76.0922 52.837C76.0922 49.4282 76.0922 46.0573 76.0922 42.6485C76.0922 41.7016 74.6529 41.7016 74.6529 42.6485C74.6529 46.0573 74.6529 49.4282 74.6529 52.837C75.0696 52.6855 75.4862 52.4961 75.9028 52.3446C72.3047 48.7465 68.7444 45.1483 65.1462 41.5501C64.4266 40.8684 63.4039 41.891 64.0857 42.5349Z" fill="white"/>
<path d="M74.8425 42.5349C78.4407 46.1331 82.001 49.7312 85.5991 53.3294C86.0537 53.7839 86.849 53.443 86.849 52.837C86.849 49.4282 86.849 46.0573 86.849 42.6485C86.849 41.7016 85.4098 41.7016 85.4098 42.6485C85.4098 46.0573 85.4098 49.4282 85.4098 52.837C85.8264 52.6855 86.243 52.4961 86.6597 52.3446C83.0615 48.7465 79.5012 45.1483 75.903 41.5501C75.1834 40.8684 74.1608 41.891 74.8425 42.5349Z" fill="white"/>
<path d="M214.375 42.0047C214.375 45.6029 214.375 49.2011 214.375 52.7992C214.603 52.572 214.868 52.3069 215.095 52.0796C210.777 52.0796 206.497 52.0796 202.179 52.0796C191.953 52.0796 181.727 52.0796 171.5 52.0796C159.039 52.0796 146.578 52.0796 134.117 52.0796C123.436 52.0796 112.718 52.0796 102.037 52.0796C98.4765 52.0796 94.9162 52.0796 91.3559 52.0796C90.2575 52.0796 89.1591 52.0796 88.0607 52.0796C87.5684 52.0796 86.8108 51.9281 86.3185 52.0796C86.2427 52.0796 86.167 52.0796 86.0912 52.0796C86.3185 52.3069 86.5836 52.572 86.8108 52.7992C86.8108 49.2011 86.8108 45.6029 86.8108 42.0047C86.5836 42.232 86.3185 42.4971 86.0912 42.7244C90.409 42.7244 94.6889 42.7244 99.0067 42.7244C109.233 42.7244 119.459 42.7244 129.686 42.7244C142.147 42.7244 154.608 42.7244 167.069 42.7244C177.75 42.7244 188.468 42.7244 199.149 42.7244C202.71 42.7244 206.27 42.7244 209.83 42.7244C211.497 42.7244 213.239 42.8759 214.906 42.7244C214.981 42.7244 215.057 42.7244 215.133 42.7244C216.08 42.7244 216.08 41.2851 215.133 41.2851C210.815 41.2851 206.535 41.2851 202.217 41.2851C191.991 41.2851 181.765 41.2851 171.538 41.2851C159.077 41.2851 146.616 41.2851 134.155 41.2851C123.474 41.2851 112.756 41.2851 102.075 41.2851C98.5144 41.2851 94.9541 41.2851 91.3938 41.2851C89.7273 41.2851 87.985 41.1336 86.3185 41.2851C86.2427 41.2851 86.167 41.2851 86.0912 41.2851C85.7125 41.2851 85.3716 41.626 85.3716 42.0047C85.3716 45.6029 85.3716 49.2011 85.3716 52.7992C85.3716 53.178 85.7125 53.5189 86.0912 53.5189C90.409 53.5189 94.6889 53.5189 99.0067 53.5189C109.233 53.5189 119.459 53.5189 129.686 53.5189C142.147 53.5189 154.608 53.5189 167.069 53.5189C177.75 53.5189 188.468 53.5189 199.149 53.5189C202.71 53.5189 206.27 53.5189 209.83 53.5189C211.497 53.5189 213.239 53.6704 214.906 53.5189C214.981 53.5189 215.057 53.5189 215.133 53.5189C215.512 53.5189 215.852 53.178 215.852 52.7992C215.852 49.2011 215.852 45.6029 215.852 42.0047C215.815 41.0957 214.375 41.0957 214.375 42.0047Z" fill="white"/>
<path d="M85.5613 42.5349C89.1595 46.1331 92.7198 49.7312 96.318 53.3294C96.7725 53.7839 97.5678 53.443 97.5678 52.837C97.5678 49.4282 97.5678 46.0573 97.5678 42.6485C97.5678 41.7016 96.1286 41.7016 96.1286 42.6485C96.1286 46.0573 96.1286 49.4282 96.1286 52.837C96.5452 52.6855 96.9618 52.4961 97.3785 52.3446C93.7803 48.7465 90.22 45.1483 86.6218 41.5501C85.9401 40.8684 84.9174 41.891 85.5613 42.5349Z" fill="white"/>
<path d="M96.3182 42.5349C99.9163 46.1331 103.477 49.7312 107.075 53.3294C107.529 53.7839 108.325 53.443 108.325 52.837C108.325 49.4282 108.325 46.0573 108.325 42.6485C108.325 41.7016 106.885 41.7016 106.885 42.6485C106.885 46.0573 106.885 49.4282 106.885 52.837C107.302 52.6855 107.719 52.4961 108.135 52.3446C104.537 48.7465 100.977 45.1483 97.3787 41.5501C96.6969 40.8684 95.6743 41.891 96.3182 42.5349Z" fill="white"/>
<path d="M107.075 42.5349C110.673 46.1331 114.233 49.7312 117.831 53.3294C118.286 53.7839 119.081 53.443 119.081 52.837C119.081 49.4282 119.081 46.0573 119.081 42.6485C119.081 41.7016 117.642 41.7016 117.642 42.6485C117.642 46.0573 117.642 49.4282 117.642 52.837C118.058 52.6855 118.475 52.4961 118.892 52.3446C115.293 48.7465 111.733 45.1483 108.135 41.5501C107.453 40.8684 106.431 41.891 107.075 42.5349Z" fill="white"/>
<path d="M117.831 42.5349C121.43 46.1331 124.99 49.7312 128.588 53.3294C129.042 53.7839 129.838 53.443 129.838 52.837C129.838 49.4282 129.838 46.0573 129.838 42.6485C129.838 41.7016 128.399 41.7016 128.399 42.6485C128.399 46.0573 128.399 49.4282 128.399 52.837C128.815 52.6855 129.232 52.4961 129.648 52.3446C126.05 48.7465 122.49 45.1483 118.892 41.5501C118.21 40.8684 117.187 41.891 117.831 42.5349Z" fill="white"/>
<path d="M128.588 42.5349C132.186 46.1331 135.747 49.7312 139.345 53.3294C139.799 53.7839 140.595 53.443 140.595 52.837C140.595 49.4282 140.595 46.0573 140.595 42.6485C140.595 41.7016 139.155 41.7016 139.155 42.6485C139.155 46.0573 139.155 49.4282 139.155 52.837C139.572 52.6855 139.989 52.4961 140.405 52.3446C136.807 48.7465 133.247 45.1483 129.649 41.5501C128.929 40.8684 127.906 41.891 128.588 42.5349Z" fill="white"/>
<path d="M139.344 42.5349C142.943 46.1331 146.503 49.7312 150.101 53.3294C150.556 53.7839 151.351 53.443 151.351 52.837C151.351 49.4282 151.351 46.0573 151.351 42.6485C151.351 41.7016 149.912 41.7016 149.912 42.6485C149.912 46.0573 149.912 49.4282 149.912 52.837C150.328 52.6855 150.745 52.4961 151.162 52.3446C147.563 48.7465 144.003 45.1483 140.405 41.5501C139.685 40.8684 138.663 41.891 139.344 42.5349Z" fill="white"/>
<path d="M150.063 42.5349C153.661 46.1331 157.221 49.7312 160.819 53.3294C161.274 53.7839 162.069 53.443 162.069 52.837C162.069 49.4282 162.069 46.0573 162.069 42.6485C162.069 41.7016 160.63 41.7016 160.63 42.6485C160.63 46.0573 160.63 49.4282 160.63 52.837C161.047 52.6855 161.463 52.4961 161.88 52.3446C158.282 48.7465 154.721 45.1483 151.123 41.5501C150.442 40.8684 149.419 41.891 150.063 42.5349Z" fill="white"/>
<path d="M160.82 42.5349C164.418 46.1331 167.978 49.7312 171.576 53.3294C172.031 53.7839 172.826 53.443 172.826 52.837C172.826 49.4282 172.826 46.0573 172.826 42.6485C172.826 41.7016 171.387 41.7016 171.387 42.6485C171.387 46.0573 171.387 49.4282 171.387 52.837C171.803 52.6855 172.22 52.4961 172.637 52.3446C169.039 48.7465 165.478 45.1483 161.88 41.5501C161.198 40.8684 160.176 41.891 160.82 42.5349Z" fill="white"/>
<path d="M171.576 42.5349C175.175 46.1331 178.735 49.7312 182.333 53.3294C182.788 53.7839 183.583 53.443 183.583 52.837C183.583 49.4282 183.583 46.0573 183.583 42.6485C183.583 41.7016 182.144 41.7016 182.144 42.6485C182.144 46.0573 182.144 49.4282 182.144 52.837C182.56 52.6855 182.977 52.4961 183.394 52.3446C179.795 48.7465 176.235 45.1483 172.637 41.5501C171.955 40.8684 170.933 41.891 171.576 42.5349Z" fill="white"/>
<path d="M182.333 42.5349C185.931 46.1331 189.492 49.7312 193.09 53.3294C193.544 53.7839 194.34 53.443 194.34 52.837C194.34 49.4282 194.34 46.0573 194.34 42.6485C194.34 41.7016 192.901 41.7016 192.901 42.6485C192.901 46.0573 192.901 49.4282 192.901 52.837C193.317 52.6855 193.734 52.4961 194.15 52.3446C190.552 48.7465 186.992 45.1483 183.394 41.5501C182.712 40.8684 181.689 41.891 182.333 42.5349Z" fill="white"/>
<path d="M193.09 42.5349C196.688 46.1331 200.249 49.7312 203.847 53.3294C204.301 53.7839 205.097 53.443 205.097 52.837C205.097 49.4282 205.097 46.0573 205.097 42.6485C205.097 41.7016 203.657 41.7016 203.657 42.6485C203.657 46.0573 203.657 49.4282 203.657 52.837C204.074 52.6855 204.491 52.4961 204.907 52.3446C201.309 48.7465 197.749 45.1483 194.151 41.5501C193.431 40.8684 192.408 41.891 193.09 42.5349Z" fill="white"/>
<path d="M203.846 42.5349C207.444 46.1331 211.004 49.7312 214.603 53.3294C215.057 53.7839 215.852 53.443 215.852 52.837C215.852 49.4282 215.852 46.0573 215.852 42.6485C215.852 41.7016 214.413 41.7016 214.413 42.6485C214.413 46.0573 214.413 49.4282 214.413 52.837C214.83 52.6855 215.246 52.4961 215.663 52.3446C212.065 48.7465 208.505 45.1483 204.906 41.5501C204.187 40.8684 203.164 41.891 203.846 42.5349Z" fill="white"/>
<path d="M84.0465 217.785H52.7993V222.519H84.0465V217.785Z" fill="white"/>
<path d="M84.0465 219.262H52.7993V216.8C52.7993 214.754 54.4658 213.088 56.5111 213.088H80.2969C82.3422 213.088 84.0087 214.754 84.0087 216.8V219.262H84.0465Z" fill="white"/>
<path d="M63.5933 33.407H60.1088C58.3665 33.407 56.9272 34.8462 56.9272 36.5885V53.178C56.9272 54.9202 58.3665 56.3595 60.1088 56.3595H76.6982C78.4405 56.3595 79.8798 54.9202 79.8798 53.178V49.6934C79.8798 40.7169 72.6077 33.407 63.5933 33.407Z" fill="white"/>
<path d="M40.0348 53.4811V67.2299C40.0348 68.5176 38.9743 69.5781 37.6865 69.5781H17.1959C15.9082 69.5781 14.8477 68.5176 14.8477 67.2299V53.4811H40.0348Z" fill="white"/>
<path d="M40.035 53.4812H14.8857V63.4046H40.035V53.4812Z" fill="#E4F2FD"/>
<path d="M19.8853 53.4812L15.9463 63.4046H14.8857V59.0868L17.0825 53.4812H19.8853Z" fill="white"/>
<path d="M25.3781 53.4813L21.439 63.4047H18.6362L22.5753 53.4813H25.3781Z" fill="white"/>
<path d="M30.8693 53.4813L26.9302 63.4047H24.1274L28.0665 53.4813H30.8693Z" fill="white"/>
<path d="M36.3615 53.4813L32.4224 63.4047H29.6196L33.5587 53.4813H36.3615Z" fill="white"/>
<path d="M40.0354 53.4813V58.0264L37.8765 63.4047H35.0737L39.0128 53.4813H40.0354Z" fill="white"/>
<path d="M175.045 52.837H157.13V58.2911H175.045V52.837Z" fill="white"/>
<path d="M175.045 57.7988H157.13V59.7305H175.045V57.7988Z" fill="white"/>
<path d="M170.311 107.453H161.865V113.248H170.311V107.453Z" fill="white"/>
<path d="M163.531 107.453L162.206 113.248H161.865V110.711L162.584 107.453H163.531Z" fill="white"/>
<path d="M165.387 107.453L164.061 113.248H163.114L164.44 107.453H165.387Z" fill="white"/>
<path d="M167.205 107.453L165.879 113.248H164.97L166.258 107.453H167.205Z" fill="white"/>
<path d="M169.061 107.453L167.735 113.248H166.788L168.114 107.453H169.061Z" fill="white"/>
<path d="M170.311 107.453V110.105L169.591 113.248H168.644L169.97 107.453H170.311Z" fill="white"/>
<path d="M196.544 134.676H136V138.203H196.544V134.676Z" fill="white"/>
<path d="M64.3136 36.4749H62.2683C61.2456 36.4749 60.3745 37.3081 60.3745 38.3686V48.1784C60.3745 49.201 61.2078 50.0721 62.2683 50.0721H72.078C73.1007 50.0721 73.9718 49.2389 73.9718 48.1784V46.1331C73.9718 40.7927 69.654 36.4749 64.3136 36.4749Z" fill="#E4F2FD"/>
</g>
<rect x="145" y="85" width="43" height="49.0563" rx="10" fill="#E4F2FD"/>
<path d="M149.864 85C146.649 85 144 87.5573 144 90.6603V128.396C144 131.499 146.649 134.056 149.864 134.056H181.136C184.351 134.056 187 131.499 187 128.396V90.6603C187 87.5573 184.351 85 181.136 85H149.864ZM157.682 92.5471H173.318C176.533 92.5471 179.182 95.1044 179.182 98.2075C179.182 101.311 176.533 103.868 173.318 103.868H157.682C154.467 103.868 151.818 101.311 151.818 98.2075C151.818 95.1044 154.467 92.5471 157.682 92.5471ZM157.682 107.641C158.2 107.641 158.697 107.84 159.064 108.194C159.43 108.548 159.636 109.028 159.636 109.528C159.636 110.029 159.43 110.509 159.064 110.862C158.697 111.216 158.2 111.415 157.682 111.415C157.164 111.415 156.666 111.216 156.3 110.862C155.933 110.509 155.727 110.029 155.727 109.528C155.727 109.028 155.933 108.548 156.3 108.194C156.666 107.84 157.164 107.641 157.682 107.641ZM165.5 107.641C166.018 107.641 166.516 107.84 166.882 108.194C167.249 108.548 167.455 109.028 167.455 109.528C167.455 110.029 167.249 110.509 166.882 110.862C166.516 111.216 166.018 111.415 165.5 111.415C164.982 111.415 164.484 111.216 164.118 110.862C163.751 110.509 163.545 110.029 163.545 109.528C163.545 109.028 163.751 108.548 164.118 108.194C164.484 107.84 164.982 107.641 165.5 107.641ZM173.318 107.641C173.836 107.641 174.334 107.84 174.7 108.194C175.067 108.548 175.273 109.028 175.273 109.528C175.273 110.029 175.067 110.509 174.7 110.862C174.334 111.216 173.836 111.415 173.318 111.415C172.8 111.415 172.303 111.216 171.936 110.862C171.57 110.509 171.364 110.029 171.364 109.528C171.364 109.028 171.57 108.548 171.936 108.194C172.303 107.84 172.8 107.641 173.318 107.641ZM157.682 115.189C158.2 115.189 158.697 115.387 159.064 115.741C159.43 116.095 159.636 116.575 159.636 117.075C159.636 117.576 159.43 118.056 159.064 118.41C158.697 118.763 158.2 118.962 157.682 118.962C157.164 118.962 156.666 118.763 156.3 118.41C155.933 118.056 155.727 117.576 155.727 117.075C155.727 116.575 155.933 116.095 156.3 115.741C156.666 115.387 157.164 115.189 157.682 115.189ZM165.5 115.189C166.018 115.189 166.516 115.387 166.882 115.741C167.249 116.095 167.455 116.575 167.455 117.075C167.455 117.576 167.249 118.056 166.882 118.41C166.516 118.763 166.018 118.962 165.5 118.962C164.982 118.962 164.484 118.763 164.118 118.41C163.751 118.056 163.545 117.576 163.545 117.075C163.545 116.575 163.751 116.095 164.118 115.741C164.484 115.387 164.982 115.189 165.5 115.189ZM173.318 115.189C173.836 115.189 174.334 115.387 174.7 115.741C175.067 116.095 175.273 116.575 175.273 117.075C175.273 117.576 175.067 118.056 174.7 118.41C174.334 118.763 173.836 118.962 173.318 118.962C172.8 118.962 172.303 118.763 171.936 118.41C171.57 118.056 171.364 117.576 171.364 117.075C171.364 116.575 171.57 116.095 171.936 115.741C172.303 115.387 172.8 115.189 173.318 115.189ZM157.682 122.736C158.2 122.736 158.697 122.934 159.064 123.288C159.43 123.642 159.636 124.122 159.636 124.622C159.636 125.123 159.43 125.603 159.064 125.957C158.697 126.31 158.2 126.509 157.682 126.509C157.164 126.509 156.666 126.31 156.3 125.957C155.933 125.603 155.727 125.123 155.727 124.622C155.727 124.122 155.933 123.642 156.3 123.288C156.666 122.934 157.164 122.736 157.682 122.736ZM165.5 122.736C166.018 122.736 166.516 122.934 166.882 123.288C167.249 123.642 167.455 124.122 167.455 124.622C167.455 125.123 167.249 125.603 166.882 125.957C166.516 126.31 166.018 126.509 165.5 126.509C164.982 126.509 164.484 126.31 164.118 125.957C163.751 125.603 163.545 125.123 163.545 124.622C163.545 124.122 163.751 123.642 164.118 123.288C164.484 122.934 164.982 122.736 165.5 122.736ZM173.318 122.736C173.836 122.736 174.334 122.934 174.7 123.288C175.067 123.642 175.273 124.122 175.273 124.622C175.273 125.123 175.067 125.603 174.7 125.957C174.334 126.31 173.836 126.509 173.318 126.509C172.8 126.509 172.303 126.31 171.936 125.957C171.57 125.603 171.364 125.123 171.364 124.622C171.364 124.122 171.57 123.642 171.936 123.288C172.303 122.934 172.8 122.736 173.318 122.736Z" fill="#039DDF"/>
<defs>
<filter id="filter0_d_475_1132" x="98" y="7" width="443.902" height="329" filterUnits="userSpaceOnUse" color-interpolation-filters="sRGB">
<feFlood flood-opacity="0" result="BackgroundImageFix"/>
<feColorMatrix in="SourceAlpha" type="matrix" values="0 0 0 0 0 0 0 0 0 0 0 0 0 0 0 0 0 0 127 0" result="hardAlpha"/>
<feOffset dy="20"/>
<feGaussianBlur stdDeviation="15"/>
<feComposite in2="hardAlpha" operator="out"/>
<feColorMatrix type="matrix" values="0 0 0 0 0.25474 0 0 0 0 0.517844 0 0 0 0 0.9125 0 0 0 0.07 0"/>
<feBlend mode="normal" in2="BackgroundImageFix" result="effect1_dropShadow_475_1132"/>
<feBlend mode="normal" in="SourceGraphic" in2="effect1_dropShadow_475_1132" result="shape"/>
</filter>
<filter id="filter1_d_475_1132" x="-19.8867" y="0" width="266.488" height="272.519" filterUnits="userSpaceOnUse" color-interpolation-filters="sRGB">
<feFlood flood-opacity="0" result="BackgroundImageFix"/>
<feColorMatrix in="SourceAlpha" type="matrix" values="0 0 0 0 0 0 0 0 0 0 0 0 0 0 0 0 0 0 127 0" result="hardAlpha"/>
<feOffset dy="20"/>
<feGaussianBlur stdDeviation="15"/>
<feComposite in2="hardAlpha" operator="out"/>
<feColorMatrix type="matrix" values="0 0 0 0 0.25474 0 0 0 0 0.517844 0 0 0 0 0.9125 0 0 0 0.07 0"/>
<feBlend mode="normal" in2="BackgroundImageFix" result="effect1_dropShadow_475_1132"/>
<feBlend mode="normal" in="SourceGraphic" in2="effect1_dropShadow_475_1132" result="shape"/>
</filter>
</defs>
</svg>
