<svg width="640" height="447" viewBox="0 0 640 447" fill="none" xmlns="http://www.w3.org/2000/svg">
<g filter="url(#filter0_d_475_1135)">
<path d="M610 130.672C590.928 123.367 574.567 127.421 557.453 133.358C544.362 137.902 541.921 143.248 536.205 164.514C535.254 168.051 527.652 150.872 527.652 150.872C511.205 167.335 513.953 183.297 513.953 183.297L513.955 183.296C512.129 177.706 510.832 171.956 510.08 166.123C485.276 199.252 483.639 211.411 488.022 230.828C488.022 230.828 483.222 229.759 478.932 218.629C477.462 215.665 476.412 219.852 475.036 224.245C470.457 238.881 480.604 252.535 480.604 252.535C475.957 249.078 472.43 244.33 470.457 238.881C466.905 262.591 485.217 275.758 485.217 275.758C524.623 172.294 564.593 169.466 564.593 169.466C529.461 184.382 477.896 290.859 476.921 325L485.672 318.005C485.208 314.567 489.904 289.302 499.017 280.989C514.67 279.274 557.517 266.8 546.156 266.781C534.794 266.763 522.734 259.2 522.734 259.2C522.733 259.2 548.909 255.497 557.514 248.348C567.923 239.699 579.209 211.06 574.507 213.429C567.979 216.72 558.691 213.544 558.691 213.544C558.691 213.544 577.958 204.961 585.351 197.21C596.975 185.021 599.723 168.891 609.996 130.668L610 130.672Z" fill="white"/>
</g>
<g filter="url(#filter1_d_475_1135)">
<path d="M306.003 288.511C262.68 321.848 216.019 357.763 165.618 396.566C90.5444 338.908 104.949 222.166 30.1982 161.99C85.8136 132.24 137.302 104.687 185.118 79.1086C249.076 134.527 241.911 235.039 306.003 288.511Z" fill="white"/>
</g>
<path d="M184.948 126.228C158.681 141.234 131.33 156.866 102.816 173.169C100.18 169.177 97.3685 165.272 94.3584 161.482C123.077 145.418 150.621 130.006 177.07 115.2C179.873 118.792 182.485 122.467 184.948 126.228Z" fill="#E4F2FD"/>
<path d="M98.7546 204.891C94.8063 207.237 90.8324 209.584 86.8444 211.953C84.9821 208.176 83.0361 204.461 80.9707 200.815C84.9759 198.476 88.967 196.159 92.9226 193.849C94.9764 197.475 96.9053 201.16 98.7546 204.891Z" fill="#E4F2FD"/>
<path d="M211.654 131.476C176.534 152.111 139.406 173.931 100.093 197.039C99.1007 195.159 98.0885 193.291 97.0422 191.456C136.437 168.513 173.641 146.848 208.842 126.352C209.802 128.038 210.738 129.751 211.654 131.476Z" fill="#E4F2FD"/>
<path d="M216.786 141.717C181.796 162.647 144.801 184.789 105.621 208.218C104.728 206.281 103.805 204.362 102.862 202.453C142.109 179.184 179.166 157.219 214.216 136.44C215.093 138.187 215.949 139.946 216.786 141.717Z" fill="#E4F2FD"/>
<path d="M89.9201 208.718C89.7709 208.804 89.613 208.829 89.4619 208.797C87.7472 208.422 86.0267 208.036 84.2863 207.663C83.9685 207.594 83.7791 207.266 83.8929 206.935C84.0068 206.604 84.349 206.394 84.6768 206.456C86.1934 206.787 87.7043 207.108 89.211 207.444C90.1994 203.003 91.1182 198.601 91.9689 194.266C92.0315 193.938 92.3566 193.697 92.6928 193.728C93.029 193.76 93.2524 194.055 93.1898 194.383C92.286 198.948 91.3083 203.569 90.2569 208.246C90.2107 208.418 90.1074 208.584 89.9541 208.685C89.9499 208.701 89.94 208.707 89.9201 208.718Z" fill="#039DDF" fill-opacity="0.3"/>
<path d="M111.374 234.259C107.452 236.696 103.514 239.128 99.5421 241.594C98.0263 237.591 96.4664 233.626 94.837 229.702C98.8063 227.278 102.761 224.875 106.697 222.484C108.303 226.368 109.856 230.297 111.374 234.259Z" fill="#E4F2FD"/>
<path d="M223.895 157.935C189.052 179.35 152.216 201.996 113.202 225.966C112.403 223.962 111.599 221.973 110.77 219.986C149.831 196.188 186.719 173.724 221.602 152.471C222.385 154.286 223.142 156.103 223.895 157.935Z" fill="#E4F2FD"/>
<path d="M228.185 168.741C193.424 190.48 156.665 213.466 117.741 237.822C116.991 235.789 116.226 233.752 115.457 231.73C154.429 207.573 191.224 184.764 226.026 163.187C226.749 165.036 227.472 166.886 228.185 168.741Z" fill="#E4F2FD"/>
<path d="M102.704 238.205C102.554 238.291 102.402 238.326 102.261 238.288C100.651 237.865 99.0419 237.442 97.4224 237.025C97.1145 236.951 96.9747 236.594 97.1028 236.242C97.2308 235.89 97.583 235.673 97.8809 235.753C99.2966 236.115 100.702 236.484 102.108 236.852C103.364 232.163 104.587 227.507 105.761 222.905C105.853 222.56 106.173 222.309 106.489 222.352C106.805 222.395 106.989 222.713 106.897 223.058C105.665 227.905 104.38 232.796 103.05 237.726C103 237.915 102.881 238.076 102.733 238.188C102.723 238.193 102.713 238.199 102.704 238.205Z" fill="#039DDF" fill-opacity="0.3"/>
<path d="M122.352 264.867C118.446 267.401 114.524 269.93 110.578 272.487C109.154 268.39 107.741 264.289 106.313 260.208C110.266 257.687 114.205 255.188 118.108 252.695C119.519 256.746 120.935 260.807 122.352 264.867Z" fill="#E4F2FD"/>
<path d="M234.472 185.579C199.814 207.842 163.16 231.377 124.342 256.307C123.617 254.247 122.895 252.171 122.17 250.111C161.03 225.369 197.711 202.017 232.405 179.932C233.1 181.824 233.783 183.696 234.472 185.579Z" fill="#E4F2FD"/>
<path d="M238.521 196.631C203.924 219.23 167.333 243.126 128.579 268.444C127.848 266.373 127.127 264.298 126.411 262.232C165.203 237.118 201.831 213.399 236.448 190.974C237.137 192.856 237.831 194.748 238.521 196.631Z" fill="#E4F2FD"/>
<path d="M113.736 268.98C113.593 269.076 113.435 269.101 113.294 269.063C111.726 268.643 110.152 268.212 108.583 267.792C108.285 267.712 108.156 267.35 108.294 266.992C108.426 266.624 108.772 266.397 109.07 266.477C110.45 266.847 111.82 267.222 113.185 267.588C114.525 262.745 115.856 257.933 117.163 253.148C117.27 252.782 117.589 252.531 117.89 252.57C118.19 252.608 118.354 252.938 118.257 253.298C116.877 258.324 115.479 263.387 114.082 268.475C114.031 268.664 113.908 268.841 113.76 268.952C113.766 268.962 113.756 268.968 113.736 268.98Z" fill="#039DDF" fill-opacity="0.3"/>
<path d="M133.466 295.647C129.586 298.272 125.676 300.914 121.746 303.567C120.192 299.52 118.677 295.45 117.202 291.356C121.139 288.739 125.056 286.132 128.949 283.553C130.417 287.611 131.919 291.636 133.466 295.647Z" fill="#E4F2FD"/>
<path d="M244.891 213.566C210.408 236.683 173.928 261.139 135.276 287.047C134.515 284.994 133.748 282.931 132.997 280.873C171.681 255.158 208.204 230.89 242.727 207.936C243.442 209.816 244.166 211.691 244.891 213.566Z" fill="#E4F2FD"/>
<path d="M249.28 224.474C214.874 247.931 178.486 272.731 139.924 299.024C139.108 296.99 138.307 294.96 137.511 292.915C176.12 266.819 212.554 242.191 247.006 218.907C247.751 220.77 248.505 222.628 249.28 224.474Z" fill="#E4F2FD"/>
<path d="M124.865 299.99C124.721 300.086 124.569 300.121 124.418 300.089C122.822 299.711 121.219 299.324 119.623 298.947C119.325 298.867 119.191 298.52 119.307 298.148C119.44 297.78 119.78 297.543 120.088 297.618C121.477 297.956 122.875 298.289 124.273 298.621C125.509 293.759 126.765 288.884 128.032 284.03C128.123 283.659 128.456 283.387 128.757 283.426C129.058 283.464 129.231 283.788 129.14 284.159C127.816 289.258 126.497 294.368 125.21 299.486C125.16 299.674 125.046 299.845 124.905 299.967C124.879 299.969 124.869 299.974 124.865 299.99Z" fill="#039DDF" fill-opacity="0.3"/>
<path d="M146.478 325.372C142.624 328.088 138.74 330.821 134.842 333.575C132.915 329.756 131.088 325.879 129.335 321.947C133.246 319.238 137.147 316.535 141.008 313.855C142.755 317.752 144.574 321.593 146.478 325.372Z" fill="#E4F2FD"/>
<path d="M256.609 240.869C222.366 264.815 186.149 290.14 147.759 316.983C146.829 315.028 145.913 313.051 145.033 311.067C183.475 284.406 219.764 259.252 254.067 235.456C254.907 237.278 255.745 239.074 256.609 240.869Z" fill="#E4F2FD"/>
<path d="M261.916 251.208C227.809 275.459 191.734 301.099 153.499 328.279C152.475 326.391 151.475 324.476 150.496 322.549C188.803 295.54 224.964 270.049 259.147 245.953C260.045 247.715 260.968 249.475 261.916 251.208Z" fill="#E4F2FD"/>
<path d="M137.826 329.97C137.683 330.066 137.521 330.107 137.375 330.085C135.681 329.79 133.992 329.506 132.308 329.206C131.986 329.153 131.826 328.808 131.938 328.451C132.045 328.085 132.396 327.843 132.708 327.901C134.174 328.168 135.651 328.429 137.121 328.68C138.06 323.923 139.054 319.147 140.093 314.357C140.174 313.993 140.492 313.716 140.813 313.743C141.133 313.77 141.327 314.083 141.246 314.448C140.169 319.471 139.133 324.496 138.167 329.482C138.127 329.664 138.019 329.845 137.872 329.957C137.856 329.953 137.846 329.959 137.826 329.97Z" fill="#039DDF" fill-opacity="0.3"/>
<path d="M163.064 352.65C159.256 355.445 155.433 358.262 151.576 361.086C149.063 357.698 146.688 354.204 144.436 350.625C148.305 347.821 152.161 345.039 155.986 342.274C158.226 345.832 160.578 349.286 163.064 352.65Z" fill="#E4F2FD"/>
<path d="M271.06 266.356C237.221 291.024 201.42 317.116 163.495 344.765C162.294 343.006 161.127 341.214 159.984 339.395C198.02 311.893 233.927 285.939 267.863 261.415C268.904 263.081 269.975 264.729 271.06 266.356Z" fill="#E4F2FD"/>
<path d="M277.811 275.636C244.186 300.538 208.627 326.888 170.934 354.801C169.59 353.138 168.295 351.446 167.03 349.737C204.848 321.951 240.539 295.737 274.279 270.942C275.424 272.534 276.602 274.094 277.811 275.636Z" fill="#E4F2FD"/>
<path d="M154.351 357.535C154.213 357.641 154.041 357.687 153.876 357.676C152.031 357.535 150.191 357.378 148.36 357.215C148.014 357.19 147.795 356.879 147.877 356.54C147.954 356.19 148.289 355.944 148.635 355.969C150.228 356.11 151.826 356.261 153.439 356.391C153.9 351.909 154.451 347.375 155.062 342.807C155.113 342.46 155.415 342.179 155.759 342.179C156.094 342.185 156.332 342.459 156.286 342.816C155.648 347.612 155.1 352.356 154.631 357.055C154.61 357.226 154.523 357.396 154.381 357.517C154.381 357.517 154.361 357.529 154.351 357.535Z" fill="#039DDF" fill-opacity="0.3"/>
<g filter="url(#filter2_d_475_1135)">
<path d="M426.292 302.021C363.267 328.228 295.384 356.465 222.056 386.976C150.144 293.175 205.245 157.03 134.537 60.2951C211.227 42.3875 282.231 25.796 348.167 10.399C407.395 97.9077 366.272 216.817 426.292 302.021Z" fill="white"/>
<ellipse cx="380.922" cy="282.185" rx="17.3149" ry="23.9863" transform="rotate(-18.1385 380.922 282.185)" fill="#E4F2FD"/>
<path d="M332.733 67.1734C296.203 76.7834 258.164 86.7978 218.505 97.2463C216.615 91.579 214.487 85.9609 212.081 80.417C251.909 70.3238 290.11 60.637 326.795 51.3269C329.014 56.5644 330.977 61.8411 332.733 67.1734Z" fill="#E4F2FD"/>
<path d="M203.352 134.193C197.832 135.746 192.28 137.293 186.705 138.861C185.679 133.704 184.533 128.594 183.22 123.529C188.807 122.003 194.369 120.497 199.887 118.989C201.192 124.027 202.327 129.095 203.352 134.193Z" fill="#E4F2FD"/>
<path d="M363.244 82.1336C314.217 95.671 262.387 109.989 207.504 125.155C206.915 122.567 206.298 119.987 205.629 117.436C260.557 102.495 312.429 88.3885 361.508 75.045C362.121 77.3887 362.696 79.7574 363.244 82.1336Z" fill="#E4F2FD"/>
<path d="M366.123 96.1435C317.159 110.08 265.385 124.828 210.558 140.424C210.107 137.8 209.615 135.186 209.094 132.58C263.949 117.199 315.741 102.683 364.73 88.9483C365.222 91.3393 365.687 93.7377 366.123 96.1435Z" fill="#E4F2FD"/>
<path d="M191.463 135.954C191.255 136.01 191.056 135.989 190.885 135.901C188.938 134.894 186.987 133.873 185.009 132.86C184.648 132.675 184.525 132.218 184.77 131.856C185.014 131.494 185.495 131.35 185.87 131.531C187.592 132.42 189.311 133.295 191.019 134.188C193.647 129.151 196.177 124.139 198.604 119.185C198.786 118.81 199.256 118.625 199.651 118.771C200.046 118.917 200.221 119.346 200.039 119.721C197.474 124.935 194.801 130.192 192.022 135.493C191.91 135.686 191.732 135.852 191.514 135.925C191.504 135.943 191.49 135.947 191.463 135.954Z" fill="#039DDF" fill-opacity="0.3"/>
<path d="M209.082 173.691C203.564 175.363 198.029 177.024 192.441 178.714C191.907 173.396 191.307 168.11 190.61 162.851C196.181 161.21 201.727 159.59 207.246 157.977C207.928 163.182 208.531 168.422 209.082 173.691Z" fill="#E4F2FD"/>
<path d="M369.456 118.001C320.512 132.569 268.767 147.978 213.966 164.28C213.649 161.604 213.323 158.946 212.965 156.281C267.767 140.203 319.516 125.03 368.456 110.67C368.814 113.112 369.14 115.548 369.456 118.001Z" fill="#E4F2FD"/>
<path d="M371.138 132.42C322.188 147.406 270.425 163.25 215.608 180.045C215.361 177.351 215.096 174.647 214.822 171.96C269.633 155.419 321.382 139.801 370.328 125.024C370.603 127.488 370.877 129.952 371.138 132.42Z" fill="#E4F2FD"/>
<path d="M197.348 175.648C197.14 175.704 196.946 175.697 196.788 175.605C194.983 174.575 193.178 173.545 191.36 172.518C191.013 172.33 190.959 171.854 191.228 171.471C191.496 171.087 191.991 170.94 192.324 171.132C193.914 172.027 195.491 172.925 197.067 173.824C200.098 168.574 203.077 163.354 205.98 158.183C206.203 157.797 206.669 157.598 207.037 157.751C207.405 157.905 207.524 158.348 207.301 158.734C204.249 164.182 201.118 169.666 197.921 175.183C197.799 175.394 197.604 175.55 197.39 175.637C197.376 175.641 197.362 175.644 197.348 175.648Z" fill="#039DDF" fill-opacity="0.3"/>
<path d="M212.432 214.155C206.902 215.948 201.355 217.731 195.77 219.539C195.376 214.139 194.997 208.735 194.593 203.352C200.176 201.589 205.734 199.847 211.248 198.103C211.64 203.444 212.036 208.799 212.432 214.155Z" fill="#E4F2FD"/>
<path d="M373.284 154.76C324.29 170.411 272.476 186.951 217.602 204.474C217.393 201.755 217.193 199.018 216.984 196.299C271.849 179.016 323.635 162.706 372.616 147.281C372.843 149.788 373.062 152.267 373.284 154.76Z" fill="#E4F2FD"/>
<path d="M374.594 169.398C325.564 185.474 273.71 202.47 218.788 220.48C218.575 217.748 218.376 215.011 218.181 212.288C273.083 194.535 324.924 177.765 373.922 161.905C374.144 164.398 374.371 166.905 374.594 169.398Z" fill="#E4F2FD"/>
<path d="M200.714 216.33C200.51 216.4 200.311 216.379 200.153 216.287C198.398 215.274 196.638 214.246 194.883 213.233C194.549 213.04 194.51 212.561 194.792 212.174C195.07 211.773 195.561 211.611 195.895 211.804C197.44 212.696 198.971 213.592 200.498 214.474C203.679 209.065 206.84 203.692 209.963 198.344C210.21 197.936 210.676 197.737 211.026 197.881C211.376 198.024 211.468 198.475 211.234 198.879C207.946 204.494 204.623 210.148 201.293 215.834C201.172 216.044 200.966 216.218 200.752 216.305C200.755 216.319 200.742 216.323 200.714 216.33Z" fill="#039DDF" fill-opacity="0.3"/>
<path d="M215.891 254.87C210.364 256.781 204.794 258.704 199.197 260.634C198.63 255.251 198.119 249.852 197.662 244.439C203.257 242.554 208.824 240.677 214.352 238.824C214.811 244.192 215.322 249.532 215.891 254.87Z" fill="#E4F2FD"/>
<path d="M376.804 191.882C327.744 208.619 275.842 226.326 220.853 245.082C220.598 242.36 220.34 239.624 220.1 236.899C275.065 218.386 326.957 200.92 376.014 184.392C376.268 186.891 376.536 189.387 376.804 191.882Z" fill="#E4F2FD"/>
<path d="M378.571 206.457C329.494 223.629 277.593 241.78 222.588 261.03C222.26 258.313 221.951 255.606 221.651 252.881C276.65 233.885 328.552 215.956 377.629 199.007C377.924 201.495 378.234 203.98 378.571 206.457Z" fill="#E4F2FD"/>
<path d="M204.114 257.328C203.91 257.398 203.716 257.391 203.544 257.303C201.74 256.332 199.933 255.347 198.129 254.376C197.796 254.184 197.746 253.722 198.007 253.311C198.285 252.91 198.773 252.734 199.12 252.923C200.685 253.78 202.264 254.633 203.844 255.487C206.905 250.021 209.995 244.548 213.092 239.103C213.321 238.685 213.811 238.465 214.162 238.609C214.512 238.752 214.617 239.199 214.387 239.617C211.142 245.339 207.9 251.075 204.694 256.832C204.572 257.043 204.38 257.213 204.17 257.314C204.138 257.307 204.125 257.311 204.114 257.328Z" fill="#039DDF" fill-opacity="0.3"/>
<path d="M221.982 294.926C216.456 296.955 210.888 298.996 205.297 301.058C204.208 295.83 203.257 290.564 202.413 285.254C208.005 283.251 213.584 281.252 219.107 279.267C219.954 284.532 220.907 289.752 221.982 294.926Z" fill="#E4F2FD"/>
<path d="M382.104 229.45C333.027 246.622 281.126 264.773 226.121 284.023C225.794 281.306 225.484 278.599 225.184 275.874C280.183 256.878 332.085 238.949 381.162 222C381.458 224.488 381.767 226.973 382.104 229.45Z" fill="#E4F2FD"/>
<path d="M384.103 243.45C335.027 260.622 283.125 278.773 228.12 298.023C227.793 295.306 227.483 292.599 227.183 289.874C282.182 270.878 334.084 252.949 383.161 236C383.457 238.488 383.766 240.973 384.103 243.45Z" fill="#E4F2FD"/>
<path d="M210.059 297.675C209.855 297.744 209.646 297.741 209.478 297.667C207.53 296.765 205.585 295.876 203.65 294.97C203.279 294.802 203.198 294.334 203.449 293.94C203.696 293.533 204.197 293.354 204.554 293.525C206.237 294.321 207.933 295.113 209.626 295.891C212.295 290.457 215.038 285.018 217.839 279.577C218.055 279.163 218.527 278.933 218.905 279.069C219.283 279.205 219.415 279.645 219.2 280.059C216.278 285.769 213.404 291.495 210.628 297.196C210.52 297.403 210.332 297.587 210.118 297.674C210.101 297.664 210.087 297.667 210.059 297.675Z" fill="#039DDF" fill-opacity="0.3"/>
<path d="M233.167 333.185C227.671 335.325 222.151 337.487 216.585 339.646C214.65 334.748 212.914 329.766 211.355 324.723C216.928 322.591 222.477 320.481 227.984 318.382C229.536 323.398 231.256 328.324 233.167 333.185Z" fill="#E4F2FD"/>
<path d="M348.958 276.232C312.707 289.55 274.356 303.633 233.727 318.563C233.436 315.98 233.184 313.374 232.962 310.748C273.624 296.04 312.007 282.164 348.28 269.056C348.48 271.459 348.709 273.855 348.958 276.232Z" fill="#E4F2FD"/>
<path d="M350.748 289.184C313.872 301.939 274.869 315.445 233.534 329.741C233.159 327.194 232.835 324.638 232.542 322.076C273.925 307.984 312.976 294.696 349.897 282.118C350.144 284.49 350.43 286.84 350.748 289.184Z" fill="#E4F2FD"/>
<path d="M221.08 336.26C220.88 336.343 220.657 336.344 220.461 336.277C218.282 335.511 216.113 334.727 213.958 333.939C213.549 333.796 213.385 333.35 213.594 332.968C213.799 332.571 214.283 332.382 214.692 332.525C216.567 333.21 218.446 333.908 220.349 334.586C222.354 329.329 224.484 324.039 226.696 318.727C226.87 318.324 227.325 318.084 227.741 318.195C228.143 318.31 228.341 318.717 228.17 319.134C225.851 324.712 223.656 330.257 221.572 335.772C221.492 335.971 221.332 336.148 221.122 336.249C221.122 336.249 221.094 336.256 221.08 336.26Z" fill="#039DDF" fill-opacity="0.3"/>
</g>
<path d="M345.462 129.464C351.521 123.405 359.74 120 368.309 120C376.878 120 385.097 123.404 391.156 129.464C397.216 135.523 400.62 143.741 400.62 152.311C400.62 160.88 397.216 169.099 391.156 175.158C385.097 181.217 376.879 184.622 368.309 184.622C359.739 184.622 351.521 181.218 345.462 175.158C339.403 169.099 335.998 160.881 335.998 152.311C335.998 143.741 339.403 135.523 345.462 129.464ZM353.688 166.961C358.236 171.496 364.634 173.657 371 172.812C377.367 171.967 382.979 168.209 386.186 162.645C389.393 157.081 389.831 150.341 387.37 144.409C384.91 138.477 379.832 134.025 373.628 132.363C367.424 130.7 360.8 132.018 355.704 135.926C350.608 139.833 347.618 145.889 347.614 152.312C347.61 157.809 349.796 163.08 353.688 166.961L353.688 166.961Z" fill="#039DDF"/>
<path d="M389.37 182.927L393.703 187.258C394.177 187.754 394.833 188.035 395.519 188.036C396.213 188.036 396.877 187.755 397.361 187.258L404.107 180.516C404.593 180.032 404.866 179.374 404.866 178.688C404.866 178.002 404.593 177.344 404.107 176.86L399.749 172.504C398.436 174.601 396.886 176.542 395.13 178.286C393.379 180.032 391.449 181.588 389.37 182.927Z" fill="#039DDF"/>
<path d="M394.814 184.704L401.551 177.97C402.477 177.053 403.714 176.516 405.016 176.465C406.319 176.413 407.594 176.851 408.589 177.692L419.53 186.864C422.723 189.516 424.691 193.357 424.978 197.496C425.155 200.369 424.112 203.183 422.105 205.247C420.163 207.143 417.541 208.181 414.826 208.129C414.669 208.129 414.509 208.124 414.349 208.119C410.208 207.832 406.366 205.864 403.713 202.673L394.535 191.736C393.694 190.741 393.257 189.467 393.309 188.166C393.36 186.864 393.897 185.63 394.814 184.704Z" fill="#039DDF"/>
<circle cx="375.592" cy="142.914" r="5.28787" fill="#039DDF"/>
<defs>
<filter id="filter0_d_475_1135" x="440" y="116.745" width="200" height="258.255" filterUnits="userSpaceOnUse" color-interpolation-filters="sRGB">
<feFlood flood-opacity="0" result="BackgroundImageFix"/>
<feColorMatrix in="SourceAlpha" type="matrix" values="0 0 0 0 0 0 0 0 0 0 0 0 0 0 0 0 0 0 127 0" result="hardAlpha"/>
<feOffset dy="20"/>
<feGaussianBlur stdDeviation="15"/>
<feComposite in2="hardAlpha" operator="out"/>
<feColorMatrix type="matrix" values="0 0 0 0 0.25474 0 0 0 0 0.517844 0 0 0 0 0.9125 0 0 0 0.07 0"/>
<feBlend mode="normal" in2="BackgroundImageFix" result="effect1_dropShadow_475_1135"/>
<feBlend mode="normal" in="SourceGraphic" in2="effect1_dropShadow_475_1135" result="shape"/>
</filter>
<filter id="filter1_d_475_1135" x="0.198242" y="69.1086" width="335.805" height="377.457" filterUnits="userSpaceOnUse" color-interpolation-filters="sRGB">
<feFlood flood-opacity="0" result="BackgroundImageFix"/>
<feColorMatrix in="SourceAlpha" type="matrix" values="0 0 0 0 0 0 0 0 0 0 0 0 0 0 0 0 0 0 127 0" result="hardAlpha"/>
<feOffset dy="20"/>
<feGaussianBlur stdDeviation="15"/>
<feComposite in2="hardAlpha" operator="out"/>
<feColorMatrix type="matrix" values="0 0 0 0 0.25474 0 0 0 0 0.517844 0 0 0 0 0.9125 0 0 0 0.07 0"/>
<feBlend mode="normal" in2="BackgroundImageFix" result="effect1_dropShadow_475_1135"/>
<feBlend mode="normal" in="SourceGraphic" in2="effect1_dropShadow_475_1135" result="shape"/>
</filter>
<filter id="filter2_d_475_1135" x="104.536" y="0.398926" width="351.756" height="436.577" filterUnits="userSpaceOnUse" color-interpolation-filters="sRGB">
<feFlood flood-opacity="0" result="BackgroundImageFix"/>
<feColorMatrix in="SourceAlpha" type="matrix" values="0 0 0 0 0 0 0 0 0 0 0 0 0 0 0 0 0 0 127 0" result="hardAlpha"/>
<feOffset dy="20"/>
<feGaussianBlur stdDeviation="15"/>
<feComposite in2="hardAlpha" operator="out"/>
<feColorMatrix type="matrix" values="0 0 0 0 0.25474 0 0 0 0 0.517844 0 0 0 0 0.9125 0 0 0 0.07 0"/>
<feBlend mode="normal" in2="BackgroundImageFix" result="effect1_dropShadow_475_1135"/>
<feBlend mode="normal" in="SourceGraphic" in2="effect1_dropShadow_475_1135" result="shape"/>
</filter>
</defs>
</svg>
