<svg width="863" height="422" viewBox="0 0 863 422" fill="none" xmlns="http://www.w3.org/2000/svg">
<g filter="url(#filter0_d_475_1131)">
<path d="M782.9 335.421H749.78V335.671H782.9V335.421Z" fill="white"/>
<path d="M664.22 338.141H655.53V338.391H664.22V338.141Z" fill="white"/>
<path d="M748.78 326.141H729.59V326.391H748.78V326.141Z" fill="white"/>
<path d="M428.65 327.821H385.46V328.071H428.65V327.821Z" fill="white"/>
<path d="M443.89 327.821H437.56V328.071H443.89V327.821Z" fill="white"/>
<path d="M558.15 332.041H464.47V332.291H558.15V332.041Z" fill="white"/>
<path d="M833 324.331H333V324.581H833V324.331Z" fill="white"/>
<path d="M622.04 177.031H557.82V298.071H622.04V177.031Z" fill="white"/>
<path d="M570.16 161.511V177.031H575.22H604.65H609.71V161.511H570.16Z" fill="white"/>
<path d="M570.16 181.141H561.94V189.361H570.16V181.141Z" fill="#E4F2FD"/>
<path d="M586.08 181.141H577.86V189.361H586.08V181.141Z" fill="#E4F2FD"/>
<path d="M602.01 181.141H593.79V189.361H602.01V181.141Z" fill="#E4F2FD"/>
<path d="M617.93 181.141H609.71V189.361H617.93V181.141Z" fill="#E4F2FD"/>
<path d="M570.16 196.081H561.94V204.301H570.16V196.081Z" fill="#E4F2FD"/>
<path d="M586.08 196.081H577.86V204.301H586.08V196.081Z" fill="#E4F2FD"/>
<path d="M602.01 196.081H593.79V204.301H602.01V196.081Z" fill="#E4F2FD"/>
<path d="M617.93 196.081H609.71V204.301H617.93V196.081Z" fill="#E4F2FD"/>
<path d="M570.16 211.021H561.94V219.241H570.16V211.021Z" fill="#E4F2FD"/>
<path d="M586.08 211.021H577.86V219.241H586.08V211.021Z" fill="#E4F2FD"/>
<path d="M602.01 211.021H593.79V219.241H602.01V211.021Z" fill="#E4F2FD"/>
<path d="M586.08 168.231H577.86V176.451H586.08V168.231Z" fill="#E4F2FD"/>
<path d="M602.01 168.231H593.79V176.451H602.01V168.231Z" fill="#E4F2FD"/>
<path d="M617.93 211.021H609.71V219.241H617.93V211.021Z" fill="#E4F2FD"/>
<path d="M570.16 225.961H561.94V234.181H570.16V225.961Z" fill="#E4F2FD"/>
<path d="M586.08 225.961H577.86V234.181H586.08V225.961Z" fill="#E4F2FD"/>
<path d="M602.01 225.961H593.79V234.181H602.01V225.961Z" fill="#E4F2FD"/>
<path d="M617.93 225.961H609.71V234.181H617.93V225.961Z" fill="#E4F2FD"/>
<path d="M570.16 240.901H561.94V249.121H570.16V240.901Z" fill="#E4F2FD"/>
<path d="M586.08 240.901H577.86V249.121H586.08V240.901Z" fill="#E4F2FD"/>
<path d="M602.01 240.901H593.79V249.121H602.01V240.901Z" fill="#E4F2FD"/>
<path d="M617.93 240.901H609.71V249.121H617.93V240.901Z" fill="#E4F2FD"/>
<path d="M570.16 255.831H561.94V264.051H570.16V255.831Z" fill="#E4F2FD"/>
<path d="M586.08 255.831H577.86V264.051H586.08V255.831Z" fill="#E4F2FD"/>
<path d="M602.01 255.831H593.79V264.051H602.01V255.831Z" fill="#E4F2FD"/>
<path d="M617.93 255.831H609.71V264.051H617.93V255.831Z" fill="#E4F2FD"/>
<path d="M570.16 270.771H561.94V278.991H570.16V270.771Z" fill="#E4F2FD"/>
<path d="M586.08 270.771H577.86V278.991H586.08V270.771Z" fill="#E4F2FD"/>
<path d="M602.01 270.771H593.79V278.991H602.01V270.771Z" fill="#E4F2FD"/>
<path d="M617.93 270.771H609.71V278.991H617.93V270.771Z" fill="#E4F2FD"/>
<path d="M556.5 177.111H623.37V175.431H556.5V177.111Z" fill="white"/>
<path d="M559.61 156.071H483.27V298.071H559.61V156.071Z" fill="white"/>
<path d="M497.93 137.621V156.071H503.95H538.93H544.95V137.621H497.93Z" fill="white"/>
<path d="M481.7 156.171H561.19V154.181H481.7V156.171Z" fill="white"/>
<path d="M495.94 137.621H546.95V135.631H495.94V137.621Z" fill="white"/>
<path d="M543.69 156.071H467.35V298.071H543.69V156.071Z" fill="white"/>
<path d="M482.01 137.621V156.071H488.03H523.01H529.03V137.621H482.01Z" fill="white"/>
<path d="M482.01 160.961H472.24V170.731H482.01V160.961Z" fill="#E4F2FD"/>
<path d="M500.94 160.961H491.17V170.731H500.94V160.961Z" fill="#E4F2FD"/>
<path d="M519.87 160.961H510.1V170.731H519.87V160.961Z" fill="#E4F2FD"/>
<path d="M538.8 160.961H529.03V170.731H538.8V160.961Z" fill="#E4F2FD"/>
<path d="M482.01 178.721H472.24V188.491H482.01V178.721Z" fill="#E4F2FD"/>
<path d="M500.94 178.721H491.17V188.491H500.94V178.721Z" fill="#E4F2FD"/>
<path d="M519.87 178.721H510.1V188.491H519.87V178.721Z" fill="#E4F2FD"/>
<path d="M538.8 178.721H529.03V188.491H538.8V178.721Z" fill="#E4F2FD"/>
<path d="M482.01 196.471H472.24V206.241H482.01V196.471Z" fill="#E4F2FD"/>
<path d="M500.94 196.471H491.17V206.241H500.94V196.471Z" fill="#E4F2FD"/>
<path d="M519.87 196.471H510.1V206.241H519.87V196.471Z" fill="#E4F2FD"/>
<path d="M500.94 145.611H491.17V155.381H500.94V145.611Z" fill="#E4F2FD"/>
<path d="M519.87 145.611H510.1V155.381H519.87V145.611Z" fill="#E4F2FD"/>
<path d="M538.8 196.471H529.03V206.241H538.8V196.471Z" fill="#E4F2FD"/>
<path d="M482.01 214.231H472.24V224.001H482.01V214.231Z" fill="#E4F2FD"/>
<path d="M500.94 214.231H491.17V224.001H500.94V214.231Z" fill="#E4F2FD"/>
<path d="M519.87 214.231H510.1V224.001H519.87V214.231Z" fill="#E4F2FD"/>
<path d="M538.8 214.231H529.03V224.001H538.8V214.231Z" fill="#E4F2FD"/>
<path d="M482.01 231.991H472.24V241.761H482.01V231.991Z" fill="#E4F2FD"/>
<path d="M500.94 231.991H491.17V241.761H500.94V231.991Z" fill="#E4F2FD"/>
<path d="M519.87 231.991H510.1V241.761H519.87V231.991Z" fill="#E4F2FD"/>
<path d="M538.8 231.991H529.03V241.761H538.8V231.991Z" fill="#E4F2FD"/>
<path d="M482.01 249.751H472.24V259.521H482.01V249.751Z" fill="#E4F2FD"/>
<path d="M500.94 249.751H491.17V259.521H500.94V249.751Z" fill="#E4F2FD"/>
<path d="M519.87 249.751H510.1V259.521H519.87V249.751Z" fill="#E4F2FD"/>
<path d="M538.8 249.751H529.03V259.521H538.8V249.751Z" fill="#E4F2FD"/>
<path d="M482.01 267.511H472.24V277.281H482.01V267.511Z" fill="#E4F2FD"/>
<path d="M500.94 267.511H491.17V277.281H500.94V267.511Z" fill="#E4F2FD"/>
<path d="M519.87 267.511H510.1V277.281H519.87V267.511Z" fill="#E4F2FD"/>
<path d="M538.8 267.511H529.03V277.281H538.8V267.511Z" fill="#E4F2FD"/>
<path d="M465.78 156.171H545.27V154.181H465.78V156.171Z" fill="white"/>
<path d="M480.02 137.621H531.03V135.631H480.02V137.621Z" fill="white"/>
<path d="M467.13 190.631H454.4V297.511H467.13V190.631Z" fill="white"/>
<path d="M428.93 220.391H386.2V297.511H454.4V220.391V190.631L428.93 220.391Z" fill="white"/>
<path d="M401.53 233.991H392.51V244.141H401.53V233.991Z" fill="#E4F2FD"/>
<path d="M401.53 251.071H392.51V261.221H401.53V251.071Z" fill="#E4F2FD"/>
<path d="M402 268H393V278H402V268Z" fill="#E4F2FD"/>
<path d="M418.64 233.991H409.62V244.141H418.64V233.991Z" fill="#E4F2FD"/>
<path d="M418.64 251.071H409.62V261.221H418.64V251.071Z" fill="#E4F2FD"/>
<path d="M419 268H410V278H419V268Z" fill="#E4F2FD"/>
<path d="M435.75 233.991H426.73V244.141H435.75V233.991Z" fill="#E4F2FD"/>
<path d="M435.75 251.071H426.73V261.221H435.75V251.071Z" fill="#E4F2FD"/>
<path d="M436 268H427V278H436V268Z" fill="#E4F2FD"/>
<path d="M452.86 233.991H443.84V244.141H452.86V233.991Z" fill="#E4F2FD"/>
<path d="M452.86 251.071H443.84V261.221H452.86V251.071Z" fill="#E4F2FD"/>
<path d="M453 268H444V278H453V268Z" fill="#E4F2FD"/>
<path d="M657.696 98.531L684.336 98.221C685.277 98.2136 686.201 98.4774 686.996 98.981C695.416 106.981 705.126 102.371 709.436 99.561C711.071 98.4846 712.979 97.8982 714.936 97.871L744.616 97.531C755.746 97.401 758.256 81.781 747.696 78.241L747.286 78.111C758.806 68.281 733.046 48.111 705.656 76.751C707.706 67.301 683.106 70.991 675.716 83.951C672.936 75.531 649.606 90.481 657.696 98.531Z" fill="white"/>
<path d="M485.841 84.1296H530.061C535.731 84.1296 537.061 76.1896 531.741 74.3296L531.541 74.2596C537.451 69.3296 524.471 58.9396 510.361 73.3296C511.461 68.5296 498.931 70.2696 495.091 76.8096C493.731 72.5296 481.771 79.9996 485.841 84.1296Z" fill="white"/>
<path d="M407.207 50H470.741C478.88 50 480.851 38.6187 473.16 35.9487L472.864 35.8473C481.368 28.7667 462.711 13.8788 442.405 34.5123C443.987 27.6176 425.965 30.1101 420.457 39.5059C418.545 33.3631 401.361 44.0854 407.207 50Z" fill="white"/>
</g>
<g filter="url(#filter1_d_475_1131)">
<path d="M119.372 11.4819C109.642 17.4099 99.9124 23.4024 90.1827 29.3304C74.7183 38.8024 59.1894 48.2744 43.6605 57.7463C40.1166 59.9371 36.5082 62.1279 32.9643 64.3187C31.6112 65.1564 32.8354 67.2827 34.1886 66.4451C43.9183 60.4526 53.648 54.5246 63.3777 48.5965C78.9066 39.1246 94.4354 29.5882 109.9 20.1162C113.444 17.9254 117.052 15.7346 120.596 13.5438C121.949 12.7706 120.725 10.6443 119.372 11.4819Z" fill="white"/>
<path d="M132.581 13.7372C140.829 15.477 149.076 17.2811 157.324 19.0209C176.912 23.2092 196.565 27.3975 216.153 31.5857C239.93 36.6761 263.771 41.7665 287.547 46.8569C308.102 51.2384 328.657 55.6845 349.276 60.0661C356.042 61.4836 362.808 62.9656 369.573 64.3832C372.795 65.092 376.017 65.9941 379.303 66.4451C379.432 66.4451 379.561 66.5096 379.754 66.5096C381.301 66.8317 381.945 64.4477 380.398 64.1255C372.151 62.3857 363.903 60.5815 355.655 58.8418C336.067 54.6535 316.414 50.4652 296.826 46.2769C273.05 41.1866 249.209 36.0962 225.432 31.0058C204.877 26.6242 184.322 22.1782 163.703 17.7966C156.937 16.379 150.172 14.897 143.406 13.4795C140.184 12.7707 136.963 11.8686 133.676 11.4175C133.547 11.4175 133.419 11.3531 133.225 11.3531C131.679 11.0309 131.035 13.3506 132.581 13.7372Z" fill="white"/>
<path d="M294.351 184.684C294.351 186.294 294.351 187.97 294.351 189.581C294.351 190.998 294.673 191.449 295.704 192.416C297.315 193.898 300.086 196.024 297.895 198.408C295.64 200.792 293.062 198.215 291.774 196.346C290.936 195.058 288.81 196.282 289.647 197.571C291.194 199.89 292.611 201.759 295.704 201.694C298.926 201.63 301.503 199.053 301.117 195.766C300.924 194.413 300.279 193.318 299.313 192.416C298.926 192.029 297.057 189.838 296.606 189.903C297.057 189.838 296.671 191.256 296.864 189.838C296.929 189.194 296.864 188.55 296.864 187.97C296.864 186.874 296.864 185.843 296.864 184.748C296.8 183.073 294.351 183.073 294.351 184.684Z" fill="white"/>
<path d="M295.318 180.689L281.787 92.1548H308.849L295.318 180.689Z" stroke="white" stroke-width="3" stroke-miterlimit="10"/>
<path d="M138.38 357.692C132.258 357.692 126.137 357.692 120.016 357.692C120.402 358.207 120.853 358.723 121.24 359.174C121.24 350.153 121.24 341.197 121.24 332.176C121.24 310.783 121.24 289.326 121.24 267.934C121.24 241.838 121.24 215.741 121.24 189.645C121.24 167.286 121.24 144.863 121.24 122.504C121.24 115.029 121.24 107.619 121.24 100.145C121.24 97.825 121.24 95.5054 121.24 93.2501C121.24 92.2192 121.498 90.6083 121.24 89.5773C121.24 89.4485 121.24 89.2552 121.24 89.1263C120.853 89.6418 120.402 90.1573 120.016 90.6083C126.137 90.6083 132.258 90.6083 138.38 90.6083C137.993 90.0928 137.542 89.5773 137.155 89.1263C137.155 98.1472 137.155 107.104 137.155 116.125C137.155 137.517 137.155 158.974 137.155 180.366C137.155 206.463 137.155 232.559 137.155 258.655C137.155 281.014 137.155 303.438 137.155 325.797C137.155 333.271 137.155 340.681 137.155 348.156C137.155 351.635 136.898 355.243 137.155 358.723C137.155 358.852 137.155 359.045 137.155 359.174C137.155 361.107 139.604 361.107 139.604 359.174C139.604 350.153 139.604 341.197 139.604 332.176C139.604 310.783 139.604 289.326 139.604 267.934C139.604 241.838 139.604 215.741 139.604 189.645C139.604 167.286 139.604 144.863 139.604 122.504C139.604 115.029 139.604 107.619 139.604 100.145C139.604 96.6652 139.862 93.0568 139.604 89.5773C139.604 89.4485 139.604 89.2552 139.604 89.1263C139.604 88.2886 139.024 87.6443 138.38 87.6443C132.258 87.6443 126.137 87.6443 120.016 87.6443C119.371 87.6443 118.791 88.3531 118.791 89.1263C118.791 98.1472 118.791 107.104 118.791 116.125C118.791 137.517 118.791 158.974 118.791 180.366C118.791 206.463 118.791 232.559 118.791 258.655C118.791 281.014 118.791 303.438 118.791 325.797C118.791 333.271 118.791 340.681 118.791 348.156C118.791 351.635 118.534 355.243 118.791 358.723C118.791 358.852 118.791 359.045 118.791 359.174C118.791 360.012 119.371 360.656 120.016 360.656C126.137 360.656 132.258 360.656 138.38 360.656C139.99 360.72 139.99 357.692 138.38 357.692Z" fill="white"/>
<path d="M137.478 88.0952C131.356 95.5697 125.235 103.109 119.113 110.583C118.34 111.485 118.92 113.16 119.951 113.16C125.75 113.16 131.485 113.16 137.284 113.16C138.895 113.16 138.895 110.132 137.284 110.132C131.485 110.132 125.75 110.132 119.951 110.132C120.209 110.97 120.531 111.872 120.853 112.709C126.975 105.235 133.096 97.6961 139.217 90.2216C140.377 88.8685 138.637 86.7421 137.478 88.0952Z" fill="white"/>
<path d="M137.478 110.583C131.356 118.058 125.235 125.597 119.113 133.071C118.34 133.973 118.92 135.648 119.951 135.648C125.75 135.648 131.485 135.648 137.284 135.648C138.895 135.648 138.895 132.62 137.284 132.62C131.485 132.62 125.75 132.62 119.951 132.62C120.209 133.458 120.531 134.36 120.853 135.197C126.975 127.723 133.096 120.184 139.217 112.71C140.377 111.356 138.637 109.23 137.478 110.583Z" fill="white"/>
<path d="M137.478 133.071C131.356 140.545 125.235 148.084 119.113 155.559C118.34 156.461 118.92 158.136 119.951 158.136C125.75 158.136 131.485 158.136 137.284 158.136C138.895 158.136 138.895 155.108 137.284 155.108C131.485 155.108 125.75 155.108 119.951 155.108C120.209 155.945 120.531 156.848 120.853 157.685C126.975 150.211 133.096 142.672 139.217 135.197C140.377 133.844 138.637 131.718 137.478 133.071Z" fill="white"/>
<path d="M137.478 155.623C131.356 163.098 125.235 170.637 119.113 178.111C118.34 179.013 118.92 180.688 119.951 180.688C125.75 180.688 131.485 180.688 137.284 180.688C138.895 180.688 138.895 177.66 137.284 177.66C131.485 177.66 125.75 177.66 119.951 177.66C120.209 178.498 120.531 179.4 120.853 180.237C126.975 172.763 133.096 165.224 139.217 157.75C140.377 156.396 138.637 154.206 137.478 155.623Z" fill="white"/>
<path d="M137.478 178.111C131.356 185.586 125.235 193.125 119.113 200.599C118.34 201.501 118.92 203.176 119.951 203.176C125.75 203.176 131.485 203.176 137.284 203.176C138.895 203.176 138.895 200.148 137.284 200.148C131.485 200.148 125.75 200.148 119.951 200.148C120.209 200.986 120.531 201.888 120.853 202.725C126.975 195.251 133.096 187.712 139.217 180.238C140.377 178.884 138.637 176.758 137.478 178.111Z" fill="white"/>
<path d="M137.478 200.599C131.356 208.073 125.235 215.612 119.113 223.087C118.34 223.989 118.92 225.664 119.951 225.664C125.75 225.664 131.485 225.664 137.284 225.664C138.895 225.664 138.895 222.636 137.284 222.636C131.485 222.636 125.75 222.636 119.951 222.636C120.209 223.473 120.531 224.376 120.853 225.213C126.975 217.739 133.096 210.2 139.217 202.725C140.377 201.372 138.637 199.246 137.478 200.599Z" fill="white"/>
<path d="M137.478 223.087C131.356 230.561 125.235 238.1 119.113 245.575C118.34 246.477 118.92 248.152 119.951 248.152C125.75 248.152 131.485 248.152 137.284 248.152C138.895 248.152 138.895 245.124 137.284 245.124C131.485 245.124 125.75 245.124 119.951 245.124C120.209 245.961 120.531 246.863 120.853 247.701C126.975 240.227 133.096 232.688 139.217 225.213C140.377 223.86 138.637 221.734 137.478 223.087Z" fill="white"/>
<path d="M137.478 245.639C131.356 253.114 125.235 260.652 119.113 268.127C118.34 269.029 118.92 270.704 119.951 270.704C125.75 270.704 131.485 270.704 137.284 270.704C138.895 270.704 138.895 267.676 137.284 267.676C131.485 267.676 125.75 267.676 119.951 267.676C120.209 268.513 120.531 269.416 120.853 270.253C126.975 262.779 133.096 255.24 139.217 247.765C140.377 246.412 138.637 244.221 137.478 245.639Z" fill="white"/>
<path d="M137.478 268.127C131.356 275.602 125.235 283.141 119.113 290.615C118.34 291.517 118.92 293.192 119.951 293.192C125.75 293.192 131.485 293.192 137.284 293.192C138.895 293.192 138.895 290.164 137.284 290.164C131.485 290.164 125.75 290.164 119.951 290.164C120.209 291.002 120.531 291.904 120.853 292.741C126.975 285.267 133.096 277.728 139.217 270.254C140.377 268.9 138.637 266.774 137.478 268.127Z" fill="white"/>
<path d="M137.478 290.615C131.356 298.089 125.235 305.628 119.113 313.103C118.34 314.005 118.92 315.68 119.951 315.68C125.75 315.68 131.485 315.68 137.284 315.68C138.895 315.68 138.895 312.652 137.284 312.652C131.485 312.652 125.75 312.652 119.951 312.652C120.209 313.489 120.531 314.391 120.853 315.229C126.975 307.755 133.096 300.216 139.217 292.741C140.377 291.388 138.637 289.262 137.478 290.615Z" fill="white"/>
<path d="M137.478 313.103C131.356 320.577 125.235 328.116 119.113 335.591C118.34 336.493 118.92 338.168 119.951 338.168C125.75 338.168 131.485 338.168 137.284 338.168C138.895 338.168 138.895 335.14 137.284 335.14C131.485 335.14 125.75 335.14 119.951 335.14C120.209 335.977 120.531 336.879 120.853 337.717C126.975 330.243 133.096 322.704 139.217 315.229C140.377 313.876 138.637 311.75 137.478 313.103Z" fill="white"/>
<path d="M137.478 335.655C131.356 343.129 125.235 350.668 119.113 358.143C118.34 359.045 118.92 360.72 119.951 360.72C125.75 360.72 131.485 360.72 137.284 360.72C138.895 360.72 138.895 357.692 137.284 357.692C131.485 357.692 125.75 357.692 119.951 357.692C120.209 358.529 120.531 359.431 120.853 360.269C126.975 352.795 133.096 345.256 139.217 337.781C140.377 336.428 138.637 334.237 137.478 335.655Z" fill="white"/>
<path d="M134.128 64.8987C129.424 64.8987 124.72 64.8987 120.016 64.8987C120.403 65.2853 120.854 65.7364 121.241 66.123C121.241 50.0786 121.241 34.0987 121.241 18.0544C121.241 15.7992 121.241 13.5439 121.241 11.2243C120.854 11.6109 120.403 12.0619 120.016 12.4485C124.72 12.4485 129.424 12.4485 134.128 12.4485C133.741 12.0619 133.29 11.6109 132.903 11.2243C132.903 27.2686 132.903 43.2485 132.903 59.2929C132.903 61.5481 132.903 63.8033 132.903 66.123C132.903 67.7339 135.352 67.7339 135.352 66.123C135.352 50.0786 135.352 34.0987 135.352 18.0544C135.352 15.7992 135.352 13.5439 135.352 11.2243C135.352 10.5799 134.772 10 134.128 10C129.424 10 124.72 10 120.016 10C119.372 10 118.792 10.5799 118.792 11.2243C118.792 27.2686 118.792 43.2485 118.792 59.2929C118.792 61.5481 118.792 63.8033 118.792 66.123C118.792 66.7673 119.372 67.3473 120.016 67.3473C124.72 67.3473 129.424 67.3473 134.128 67.3473C135.674 67.4117 135.674 64.8987 134.128 64.8987Z" fill="white"/>
<path d="M133.032 10.6444C128.328 16.7658 123.625 22.8227 118.921 28.944C118.341 29.7172 119.114 30.8126 119.952 30.8126C124.398 30.8126 128.779 30.8126 133.225 30.8126C134.836 30.8126 134.836 28.3641 133.225 28.3641C128.779 28.3641 124.398 28.3641 119.952 28.3641C120.274 29.0084 120.661 29.5883 120.983 30.2327C125.686 24.1114 130.39 18.0545 135.094 11.9331C136.125 10.6444 133.999 9.42015 133.032 10.6444Z" fill="white"/>
<path d="M133.032 28.944C128.328 35.0653 123.625 41.1222 118.921 47.2436C118.341 48.0168 119.114 49.1122 119.952 49.1122C124.398 49.1122 128.779 49.1122 133.225 49.1122C134.836 49.1122 134.836 46.6636 133.225 46.6636C128.779 46.6636 124.398 46.6636 119.952 46.6636C120.274 47.308 120.661 47.8879 120.983 48.5323C125.686 42.4109 130.39 36.354 135.094 30.2327C136.125 28.944 133.999 27.7197 133.032 28.944Z" fill="white"/>
<path d="M133.032 47.2435C128.328 53.3649 123.625 59.4218 118.921 65.5431C118.341 66.3163 119.114 67.4117 119.952 67.4117C124.398 67.4117 128.779 67.4117 133.225 67.4117C134.836 67.4117 134.836 64.9632 133.225 64.9632C128.779 64.9632 124.398 64.9632 119.952 64.9632C120.274 65.6075 120.661 66.1875 120.983 66.8318C125.686 60.7105 130.39 54.6536 135.094 48.5322C136.125 47.2435 133.999 46.0193 133.032 47.2435Z" fill="white"/>
<path d="M158.033 64.4477C158.033 70.569 158.033 76.6903 158.033 82.8117C158.419 82.4251 158.87 81.974 159.257 81.5874C144.759 81.5874 130.261 81.5874 115.763 81.5874C92.8887 81.5874 69.9498 81.5874 47.0753 81.5874C41.7916 81.5874 36.5079 81.5874 31.2243 81.5874C31.6109 81.974 32.0619 82.4251 32.4485 82.8117C32.4485 76.6903 32.4485 70.569 32.4485 64.4477C32.0619 64.8343 31.6109 65.2853 31.2243 65.6719C45.7222 65.6719 60.2201 65.6719 74.718 65.6719C97.5924 65.6719 120.531 65.6719 143.406 65.6719C148.689 65.6719 153.973 65.6719 159.257 65.6719C160.868 65.6719 160.868 63.2234 159.257 63.2234C144.759 63.2234 130.261 63.2234 115.763 63.2234C92.8887 63.2234 69.9498 63.2234 47.0753 63.2234C41.7916 63.2234 36.5079 63.2234 31.2243 63.2234C30.5799 63.2234 30 63.8033 30 64.4477C30 70.569 30 76.6903 30 82.8117C30 83.456 30.5799 84.0359 31.2243 84.0359C45.7222 84.0359 60.2201 84.0359 74.718 84.0359C97.5924 84.0359 120.531 84.0359 143.406 84.0359C148.689 84.0359 153.973 84.0359 159.257 84.0359C159.901 84.0359 160.481 83.456 160.481 82.8117C160.481 76.6903 160.481 70.569 160.481 64.4477C160.481 62.9012 158.033 62.9012 158.033 64.4477Z" fill="white"/>
<path d="M30.3871 65.3498C36.5084 71.4711 42.5653 77.5924 48.6866 83.7138C49.4599 84.487 50.813 83.9071 50.813 82.8761C50.813 77.077 50.813 71.3422 50.813 65.5431C50.813 63.9322 48.3645 63.9322 48.3645 65.5431C48.3645 71.3422 48.3645 77.077 48.3645 82.8761C49.0732 82.6184 49.782 82.2962 50.4908 82.0385C44.3695 75.9171 38.3126 69.7958 32.1912 63.6744C30.967 62.5146 29.2272 64.2544 30.3871 65.3498Z" fill="white"/>
<path d="M48.6221 65.3498C54.7435 71.4711 60.8004 77.5924 66.9217 83.7138C67.6949 84.487 69.0481 83.9071 69.0481 82.8761C69.0481 77.077 69.0481 71.3422 69.0481 65.5431C69.0481 63.9322 66.5995 63.9322 66.5995 65.5431C66.5995 71.3422 66.5995 77.077 66.5995 82.8761C67.3083 82.6184 68.0171 82.2962 68.7259 82.0385C62.6046 75.9171 56.5477 69.7958 50.4263 63.6744C49.2665 62.5146 47.5267 64.2544 48.6221 65.3498Z" fill="white"/>
<path d="M66.9215 65.3498C73.0428 71.4711 79.0997 77.5924 85.221 83.7138C85.9943 84.487 87.3474 83.9071 87.3474 82.8761C87.3474 77.077 87.3474 71.3422 87.3474 65.5431C87.3474 63.9322 84.8989 63.9322 84.8989 65.5431C84.8989 71.3422 84.8989 77.077 84.8989 82.8761C85.6076 82.6184 86.3164 82.2962 87.0252 82.0385C80.9039 75.9171 74.847 69.7958 68.7256 63.6744C67.5658 62.5146 65.8261 64.2544 66.9215 65.3498Z" fill="white"/>
<path d="M85.2213 65.3498C91.3426 71.4711 97.3995 77.5924 103.521 83.7138C104.294 84.487 105.647 83.9071 105.647 82.8761C105.647 77.077 105.647 71.3422 105.647 65.5431C105.647 63.9322 103.199 63.9322 103.199 65.5431C103.199 71.3422 103.199 77.077 103.199 82.8761C103.907 82.6184 104.616 82.2962 105.325 82.0385C99.2037 75.9171 93.1468 69.7958 87.0254 63.6744C85.8656 62.5146 84.1259 64.2544 85.2213 65.3498Z" fill="white"/>
<path d="M103.521 65.3498C109.642 71.4711 115.699 77.5924 121.82 83.7138C122.593 84.487 123.947 83.9071 123.947 82.8761C123.947 77.077 123.947 71.3422 123.947 65.5431C123.947 63.9322 121.498 63.9322 121.498 65.5431C121.498 71.3422 121.498 77.077 121.498 82.8761C122.207 82.6184 122.916 82.2962 123.624 82.0385C117.503 75.9171 111.446 69.7958 105.325 63.6744C104.165 62.5146 102.425 64.2544 103.521 65.3498Z" fill="white"/>
<path d="M121.82 65.3498C127.942 71.4711 133.998 77.5924 140.12 83.7138C140.893 84.487 142.246 83.9071 142.246 82.8761C142.246 77.077 142.246 71.3422 142.246 65.5431C142.246 63.9322 139.798 63.9322 139.798 65.5431C139.798 71.3422 139.798 77.077 139.798 82.8761C140.506 82.6184 141.215 82.2962 141.924 82.0385C135.803 75.9171 129.746 69.7958 123.624 63.6744C122.4 62.5146 120.66 64.2544 121.82 65.3498Z" fill="white"/>
<path d="M140.12 65.3498C146.241 71.4711 152.298 77.5924 158.42 83.7138C159.193 84.487 160.546 83.9071 160.546 82.8761C160.546 77.077 160.546 71.3422 160.546 65.5431C160.546 63.9322 158.097 63.9322 158.097 65.5431C158.097 71.3422 158.097 77.077 158.097 82.8761C158.806 82.6184 159.515 82.2962 160.224 82.0385C154.102 75.9171 148.045 69.7958 141.924 63.6744C140.7 62.5146 138.96 64.2544 140.12 65.3498Z" fill="white"/>
<path d="M377.499 64.4477C377.499 70.569 377.499 76.6904 377.499 82.8117C377.885 82.4251 378.336 81.9741 378.723 81.5874C371.377 81.5874 364.096 81.5874 356.751 81.5874C339.353 81.5874 321.956 81.5874 304.558 81.5874C283.359 81.5874 262.16 81.5874 240.961 81.5874C222.79 81.5874 204.555 81.5874 186.384 81.5874C180.327 81.5874 174.27 81.5874 168.213 81.5874C166.345 81.5874 164.476 81.5874 162.608 81.5874C161.77 81.5874 160.481 81.3297 159.644 81.5874C159.515 81.5874 159.386 81.5874 159.257 81.5874C159.644 81.9741 160.095 82.4251 160.481 82.8117C160.481 76.6904 160.481 70.569 160.481 64.4477C160.095 64.8343 159.644 65.2854 159.257 65.672C166.603 65.672 173.884 65.672 181.229 65.672C198.627 65.672 216.024 65.672 233.422 65.672C254.621 65.672 275.82 65.672 297.019 65.672C315.19 65.672 333.425 65.672 351.596 65.672C357.653 65.672 363.71 65.672 369.767 65.672C372.602 65.672 375.566 65.9297 378.401 65.672C378.53 65.672 378.659 65.672 378.787 65.672C380.398 65.672 380.398 63.2234 378.787 63.2234C371.442 63.2234 364.161 63.2234 356.815 63.2234C339.418 63.2234 322.02 63.2234 304.623 63.2234C283.423 63.2234 262.224 63.2234 241.025 63.2234C222.854 63.2234 204.619 63.2234 186.449 63.2234C180.392 63.2234 174.335 63.2234 168.278 63.2234C165.443 63.2234 162.479 62.9657 159.644 63.2234C159.515 63.2234 159.386 63.2234 159.257 63.2234C158.613 63.2234 158.033 63.8034 158.033 64.4477C158.033 70.569 158.033 76.6904 158.033 82.8117C158.033 83.4561 158.613 84.036 159.257 84.036C166.603 84.036 173.884 84.036 181.229 84.036C198.627 84.036 216.024 84.036 233.422 84.036C254.621 84.036 275.82 84.036 297.019 84.036C315.19 84.036 333.425 84.036 351.596 84.036C357.653 84.036 363.71 84.036 369.767 84.036C372.602 84.036 375.566 84.2937 378.401 84.036C378.53 84.036 378.659 84.036 378.787 84.036C379.432 84.036 380.012 83.4561 380.012 82.8117C380.012 76.6904 380.012 70.569 380.012 64.4477C379.947 62.9013 377.499 62.9013 377.499 64.4477Z" fill="white"/>
<path d="M158.355 65.3498C164.476 71.4711 170.533 77.5924 176.655 83.7138C177.428 84.487 178.781 83.9071 178.781 82.8761C178.781 77.077 178.781 71.3422 178.781 65.5431C178.781 63.9322 176.332 63.9322 176.332 65.5431C176.332 71.3422 176.332 77.077 176.332 82.8761C177.041 82.6184 177.75 82.2962 178.459 82.0385C172.337 75.9171 166.281 69.7958 160.159 63.6744C158.999 62.5146 157.26 64.2544 158.355 65.3498Z" fill="white"/>
<path d="M176.654 65.3498C182.776 71.4711 188.833 77.5924 194.954 83.7138C195.727 84.487 197.08 83.9071 197.08 82.8761C197.08 77.077 197.08 71.3422 197.08 65.5431C197.08 63.9322 194.632 63.9322 194.632 65.5431C194.632 71.3422 194.632 77.077 194.632 82.8761C195.341 82.6184 196.049 82.2962 196.758 82.0385C190.637 75.9171 184.58 69.7958 178.459 63.6744C177.299 62.5146 175.559 64.2544 176.654 65.3498Z" fill="white"/>
<path d="M194.954 65.3498C201.075 71.4711 207.132 77.5924 213.253 83.7138C214.026 84.487 215.38 83.9071 215.38 82.8761C215.38 77.077 215.38 71.3422 215.38 65.5431C215.38 63.9322 212.931 63.9322 212.931 65.5431C212.931 71.3422 212.931 77.077 212.931 82.8761C213.64 82.6184 214.349 82.2962 215.057 82.0385C208.936 75.9171 202.879 69.7958 196.758 63.6744C195.598 62.5146 193.858 64.2544 194.954 65.3498Z" fill="white"/>
<path d="M213.254 65.3498C219.375 71.4711 225.432 77.5924 231.554 83.7138C232.327 84.487 233.68 83.9071 233.68 82.8761C233.68 77.077 233.68 71.3422 233.68 65.5431C233.68 63.9322 231.231 63.9322 231.231 65.5431C231.231 71.3422 231.231 77.077 231.231 82.8761C231.94 82.6184 232.649 82.2962 233.358 82.0385C227.236 75.9171 221.18 69.7958 215.058 63.6744C213.898 62.5146 212.159 64.2544 213.254 65.3498Z" fill="white"/>
<path d="M231.554 65.3498C237.675 71.4711 243.732 77.5924 249.853 83.7138C250.626 84.487 251.98 83.9071 251.98 82.8761C251.98 77.077 251.98 71.3422 251.98 65.5431C251.98 63.9322 249.531 63.9322 249.531 65.5431C249.531 71.3422 249.531 77.077 249.531 82.8761C250.24 82.6184 250.949 82.2962 251.657 82.0385C245.536 75.9171 239.479 69.7958 233.358 63.6744C232.133 62.5146 230.394 64.2544 231.554 65.3498Z" fill="white"/>
<path d="M249.853 65.3498C255.974 71.4711 262.031 77.5924 268.152 83.7138C268.926 84.487 270.279 83.9071 270.279 82.8761C270.279 77.077 270.279 71.3422 270.279 65.5431C270.279 63.9322 267.83 63.9322 267.83 65.5431C267.83 71.3422 267.83 77.077 267.83 82.8761C268.539 82.6184 269.248 82.2962 269.957 82.0385C263.835 75.9171 257.778 69.7958 251.657 63.6744C250.433 62.5146 248.693 64.2544 249.853 65.3498Z" fill="white"/>
<path d="M268.087 65.3498C274.209 71.4711 280.266 77.5924 286.387 83.7138C287.16 84.487 288.513 83.9071 288.513 82.8761C288.513 77.077 288.513 71.3422 288.513 65.5431C288.513 63.9322 286.065 63.9322 286.065 65.5431C286.065 71.3422 286.065 77.077 286.065 82.8761C286.774 82.6184 287.482 82.2962 288.191 82.0385C282.07 75.9171 276.013 69.7958 269.892 63.6744C268.732 62.5146 266.992 64.2544 268.087 65.3498Z" fill="white"/>
<path d="M286.388 65.3498C292.509 71.4711 298.566 77.5924 304.687 83.7138C305.461 84.487 306.814 83.9071 306.814 82.8761C306.814 77.077 306.814 71.3422 306.814 65.5431C306.814 63.9322 304.365 63.9322 304.365 65.5431C304.365 71.3422 304.365 77.077 304.365 82.8761C305.074 82.6184 305.783 82.2962 306.492 82.0385C300.37 75.9171 294.313 69.7958 288.192 63.6744C287.032 62.5146 285.292 64.2544 286.388 65.3498Z" fill="white"/>
<path d="M304.687 65.3498C310.808 71.4711 316.865 77.5924 322.987 83.7138C323.76 84.487 325.113 83.9071 325.113 82.8761C325.113 77.077 325.113 71.3422 325.113 65.5431C325.113 63.9322 322.664 63.9322 322.664 65.5431C322.664 71.3422 322.664 77.077 322.664 82.8761C323.373 82.6184 324.082 82.2962 324.791 82.0385C318.67 75.9171 312.613 69.7958 306.491 63.6744C305.331 62.5146 303.592 64.2544 304.687 65.3498Z" fill="white"/>
<path d="M322.987 65.3498C329.108 71.4711 335.165 77.5924 341.286 83.7138C342.06 84.487 343.413 83.9071 343.413 82.8761C343.413 77.077 343.413 71.3422 343.413 65.5431C343.413 63.9322 340.964 63.9322 340.964 65.5431C340.964 71.3422 340.964 77.077 340.964 82.8761C341.673 82.6184 342.382 82.2962 343.091 82.0385C336.969 75.9171 330.912 69.7958 324.791 63.6744C323.631 62.5146 321.891 64.2544 322.987 65.3498Z" fill="white"/>
<path d="M341.286 65.3498C347.408 71.4711 353.465 77.5924 359.586 83.7138C360.359 84.487 361.712 83.9071 361.712 82.8761C361.712 77.077 361.712 71.3422 361.712 65.5431C361.712 63.9322 359.264 63.9322 359.264 65.5431C359.264 71.3422 359.264 77.077 359.264 82.8761C359.973 82.6184 360.681 82.2962 361.39 82.0385C355.269 75.9171 349.212 69.7958 343.091 63.6744C341.866 62.5146 340.127 64.2544 341.286 65.3498Z" fill="white"/>
<path d="M359.585 65.3498C365.707 71.4711 371.764 77.5924 377.885 83.7138C378.658 84.487 380.011 83.9071 380.011 82.8761C380.011 77.077 380.011 71.3422 380.011 65.5431C380.011 63.9322 377.563 63.9322 377.563 65.5431C377.563 71.3422 377.563 77.077 377.563 82.8761C378.272 82.6184 378.98 82.2962 379.689 82.0385C373.568 75.9171 367.511 69.7958 361.389 63.6744C360.165 62.5146 358.425 64.2544 359.585 65.3498Z" fill="white"/>
<path d="M155.778 363.491H102.619V371.545H155.778V363.491Z" fill="white"/>
<path d="M155.778 366.004H102.619V361.816C102.619 358.336 105.454 355.501 108.933 355.501H149.399C152.878 355.501 155.713 358.336 155.713 361.816V366.004H155.778Z" fill="white"/>
<path d="M120.983 49.8209H115.055C112.091 49.8209 109.642 52.2695 109.642 55.2335V83.4561C109.642 86.4201 112.091 88.8686 115.055 88.8686H143.277C146.241 88.8686 148.69 86.4201 148.69 83.4561V77.528C148.69 62.2569 136.318 49.8209 120.983 49.8209Z" fill="white"/>
<path d="M80.904 83.9716V107.362C80.904 109.552 79.0999 111.356 76.9091 111.356H42.0497C39.8589 111.356 38.0547 109.552 38.0547 107.362V83.9716H80.904Z" fill="white"/>
<path d="M80.9041 83.9717H38.1191V100.854H80.9041V83.9717Z" fill="#E4F2FD"/>
<path d="M46.6246 83.9717L39.9233 100.854H38.1191V93.5081L41.8564 83.9717H46.6246Z" fill="white"/>
<path d="M55.968 83.9718L49.2667 100.854H44.4985L51.1998 83.9718H55.968Z" fill="white"/>
<path d="M65.3108 83.9718L58.6095 100.854H53.8413L60.5426 83.9718H65.3108Z" fill="white"/>
<path d="M74.654 83.9718L67.9528 100.854H63.1846L69.8858 83.9718H74.654Z" fill="white"/>
<path d="M80.9039 83.9718V91.704L77.2311 100.854H72.4629L79.1641 83.9718H80.9039Z" fill="white"/>
<path d="M310.589 82.8761H280.111V92.1548H310.589V82.8761Z" fill="white"/>
<path d="M310.589 91.3171H280.111V94.6033H310.589V91.3171Z" fill="white"/>
<path d="M302.535 175.792H288.166V185.65H302.535V175.792Z" fill="white"/>
<path d="M291.001 175.792L288.745 185.65H288.166V181.333L289.39 175.792H291.001Z" fill="white"/>
<path d="M294.158 175.792L291.902 185.65H290.292L292.547 175.792H294.158Z" fill="white"/>
<path d="M297.251 175.792L294.996 185.65H293.449L295.64 175.792H297.251Z" fill="white"/>
<path d="M300.408 175.792L298.153 185.65H296.542L298.797 175.792H300.408Z" fill="white"/>
<path d="M302.534 175.792V180.302L301.31 185.65H299.699L301.954 175.792H302.534Z" fill="white"/>
<path d="M345 217H242V223H345V217Z" fill="white"/>
<path d="M122.207 55.0402H118.728C116.988 55.0402 115.506 56.4577 115.506 58.2619V74.9506C115.506 76.6904 116.923 78.1724 118.728 78.1724H135.416C137.156 78.1724 138.638 76.7548 138.638 74.9506V71.4711C138.638 62.3858 131.292 55.0402 122.207 55.0402Z" fill="#E4F2FD"/>
</g>
<rect x="260" y="136" width="71" height="81" rx="10" fill="#E4F2FD"/>
<path d="M269.682 136C264.374 136 260 140.223 260 145.346V207.654C260 212.777 264.374 217 269.682 217H321.318C326.626 217 331 212.777 331 207.654V145.346C331 140.223 326.626 136 321.318 136H269.682ZM282.591 148.462H308.409C313.717 148.462 318.091 152.684 318.091 157.808C318.091 162.931 313.717 167.154 308.409 167.154H282.591C277.283 167.154 272.909 162.931 272.909 157.808C272.909 152.684 277.283 148.462 282.591 148.462ZM282.591 173.385C283.447 173.385 284.268 173.713 284.873 174.297C285.478 174.882 285.818 175.674 285.818 176.5C285.818 177.326 285.478 178.119 284.873 178.703C284.268 179.287 283.447 179.615 282.591 179.615C281.735 179.615 280.914 179.287 280.309 178.703C279.704 178.119 279.364 177.326 279.364 176.5C279.364 175.674 279.704 174.882 280.309 174.297C280.914 173.713 281.735 173.385 282.591 173.385ZM295.5 173.385C296.356 173.385 297.177 173.713 297.782 174.297C298.387 174.882 298.727 175.674 298.727 176.5C298.727 177.326 298.387 178.119 297.782 178.703C297.177 179.287 296.356 179.615 295.5 179.615C294.644 179.615 293.823 179.287 293.218 178.703C292.613 178.119 292.273 177.326 292.273 176.5C292.273 175.674 292.613 174.882 293.218 174.297C293.823 173.713 294.644 173.385 295.5 173.385ZM308.409 173.385C309.265 173.385 310.086 173.713 310.691 174.297C311.296 174.882 311.636 175.674 311.636 176.5C311.636 177.326 311.296 178.119 310.691 178.703C310.086 179.287 309.265 179.615 308.409 179.615C307.553 179.615 306.732 179.287 306.127 178.703C305.522 178.119 305.182 177.326 305.182 176.5C305.182 175.674 305.522 174.882 306.127 174.297C306.732 173.713 307.553 173.385 308.409 173.385ZM282.591 185.846C283.447 185.846 284.268 186.174 284.873 186.759C285.478 187.343 285.818 188.135 285.818 188.962C285.818 189.788 285.478 190.58 284.873 191.165C284.268 191.749 283.447 192.077 282.591 192.077C281.735 192.077 280.914 191.749 280.309 191.165C279.704 190.58 279.364 189.788 279.364 188.962C279.364 188.135 279.704 187.343 280.309 186.759C280.914 186.174 281.735 185.846 282.591 185.846ZM295.5 185.846C296.356 185.846 297.177 186.174 297.782 186.759C298.387 187.343 298.727 188.135 298.727 188.962C298.727 189.788 298.387 190.58 297.782 191.165C297.177 191.749 296.356 192.077 295.5 192.077C294.644 192.077 293.823 191.749 293.218 191.165C292.613 190.58 292.273 189.788 292.273 188.962C292.273 188.135 292.613 187.343 293.218 186.759C293.823 186.174 294.644 185.846 295.5 185.846ZM308.409 185.846C309.265 185.846 310.086 186.174 310.691 186.759C311.296 187.343 311.636 188.135 311.636 188.962C311.636 189.788 311.296 190.58 310.691 191.165C310.086 191.749 309.265 192.077 308.409 192.077C307.553 192.077 306.732 191.749 306.127 191.165C305.522 190.58 305.182 189.788 305.182 188.962C305.182 188.135 305.522 187.343 306.127 186.759C306.732 186.174 307.553 185.846 308.409 185.846ZM282.591 198.308C283.447 198.308 284.268 198.636 284.873 199.22C285.478 199.805 285.818 200.597 285.818 201.423C285.818 202.249 285.478 203.042 284.873 203.626C284.268 204.21 283.447 204.538 282.591 204.538C281.735 204.538 280.914 204.21 280.309 203.626C279.704 203.042 279.364 202.249 279.364 201.423C279.364 200.597 279.704 199.805 280.309 199.22C280.914 198.636 281.735 198.308 282.591 198.308ZM295.5 198.308C296.356 198.308 297.177 198.636 297.782 199.22C298.387 199.805 298.727 200.597 298.727 201.423C298.727 202.249 298.387 203.042 297.782 203.626C297.177 204.21 296.356 204.538 295.5 204.538C294.644 204.538 293.823 204.21 293.218 203.626C292.613 203.042 292.273 202.249 292.273 201.423C292.273 200.597 292.613 199.805 293.218 199.22C293.823 198.636 294.644 198.308 295.5 198.308ZM308.409 198.308C309.265 198.308 310.086 198.636 310.691 199.22C311.296 199.805 311.636 200.597 311.636 201.423C311.636 202.249 311.296 203.042 310.691 203.626C310.086 204.21 309.265 204.538 308.409 204.538C307.553 204.538 306.732 204.21 306.127 203.626C305.522 203.042 305.182 202.249 305.182 201.423C305.182 200.597 305.522 199.805 306.127 199.22C306.732 198.636 307.553 198.308 308.409 198.308Z" fill="#039DDF"/>
<defs>
<filter id="filter0_d_475_1131" x="303" y="14" width="560" height="374.391" filterUnits="userSpaceOnUse" color-interpolation-filters="sRGB">
<feFlood flood-opacity="0" result="BackgroundImageFix"/>
<feColorMatrix in="SourceAlpha" type="matrix" values="0 0 0 0 0 0 0 0 0 0 0 0 0 0 0 0 0 0 127 0" result="hardAlpha"/>
<feOffset dy="20"/>
<feGaussianBlur stdDeviation="15"/>
<feComposite in2="hardAlpha" operator="out"/>
<feColorMatrix type="matrix" values="0 0 0 0 0.25474 0 0 0 0 0.517844 0 0 0 0 0.9125 0 0 0 0.07 0"/>
<feBlend mode="normal" in2="BackgroundImageFix" result="effect1_dropShadow_475_1131"/>
<feBlend mode="normal" in="SourceGraphic" in2="effect1_dropShadow_475_1131" result="shape"/>
</filter>
<filter id="filter1_d_475_1131" x="0" y="0" width="411.285" height="421.545" filterUnits="userSpaceOnUse" color-interpolation-filters="sRGB">
<feFlood flood-opacity="0" result="BackgroundImageFix"/>
<feColorMatrix in="SourceAlpha" type="matrix" values="0 0 0 0 0 0 0 0 0 0 0 0 0 0 0 0 0 0 127 0" result="hardAlpha"/>
<feOffset dy="20"/>
<feGaussianBlur stdDeviation="15"/>
<feComposite in2="hardAlpha" operator="out"/>
<feColorMatrix type="matrix" values="0 0 0 0 0.25474 0 0 0 0 0.517844 0 0 0 0 0.9125 0 0 0 0.07 0"/>
<feBlend mode="normal" in2="BackgroundImageFix" result="effect1_dropShadow_475_1131"/>
<feBlend mode="normal" in="SourceGraphic" in2="effect1_dropShadow_475_1131" result="shape"/>
</filter>
</defs>
</svg>
