<svg width="360" height="280" viewBox="0 0 360 280" fill="none" xmlns="http://www.w3.org/2000/svg">
<g filter="url(#filter0_d_475_1130)">
<path d="M218.056 229.678C214.36 215.608 234.688 154.639 243.927 147.269L302.558 177.754C311.629 207.066 323.221 205.894 328.597 229.678H218.056Z" fill="white"/>
<path d="M237.712 150.787L249.472 133.199C249.472 133.199 263.415 136.382 286.43 155.644C301.886 168.541 302.222 167.369 307.934 189.479C308.102 189.479 280.887 161.339 237.712 150.787Z" fill="white"/>
<path d="M243.76 90.9898C240.736 82.6149 241.24 72.9 242.416 66.87C252.16 17.6256 305.414 27.3404 321.71 48.1102C330.782 59.5001 331.118 68.88 331.118 71.895C331.286 76.4174 328.43 83.1173 328.43 85.1273C328.43 87.8073 328.934 90.4873 332.294 94.5072C335.149 97.6897 339.853 100.537 339.853 103.05C339.853 107.07 333.805 109.415 333.973 110.922C334.141 112.262 333.805 113.267 335.821 115.277C336.493 115.947 335.989 117.287 335.485 118.124C334.309 119.967 331.286 121.139 331.286 121.139C331.286 121.139 334.141 124.154 333.301 126.164C332.462 127.839 327.59 128.007 328.262 133.869C328.598 136.884 327.758 140.234 325.406 141.407C316.838 144.924 308.102 140.234 302.726 138.559C290.295 134.539 292.983 172.729 292.983 172.729L271.815 157.654L251.152 150.284C265.095 114.775 246.784 99.5322 243.76 90.9898Z" fill="white"/>
<path d="M232.336 83.6198C232.336 5.39816 303.398 28.3454 313.142 33.3704C336.661 45.2627 325.909 54.3076 325.909 54.3076C325.909 54.3076 304.406 50.7902 304.406 64.86C304.406 78.7624 292.142 107.237 292.142 107.237L286.095 138.224C265.431 161.339 221.417 138.224 221.417 138.224C235.36 129.849 232.336 83.6198 232.336 83.6198Z" fill="white"/>
</g>
<g filter="url(#filter1_d_475_1130)">
<path d="M132.781 63.9527C135.231 54.8151 132.256 38.6485 132.256 38.6485C113.006 -10.73 45.9819 14.3986 37.232 35.3097C31.1071 49.8948 30.2321 57.0995 29.8821 60.0868C29.7071 61.8441 33.732 67.9944 33.732 67.9944C34.432 68.873 34.607 70.1031 34.082 71.1574L20.9572 91.5414C19.3822 94.7045 20.9572 98.3947 25.5071 98.3947H28.6571C29.7071 98.3947 30.9321 100.328 30.5821 101.206L29.5321 103.666C29.1821 104.545 29.3571 105.951 30.0571 106.654L32.682 109.29C32.682 109.29 31.2821 110.695 31.2821 112.628C31.2821 114.737 36.007 116.494 33.907 121.415C32.682 124.402 34.082 128.268 36.357 131.255C41.432 138.108 47.0319 136 58.4068 133.891C72.0567 131.431 67.3317 140.041 70.3067 144.259C75.3816 151.463 68.2067 159.722 66.4567 166.751L138.381 135.648C112.656 117.724 130.331 73.0904 132.781 63.9527Z" fill="white"/>
<path d="M143.806 143.38L131.556 124.929C131.556 124.929 104.431 128.268 80.4566 148.476C86.9315 143.028 59.2818 174.835 57.0068 183.972C57.0068 183.972 96.0315 151.112 143.806 143.38Z" fill="white"/>
<path d="M38.6318 41.1085C38.6318 41.1085 25.332 30.9165 40.0318 22.3061C54.7317 13.8713 95.3313 -1.41668 120.006 24.0633C144.681 49.5433 38.6318 41.1085 38.6318 41.1085Z" fill="white"/>
<path d="M154.48 226.146C158.33 211.385 145.555 147.422 135.93 139.69L64.7059 171.671C64.7059 171.671 55.431 201.72 49.8311 226.146H154.48Z" fill="white"/>
</g>
<path d="M167.56 80.2115C157.182 90.5898 153.694 102.755 159.447 108.508L166.325 115.386C171.816 120.877 184.418 117.177 194.472 107.123C204.526 97.0692 208.225 84.4666 202.734 78.9756L195.857 72.0984C190.104 66.3454 177.939 69.8333 167.56 80.2115ZM172.046 84.6968C179.587 77.156 188.21 73.5534 191.306 76.6497C191.955 77.2986 192.294 78.2019 192.38 79.275C187.349 80.6361 181.667 84.0456 176.531 89.1821C171.394 94.3186 167.985 100 166.624 105.031C165.551 104.945 164.648 104.606 163.999 103.957C160.902 100.861 164.505 92.2376 172.046 84.6968ZM171.981 103.914C173.411 100.422 176.029 96.4117 179.895 92.546C183.761 88.6803 187.77 86.0624 191.263 84.6321C189.804 88.1131 187.023 92.146 183.259 95.91C179.495 99.674 175.462 102.455 171.981 103.914Z" fill="#039DDF"/>
<defs>
<filter id="filter0_d_475_1130" x="187.612" y="16.3572" width="182.241" height="263.321" filterUnits="userSpaceOnUse" color-interpolation-filters="sRGB">
<feFlood flood-opacity="0" result="BackgroundImageFix"/>
<feColorMatrix in="SourceAlpha" type="matrix" values="0 0 0 0 0 0 0 0 0 0 0 0 0 0 0 0 0 0 127 0" result="hardAlpha"/>
<feOffset dy="20"/>
<feGaussianBlur stdDeviation="15"/>
<feComposite in2="hardAlpha" operator="out"/>
<feColorMatrix type="matrix" values="0 0 0 0 0.25474 0 0 0 0 0.517844 0 0 0 0 0.9125 0 0 0 0.07 0"/>
<feBlend mode="normal" in2="BackgroundImageFix" result="effect1_dropShadow_475_1130"/>
<feBlend mode="normal" in="SourceGraphic" in2="effect1_dropShadow_475_1130" result="shape"/>
</filter>
<filter id="filter1_d_475_1130" x="-9.63623" y="0" width="194.819" height="276.146" filterUnits="userSpaceOnUse" color-interpolation-filters="sRGB">
<feFlood flood-opacity="0" result="BackgroundImageFix"/>
<feColorMatrix in="SourceAlpha" type="matrix" values="0 0 0 0 0 0 0 0 0 0 0 0 0 0 0 0 0 0 127 0" result="hardAlpha"/>
<feOffset dy="20"/>
<feGaussianBlur stdDeviation="15"/>
<feComposite in2="hardAlpha" operator="out"/>
<feColorMatrix type="matrix" values="0 0 0 0 0.25474 0 0 0 0 0.517844 0 0 0 0 0.9125 0 0 0 0.07 0"/>
<feBlend mode="normal" in2="BackgroundImageFix" result="effect1_dropShadow_475_1130"/>
<feBlend mode="normal" in="SourceGraphic" in2="effect1_dropShadow_475_1130" result="shape"/>
</filter>
</defs>
</svg>
