<svg width="360" height="301" viewBox="0 0 360 301" fill="none" xmlns="http://www.w3.org/2000/svg">
<g filter="url(#filter0_d_475_1137)">
<path d="M340.562 98.0652C330.533 94.2238 321.929 96.3553 312.93 99.4776C306.046 101.867 304.762 104.678 301.756 115.861C301.256 117.722 297.259 108.688 297.259 108.688C288.61 117.345 290.055 125.739 290.055 125.739L290.056 125.738C289.096 122.798 288.414 119.775 288.018 116.707C274.974 134.129 274.114 140.523 276.418 150.734C276.418 150.734 273.894 150.171 271.639 144.318C270.865 142.76 270.313 144.962 269.59 147.272C267.182 154.968 272.518 162.149 272.518 162.149C270.074 160.331 268.219 157.834 267.182 154.968C265.314 167.436 274.944 174.361 274.944 174.361C295.665 119.953 316.685 118.465 316.685 118.465C298.21 126.309 271.094 182.302 270.581 200.255L275.183 196.577C274.939 194.769 277.408 181.483 282.2 177.111C290.432 176.209 312.963 169.65 306.989 169.64C301.014 169.63 294.672 165.653 294.672 165.653C294.672 165.653 308.437 163.706 312.962 159.947C318.436 155.398 324.371 140.338 321.898 141.584C318.465 143.315 313.581 141.645 313.581 141.645C313.581 141.645 323.713 137.131 327.601 133.055C333.713 126.645 335.158 118.163 340.56 98.0631L340.562 98.0652Z" fill="white"/>
</g>
<g filter="url(#filter1_d_475_1137)">
<path d="M189.794 183.471C162.92 204.151 133.975 226.43 102.71 250.5C56.14 214.734 65.0757 142.316 18.7059 104.987C53.2053 86.5327 85.1448 69.4411 114.806 53.5742C154.481 87.9518 150.036 150.301 189.794 183.471Z" fill="white"/>
</g>
<path d="M114.702 82.8032C98.4076 92.1119 81.4413 101.809 63.7534 111.922C62.118 109.445 60.3741 107.023 58.5068 104.672C76.3217 94.7074 93.4079 85.147 109.815 75.9623C111.553 78.1903 113.174 80.47 114.702 82.8032Z" fill="#E4F2FD"/>
<path d="M61.2324 131.6C58.7832 133.055 56.3181 134.511 53.8443 135.98C52.689 133.638 51.4819 131.333 50.2007 129.071C52.6852 127.62 55.161 126.183 57.6147 124.75C58.8887 126.999 60.0852 129.285 61.2324 131.6Z" fill="#E4F2FD"/>
<path d="M131.266 86.0582C109.479 98.8585 86.4485 112.394 62.0617 126.729C61.4461 125.563 60.8182 124.404 60.1692 123.265C84.6068 109.033 107.685 95.5937 129.521 82.8798C130.117 83.9257 130.697 84.9884 131.266 86.0582Z" fill="#E4F2FD"/>
<path d="M134.45 92.4112C112.745 105.395 89.7966 119.13 65.4919 133.663C64.938 132.462 64.3656 131.271 63.7808 130.087C88.1266 115.653 111.114 102.028 132.856 89.1376C133.4 90.2217 133.931 91.3129 134.45 92.4112Z" fill="#E4F2FD"/>
<path d="M55.7516 133.974C55.6591 134.027 55.5611 134.042 55.4674 134.023C54.4037 133.79 53.3364 133.551 52.2569 133.319C52.0597 133.276 51.9422 133.073 52.0128 132.867C52.0835 132.662 52.2958 132.531 52.4991 132.57C53.4399 132.775 54.3771 132.974 55.3117 133.183C55.9248 130.428 56.4948 127.698 57.0225 125.008C57.0614 124.805 57.263 124.656 57.4716 124.675C57.6801 124.694 57.8187 124.878 57.7799 125.081C57.2192 127.913 56.6128 130.779 55.9605 133.68C55.9318 133.787 55.8678 133.89 55.7727 133.953C55.7701 133.963 55.7639 133.966 55.7516 133.974Z" fill="#039DDF" fill-opacity="0.3"/>
<path d="M69.0606 149.817C66.6276 151.329 64.1848 152.838 61.721 154.367C60.7806 151.884 59.813 149.425 58.8023 146.99C61.2645 145.487 63.7179 143.996 66.159 142.513C67.1556 144.922 68.1187 147.36 69.0606 149.817Z" fill="#E4F2FD"/>
<path d="M138.86 102.472C117.246 115.756 94.3958 129.804 70.1942 144.673C69.6984 143.43 69.2 142.196 68.6857 140.964C92.9161 126.201 115.799 112.266 137.437 99.0824C137.923 100.208 138.392 101.335 138.86 102.472Z" fill="#E4F2FD"/>
<path d="M141.521 109.175C119.958 122.66 97.1552 136.919 73.0094 152.027C72.5445 150.766 72.0698 149.503 71.5925 148.249C95.768 133.263 118.593 119.115 140.181 105.73C140.63 106.877 141.078 108.024 141.521 109.175Z" fill="#E4F2FD"/>
<path d="M63.6814 152.265C63.5889 152.319 63.4945 152.34 63.4069 152.317C62.4085 152.055 61.41 151.792 60.4054 151.534C60.2144 151.488 60.1277 151.266 60.2071 151.048C60.2865 150.829 60.505 150.695 60.6898 150.744C61.568 150.969 62.44 151.198 63.312 151.426C64.0914 148.517 64.8497 145.629 65.5781 142.774C65.6354 142.56 65.8335 142.405 66.0297 142.431C66.2259 142.458 66.3399 142.655 66.2825 142.869C65.5186 145.876 64.7212 148.91 63.8965 151.968C63.8652 152.085 63.7915 152.185 63.6999 152.255C63.6937 152.258 63.6876 152.262 63.6814 152.265Z" fill="#039DDF" fill-opacity="0.3"/>
<path d="M75.8699 168.804C73.4468 170.375 71.014 171.944 68.5663 173.53C67.6831 170.989 66.8061 168.445 65.9204 165.914C68.3726 164.35 70.8161 162.799 73.2375 161.253C74.1126 163.766 74.9912 166.285 75.8699 168.804Z" fill="#E4F2FD"/>
<path d="M145.421 119.62C123.922 133.43 101.185 148.029 77.1053 163.494C76.6553 162.216 76.2079 160.929 75.7579 159.651C99.8637 144.302 122.617 129.817 144.139 116.117C144.57 117.291 144.994 118.452 145.421 119.62Z" fill="#E4F2FD"/>
<path d="M147.932 126.476C126.471 140.494 103.773 155.318 79.733 171.023C79.2794 169.739 78.832 168.451 78.3882 167.169C102.452 151.591 125.172 136.877 146.646 122.967C147.074 124.134 147.505 125.308 147.932 126.476Z" fill="#E4F2FD"/>
<path d="M70.525 171.355C70.4361 171.415 70.3381 171.43 70.2505 171.407C69.2777 171.146 68.3013 170.879 67.3285 170.618C67.1437 170.569 67.0631 170.344 67.1487 170.122C67.2307 169.894 67.4457 169.753 67.6305 169.803C68.4866 170.032 69.3365 170.265 70.1829 170.492C71.0139 167.487 71.8398 164.502 72.6508 161.534C72.7169 161.307 72.9149 161.152 73.1014 161.175C73.2879 161.199 73.3895 161.404 73.3296 161.628C72.4734 164.745 71.6058 167.886 70.7392 171.042C70.7079 171.159 70.6315 171.269 70.54 171.338C70.5435 171.344 70.5374 171.348 70.525 171.355Z" fill="#039DDF" fill-opacity="0.3"/>
<path d="M82.7651 187.898C80.3582 189.526 77.9328 191.164 75.495 192.81C74.5307 190.3 73.5911 187.775 72.6762 185.236C75.1184 183.612 77.5483 181.995 79.9633 180.396C80.8738 182.913 81.8053 185.409 82.7651 187.898Z" fill="#E4F2FD"/>
<path d="M151.885 136.981C130.494 151.321 107.864 166.492 83.8881 182.563C83.416 181.289 82.9404 180.01 82.4745 178.733C106.471 162.782 129.127 147.728 150.542 133.488C150.986 134.655 151.435 135.818 151.885 136.981Z" fill="#E4F2FD"/>
<path d="M154.606 143.747C133.263 158.298 110.691 173.682 86.7703 189.993C86.2639 188.731 85.7671 187.472 85.273 186.203C109.223 170.015 131.824 154.738 153.196 140.294C153.658 141.45 154.126 142.602 154.606 143.747Z" fill="#E4F2FD"/>
<path d="M77.4295 190.592C77.3406 190.651 77.2462 190.673 77.1524 190.653C76.1621 190.419 75.1681 190.179 74.1777 189.945C73.9929 189.895 73.9098 189.68 73.9821 189.449C74.0641 189.221 74.2755 189.074 74.4665 189.12C75.3278 189.33 76.1952 189.536 77.0627 189.743C77.8293 186.726 78.6081 183.703 79.3941 180.691C79.4505 180.461 79.6574 180.293 79.8439 180.317C80.0304 180.34 80.1381 180.541 80.0817 180.771C79.2602 183.935 78.4422 187.104 77.6437 190.279C77.6124 190.396 77.5422 190.502 77.4542 190.577C77.4383 190.578 77.4321 190.582 77.4295 190.592Z" fill="#039DDF" fill-opacity="0.3"/>
<path d="M90.835 206.337C88.4443 208.022 86.035 209.717 83.617 211.425C82.4219 209.056 81.2885 206.652 80.2008 204.212C82.6269 202.532 85.0468 200.855 87.4421 199.193C88.5252 201.61 89.6542 203.993 90.835 206.337Z" fill="#E4F2FD"/>
<path d="M159.152 153.918C137.911 168.772 115.444 184.481 91.6302 201.133C91.0533 199.92 90.4851 198.694 89.939 197.463C113.785 180.924 136.296 165.321 157.576 150.56C158.096 151.69 158.616 152.804 159.152 153.918Z" fill="#E4F2FD"/>
<path d="M162.445 160.331C141.288 175.375 118.91 191.28 95.1912 208.14C94.5562 206.969 93.9361 205.781 93.3284 204.586C117.091 187.832 139.523 172.019 160.727 157.072C161.284 158.164 161.857 159.256 162.445 160.331Z" fill="#E4F2FD"/>
<path d="M85.467 209.19C85.3781 209.249 85.2775 209.274 85.1873 209.261C84.1362 209.078 83.0887 208.902 82.0438 208.715C81.844 208.683 81.745 208.469 81.8147 208.247C81.8808 208.02 82.0983 207.87 82.2919 207.906C83.2016 208.072 84.1175 208.234 85.0298 208.389C85.612 205.438 86.2286 202.475 86.8735 199.505C86.9237 199.278 87.1208 199.107 87.3196 199.124C87.5184 199.14 87.6385 199.334 87.5883 199.561C86.9203 202.676 86.2778 205.794 85.6786 208.886C85.6535 209 85.5868 209.112 85.4953 209.181C85.4855 209.179 85.4794 209.182 85.467 209.19Z" fill="#039DDF" fill-opacity="0.3"/>
<path d="M101.127 223.258C98.7643 224.992 96.3932 226.739 94.0001 228.49C92.4414 226.389 90.9681 224.222 89.5714 222.002C91.9716 220.262 94.363 218.536 96.736 216.821C98.1256 219.028 99.5847 221.171 101.127 223.258Z" fill="#E4F2FD"/>
<path d="M168.118 169.728C147.127 185.03 124.919 201.215 101.393 218.367C100.648 217.275 99.924 216.164 99.215 215.035C122.81 197.976 145.084 181.876 166.135 166.663C166.781 167.696 167.445 168.719 168.118 169.728Z" fill="#E4F2FD"/>
<path d="M172.307 175.484C151.448 190.931 129.39 207.277 106.009 224.592C105.175 223.56 104.371 222.511 103.587 221.451C127.046 204.214 149.186 187.953 170.115 172.572C170.826 173.56 171.557 174.528 172.307 175.484Z" fill="#E4F2FD"/>
<path d="M95.7219 226.288C95.6365 226.354 95.5297 226.382 95.4272 226.376C94.2829 226.288 93.1412 226.191 92.0057 226.09C91.7909 226.074 91.6549 225.881 91.7061 225.671C91.7537 225.454 91.9615 225.301 92.1762 225.317C93.1642 225.405 94.1557 225.498 95.156 225.579C95.4422 222.798 95.7839 219.986 96.1626 217.152C96.1943 216.937 96.3817 216.763 96.5955 216.763C96.803 216.766 96.9504 216.936 96.9223 217.158C96.5265 220.133 96.1863 223.076 95.8954 225.99C95.8826 226.096 95.8283 226.202 95.7404 226.277C95.7404 226.277 95.728 226.284 95.7219 226.288Z" fill="#039DDF" fill-opacity="0.3"/>
<g filter="url(#filter2_d_475_1137)">
<path d="M264.411 191.852C225.316 208.109 183.206 225.624 137.719 244.551C93.1107 186.364 127.291 101.911 83.4288 41.9035C131.002 30.795 175.047 20.5029 215.949 10.9518C252.689 65.2354 227.179 138.998 264.411 191.852Z" fill="white"/>
<ellipse cx="236.267" cy="179.547" rx="10.7408" ry="14.8792" transform="rotate(-18.1385 236.267 179.547)" fill="#E4F2FD"/>
<path d="M206.374 46.1704C183.714 52.1318 160.117 58.3439 135.516 64.8254C134.344 61.3098 133.023 57.8248 131.531 54.3857C156.238 48.1247 179.935 42.1158 202.691 36.3405C204.068 39.5895 205.285 42.8627 206.374 46.1704Z" fill="#E4F2FD"/>
<path d="M126.116 87.744C122.692 88.7075 119.248 89.6671 115.79 90.6398C115.154 87.4409 114.442 84.2714 113.628 81.1294C117.094 80.1824 120.544 79.2486 123.967 78.3132C124.776 81.438 125.481 84.5818 126.116 87.744Z" fill="#E4F2FD"/>
<path d="M225.301 55.4506C194.888 63.8481 162.737 72.73 128.692 82.1377C128.326 80.5326 127.944 78.9321 127.529 77.3494C161.602 68.0814 193.779 59.3306 224.224 51.0533C224.604 52.5072 224.961 53.9766 225.301 55.4506Z" fill="#E4F2FD"/>
<path d="M227.087 64.1414C196.713 72.7863 164.597 81.9351 130.586 91.6097C130.307 89.9816 130.001 88.3603 129.678 86.7437C163.706 77.2026 195.834 68.1981 226.222 59.678C226.528 61.1612 226.816 62.649 227.087 64.1414Z" fill="#E4F2FD"/>
<path d="M118.742 88.8364C118.613 88.8709 118.49 88.8579 118.384 88.8036C117.176 88.1789 115.966 87.5457 114.739 86.9171C114.515 86.8023 114.439 86.5188 114.59 86.2941C114.742 86.0694 115.04 85.9802 115.273 86.0928C116.341 86.6443 117.407 87.1872 118.467 87.7409C120.097 84.6161 121.667 81.5073 123.172 78.4342C123.285 78.2015 123.576 78.0866 123.822 78.1774C124.067 78.2682 124.175 78.5338 124.062 78.7665C122.471 82.0007 120.813 85.2619 119.089 88.5501C119.02 88.6699 118.909 88.7731 118.774 88.8186C118.768 88.8295 118.759 88.8318 118.742 88.8364Z" fill="#039DDF" fill-opacity="0.3"/>
<path d="M129.671 112.246C126.248 113.283 122.815 114.313 119.349 115.362C119.017 112.063 118.645 108.784 118.213 105.521C121.668 104.503 125.109 103.498 128.532 102.498C128.956 105.726 129.33 108.977 129.671 112.246Z" fill="#E4F2FD"/>
<path d="M229.154 77.6997C198.793 86.737 166.694 96.2953 132.7 106.408C132.504 104.748 132.301 103.099 132.079 101.446C166.074 91.472 198.175 82.0603 228.534 73.1525C228.756 74.6672 228.958 76.178 229.154 77.6997Z" fill="#E4F2FD"/>
<path d="M230.198 86.6445C199.833 95.9407 167.723 105.769 133.719 116.187C133.566 114.516 133.401 112.839 133.231 111.172C167.232 100.911 199.333 91.2231 229.695 82.0564C229.866 83.585 230.036 85.1136 230.198 86.6445Z" fill="#E4F2FD"/>
<path d="M122.392 113.46C122.263 113.494 122.142 113.49 122.044 113.433C120.925 112.794 119.805 112.155 118.677 111.518C118.462 111.401 118.429 111.106 118.595 110.868C118.761 110.63 119.068 110.539 119.275 110.658C120.262 111.213 121.24 111.771 122.218 112.328C124.098 109.072 125.946 105.833 127.747 102.626C127.885 102.386 128.174 102.263 128.402 102.358C128.63 102.453 128.704 102.728 128.566 102.968C126.672 106.347 124.73 109.749 122.747 113.171C122.672 113.302 122.55 113.399 122.418 113.453C122.409 113.455 122.4 113.457 122.392 113.46Z" fill="#039DDF" fill-opacity="0.3"/>
<path d="M131.749 137.346C128.319 138.459 124.877 139.565 121.413 140.687C121.169 137.337 120.933 133.984 120.683 130.645C124.146 129.552 127.594 128.471 131.014 127.389C131.257 130.702 131.503 134.024 131.749 137.346Z" fill="#E4F2FD"/>
<path d="M231.53 100.502C201.137 110.211 168.996 120.471 134.956 131.341C134.827 129.654 134.703 127.957 134.573 126.27C168.607 115.549 200.731 105.432 231.115 95.8632C231.256 97.4182 231.392 98.956 231.53 100.502Z" fill="#E4F2FD"/>
<path d="M232.341 109.582C201.927 119.555 169.76 130.098 135.691 141.27C135.559 139.575 135.436 137.877 135.315 136.188C169.371 125.176 201.53 114.773 231.924 104.935C232.062 106.481 232.203 108.036 232.341 109.582Z" fill="#E4F2FD"/>
<path d="M124.479 138.696C124.353 138.739 124.23 138.726 124.132 138.669C123.043 138.041 121.951 137.403 120.862 136.775C120.655 136.655 120.631 136.358 120.806 136.118C120.978 135.869 121.283 135.769 121.49 135.888C122.448 136.442 123.398 136.997 124.346 137.544C126.319 134.189 128.28 130.856 130.217 127.538C130.37 127.286 130.659 127.162 130.876 127.251C131.094 127.34 131.15 127.62 131.005 127.87C128.965 131.354 126.904 134.861 124.839 138.388C124.763 138.519 124.636 138.627 124.503 138.681C124.505 138.689 124.497 138.691 124.479 138.696Z" fill="#039DDF" fill-opacity="0.3"/>
<path d="M133.896 162.603C130.467 163.789 127.012 164.982 123.54 166.179C123.188 162.839 122.871 159.491 122.588 156.133C126.058 154.963 129.511 153.799 132.941 152.65C133.226 155.98 133.542 159.292 133.896 162.603Z" fill="#E4F2FD"/>
<path d="M233.713 123.53C203.28 133.913 171.084 144.896 136.973 156.531C136.815 154.843 136.655 153.146 136.506 151.455C170.602 139.971 202.792 129.137 233.223 118.884C233.38 120.434 233.547 121.982 233.713 123.53Z" fill="#E4F2FD"/>
<path d="M234.809 132.571C204.366 143.223 172.17 154.483 138.049 166.424C137.846 164.739 137.654 163.06 137.468 161.37C171.585 149.586 203.781 138.464 234.224 127.95C234.408 129.494 234.6 131.035 234.809 132.571Z" fill="#E4F2FD"/>
<path d="M126.59 164.128C126.463 164.172 126.343 164.167 126.236 164.113C125.117 163.51 123.996 162.899 122.877 162.297C122.67 162.178 122.64 161.891 122.801 161.636C122.974 161.387 123.276 161.279 123.492 161.396C124.463 161.927 125.442 162.457 126.422 162.986C128.321 159.595 130.238 156.201 132.159 152.823C132.301 152.564 132.605 152.427 132.822 152.516C133.04 152.605 133.105 152.882 132.962 153.141C130.949 156.691 128.938 160.249 126.949 163.82C126.874 163.951 126.755 164.057 126.624 164.119C126.605 164.115 126.596 164.118 126.59 164.128Z" fill="#039DDF" fill-opacity="0.3"/>
<path d="M137.673 187.45C134.245 188.709 130.792 189.975 127.323 191.255C126.647 188.011 126.057 184.745 125.534 181.451C129.003 180.209 132.464 178.968 135.89 177.737C136.415 181.003 137.006 184.241 137.673 187.45Z" fill="#E4F2FD"/>
<path d="M237 146.834C206.556 157.486 174.361 168.746 140.24 180.687C140.036 179.002 139.844 177.322 139.658 175.632C173.776 163.849 205.971 152.727 236.415 142.213C236.598 143.756 236.79 145.297 237 146.834Z" fill="#E4F2FD"/>
<path d="M238.241 155.519C207.797 166.171 175.602 177.43 141.481 189.372C141.278 187.686 141.085 186.007 140.9 184.317C175.017 172.533 207.212 161.411 237.656 150.897C237.84 152.441 238.032 153.982 238.241 155.519Z" fill="#E4F2FD"/>
<path d="M130.277 189.156C130.151 189.199 130.021 189.197 129.917 189.151C128.708 188.591 127.502 188.04 126.302 187.478C126.071 187.374 126.021 187.084 126.177 186.839C126.33 186.587 126.641 186.476 126.863 186.582C127.906 187.076 128.959 187.567 130.009 188.05C131.665 184.678 133.366 181.304 135.104 177.93C135.237 177.673 135.53 177.53 135.765 177.614C135.999 177.699 136.081 177.971 135.948 178.228C134.135 181.77 132.353 185.323 130.63 188.859C130.564 188.987 130.447 189.101 130.314 189.155C130.303 189.149 130.295 189.151 130.277 189.156Z" fill="#039DDF" fill-opacity="0.3"/>
<path d="M144.614 211.183C141.204 212.51 137.78 213.851 134.328 215.191C133.127 212.152 132.05 209.062 131.083 205.934C134.54 204.611 137.982 203.303 141.399 202C142.361 205.112 143.429 208.168 144.614 211.183Z" fill="#E4F2FD"/>
<path d="M216.442 175.854C193.954 184.115 170.164 192.851 144.961 202.113C144.78 200.511 144.624 198.894 144.486 197.265C169.71 188.141 193.52 179.534 216.021 171.402C216.145 172.893 216.287 174.379 216.442 175.854Z" fill="#E4F2FD"/>
<path d="M217.551 183.889C194.676 191.801 170.482 200.179 144.84 209.047C144.608 207.467 144.407 205.881 144.225 204.292C169.896 195.55 194.12 187.308 217.024 179.505C217.176 180.976 217.354 182.434 217.551 183.889Z" fill="#E4F2FD"/>
<path d="M137.115 213.091C136.991 213.142 136.853 213.142 136.731 213.101C135.38 212.626 134.034 212.139 132.697 211.651C132.443 211.562 132.342 211.286 132.471 211.048C132.599 210.802 132.899 210.685 133.153 210.774C134.316 211.199 135.481 211.632 136.662 212.052C137.906 208.791 139.227 205.51 140.599 202.215C140.707 201.965 140.989 201.816 141.247 201.885C141.496 201.956 141.619 202.208 141.514 202.467C140.075 205.927 138.713 209.367 137.421 212.788C137.371 212.912 137.271 213.021 137.141 213.084C137.141 213.084 137.124 213.088 137.115 213.091Z" fill="#039DDF" fill-opacity="0.3"/>
</g>
<path d="M158.634 88.636C162.243 85.0275 167.137 83 172.24 83C177.344 83 182.238 85.0274 185.846 88.636C189.455 92.2445 191.482 97.1386 191.482 102.242C191.482 107.345 189.455 112.239 185.846 115.848C182.238 119.456 177.344 121.484 172.24 121.484C167.137 121.484 162.243 119.457 158.634 115.848C155.026 112.239 152.998 107.345 152.998 102.242C152.998 97.1385 155.026 92.2445 158.634 88.636ZM163.533 110.966C166.242 113.667 170.052 114.954 173.843 114.451C177.635 113.948 180.977 111.71 182.886 108.396C184.796 105.082 185.057 101.069 183.592 97.5361C182.127 94.0033 179.102 91.3522 175.408 90.3624C171.713 89.3724 167.769 90.1568 164.734 92.484C161.699 94.8112 159.918 98.4175 159.916 102.242C159.914 105.516 161.216 108.655 163.533 110.967L163.533 110.966Z" fill="#039DDF"/>
<path d="M184.783 120.475L187.364 123.054C187.646 123.349 188.036 123.517 188.445 123.517C188.858 123.517 189.254 123.35 189.542 123.054L193.559 119.039C193.849 118.75 194.011 118.359 194.011 117.95C194.011 117.542 193.849 117.15 193.559 116.862L190.964 114.267C190.182 115.517 189.259 116.672 188.213 117.711C187.171 118.751 186.021 119.677 184.783 120.475Z" fill="#039DDF"/>
<path d="M188.025 121.533L192.037 117.523C192.589 116.977 193.325 116.657 194.101 116.626C194.876 116.596 195.636 116.856 196.229 117.357L202.744 122.819C204.645 124.399 205.818 126.686 205.989 129.151C206.094 130.862 205.473 132.538 204.278 133.767C203.121 134.896 201.559 135.514 199.943 135.483C199.849 135.483 199.754 135.48 199.659 135.477C197.193 135.306 194.904 134.134 193.324 132.234L187.859 125.721C187.358 125.128 187.098 124.37 187.129 123.595C187.159 122.819 187.479 122.084 188.025 121.533Z" fill="#039DDF"/>
<circle cx="176.578" cy="96.6459" r="3.14906" fill="#039DDF"/>
<defs>
<filter id="filter0_d_475_1137" x="236.941" y="86" width="133.621" height="164.255" filterUnits="userSpaceOnUse" color-interpolation-filters="sRGB">
<feFlood flood-opacity="0" result="BackgroundImageFix"/>
<feColorMatrix in="SourceAlpha" type="matrix" values="0 0 0 0 0 0 0 0 0 0 0 0 0 0 0 0 0 0 127 0" result="hardAlpha"/>
<feOffset dy="20"/>
<feGaussianBlur stdDeviation="15"/>
<feComposite in2="hardAlpha" operator="out"/>
<feColorMatrix type="matrix" values="0 0 0 0 0.25474 0 0 0 0 0.517844 0 0 0 0 0.9125 0 0 0 0.07 0"/>
<feBlend mode="normal" in2="BackgroundImageFix" result="effect1_dropShadow_475_1137"/>
<feBlend mode="normal" in="SourceGraphic" in2="effect1_dropShadow_475_1137" result="shape"/>
</filter>
<filter id="filter1_d_475_1137" x="-11.2939" y="43.5742" width="231.088" height="256.926" filterUnits="userSpaceOnUse" color-interpolation-filters="sRGB">
<feFlood flood-opacity="0" result="BackgroundImageFix"/>
<feColorMatrix in="SourceAlpha" type="matrix" values="0 0 0 0 0 0 0 0 0 0 0 0 0 0 0 0 0 0 127 0" result="hardAlpha"/>
<feOffset dy="20"/>
<feGaussianBlur stdDeviation="15"/>
<feComposite in2="hardAlpha" operator="out"/>
<feColorMatrix type="matrix" values="0 0 0 0 0.25474 0 0 0 0 0.517844 0 0 0 0 0.9125 0 0 0 0.07 0"/>
<feBlend mode="normal" in2="BackgroundImageFix" result="effect1_dropShadow_475_1137"/>
<feBlend mode="normal" in="SourceGraphic" in2="effect1_dropShadow_475_1137" result="shape"/>
</filter>
<filter id="filter2_d_475_1137" x="53.4287" y="0.951904" width="240.982" height="293.599" filterUnits="userSpaceOnUse" color-interpolation-filters="sRGB">
<feFlood flood-opacity="0" result="BackgroundImageFix"/>
<feColorMatrix in="SourceAlpha" type="matrix" values="0 0 0 0 0 0 0 0 0 0 0 0 0 0 0 0 0 0 127 0" result="hardAlpha"/>
<feOffset dy="20"/>
<feGaussianBlur stdDeviation="15"/>
<feComposite in2="hardAlpha" operator="out"/>
<feColorMatrix type="matrix" values="0 0 0 0 0.25474 0 0 0 0 0.517844 0 0 0 0 0.9125 0 0 0 0.07 0"/>
<feBlend mode="normal" in2="BackgroundImageFix" result="effect1_dropShadow_475_1137"/>
<feBlend mode="normal" in="SourceGraphic" in2="effect1_dropShadow_475_1137" result="shape"/>
</filter>
</defs>
</svg>
