<svg width="555" height="400" viewBox="0 0 555 400" fill="none" xmlns="http://www.w3.org/2000/svg">
<g filter="url(#filter0_d_475_1129)">
<path d="M336.672 349.678C330.957 327.923 362.388 233.649 376.675 222.253L467.333 269.39C481.36 314.714 499.283 312.901 507.596 349.678H336.672Z" fill="white"/>
<path d="M367.064 227.692L385.247 200.497C385.247 200.497 406.808 205.418 442.395 235.203C466.293 255.145 466.813 253.332 475.645 287.519C475.905 287.519 433.823 244.008 367.064 227.692Z" fill="white"/>
<path d="M376.416 135.231C371.74 122.281 372.519 107.259 374.338 97.9354C389.404 21.791 471.749 36.8126 496.946 68.928C510.973 86.5396 511.492 101.043 511.492 105.705C511.752 112.698 507.336 123.058 507.336 126.166C507.336 130.31 508.116 134.454 513.311 140.67C517.727 145.59 525 149.993 525 153.878C525 160.094 515.649 163.72 515.908 166.051C516.168 168.123 515.649 169.677 518.766 172.785C519.805 173.821 519.026 175.893 518.246 177.188C516.428 180.037 511.752 181.85 511.752 181.85C511.752 181.85 516.168 186.512 514.869 189.62C513.571 192.209 506.037 192.468 507.076 201.533C507.596 206.195 506.297 211.375 502.661 213.188C489.413 218.627 475.905 211.375 467.593 208.785C448.37 202.569 452.526 261.62 452.526 261.62L419.796 238.311L387.845 226.915C409.406 172.008 381.091 148.439 376.416 135.231Z" fill="white"/>
<path d="M358.752 123.835C358.752 2.88434 468.632 38.3666 483.698 46.1365C520.065 64.5251 503.44 78.5108 503.44 78.5108C503.44 78.5108 470.191 73.0719 470.191 94.8275C470.191 116.324 451.228 160.353 451.228 160.353L441.876 208.267C409.926 244.008 341.868 208.267 341.868 208.267C363.428 195.317 358.752 123.835 358.752 123.835Z" fill="white"/>
</g>
<g filter="url(#filter1_d_475_1129)">
<path d="M204.815 93.4246C208.604 79.2954 204.004 54.2978 204.004 54.2978C174.239 -22.0538 70.6019 16.8013 57.0723 49.1352C47.6016 71.6875 46.2486 82.8277 45.7074 87.4469C45.4369 90.164 51.6605 99.674 51.6605 99.674C52.7428 101.033 53.0134 102.935 52.2016 104.565L31.9073 136.084C29.4719 140.974 31.9073 146.68 38.9427 146.68H43.8133C45.4369 146.68 47.331 149.669 46.7898 151.028L45.1663 154.832C44.6251 156.19 44.8957 158.364 45.978 159.451L50.0369 163.527C50.0369 163.527 47.8722 165.7 47.8722 168.689C47.8722 171.95 55.1782 174.667 51.9311 182.275C50.0369 186.894 52.2016 192.872 55.7193 197.491C63.5665 208.088 72.2254 204.827 89.8139 201.567C110.92 197.763 103.614 211.077 108.214 217.598C116.061 228.738 104.967 241.509 102.261 252.377L213.474 204.284C173.697 176.569 201.027 107.554 204.815 93.4246Z" fill="white"/>
<path d="M221.862 216.239L202.921 187.709C202.921 187.709 160.979 192.872 123.908 224.119C133.92 215.696 91.1661 264.876 87.6484 279.005C87.6484 279.005 147.99 228.195 221.862 216.239Z" fill="white"/>
<path d="M59.2364 58.1017C59.2364 58.1017 38.6714 42.3423 61.4011 29.0283C84.1308 15.986 146.908 -7.65309 185.062 31.7454C223.215 71.1439 59.2364 58.1017 59.2364 58.1017Z" fill="white"/>
<path d="M238.368 344.216C244.321 321.392 224.568 222.489 209.685 210.533L99.5545 259.985C99.5545 259.985 85.2131 306.448 76.5542 344.216H238.368Z" fill="white"/>
</g>
<path d="M258.412 116.412C242.215 132.609 236.771 151.595 245.75 160.573L256.483 171.306C265.052 179.876 284.721 174.102 300.412 158.412C316.102 142.721 321.876 123.052 313.306 114.483L302.573 103.75C293.595 94.7714 274.609 100.215 258.412 116.412ZM265.412 123.412C277.18 111.643 290.638 106.021 295.47 110.853C296.483 111.866 297.012 113.275 297.146 114.95C289.295 117.074 280.428 122.395 272.412 130.412C264.395 138.428 259.074 147.295 256.95 155.146C255.275 155.012 253.866 154.483 252.853 153.47C248.021 148.638 253.643 135.18 265.412 123.412ZM265.311 153.403C267.543 147.953 271.629 141.695 277.662 135.662C283.695 129.629 289.953 125.543 295.403 123.311C293.127 128.743 288.786 135.037 282.912 140.912C277.037 146.786 270.743 151.127 265.311 153.403Z" fill="#039DDF"/>
<defs>
<filter id="filter0_d_475_1129" x="305.985" y="25.2923" width="249.015" height="374.386" filterUnits="userSpaceOnUse" color-interpolation-filters="sRGB">
<feFlood flood-opacity="0" result="BackgroundImageFix"/>
<feColorMatrix in="SourceAlpha" type="matrix" values="0 0 0 0 0 0 0 0 0 0 0 0 0 0 0 0 0 0 127 0" result="hardAlpha"/>
<feOffset dy="20"/>
<feGaussianBlur stdDeviation="15"/>
<feComposite in2="hardAlpha" operator="out"/>
<feColorMatrix type="matrix" values="0 0 0 0 0.25474 0 0 0 0 0.517844 0 0 0 0 0.9125 0 0 0 0.07 0"/>
<feBlend mode="normal" in2="BackgroundImageFix" result="effect1_dropShadow_475_1129"/>
<feBlend mode="normal" in="SourceGraphic" in2="effect1_dropShadow_475_1129" result="shape"/>
</filter>
<filter id="filter1_d_475_1129" x="0.989746" y="0" width="268.465" height="394.216" filterUnits="userSpaceOnUse" color-interpolation-filters="sRGB">
<feFlood flood-opacity="0" result="BackgroundImageFix"/>
<feColorMatrix in="SourceAlpha" type="matrix" values="0 0 0 0 0 0 0 0 0 0 0 0 0 0 0 0 0 0 127 0" result="hardAlpha"/>
<feOffset dy="20"/>
<feGaussianBlur stdDeviation="15"/>
<feComposite in2="hardAlpha" operator="out"/>
<feColorMatrix type="matrix" values="0 0 0 0 0.25474 0 0 0 0 0.517844 0 0 0 0 0.9125 0 0 0 0.07 0"/>
<feBlend mode="normal" in2="BackgroundImageFix" result="effect1_dropShadow_475_1129"/>
<feBlend mode="normal" in="SourceGraphic" in2="effect1_dropShadow_475_1129" result="shape"/>
</filter>
</defs>
</svg>
