<svg width="754" height="433" viewBox="0 0 754 433" fill="none" xmlns="http://www.w3.org/2000/svg">
<g filter="url(#filter0_d_475_1127)">
<path d="M53.7003 242.837H56.8463C59.9154 242.837 59.9154 244.016 62.9076 246.376C63.5774 247.078 64.4998 247.467 65.4661 247.467C66.4324 247.467 67.3548 247.078 68.0246 246.376C68.0246 246.376 72.1973 242.205 73.5369 242.129C74.8765 242.052 76.6829 242.129 78.0226 240.713C79.3622 239.298 76.919 232.219 75.3488 230.173C73.7731 228.126 73.9323 227.265 73.8554 223.643H73.8499C73.9323 221.114 72.5981 218.744 70.3856 217.509C68.4968 216.017 69.5181 212 70.3856 210.903C72.1535 209.295 72.5488 206.667 71.3299 204.609C70.748 203.616 70.6546 202.415 71.0664 201.345C71.4782 200.275 72.3621 199.452 73.4547 199.106C75.3544 198.442 76.7269 196.769 76.9959 194.777C76.9959 192.417 74.9481 190.135 72.8232 188.955C70.6984 187.776 68.4145 184.396 71.0113 183.842C73.6083 183.293 74.0035 179.436 76.4413 179.436C78.879 179.436 76.4413 182.662 81.0861 183.842C85.731 185.021 84.7043 176.604 86.1262 173.065C87.7679 169.62 90.5459 166.838 93.9995 165.202C96.9917 163.551 95.0207 160.089 93.9995 158.36C92.9069 155.524 92.9069 152.385 93.9995 149.548C95.103 146.794 101.873 143.178 102.499 142.388C103.13 141.603 103.52 139.716 106.199 140.188C108.873 140.66 110.608 136.726 115.878 136.1V136.094C119.085 135.568 122.357 136.457 124.855 138.536C127.293 139.952 127.139 136.649 127.216 135.782C127.293 134.915 127.924 131.93 130.917 132.555C133.909 133.186 136.506 133.422 136.506 133.422H145.087C149.178 133.422 148.469 134.602 151.385 134.602C154.295 134.602 156.502 131.063 157.682 128.385C158.863 125.713 158.863 126.575 161.855 126.026C164.847 125.477 167.049 120.204 168.229 118.789L168.224 118.794C169.52 117.28 171.419 116.413 173.418 116.429C175.542 116.429 178.458 112.183 179.715 110.685V110.69C180.495 109.807 181.395 109.039 182.389 108.408C183.75 108.249 185.123 108.249 186.485 108.408C189.477 108.408 190.575 107.7 191.525 104.002C192.469 100.304 195.066 100.622 195.066 100.622H204.509C206.64 100.858 208.561 102.005 209.78 103.766C210.565 105.341 208.836 105.577 207.732 107.228C206.629 108.88 208.441 112.973 208.441 112.973C208.534 115.173 208.847 117.362 209.385 119.502C209.835 124.731 210.022 129.982 209.939 135.233C209.308 139.962 205.267 143.491 200.491 143.491C193.408 143.491 189.707 132.555 189.235 130.904C189.005 127.919 189.005 124.923 189.235 121.938C189.235 121.938 189.235 118.322 188.368 119.03H188.373C186.94 120.901 186.194 123.2 186.249 125.554C186.249 128.857 183.103 130.196 181.527 130.509L181.521 130.514C179.018 132.083 176.827 134.108 175.07 136.489C173.983 140.133 173.637 143.957 174.049 147.737C174.247 148.593 174.79 149.329 175.548 149.773C176.306 150.217 177.217 150.338 178.063 150.097C179.556 149.625 179.084 145.219 179.243 143.726C179.402 142.234 180.11 141.131 182.235 141.68C184.36 142.228 184.755 148.84 184.755 148.84H184.75C185.562 150.031 186.452 151.161 187.429 152.22C189.713 154.974 190.97 150.02 191.602 148.445C192.233 146.87 195.143 146.953 196.324 147.425C198.399 147.99 200.562 148.149 202.698 147.896C205.218 147.896 204.663 147.896 205.767 148.763C206.871 149.63 206.871 151.2 205.767 153.954C204.663 156.708 206.398 156.944 206.398 156.944C206.398 156.944 213.091 147.66 216.709 146.245C220.327 144.829 220.882 140.423 222.847 140.264C224.813 140.105 225.049 144.352 225.757 145.219C226.466 146.086 225.604 149.153 225.604 149.153C225.505 149.844 225.131 150.459 224.566 150.859C224 151.265 223.292 151.413 222.611 151.276C220.327 151.276 221.508 149.701 219.619 149.23C217.73 148.758 217.181 151.984 217.181 151.984C216.418 154.327 216.797 156.889 218.203 158.909C220.168 160.637 220.168 158.909 223.715 157.652V157.647C226.202 156.461 229.095 156.461 231.583 157.647C235.366 158.426 239.214 158.799 243.074 158.749C244.589 158.991 246.072 159.413 247.483 160.011C248.976 160.796 247.483 162.135 247.483 162.135C247.483 162.135 244.337 163.474 244.414 165.438C244.49 167.402 248.114 166.618 250.634 167.638H250.629C253.72 168.593 256.921 169.147 260.154 169.29C262.356 169.29 262.515 171.177 261.258 173.613C260.001 176.049 262.674 175.896 262.834 175.66C263.641 174.453 264.755 173.476 266.057 172.829C268.258 171.572 267.078 169.685 267.868 168.187C268.654 166.694 269.362 166.223 273.062 168.187V168.192C277.861 173.312 281.605 179.325 284.081 185.888C284.713 188.324 286.206 189.504 287.782 188.955C289.358 188.407 288.567 185.339 288.567 185.339C288.205 184.494 288.045 183.578 288.095 182.662C288.095 181.795 289.671 181.795 288.095 179.671V179.677C287.205 178.602 286.936 177.142 287.387 175.82C287.387 175.82 289.588 172.204 290.615 170.865C291.224 169.784 291.521 168.561 291.482 167.326C291.482 167.326 291.482 164.418 292.899 164.418V164.413C293.618 164.44 294.326 164.182 294.864 163.705L298.093 161.186C298.093 161.186 302.655 155.052 304.785 155.206C306.91 155.365 306.279 155.206 306.751 153.713C307.223 152.221 309.112 150.646 310.215 150.882C311.319 151.118 312.653 152.533 311 153.554C309.348 154.575 310.215 155.913 310.215 155.913V155.919C311.5 157.016 312.318 158.563 312.499 160.248C312.049 162.816 310.814 165.181 308.953 167.008C307.959 168.572 307.19 170.267 306.674 172.045C305.763 175.37 304.632 178.623 303.286 181.8C302.403 183.424 301.864 185.219 301.716 187.068C301.546 189.005 301.546 190.952 301.716 192.889C301.694 194.903 301.035 196.862 299.822 198.475L294.705 203.194C292.185 205.553 284.943 203.589 282.11 203.589C279.277 203.589 281.402 205.4 281.402 205.4C281.402 205.4 286.678 211.693 289.275 211.929C291.872 212.165 297.774 207.523 299.586 206.184C301.568 204.538 302.974 202.305 303.605 199.814C303.978 197.553 305.746 195.781 308.008 195.408C310.918 194.7 312.181 196.664 312.73 198.711H312.735C313.153 200.555 312.961 202.492 312.181 204.215C312.181 204.215 308.717 208.856 312.889 209.564C317.062 210.272 316.507 206.42 314.855 205.241C313.202 204.061 314.855 202.097 315.486 200.917V200.911C316.474 199.403 316.842 197.57 316.513 195.798C315.881 193.438 312.34 191.864 312.34 191.864V191.869C310.726 191.891 309.117 191.732 307.536 191.397C305.016 190.766 307.141 186.36 307.141 186.207C307.141 186.048 309.974 179.677 310.841 178.338C311.478 176.851 311.747 175.233 311.632 173.62C311.632 173.62 311.083 168.824 313.916 168.665C315.541 168.61 316.957 167.535 317.457 165.987C317.457 165.987 318.006 158.119 319.505 159.853C320.998 161.582 316.672 170.629 316.672 170.629C316.672 170.629 312.735 175.507 317.693 176.215C322.651 176.923 322.255 175.82 320.839 172.835C319.422 169.845 321.783 170.163 324.693 168.193C327.603 166.229 328.866 168.193 328.866 168.193C329.991 169.872 331.227 171.474 332.566 172.989C333.588 173.856 336.108 175.661 337.524 173.62C338.941 171.573 336.657 167.722 335.004 163.316C333.351 158.91 338.232 158.52 338.232 158.52C338.232 158.52 347.44 158.52 350.355 158.992C353.265 159.464 352.639 156.792 352.639 156.792V156.786C351.497 155.222 350.816 153.368 350.674 151.436C350.674 149.39 357.284 144.671 360.589 143.096C363.708 141.801 366.991 140.923 370.351 140.501C372.712 140.106 372.163 138.613 373.579 138.613C374.996 138.613 373.579 140.265 375.391 140.814C377.203 141.362 376.731 139.793 377.675 139.003C378.62 138.218 381.057 139.003 381.057 139.003C381.057 139.003 380.19 139.003 381.057 136.567C381.925 134.13 386.57 135.464 385.543 134.52L385.537 134.526C384.137 132.869 383.533 130.685 383.885 128.545C384.494 126.367 386.196 124.666 388.37 124.062C390.731 123.354 393.092 126.186 393.092 126.345C393.092 126.504 391.752 128.073 393.092 128.627C394.432 129.176 394.904 129.73 396.084 131.771C397.265 133.818 399.625 131.771 402.305 130.432C404.979 129.094 407.817 131.299 409.234 132.397C410.65 133.5 413.324 136.803 412.698 138.377H412.693C412.017 140.128 411.748 142.015 411.907 143.886C411.907 147.661 409.151 148.682 407.735 150.492C406.889 151.738 406.346 153.165 406.159 154.663C406.159 154.663 401.673 160.561 399.938 162.531L399.944 162.525C398.928 163.848 398.604 165.571 399.076 167.167C399.076 167.167 408.048 160.402 410.019 158.202C411.984 156.001 410.019 154.191 411.907 153.011C413.796 151.831 414.9 154.032 416.706 155.371C418.518 156.709 419.775 155.371 419.775 155.371C419.775 155.371 423.553 150.965 426.073 150.811C428.593 150.652 429.065 151.831 431.19 152.934V152.929C433.732 153.73 436.411 153.999 439.063 153.719C440.556 153.719 443.236 153.247 442.763 149.785C442.714 147.842 441.989 145.977 440.715 144.512C439.771 143.096 441.973 141.84 443.389 141.758C444.806 141.681 444.729 142.86 447.243 143.804C449.764 144.748 449.209 143.804 451.57 142.624C453.931 141.445 457.944 144.671 459.443 146.399C460.936 148.128 459.443 148.918 459.443 148.918C459.443 148.918 455.117 150.098 458.894 150.964C462.671 151.831 463.143 154.109 466.767 155.37C470.385 156.627 472.12 156.786 472.197 154.268C472.274 151.749 469.364 149.077 470.545 147.502C471.725 145.927 473.378 147.502 475.107 147.502C476.837 147.502 477.232 146.718 477.391 144.276C477.55 141.84 480.224 142.312 480.383 142.312C480.543 142.312 486.209 142.312 486.132 141.763C486.055 141.214 483.535 140.111 483.458 139.091C483.381 138.07 486.604 138.619 486.604 138.619C486.604 138.619 491.644 137.28 486.604 134.295C481.564 131.305 483.848 124.54 483.848 124.54C483.848 124.54 488.569 120.924 490.777 119.503C492.978 118.087 493.61 119.503 493.61 119.503C493.61 119.503 496.602 125.56 497.936 124.222C499.276 122.883 498.721 120.134 498.644 119.344C497.815 117.879 497.815 116.09 498.644 114.625C499.984 112.425 502.109 112.896 502.581 113.758C503.124 115.206 504.426 116.238 505.963 116.43C507.758 116.364 509.422 115.464 510.454 113.994C510.734 113.632 511.173 113.418 511.634 113.418C512.095 113.418 512.529 113.632 512.815 113.994C513.364 114.861 514.939 114.625 515.961 114.542C516.982 114.466 518.162 111.788 519.266 110.372C520.37 108.957 519.897 106.361 521.863 102.504V102.51C522.687 100.304 524.361 98.5207 526.508 97.555C527.963 96.8801 529.55 96.5344 531.153 96.5289C534.222 96.5289 535.325 99.7553 536.901 100.068L536.896 100.073C538.993 100.139 541.079 99.7936 543.039 99.0474C545.241 98.4164 543.511 97.7086 542.254 96.6112C540.997 95.5083 541.151 93.308 542.254 91.5742C543.358 89.8458 547.294 84.5729 548.079 82.9982L548.074 83.0037C548.683 80.7321 548.519 78.3234 547.602 76.156C546.817 75.0531 547.602 72.617 548.387 72.381C549.172 72.145 549.644 72.381 549.88 74.5044C550.116 76.6278 553.262 76.787 555.628 76.3152C557.989 75.8433 560.273 71.6732 558.302 70.1808H558.308C556.139 68.9298 553.63 68.4086 551.143 68.6829C548.074 68.6829 549.413 63.4923 549.413 63.4923C549.413 63.4923 551.774 58.1426 554.371 53.5006V53.5061C556.37 50.2469 558.835 47.3059 561.69 44.7709C561.69 44.7709 573.494 32.8918 576.174 30.3789C577.475 28.9633 579.226 28.0469 581.131 27.7836C583.745 28.1457 586.391 28.1457 589.005 27.7836C591.052 27.0757 591.206 23.2239 589.636 23.7726C588.187 24.442 586.517 24.442 585.068 23.7726C583.728 23.0648 584.283 19.213 584.437 17.951C586.479 14.5546 589.46 11.8221 593.018 10.0828C595.615 9.53409 596.559 11.8112 597.267 14.0169C599.573 17.106 602.84 19.3447 606.557 20.3873C609.786 21.1719 608.051 23.4544 608.051 23.4544C607.057 23.5752 606.316 24.4201 606.321 25.4242C606.239 26.5929 605.635 27.6629 604.668 28.3322C604.668 28.3322 600.814 30.4556 598.684 31.8712C596.559 33.2868 597.504 35.8053 597.58 38.0056H597.586C597.729 39.1908 596.943 40.2881 595.774 40.5241H591.837C591.837 40.5241 588.928 41.7038 589.081 43.4321V43.4376C589.241 44.4417 590.114 45.177 591.129 45.166H596.795C599.601 45.9452 601.802 48.118 602.62 50.9108C602.895 52.3373 602.384 53.8078 601.281 54.7626C600.1 55.7008 599.134 56.8805 598.448 58.2248C597.427 60.0355 598.448 62.2357 599.705 62.2357C600.962 62.2357 601.435 59.6404 602.615 57.9121C603.795 56.1837 604.899 56.6556 604.899 56.6556L611.279 56.6501C612.168 56.7543 613.063 56.5294 613.799 56.0191C616.132 54.0439 619.35 53.4732 622.221 54.5267C624.423 55.7832 622.221 60.3482 621.354 61.3688C620.486 62.3894 620.096 61.9998 620.25 64.3592C620.953 67.7501 622.172 71.0148 623.874 74.0326C625.307 77.6924 626.361 81.4893 627.02 85.363C628.798 89.5824 631.214 93.511 634.185 97.0007C635.052 98.0213 634.185 98.8115 632.219 98.8115C630.254 98.8115 628.678 99.4425 626.707 102.274C624.741 105.105 626.707 110.142 626.707 110.142C626.707 110.142 628.595 114.784 627.887 115.651C627.179 116.518 624.895 115.651 624.895 115.651V115.645C625.115 116.457 625.46 117.226 625.916 117.928C626.46 118.795 626.46 119.892 625.916 120.759C625.285 122.021 624.544 123.234 623.714 124.375C622.534 125.867 623.714 127.206 626.075 128.309C627.821 129.582 629.161 131.327 629.935 133.346C629.935 133.346 635.288 140.034 636.628 140.034C637.967 140.034 638.676 139.167 639.225 137.126C639.774 135.08 640.954 137.126 642.294 138.937L642.288 138.932C642.997 139.952 644.122 140.616 645.358 140.737C647.614 140.83 649.86 141.148 652.05 141.681C653.39 142.388 652.918 144.199 652.05 147.815C651.183 151.431 658.743 152.375 661.966 154.032C665.194 155.683 662.833 158.75 661.966 161.9C661.098 165.044 665.035 168.824 668.34 169.768L668.346 169.763C669.164 170.015 669.817 170.641 670.097 171.447C670.377 172.259 670.251 173.154 669.762 173.856C669.762 173.856 667.561 176.138 668.269 178.179C668.977 180.226 671.179 179.99 673.858 182.031L673.853 182.037C675.604 183.436 676.845 185.367 677.394 187.54C678.217 190.454 678.486 193.499 678.184 196.506C678.102 198.004 674.248 196.352 674.248 196.352L658.507 189.899C653.945 188.089 646.467 183.842 642.294 181.559L642.289 181.565C636.799 177.093 632.044 171.782 628.201 165.829C626.818 161.702 626.175 157.362 626.313 153.011C626.153 150.679 625.396 148.43 624.111 146.482C624.111 146.482 618.758 136.885 618.363 135.629V135.623C617.44 132.748 616.913 129.758 616.792 126.735C617.182 124.512 615.969 122.323 613.877 121.467C611.654 119.986 609.622 118.241 607.816 116.277C607.053 114.038 606.58 111.711 606.399 109.352C605.071 110.466 603.885 111.733 602.858 113.127C602.073 114.466 602.858 119.344 605.219 119.733C607.58 120.128 610.495 122.488 609.864 122.641C609.232 122.8 608.606 126.103 609.232 127.36V127.366C610.457 130.093 611.154 133.034 611.28 136.018C610.731 137.198 607.426 136.018 607.426 136.018C605.548 134.943 603.566 134.043 601.518 133.346C600.102 133.346 598.762 137.593 597.505 139.563V139.558C596.626 141.785 597.016 144.309 598.532 146.164C599.361 147.409 600.074 148.726 600.656 150.098C600.656 150.098 600.656 156.155 601.128 158.827C601.601 161.5 604.274 163.623 605.455 164.649C606.377 165.357 607.525 165.697 608.683 165.593C609.37 165.812 609.831 166.449 609.831 167.168C609.831 167.886 609.37 168.523 608.683 168.742C606.399 169.845 606.322 172.83 605.85 174.251C605.378 175.667 604.274 178.498 601.914 178.734C599.553 178.97 598.921 176.062 596.56 175.98C594.2 175.903 595.38 178.339 593.887 179.442C592.393 180.545 593.102 182.745 592.866 185.971C592.629 189.197 584.992 191.952 584.992 193.839V193.834C585.497 195.376 584.839 197.06 583.417 197.845C581.089 198.805 579.019 200.287 577.355 202.174C575.582 204.467 574.418 207.173 573.973 210.037V254.162V254.168C574.045 255.973 573.485 257.756 572.398 259.199C571.827 260.373 571.557 261.674 571.612 262.974C571.612 264.938 574.918 263.759 576.652 261.482H576.647C577.674 260.214 579.535 260 580.82 261.01C580.82 261.01 582.944 264.785 584.202 264.077C585.459 263.369 584.202 259.671 585.618 259.517C587.035 259.358 586.09 261.092 587.743 262.821C589.396 264.549 591.284 262.821 592.229 261.641C593.173 260.461 592.229 257.471 592.229 254.799L592.234 254.793C591.998 253.405 592.794 252.044 594.123 251.572H601.205C603.984 251.276 606.707 252.472 608.37 254.716C608.843 256.291 611.363 257.784 613.564 258.727C615.766 259.671 617.418 264.708 617.891 266.596C618.615 268.9 619.483 271.161 620.488 273.361C622.975 276.115 625.599 278.744 628.361 281.224C630.365 283.408 631.655 286.156 632.061 289.092C632.061 291.056 635.603 294.678 635.054 296.406H635.048C634.181 302.365 634.318 308.428 635.443 314.343C636.86 318.623 637.288 323.166 636.706 327.638C635.965 330.672 635.806 333.822 636.234 336.916C636.882 342.431 636.882 348 636.234 353.514C635.18 358.024 632.336 361.914 628.361 364.29C626.197 364.372 624.034 364.213 621.904 363.818C619.23 363.269 619.384 367.988 619.384 367.988V372.866C619.384 374.359 618.127 376.718 617.182 375.933C616.238 375.149 617.182 370.743 617.182 370.743C615.217 368.147 617.182 368.778 615.53 364.137C613.877 359.495 608.129 357.371 607.656 356.268C607.184 355.165 609.704 354.222 609.858 352.57C610.017 350.919 610.962 350.211 614.739 348.559H614.745C615.919 348.219 616.853 347.314 617.232 346.15C617.61 344.982 617.385 343.703 616.633 342.738C615.925 341.794 617.501 337.624 615.14 334.008H615.134C613.064 329.618 611.763 324.911 611.28 320.082C611.28 320.082 609.155 313.789 606.322 315.045V315.051C602.682 318.326 599.965 322.507 598.449 327.166C596.873 330.299 593.524 332.148 590.027 331.802C587.194 331.254 584.515 325.904 582.154 325.509C579.793 325.114 580.106 326.376 578.536 326.376C576.96 326.376 575.39 325.273 574.05 325.196C571.585 325.053 569.147 325.745 567.127 327.166C565.699 328.225 563.745 328.225 562.323 327.166C562.323 327.166 543.903 311.435 542.332 310.255V310.25C539.91 308.68 537.253 307.512 534.458 306.793C533.042 306.793 533.75 307.737 530.681 308.757C528.101 309.355 525.443 309.514 522.808 309.229L511.393 318.59C511.393 318.59 506.436 322.837 511.393 323.544C516.351 324.252 515.484 327.632 514.775 329.838H514.781C513.881 332.45 513.348 335.177 513.205 337.942C513.277 340.801 514.27 343.561 516.038 345.805C516.609 346.129 516.955 346.727 516.955 347.38C516.955 348.033 516.609 348.631 516.038 348.954C514.545 349.821 511.316 355.089 509.581 356.033H509.587C507.166 356.696 504.607 356.696 502.186 356.033C500.402 355.594 498.513 356.131 497.228 357.448C495.263 359.023 493.374 357.448 491.48 356.268C489.591 355.089 487.703 357.135 487.703 357.135C484.612 361.229 481.191 365.069 477.474 368.62C471.116 372.603 463.803 374.803 456.298 374.99C452.916 374.99 450.786 370.584 449.452 369.953C448.112 369.322 445.675 369.953 443.863 369.953C442.051 369.953 438.197 368.614 435.989 368.378L435.995 368.384C433.782 368.614 431.691 369.519 430.01 370.979C427.205 372.609 423.889 373.113 420.726 372.395C416.318 371.687 414.665 365.081 413.88 363.742C413.095 362.403 413.88 362.403 407.11 361.931H407.105C402.905 361.503 398.891 359.989 395.46 357.525C395.46 359.253 393.73 361.772 391.051 364.45C389.459 365.794 388.811 367.956 389.398 369.953C390.524 371.325 391.479 372.834 392.231 374.441C392.863 376.17 388.454 378.375 388.454 378.375H382.233C377.435 378.375 377.116 377.508 377.116 377.508C375.392 377.689 373.652 377.689 371.922 377.508C369.325 377.508 368.776 374.6 368.145 373.338C367.98 372.669 367.497 372.126 366.855 371.873C366.218 371.626 365.493 371.703 364.917 372.076C362.682 372.735 360.277 372.482 358.23 371.368C356.56 370.88 354.782 370.88 353.113 371.368C351.317 373.217 349.335 374.875 347.21 376.328C345.25 377.481 343.032 378.128 340.754 378.216C338.942 378.216 337.762 380.735 335.714 381.991C333.666 383.248 330.597 381.283 329.652 381.991C328.708 382.699 324.222 383.483 323.278 382.622C322.334 381.755 322.647 377.113 321.076 376.724C319.501 376.329 318.556 378.847 316.355 378.216C312.231 376.702 309.228 373.102 308.481 368.773C307.378 362.875 302.969 362.875 302.969 362.875H302.975C300.125 363.231 297.243 363.231 294.393 362.875C292.268 362.09 291.873 360.044 291.247 358.787C290.616 357.53 289.671 356.587 286.602 358.315C283.533 360.043 282.589 358.315 282.589 358.315C282.693 355.857 282.479 353.399 281.957 350.996C280.486 347.522 279.58 343.83 279.284 340.066C279.284 337.394 275.583 332.198 274.485 329.449L274.479 329.443C273.925 327.265 274.238 324.955 275.347 322.996C273.233 322.332 270.944 322.53 268.973 323.545C265.656 324.944 262.099 325.69 258.503 325.75C257.267 325.783 256.054 325.427 255.038 324.724C254.094 324.724 256.768 321.816 256.85 321.421C256.927 321.026 256.142 319.611 254.253 319.221C252.364 318.826 252.913 317.257 251.343 315.446C249.767 313.635 248.038 314.579 246.149 313.871C244.261 313.164 247.879 306.793 247.802 304.747C247.725 302.7 244.574 303.172 243.629 303.018C242.685 302.859 242.608 302.546 240.401 300.5C239.819 299.852 238.99 299.479 238.117 299.479C237.244 299.479 236.415 299.852 235.833 300.5C234.427 301.224 232.753 301.224 231.347 300.5C230.008 299.633 226.307 300.5 225.209 299.479V299.474C222.788 298.875 220.301 298.612 217.808 298.689C214.3 297.965 210.868 296.884 207.58 295.463C205.532 294.047 204.351 294.914 202.15 294.678C199.948 294.442 201.046 292.006 197.269 291.452C193.491 290.903 194.436 296.406 194.749 298.217C195.062 300.028 192.783 299.556 190.576 299.32C188.374 299.084 187.666 302.228 186.403 303.408C185.728 304.077 184.641 304.077 183.965 303.408C183.592 302.996 183.065 302.766 182.51 302.766C181.956 302.766 181.423 302.996 181.05 303.408C179.556 304.9 182.153 308.126 184.042 310.568C185.212 311.83 185.212 313.784 184.042 315.051C184.042 315.051 177.432 316.39 175.543 314.343C173.654 312.296 172.397 313.399 170.267 312.928C168.142 312.456 168.537 306.947 168.455 305.614C168.378 304.275 167.67 302.782 166.171 302.705C164.678 302.629 161.845 302.705 161.449 301.603L161.455 301.597C161.087 300.132 159.742 299.117 158.226 299.161C156.156 299.391 154.065 299.062 152.165 298.217C151.221 297.35 150.353 294.519 149.727 294.206C149.096 293.893 147.366 294.755 148.075 292.867C148.431 291.529 148.431 290.119 148.075 288.78C148.113 287.188 147.822 285.603 147.207 284.138C146.263 282.486 143.979 282.799 143.271 281.937C142.562 281.071 142.798 280.286 141.618 278.322C140.437 276.357 138.077 276.829 136.973 275.726C135.869 274.623 135.869 273.131 136.106 273.054L136.111 273.043C132.855 273.23 129.594 272.939 126.426 272.182C124.839 271.666 123.132 271.666 121.545 272.182L117.296 276.665C116.192 277.767 114.386 276.665 114.15 274.7V274.695C114.111 273.049 114.517 271.419 115.33 269.976C115.33 269.976 110.844 271.156 109.741 269.976C109.115 269.416 108.302 269.109 107.457 269.115C105.749 271.172 103.696 272.928 101.396 274.305C99.5288 275.024 97.7938 276.061 96.284 277.372C96.284 277.767 97.3876 278.711 97.3052 279.732C97.2284 280.752 95.6526 282.014 95.1036 283.666C94.5546 285.317 96.9155 286.102 98.2496 287.364C99.5892 288.621 98.9578 291.611 99.0347 293.026C99.1116 294.442 96.597 297.114 95.5704 297.509C94.5492 297.904 94.2307 299.473 94.7853 300.736C95.1751 301.926 94.5986 303.221 93.4456 303.72C92.4244 304.269 90.1404 303.089 90.1404 303.089H85.814V303.095C84.2437 302.744 82.8327 301.888 81.8005 300.653C80.6969 299.161 79.2035 301.125 77.1557 302.464C75.1078 303.803 70.0731 304.116 69.2825 305.295C68.4973 306.475 69.8315 310.568 69.2825 312.456C67.2236 315.265 64.934 317.893 62.436 320.318C61.5246 322.37 61.0908 324.604 61.1787 326.848C61.1183 329.086 60.5802 331.287 59.6029 333.3C56.9457 333.487 54.2718 333.163 51.7297 332.357C51.0983 332.357 51.0983 329.289 51.7297 327.479C52.3611 325.668 50.7085 323.627 50.4724 322.837C49.7971 320.84 49.5281 318.727 49.6873 316.626C50.5054 314.085 50.725 311.391 50.3132 308.757C49.5281 306.398 45.6684 304.746 43.7029 303.248C41.7374 301.756 42.8354 295.38 42.2864 293.575C41.7374 291.764 38.196 289.015 37.1694 287.358C36.1482 285.707 36.1482 281.224 35.3575 279.49C34.5724 277.767 30.7182 275.013 30.7182 275.013V260.934C30.0319 258.783 30.0319 256.473 30.7182 254.322C31.3276 252.215 31.1574 249.955 30.246 247.952C30.246 247.952 29.3016 245.67 31.1135 245.434C32.9253 245.198 35.127 251.804 35.127 251.804L35.1215 251.809C36.3074 250.635 37.658 249.659 39.1405 248.896C40.7162 248.265 42.2096 250.235 42.9947 251.332C43.7798 252.435 44.5704 251.414 44.5704 251.414C44.5704 251.414 46.6183 245.906 48.3478 246.065C51.126 247.069 53.7723 248.419 56.221 250.076C57.1654 248.506 53.7009 242.838 53.7009 242.838L53.7003 242.837ZM234.732 149.548C234.732 150.333 234.732 151.831 237.406 151.831C240.08 151.831 240.788 151.831 241.343 151.359C241.749 150.52 241.755 149.543 241.359 148.703C240.958 147.864 240.201 147.249 239.295 147.03C238.356 146.717 237.329 146.811 236.462 147.288C235.594 147.765 234.963 148.588 234.732 149.548L234.732 149.548ZM267.082 164.884C267.554 165.905 268.658 165.751 269.915 164.884C271.172 164.017 271.019 162.602 270.7 161.817C270.387 161.033 269.443 158.75 267.867 159.063C266.292 159.376 266.528 162.207 266.528 162.207V162.212C266.544 163.129 266.731 164.039 267.082 164.884V164.884ZM260.625 149.862C260.625 149.862 264.167 155.683 265.742 155.052C267.318 154.421 267.472 149.231 267.318 147.738C267.285 145.593 268.01 143.502 269.361 141.84C271.123 139.645 273.286 137.802 275.74 136.413C277.942 135.629 279.205 134.998 279.358 134.054C279.518 133.11 281.879 134.054 282.9 133.187C285.431 131.486 288.055 129.933 290.773 128.545C293.611 127.662 296.505 126.954 299.431 126.422L312.18 125.555C312.18 125.555 319.581 123.667 318.4 120.6C317.22 117.533 315.88 118.082 313.992 118.318C312.103 118.554 311.395 120.128 308.402 120.128C305.685 119.942 303.017 119.278 300.529 118.164C298.487 117.336 296.203 117.336 294.155 118.164C292.129 119.728 289.796 120.858 287.308 121.467C284.585 122.312 281.95 123.415 279.435 124.77C277.777 125.758 276.333 127.069 275.186 128.628C273.374 131.146 271.485 130.592 269.361 130.828C267.236 131.064 265.506 133.818 265.506 133.818C264.732 134.636 263.645 135.097 262.514 135.075C260.23 135.075 258.424 140.348 258.501 141.84C258.577 143.333 259.917 141.84 259.917 141.84C259.917 141.84 261.021 140.112 261.965 141.055C262.909 141.999 264.013 142.866 262.832 144.359C261.646 145.851 259.917 147.815 260.625 149.785L260.625 149.862ZM309.269 75.4478C311.63 74.9759 313.832 74.3449 313.206 73.4012V73.4067C311.575 72.0734 309.615 71.2065 307.534 70.8882C305.959 70.8882 305.41 74.1145 305.41 74.1145C305.569 75.4478 306.985 75.7661 309.269 75.371V75.4478ZM323.281 85.7521C324.621 85.7521 324.461 84.7316 324.461 83.3927C324.461 82.0539 324.461 81.7411 322.496 82.2898C320.53 82.8385 320.92 85.752 320.92 85.752H320.915C321.7 85.8727 322.501 85.8508 323.281 85.6752L323.281 85.7521ZM326.509 83.9414C325.96 84.4133 325.724 85.5161 326.509 85.9056C327.294 86.3007 330.363 85.9056 330.127 83.9414C329.891 81.9771 326.976 83.3927 326.504 83.8646L326.509 83.9414ZM371.057 103.448C371.057 103.448 373.341 101.011 374.05 100.145L374.044 100.15C374.769 99.1733 375.252 98.0431 375.461 96.8469C375.461 95.4313 373.967 93.7028 372.705 93.467C371.447 93.2311 369.323 96.375 368.142 97.5548C366.962 98.7346 368.142 103.064 368.142 103.064V103.058C368.45 103.536 368.96 103.848 369.526 103.909C370.091 103.969 370.651 103.771 371.057 103.376V103.448ZM371.057 111.316C371.606 113.752 376.334 114.147 377.904 113.988C379.48 113.829 379.48 111.705 379.397 110.054C379.32 108.402 379.87 107.854 379.87 106.356V106.361C379.919 105.483 379.37 104.677 378.53 104.397L372.155 104.946C369.954 105.736 370.662 108.721 371.134 111.162L371.057 111.316ZM477.471 120.051C477.471 123.749 478.416 123.195 478.965 123.042C479.514 122.882 480.854 120.995 482.583 119.579C484.313 118.164 481.798 115.568 479.591 115.568C477.389 115.568 477.471 117.692 477.471 117.692C477.428 118.476 477.428 119.267 477.471 120.051ZM381.522 122.334C381.522 122.334 384.432 119.815 385.771 118.954C387.111 118.087 387.028 118.954 389.153 118.169C391.278 117.385 390.021 114.553 390.021 114.553L387.264 111.722L387.27 111.711C386.413 110.806 385.321 110.153 384.118 109.824C382.307 109.352 381.126 111.162 381.598 113.911L381.604 113.917C381.972 115.349 381.774 116.869 381.049 118.164C380.901 119.59 381.148 121.033 381.758 122.334L381.522 122.334ZM462.432 106.603H459.204C459.204 106.603 457.079 105.895 457.864 108.886L457.87 108.88C458.238 111.086 459.522 113.028 461.411 114.23C462.904 115.097 463.3 116.353 464.793 116.276C466.286 116.2 467.785 114.23 468.883 112.265H468.889C469.641 111.02 470.695 109.994 471.958 109.275C471.958 109.275 474.632 106.993 472.902 106.521C471.98 106.246 471.03 106.065 470.069 105.972C470.069 105.972 474.083 104.556 473.534 103.377C472.985 102.197 473.138 100.386 470.778 99.9969C468.417 99.6018 468.34 101.253 466.764 101.572C465.188 101.884 463.854 100.864 463.3 102.12C462.751 103.377 464.952 106.049 462.674 106.757L462.432 106.603ZM482.977 98.7348C485.733 97.8679 484.317 95.4317 482.977 94.2521C481.637 93.0724 479.276 95.2726 479.276 95.2726L474.632 98.7348H474.637C477.432 99.6236 480.435 99.5962 483.213 98.6525L482.977 98.7348ZM543.662 37.3041C544.211 40.2121 546.808 41.315 547.988 40.0584C549.169 38.8018 547.988 34.0777 547.988 33.2931C547.988 32.5085 547.357 30.1491 545.628 30.0668C543.898 29.99 543.662 32.503 543.662 32.503C543.36 34.0723 543.437 35.6908 543.898 37.2218L543.662 37.3041ZM631.661 124.617C630.876 125.325 631.661 128.551 631.661 128.551V128.545C631.837 129.934 632.292 131.272 633.001 132.48C633.868 133.347 634.889 132.48 634.889 131.695C635.12 130.603 635.12 129.478 634.889 128.386C634.889 127.13 633.39 123.355 631.897 124.535L631.661 124.617ZM672.355 131.382C671.96 130.751 670.307 130.598 669.127 130.833C667.946 131.069 667.161 133.588 667.161 133.588C670.62 134.29 672.904 131.848 672.591 131.3L672.355 131.382ZM675.501 129.1C677.549 129.495 678.411 126.817 678.411 126.817H675.973C674.244 126.817 674.244 128.074 674.244 128.074C674.244 128.074 673.612 128.545 675.737 129.017L675.501 129.1ZM682.112 205.79C682.112 204.375 680.618 200.995 679.279 201.308C677.939 201.62 678.73 204.847 679.279 206.97C679.663 208.249 680.399 209.395 681.403 210.273C682.584 210.273 682.112 207.206 682.112 205.79ZM687.069 217.351C687.778 217.351 687.069 215.7 687.069 215.151H687.075C686.806 214.575 686.207 214.229 685.576 214.284C684.945 214.284 685.576 216.013 685.576 216.013C685.576 216.018 685.971 217.275 686.68 217.357L687.069 217.351ZM688.563 225.22C689.112 225.22 691.319 225.22 689.902 223.491C688.486 221.763 687.229 222.388 687.229 222.388C687.229 222.388 687.624 225.296 688.173 225.532L688.563 225.22ZM692.889 240.95C692.34 241.735 692.889 243.233 692.889 243.233C692.889 243.233 693.597 245.828 694.701 246.064C695.805 246.3 696.354 244.412 696.354 244.412C696.354 244.412 696.985 242.053 696.354 241.109H696.359C695.854 240.495 695.063 240.193 694.278 240.303C693.487 240.418 692.818 240.928 692.505 241.658L692.889 240.95ZM694.146 256.681V262.031C694.146 262.031 694.146 264.077 695.958 261.164C697.77 258.256 696.903 257.23 695.958 256.681C695.025 256.132 694.157 256.686 693.762 257.471L694.146 256.681ZM689.985 275.013C689.82 277.921 689.82 280.834 689.985 283.742C689.985 285.943 691.797 286.102 692.658 284.922C693.526 283.742 692.109 276.193 692.658 275.09C693.207 273.987 694.075 273.515 694.152 272.182C694.229 270.843 691.95 268.407 691.95 268.407C689.985 269.35 689.985 275.013 689.985 275.013V275.013ZM689.353 296.488C691.165 298.217 691.165 296.489 690.929 292.554C691.094 290.42 689.754 288.456 687.701 287.836C686.828 290.919 687.437 294.233 689.353 296.801V296.488ZM609.858 246.223C609.858 246.931 609.386 248.347 608.518 248.583C607.651 248.819 607.102 249.921 607.651 250.547L611.664 253.85C613.081 255.03 616.227 259.672 617.566 260.615C618.906 261.559 620.24 260.22 622.129 261.323H622.134C625.28 263.694 627.949 266.629 630.008 269.976C631.896 272.846 634.12 275.485 636.618 277.844C637.167 278.393 639.215 281.619 640.944 282.327H640.95C645.348 285.806 649.262 289.855 652.595 294.36C653.847 296.193 655.637 297.597 657.712 298.376C657.712 298.376 658.42 297.356 657.08 295.781C655.741 294.206 655.505 291.611 657.08 290.985L657.086 290.98C659.145 290.656 661.242 290.656 663.301 290.98V290.744C662.593 288.072 657.317 288.621 655.428 288.385C653.281 288.033 651.299 287.013 649.762 285.471C648 283.578 646.418 281.526 645.04 279.337C643.81 277.296 643.031 275.019 642.756 272.654C642.756 270.453 643.937 270.217 646.534 269.586C649.13 268.956 648.658 268.248 648.109 267.227C647.56 266.207 644.096 265.971 642.207 265.652C637.222 263.529 632.478 260.895 628.042 257.784C625.445 255.897 616.551 247.403 616.551 247.403C613.74 244.835 610.649 242.596 607.338 240.714C604.977 240.007 604.11 241.735 604.9 241.894C606.591 242.854 608.2 243.963 609.699 245.197C609.699 245.197 609.935 245.828 609.858 246.536L609.858 246.223ZM701.712 106.993C702.47 106.774 702.964 106.05 702.893 105.265C702.849 104.513 702.393 103.849 701.712 103.531C701.344 104.047 701.103 104.639 701.004 105.265C700.976 106.011 701.229 106.741 701.712 107.306V106.993ZM723.515 72.8535C721.703 73.3254 719.66 75.3721 720.605 76.1567C721.549 76.9468 725.327 72.7 723.515 73.1718V72.8535ZM443.941 330.465C442.502 335.25 440.548 339.865 438.116 344.227C436.485 347.321 434.476 350.202 432.131 352.803C430.791 354.377 424.258 357.916 424.258 358.624C424.258 359.332 425.834 360.04 428.98 359.332H428.985C431.637 358.613 434.036 357.17 435.908 355.162C436.776 354.218 436.617 351.464 436.93 350.443C437.243 349.423 438.505 349.659 438.505 349.659C442.53 345.867 445.956 341.494 448.663 336.677C448.663 335.656 448.19 334.63 448.267 333.609C448.514 332.419 449.058 331.31 449.843 330.383C450.085 326.586 450.085 322.778 449.843 318.981C449.843 316.15 448.976 315.129 447.559 314.97C446.143 314.811 445.511 318.509 445.275 321.028V321.022C445.05 324.199 444.6 327.349 443.941 330.465L443.941 330.465Z" fill="white"/>
</g>
<g filter="url(#filter1_f_475_1127)">
<ellipse cx="367" cy="308.145" rx="18.5403" ry="5.85484" fill="#DAEBFB"/>
</g>
<path d="M331.872 228.75C332.096 252.408 351.644 274.678 361.483 284.401C362.957 285.86 364.942 286.677 367.01 286.677C369.077 286.677 371.063 285.86 372.536 284.401C382.431 274.525 402.129 252.144 402.129 228.338C402.129 218.968 398.429 209.983 391.843 203.357C385.258 196.73 376.326 193.005 367.01 193H364.732C355.771 193.667 347.396 197.727 341.297 204.362C335.196 210.998 331.829 219.714 331.871 228.75H331.872ZM367.009 214.199H367.01C370.739 214.199 374.315 215.688 376.951 218.339C379.587 220.992 381.069 224.588 381.069 228.338C381.069 232.087 379.587 235.682 376.951 238.335C374.315 240.985 370.739 242.476 367.01 242.476C363.282 242.476 359.705 240.986 357.069 238.335C354.432 235.682 352.951 232.087 352.951 228.338C352.951 224.588 354.432 220.991 357.069 218.339C359.705 215.689 363.282 214.199 367.01 214.199H367.009Z" fill="#039DDF"/>
<defs>
<filter id="filter0_d_475_1127" x="0" y="0" width="754" height="433" filterUnits="userSpaceOnUse" color-interpolation-filters="sRGB">
<feFlood flood-opacity="0" result="BackgroundImageFix"/>
<feColorMatrix in="SourceAlpha" type="matrix" values="0 0 0 0 0 0 0 0 0 0 0 0 0 0 0 0 0 0 127 0" result="hardAlpha"/>
<feOffset dy="20"/>
<feGaussianBlur stdDeviation="15"/>
<feComposite in2="hardAlpha" operator="out"/>
<feColorMatrix type="matrix" values="0 0 0 0 0.25474 0 0 0 0 0.517844 0 0 0 0 0.9125 0 0 0 0.07 0"/>
<feBlend mode="normal" in2="BackgroundImageFix" result="effect1_dropShadow_475_1127"/>
<feBlend mode="normal" in="SourceGraphic" in2="effect1_dropShadow_475_1127" result="shape"/>
</filter>
<filter id="filter1_f_475_1127" x="338.46" y="292.29" width="57.0806" height="31.7097" filterUnits="userSpaceOnUse" color-interpolation-filters="sRGB">
<feFlood flood-opacity="0" result="BackgroundImageFix"/>
<feBlend mode="normal" in="SourceGraphic" in2="BackgroundImageFix" result="shape"/>
<feGaussianBlur stdDeviation="5" result="effect1_foregroundBlur_475_1127"/>
</filter>
</defs>
</svg>
