<svg width="448" height="341" viewBox="0 0 448 341" fill="none" xmlns="http://www.w3.org/2000/svg">
<g filter="url(#filter0_d_475_1133)">
<path d="M272.886 10L134.488 112.732C131.744 114.866 133.269 118.829 136.622 118.829H272.886H409.151C412.504 118.829 414.029 114.561 411.285 112.732L272.886 10Z" fill="white"/>
<path d="M158.721 107.765L272.187 23.2584C272.541 22.9944 273.027 22.9944 273.381 23.2584L386.848 107.765C387.62 108.34 387.213 109.567 386.25 109.567H159.318C158.355 109.567 157.948 108.34 158.721 107.765Z" stroke="#F1F9FF" stroke-width="2"/>
<path d="M159 108.5L273 22.5L278 26.5L159 108.5Z" fill="#F1F9FF"/>
<path d="M387 108.5L273 22.5L268 26.5L387 108.5Z" fill="#F1F9FF"/>
<path d="M386.284 119.567H338.284V133.567H386.284V119.567Z" fill="white"/>
<path d="M296.284 119.567H249.284V133.567H296.284V119.567Z" fill="white"/>
<path d="M207.284 119.567H160.284V133.567H207.284V119.567Z" fill="white"/>
<path d="M386 242H339V256H386V242Z" fill="white"/>
<path d="M297 242H249V256H297V242Z" fill="white"/>
<path d="M207 242H160V256H207V242Z" fill="white"/>
<path d="M380.798 134.071H344.217V241.68H380.798V134.071Z" fill="white"/>
<path d="M291.176 134.071H254.595V241.68H291.176V134.071Z" fill="white"/>
<path d="M201.552 134.071H164.971V241.68H201.552V134.071Z" fill="white"/>
<path d="M404.576 256.617H141.497V270.64H404.576V256.617Z" fill="white"/>
<path d="M417.076 270.946H129V290.76H417.076V270.946Z" fill="white"/>
<path d="M372.874 147.789H370.435V230.096H372.874V147.789Z" fill="#F1F9FF"/>
<path d="M363.73 147.789H361.292V230.096H363.73V147.789Z" fill="#F1F9FF"/>
<path d="M354.584 147.789H352.146V230.096H354.584V147.789Z" fill="#F1F9FF"/>
<path d="M283.249 147.789H280.811V230.096H283.249V147.789Z" fill="#F1F9FF"/>
<path d="M274.105 147.789H271.667V230.096H274.105V147.789Z" fill="#F1F9FF"/>
<path d="M264.959 147.789H262.521V230.096H264.959V147.789Z" fill="#F1F9FF"/>
<path d="M193.932 147.789H191.493V230.096H193.932V147.789Z" fill="#F1F9FF"/>
<path d="M184.788 147.789H182.349V230.096H184.788V147.789Z" fill="#F1F9FF"/>
<path d="M175.642 147.789H173.203V230.096H175.642V147.789Z" fill="#F1F9FF"/>
</g>
<path d="M250.833 151H294.167C300.15 151 305 155.365 305 160.749V225.745C305 228.349 301.767 229.895 299.369 228.438L285.581 220.063L277.157 226.46C274.468 228.502 270.533 228.502 267.843 226.46L259.419 220.063L245.631 228.438C243.233 229.895 240 228.349 240 225.745V160.749C240 155.365 244.85 151 250.833 151H250.833ZM258.055 176.998H286.944C288.939 176.998 290.556 175.543 290.556 173.748C290.556 171.954 288.939 170.499 286.944 170.499H258.055C256.061 170.499 254.444 171.954 254.444 173.748C254.444 175.543 256.061 176.998 258.055 176.998ZM258.055 189.997H286.944C288.939 189.997 290.556 188.542 290.556 186.747C290.556 184.953 288.939 183.498 286.944 183.498H258.055C256.061 183.498 254.444 184.953 254.444 186.747C254.444 188.542 256.061 189.997 258.055 189.997ZM258.055 202.996H286.944C288.939 202.996 290.556 201.541 290.556 199.747C290.556 197.952 288.939 196.497 286.944 196.497H258.055C256.061 196.497 254.444 197.952 254.444 199.747C254.444 201.541 256.061 202.996 258.055 202.996Z" fill="#039DDF"/>
<g filter="url(#filter1_d_475_1133)">
<path d="M80 256C107.614 256 130 233.614 130 206C130 178.386 107.614 156 80 156C52.3858 156 30 178.386 30 206C30 233.614 52.3858 256 80 256Z" fill="white"/>
<path d="M80.0005 248.441C103.44 248.441 122.441 229.44 122.441 206C122.441 182.561 103.44 163.559 80.0005 163.559C56.561 163.559 37.5596 182.561 37.5596 206C37.5596 229.44 56.561 248.441 80.0005 248.441Z" fill="white"/>
<path d="M43.489 210.398C43.489 188.62 61.0097 170.969 82.6268 170.969C95.2615 170.969 106.498 177.002 113.654 186.366C106.893 174.549 94.225 166.577 79.7149 166.577C58.0978 166.577 40.5771 184.228 40.5771 206.006C40.5771 215.056 43.6042 223.392 48.6877 230.038C45.3809 224.254 43.489 217.542 43.489 210.398Z" fill="#F1F9FF"/>
<path d="M69.8627 221.818H64.3433V217.455H69.8627V212.364H64.3433V207.394H69.8627V186.303H83.3548C85.8897 186.303 88.0975 186.626 89.9782 187.273C91.8998 187.919 93.4943 188.828 94.7617 190C96.0701 191.132 97.0513 192.505 97.7055 194.121C98.3596 195.697 98.6867 197.435 98.6867 199.334C98.6867 201.233 98.3596 202.99 97.7055 204.606C97.0513 206.182 96.0701 207.556 94.7617 208.727C93.4943 209.859 91.8998 210.748 89.9782 211.394C88.0975 212.041 85.8897 212.364 83.3548 212.364H75.6275V217.455H90.1008V221.818H75.6275V228.727H69.8627V221.818ZM83.0482 207.394C86.5643 207.394 89.0787 206.667 90.5915 205.212C92.1451 203.758 92.9219 201.798 92.9219 199.334C92.9219 196.869 92.1451 194.909 90.5915 193.455C89.0787 192 86.5643 191.273 83.0482 191.273H75.6275V207.394H83.0482Z" fill="#E4F2FD"/>
</g>
<defs>
<filter id="filter0_d_475_1133" x="99" y="0" width="348.076" height="340.76" filterUnits="userSpaceOnUse" color-interpolation-filters="sRGB">
<feFlood flood-opacity="0" result="BackgroundImageFix"/>
<feColorMatrix in="SourceAlpha" type="matrix" values="0 0 0 0 0 0 0 0 0 0 0 0 0 0 0 0 0 0 127 0" result="hardAlpha"/>
<feOffset dy="20"/>
<feGaussianBlur stdDeviation="15"/>
<feComposite in2="hardAlpha" operator="out"/>
<feColorMatrix type="matrix" values="0 0 0 0 0.25474 0 0 0 0 0.517844 0 0 0 0 0.9125 0 0 0 0.07 0"/>
<feBlend mode="normal" in2="BackgroundImageFix" result="effect1_dropShadow_475_1133"/>
<feBlend mode="normal" in="SourceGraphic" in2="effect1_dropShadow_475_1133" result="shape"/>
</filter>
<filter id="filter1_d_475_1133" x="0" y="146" width="160" height="160" filterUnits="userSpaceOnUse" color-interpolation-filters="sRGB">
<feFlood flood-opacity="0" result="BackgroundImageFix"/>
<feColorMatrix in="SourceAlpha" type="matrix" values="0 0 0 0 0 0 0 0 0 0 0 0 0 0 0 0 0 0 127 0" result="hardAlpha"/>
<feOffset dy="20"/>
<feGaussianBlur stdDeviation="15"/>
<feComposite in2="hardAlpha" operator="out"/>
<feColorMatrix type="matrix" values="0 0 0 0 0.25474 0 0 0 0 0.517844 0 0 0 0 0.9125 0 0 0 0.07 0"/>
<feBlend mode="normal" in2="BackgroundImageFix" result="effect1_dropShadow_475_1133"/>
<feBlend mode="normal" in="SourceGraphic" in2="effect1_dropShadow_475_1133" result="shape"/>
</filter>
</defs>
</svg>
