<svg width="306" height="246" viewBox="0 0 306 246" fill="none" xmlns="http://www.w3.org/2000/svg">
<g filter="url(#filter0_d_475_1134)">
<path d="M180.323 10L88.6359 78.0585C86.8183 79.4722 87.8281 82.0976 90.0496 82.0976H180.323H270.597C272.818 82.0976 273.828 79.2703 272.01 78.0585L180.323 10Z" fill="white"/>
<path d="M107.122 75.6239C106.159 75.6239 105.752 74.3969 106.524 73.8219L179.658 19.3543C180.012 19.0903 180.498 19.0903 180.852 19.3543L253.986 73.8219C254.758 74.3969 254.351 75.6239 253.388 75.6239H107.122Z" stroke="#F1F9FF" stroke-width="2"/>
<path d="M104.875 75.2548L180.398 18.281L183.711 20.931L104.875 75.2548Z" fill="#F1F9FF"/>
<path d="M255.922 75.2548L180.398 18.281L177.086 20.931L255.922 75.2548Z" fill="#F1F9FF"/>
<path d="M255.448 82.5867H223.648V91.8615H255.448V82.5867Z" fill="white"/>
<path d="M195.823 82.5867H164.687V91.8615H195.823V82.5867Z" fill="white"/>
<path d="M136.862 82.5864H105.726V91.8612H136.862V82.5864Z" fill="white"/>
<path d="M255.259 163.697H224.123V172.972H255.259V163.697Z" fill="white"/>
<path d="M196.298 163.697H164.499V172.972H196.298V163.697Z" fill="white"/>
<path d="M136.674 163.697H105.537V172.972H136.674V163.697Z" fill="white"/>
<path d="M251.813 92.1951H227.579V163.485H251.813V92.1951Z" fill="white"/>
<path d="M192.439 92.1951H168.205V163.485H192.439V92.1951Z" fill="white"/>
<path d="M133.064 92.1951H108.83V163.485H133.064V92.1951Z" fill="white"/>
<path d="M267.565 173.38H93.2788V182.67H267.565V173.38Z" fill="white"/>
<path d="M275.847 182.873H85V196H275.847V182.873Z" fill="white"/>
<path d="M246.562 101.283H244.947V155.811H246.562V101.283Z" fill="#F1F9FF"/>
<path d="M240.505 101.283H238.89V155.811H240.505V101.283Z" fill="#F1F9FF"/>
<path d="M234.446 101.283H232.831V155.811H234.446V101.283Z" fill="#F1F9FF"/>
<path d="M187.187 101.283H185.572V155.811H187.187V101.283Z" fill="#F1F9FF"/>
<path d="M181.13 101.283H179.514V155.811H181.13V101.283Z" fill="#F1F9FF"/>
<path d="M175.071 101.283H173.455V155.811H175.071V101.283Z" fill="#F1F9FF"/>
<path d="M128.016 101.283H126.4V155.811H128.016V101.283Z" fill="#F1F9FF"/>
<path d="M121.958 101.283H120.343V155.811H121.958V101.283Z" fill="#F1F9FF"/>
<path d="M115.9 101.283H114.284V155.811H115.9V101.283Z" fill="#F1F9FF"/>
</g>
<g filter="url(#filter1_d_475_1134)">
<path d="M53.1243 172.972C71.4184 172.972 86.2486 158.142 86.2486 139.847C86.2486 121.553 71.4184 106.723 53.1243 106.723C34.8303 106.723 20 121.553 20 139.847C20 158.142 34.8303 172.972 53.1243 172.972Z" fill="white"/>
<path d="M53.1244 167.964C68.6527 167.964 81.2409 155.376 81.2409 139.848C81.2409 124.319 68.6527 111.731 53.1244 111.731C37.596 111.731 25.0078 124.319 25.0078 139.848C25.0078 155.376 37.596 167.964 53.1244 167.964Z" fill="white"/>
<path d="M28.9364 142.761C28.9364 128.334 40.5436 116.64 54.8647 116.64C63.2349 116.64 70.6788 120.637 75.4198 126.84C70.9404 119.012 62.5483 113.73 52.9356 113.73C38.6145 113.73 27.0073 125.424 27.0073 139.852C27.0073 145.847 29.0127 151.37 32.3804 155.773C30.1898 151.941 28.9364 147.494 28.9364 142.761Z" fill="#F1F9FF"/>
<path d="M46.408 150.327H42.7515V147.436H46.408V144.063H42.7515V140.771H46.408V126.799H55.3464C57.0257 126.799 58.4883 127.013 59.7343 127.441C61.0073 127.869 62.0636 128.472 62.9033 129.248C63.77 129.997 64.4201 130.907 64.8535 131.978C65.2868 133.022 65.5035 134.173 65.5035 135.431C65.5035 136.689 65.2868 137.853 64.8535 138.924C64.4201 139.968 63.77 140.878 62.9033 141.654C62.0636 142.404 61.0073 142.993 59.7343 143.421C58.4883 143.849 57.0257 144.063 55.3464 144.063H50.2271V147.436H59.8155V150.327H50.2271V154.904H46.408V150.327ZM55.1432 140.771C57.4726 140.771 59.1384 140.289 60.1405 139.326C61.1698 138.362 61.6844 137.064 61.6844 135.431C61.6844 133.798 61.1698 132.5 60.1405 131.536C59.1384 130.573 57.4726 130.091 55.1432 130.091H50.2271V140.771H55.1432Z" fill="#E4F2FD"/>
</g>
<path d="M166.167 98H194.833C198.792 98 202 100.91 202 104.5V147.83C202 149.566 199.861 150.597 198.275 149.625L189.154 144.042L183.581 148.307C181.802 149.668 179.198 149.668 177.419 148.307L171.846 144.042L162.725 149.625C161.139 150.597 159 149.566 159 147.83V104.5C159 100.91 162.208 98 166.167 98H166.167ZM170.944 115.332H190.056C191.375 115.332 192.444 114.362 192.444 113.166C192.444 111.969 191.375 110.999 190.056 110.999H170.944C169.625 110.999 168.555 111.969 168.555 113.166C168.555 114.362 169.625 115.332 170.944 115.332ZM170.944 123.998H190.056C191.375 123.998 192.444 123.028 192.444 121.832C192.444 120.635 191.375 119.665 190.056 119.665H170.944C169.625 119.665 168.555 120.635 168.555 121.832C168.555 123.028 169.625 123.998 170.944 123.998ZM170.944 132.664H190.056C191.375 132.664 192.444 131.694 192.444 130.498C192.444 129.301 191.375 128.331 190.056 128.331H170.944C169.625 128.331 168.555 129.301 168.555 130.498C168.555 131.694 169.625 132.664 170.944 132.664Z" fill="#039DDF"/>
<defs>
<filter id="filter0_d_475_1134" x="55" y="0" width="250.847" height="246" filterUnits="userSpaceOnUse" color-interpolation-filters="sRGB">
<feFlood flood-opacity="0" result="BackgroundImageFix"/>
<feColorMatrix in="SourceAlpha" type="matrix" values="0 0 0 0 0 0 0 0 0 0 0 0 0 0 0 0 0 0 127 0" result="hardAlpha"/>
<feOffset dy="20"/>
<feGaussianBlur stdDeviation="15"/>
<feComposite in2="hardAlpha" operator="out"/>
<feColorMatrix type="matrix" values="0 0 0 0 0.25474 0 0 0 0 0.517844 0 0 0 0 0.9125 0 0 0 0.07 0"/>
<feBlend mode="normal" in2="BackgroundImageFix" result="effect1_dropShadow_475_1134"/>
<feBlend mode="normal" in="SourceGraphic" in2="effect1_dropShadow_475_1134" result="shape"/>
</filter>
<filter id="filter1_d_475_1134" x="-10" y="96.7231" width="126.249" height="126.249" filterUnits="userSpaceOnUse" color-interpolation-filters="sRGB">
<feFlood flood-opacity="0" result="BackgroundImageFix"/>
<feColorMatrix in="SourceAlpha" type="matrix" values="0 0 0 0 0 0 0 0 0 0 0 0 0 0 0 0 0 0 127 0" result="hardAlpha"/>
<feOffset dy="20"/>
<feGaussianBlur stdDeviation="15"/>
<feComposite in2="hardAlpha" operator="out"/>
<feColorMatrix type="matrix" values="0 0 0 0 0.25474 0 0 0 0 0.517844 0 0 0 0 0.9125 0 0 0 0.07 0"/>
<feBlend mode="normal" in2="BackgroundImageFix" result="effect1_dropShadow_475_1134"/>
<feBlend mode="normal" in="SourceGraphic" in2="effect1_dropShadow_475_1134" result="shape"/>
</filter>
</defs>
</svg>
