<svg width="600" height="407" viewBox="0 0 600 407" fill="none" xmlns="http://www.w3.org/2000/svg">
<g filter="url(#filter0_d_475_1141)">
<path d="M98.6959 93.531L125.336 93.221C126.277 93.2136 127.201 93.4774 127.996 93.981C136.416 101.981 146.126 97.371 150.436 94.561C152.071 93.4846 153.979 92.8982 155.936 92.871L185.616 92.531C196.746 92.401 199.256 76.781 188.696 73.241L188.286 73.111C199.806 63.281 174.046 43.111 146.656 71.751C148.706 62.301 124.106 65.991 116.716 78.951C113.936 70.531 90.6059 85.481 98.6959 93.531Z" fill="white"/>
</g>
<g filter="url(#filter1_d_475_1141)">
<path d="M30.8406 57.1296H75.0606C80.7306 57.1296 82.0606 49.1896 76.7406 47.3296L76.5406 47.2596C82.4506 42.3296 69.4706 31.9396 55.3606 46.3296C56.4606 41.5296 43.9306 43.2696 40.0906 49.8096C38.7306 45.5296 26.7706 52.9996 30.8406 57.1296Z" fill="white"/>
</g>
<g filter="url(#filter2_d_475_1141)">
<path d="M279.294 18.8805L550.418 175.574L548.759 178.46L277.636 21.7667L279.294 18.8805Z" fill="white"/>
<path d="M405.225 325.77L450.483 302.59L449.376 300.647C442.871 289.404 290.073 23.6024 283.983 13.1924L282.876 11.388L268.759 18.6056L405.225 325.77ZM444.394 300.786L407.301 319.663L274.572 20.6876L281.354 17.2176C295.471 41.924 429.308 274.692 444.394 300.786Z" fill="white"/>
<path d="M382.804 268.862L415.329 245.544L412.838 241.935L380.174 265.253L382.804 268.862Z" fill="white"/>
<path d="M394.428 295.373L428.337 274.275L425.984 270.528L392.075 291.625L394.428 295.373Z" fill="white"/>
<path d="M381.826 264.772L424.413 271.04L423.77 275.434L381.183 269.166L381.826 264.772Z" fill="white"/>
<path d="M281.222 38.3564L299.01 41.0738L298.343 45.4648L280.555 42.7474L281.222 38.3564Z" fill="white"/>
<path d="M296.615 42.4803L300.795 43.9492L293.472 64.9069L289.292 63.438L296.615 42.4803Z" fill="white"/>
<path d="M312.493 69.9616L313.323 65.6588L291.871 61.9112L291.04 66.214L312.493 69.9616Z" fill="white"/>
<path d="M310.794 67.0301L314.992 68.4452L306.482 93.8379L302.284 92.4228L310.794 67.0301Z" fill="white"/>
<path d="M304.343 90.9852L329.844 94.5169L329.238 98.9168L303.737 95.3851L304.343 90.9852Z" fill="white"/>
<path d="M327.438 96.0642L331.627 97.5064L321.336 127.569L317.147 126.127L327.438 96.0642Z" fill="white"/>
<path d="M319.51 124.56L349.056 128.108L348.529 132.518L318.983 128.97L319.51 124.56Z" fill="white"/>
<path d="M346.743 129.534L350.925 130.998L338.608 166.379L334.427 164.915L346.743 129.534Z" fill="white"/>
<path d="M336.726 162.855L371.712 167.527L371.127 171.93L336.141 167.258L336.726 162.855Z" fill="white"/>
<path d="M369.422 168.902L373.595 170.392L358.837 211.974L354.665 210.485L369.422 168.902Z" fill="white"/>
<path d="M357.055 209.678L399.643 215.938L399 220.332L356.413 214.073L357.055 209.678Z" fill="white"/>
<path d="M397.237 217.347L401.397 218.869L383.611 267.765L379.45 266.243L397.237 217.347Z" fill="white"/>
<path d="M398.145 216.213L400.438 220.013L369.293 238.912L367.001 235.111L398.145 216.213Z" fill="white"/>
<path d="M384.144 191.871L386.453 195.661L357.873 213.175L355.564 209.385L384.144 191.871Z" fill="white"/>
<path d="M370.267 167.836L372.664 171.57L346.83 188.249L344.433 184.515L370.267 167.836Z" fill="white"/>
<path d="M402.871 249.291C401.625 251.373 400.933 253.733 400.933 256.092V325.354H496.432C501.276 325.354 505.151 321.467 505.151 316.609V188.219C505.151 183.361 501.138 179.475 496.432 179.475H452.558C447.991 179.475 443.7 181.834 441.347 185.86L422.109 217.784L402.871 249.291Z" fill="white"/>
<path d="M421.832 217.784L505.013 301.202V188.219C505.013 183.361 500.999 179.475 496.293 179.475H452.419C447.852 179.475 443.561 181.834 441.07 185.86L421.832 217.784Z" fill="white"/>
<path d="M420.31 242.906H489.789V190.024H454.773C453.25 190.024 451.728 190.856 451.036 192.106L420.31 242.906Z" fill="#E4F2FD"/>
<g opacity="0.1">
<path d="M458.233 190.162L489.789 221.809V207.235L472.765 190.162H458.233Z" fill="#E4F2FD"/>
</g>
<path d="M337.27 325.076H525.499V357H337.27V325.076Z" fill="white"/>
<path d="M509.582 341.038C509.582 349.782 516.641 357 525.499 357C534.218 357 541.415 349.921 541.415 341.038C541.415 332.294 534.356 325.076 525.499 325.076C516.641 325.076 509.582 332.294 509.582 341.038Z" fill="white"/>
<path d="M321.352 341.038C321.352 349.782 328.41 357 337.268 357C345.988 357 353.185 349.921 353.185 341.038C353.185 332.294 346.126 325.076 337.268 325.076C328.549 325.076 321.352 332.294 321.352 341.038Z" fill="white"/>
<path d="M514.007 341.038C514.007 347.423 519.128 352.558 525.495 352.558C531.861 352.558 536.982 347.423 536.982 341.038C536.982 334.653 531.861 329.518 525.495 329.518C519.128 329.518 514.007 334.653 514.007 341.038Z" fill="#E4F2FD"/>
<path d="M325.781 341.038C325.781 347.423 330.902 352.558 337.268 352.558C343.635 352.558 348.756 347.423 348.756 341.038C348.756 334.653 343.635 329.518 337.268 329.518C330.902 329.518 325.781 334.653 325.781 341.038Z" fill="#E4F2FD"/>
<path d="M495.74 341.038C495.74 344.924 498.785 347.978 502.66 347.978C506.535 347.978 509.58 344.924 509.58 341.038C509.58 337.152 506.535 334.098 502.66 334.098C498.923 334.098 495.74 337.29 495.74 341.038Z" fill="#E4F2FD"/>
<path d="M270.28 20.2712H273.602V130.201H270.28V20.2712Z" fill="white"/>
<path d="M405.363 347.978H457.403L461.832 334.098H400.934L405.363 347.978Z" fill="#E4F2FD"/>
<path d="M477.886 341.038C477.886 344.924 480.931 347.978 484.806 347.978C488.682 347.978 491.727 344.924 491.727 341.038C491.727 337.152 488.682 334.098 484.806 334.098C481.069 334.098 477.886 337.29 477.886 341.038Z" fill="#E4F2FD"/>
<path d="M371.039 341.038C371.039 344.924 374.083 347.978 377.959 347.978C381.834 347.978 384.879 344.924 384.879 341.038C384.879 337.152 381.834 334.098 377.959 334.098C374.222 334.098 371.039 337.29 371.039 341.038Z" fill="#E4F2FD"/>
<path d="M353.185 341.038C353.185 344.924 356.23 347.978 360.105 347.978C363.981 347.978 367.025 344.924 367.025 341.038C367.025 337.152 363.981 334.098 360.105 334.098C356.368 334.098 353.185 337.29 353.185 341.038Z" fill="#E4F2FD"/>
<path d="M342.804 315.915H519.961V325.492H342.804V315.915Z" fill="white"/>
<path d="M505.152 261.228V315.915H561.205C566.049 315.915 569.925 311.89 569.925 307.171V270.111C569.925 265.253 565.911 261.367 561.205 261.367H505.152V261.228Z" fill="white"/>
<path d="M505.152 261.228V301.202L519.823 315.915H561.205C566.049 315.915 569.925 311.89 569.925 307.171V270.111C569.925 265.253 565.911 261.367 561.205 261.367H505.152V261.228Z" fill="white"/>
<path d="M530.48 297.455C531.726 297.455 532.694 296.483 532.694 295.234V274.553C532.694 273.304 531.726 272.332 530.48 272.332C529.234 272.332 528.265 273.304 528.265 274.553V295.234C528.404 296.483 529.373 297.455 530.48 297.455Z" fill="white"/>
<path d="M538.923 297.455C540.169 297.455 541.138 296.483 541.138 295.234V274.553C541.138 273.304 540.169 272.332 538.923 272.332C537.678 272.332 536.709 273.304 536.709 274.553V295.234C536.709 296.483 537.678 297.455 538.923 297.455Z" fill="white"/>
<path d="M547.366 297.455C548.611 297.455 549.58 296.483 549.58 295.234V274.553C549.58 273.304 548.611 272.332 547.366 272.332C546.12 272.332 545.151 273.304 545.151 274.553V295.234C545.151 296.483 546.12 297.455 547.366 297.455Z" fill="white"/>
<path d="M555.808 297.455C557.054 297.455 558.022 296.483 558.022 295.234V274.553C558.022 273.304 557.054 272.332 555.808 272.332C554.562 272.332 553.594 273.304 553.594 274.553V295.234C553.594 296.483 554.562 297.455 555.808 297.455Z" fill="white"/>
<path d="M516.086 262.061L544.736 181.696H553.594V261.228H558.022V177.254H541.691L511.934 260.534L516.086 262.061Z" fill="white"/>
<path d="M525.497 227.222H555.808V231.664H525.497V227.222Z" fill="white"/>
<path d="M536.57 177.115C536.57 184.333 542.383 190.162 549.58 190.162C556.777 190.162 562.59 184.333 562.59 177.115C562.59 169.898 556.777 164.068 549.58 164.068C542.383 164.068 536.57 169.898 536.57 177.115Z" fill="white"/>
<path d="M268.342 20.2712C268.342 25.962 272.91 30.5424 278.584 30.5424C284.259 30.5424 288.826 25.962 288.826 20.2712C288.826 14.5804 284.259 10 278.584 10C272.91 10 268.342 14.5804 268.342 20.2712Z" fill="white"/>
<path d="M542.381 177.115C542.381 181.14 545.565 184.333 549.578 184.333C553.592 184.333 556.775 181.14 556.775 177.115C556.775 173.09 553.592 169.898 549.578 169.898C545.565 169.898 542.381 173.09 542.381 177.115Z" fill="white"/>
<path d="M277.061 149.216C277.061 149.216 277.338 149.494 277.477 150.327C278.03 152.686 275.539 156.573 271.664 154.491C270.003 153.519 269.726 151.576 270.003 150.466C270.418 149.078 272.079 146.996 272.771 145.885C274.155 143.942 273.324 139.917 272.909 140.194C272.771 140.194 272.632 140.472 272.632 140.611C270.141 144.775 264.328 146.44 265.435 151.854C267.373 160.182 280.106 159.21 278.722 151.298C278.584 150.466 278.307 149.633 277.615 149.078C277.477 148.8 277.338 148.8 277.338 148.8C277.2 148.661 276.785 148.939 277.061 149.216Z" fill="white"/>
<path d="M265.437 141.027C265.437 142.415 266.544 143.664 268.067 143.664H276.233C277.617 143.664 278.862 142.554 278.862 141.027V127.425L272.219 122.289L265.576 127.425V141.027H265.437Z" fill="white"/>
</g>
<path d="M308.985 192.034C307.898 190.936 305.654 188.81 305.654 188.81C296.055 179.194 286.261 169.774 276.541 160.28C273.426 157.24 269.655 157.24 266.549 160.28C259.834 166.825 253.128 173.371 246.422 179.926C242.239 184.012 238.046 188.098 233.881 192.201C231.789 194.266 231.412 197.421 232.902 199.811C234.473 202.342 237.48 203.493 240.362 202.605C241.107 202.368 241.799 201.963 242.606 201.594V202.869V230.142C242.606 232.823 243.818 234 246.565 234H260.822C261.154 234 261.486 233.974 261.872 233.956V232.77V212.657C261.872 209.925 263.048 208.783 265.876 208.783H277.224C279.953 208.783 281.156 209.969 281.156 212.657V232.858V233.877C281.335 233.948 281.398 233.982 281.452 233.982C286.676 233.982 291.892 234 297.117 233.982C298.284 233.982 299.335 233.525 299.855 232.497C300.223 231.768 300.402 230.872 300.402 230.046C300.448 220.951 300.429 211.867 300.429 202.772V201.498L300.557 201.575C300.828 201.738 300.991 201.836 301.148 201.928C304.101 203.615 307.558 203.044 309.568 200.531C311.669 197.904 311.445 194.495 308.985 192.034Z" fill="#039DDF"/>
<g filter="url(#filter3_d_475_1141)">
<path d="M138.7 282H128V353.6H138.7V282Z" fill="white"/>
<path d="M146.3 350.7H120.9V356.7H146.3V350.7Z" fill="white"/>
<path d="M217.801 282H207.101V353.6H217.801V282Z" fill="white"/>
<path d="M225.1 350.7H199.7V356.7H225.1V350.7Z" fill="white"/>
<path d="M231.1 307.4C231.1 312.6 226.9 316.8 221.7 316.8H123.4C118.2 316.8 114 312.6 114 307.4V298.3C114 293 118.2 288.8 123.4 288.8H221.7C226.9 288.8 231.1 293 231.1 298.2V307.4Z" fill="#E4F2FD"/>
<path d="M123.4 288.8C118.2 288.8 114 293 114 298.2V307.3C114 307.4 114 307.4 114 307.5L132.7 288.8H123.4Z" fill="#E4F2FD"/>
<path d="M132.8 288.8L114 307.6C114.1 311.8 117 315.4 121 316.4L148.6 288.8H132.8Z" fill="white"/>
<path d="M148.5 288.8L120.9 316.4C121.7 316.6 122.5 316.7 123.4 316.7H136.4L164.4 288.7H148.5V288.8Z" fill="#E4F2FD"/>
<path d="M152.3 316.8L180.3 288.8H164.5L136.5 316.8H152.3Z" fill="white"/>
<path d="M168.2 316.8L196.1 288.8H180.3L152.4 316.8H168.2Z" fill="#E4F2FD"/>
<path d="M183.9 316.8L211.9 288.8H196.1L168.1 316.8H183.9Z" fill="white"/>
<path d="M215.7 316.8L231.1 301.4V298.2C231.1 294.8 229.3 291.8 226.5 290.1L199.9 316.8H215.7Z" fill="white"/>
<path d="M231.1 301.3L215.7 316.7H221.7C226.9 316.7 231.1 312.5 231.1 307.3V301.3Z" fill="#E4F2FD"/>
<path d="M199.9 316.8L226.5 290.2C225.1 289.4 223.5 288.9 221.7 288.9H212L184 316.9H199.9V316.8Z" fill="#E4F2FD"/>
</g>
<defs>
<filter id="filter0_d_475_1141" x="67" y="47" width="158.424" height="101.456" filterUnits="userSpaceOnUse" color-interpolation-filters="sRGB">
<feFlood flood-opacity="0" result="BackgroundImageFix"/>
<feColorMatrix in="SourceAlpha" type="matrix" values="0 0 0 0 0 0 0 0 0 0 0 0 0 0 0 0 0 0 127 0" result="hardAlpha"/>
<feOffset dy="20"/>
<feGaussianBlur stdDeviation="15"/>
<feComposite in2="hardAlpha" operator="out"/>
<feColorMatrix type="matrix" values="0 0 0 0 0.25474 0 0 0 0 0.517844 0 0 0 0 0.9125 0 0 0 0.07 0"/>
<feBlend mode="normal" in2="BackgroundImageFix" result="effect1_dropShadow_475_1141"/>
<feBlend mode="normal" in="SourceGraphic" in2="effect1_dropShadow_475_1141" result="shape"/>
</filter>
<filter id="filter1_d_475_1141" x="0" y="29" width="110.099" height="78.1296" filterUnits="userSpaceOnUse" color-interpolation-filters="sRGB">
<feFlood flood-opacity="0" result="BackgroundImageFix"/>
<feColorMatrix in="SourceAlpha" type="matrix" values="0 0 0 0 0 0 0 0 0 0 0 0 0 0 0 0 0 0 127 0" result="hardAlpha"/>
<feOffset dy="20"/>
<feGaussianBlur stdDeviation="15"/>
<feComposite in2="hardAlpha" operator="out"/>
<feColorMatrix type="matrix" values="0 0 0 0 0.25474 0 0 0 0 0.517844 0 0 0 0 0.9125 0 0 0 0.07 0"/>
<feBlend mode="normal" in2="BackgroundImageFix" result="effect1_dropShadow_475_1141"/>
<feBlend mode="normal" in="SourceGraphic" in2="effect1_dropShadow_475_1141" result="shape"/>
</filter>
<filter id="filter2_d_475_1141" x="235.297" y="0" width="364.628" height="407" filterUnits="userSpaceOnUse" color-interpolation-filters="sRGB">
<feFlood flood-opacity="0" result="BackgroundImageFix"/>
<feColorMatrix in="SourceAlpha" type="matrix" values="0 0 0 0 0 0 0 0 0 0 0 0 0 0 0 0 0 0 127 0" result="hardAlpha"/>
<feOffset dy="20"/>
<feGaussianBlur stdDeviation="15"/>
<feComposite in2="hardAlpha" operator="out"/>
<feColorMatrix type="matrix" values="0 0 0 0 0.25474 0 0 0 0 0.517844 0 0 0 0 0.9125 0 0 0 0.07 0"/>
<feBlend mode="normal" in2="BackgroundImageFix" result="effect1_dropShadow_475_1141"/>
<feBlend mode="normal" in="SourceGraphic" in2="effect1_dropShadow_475_1141" result="shape"/>
</filter>
<filter id="filter3_d_475_1141" x="84" y="272" width="177.101" height="134.7" filterUnits="userSpaceOnUse" color-interpolation-filters="sRGB">
<feFlood flood-opacity="0" result="BackgroundImageFix"/>
<feColorMatrix in="SourceAlpha" type="matrix" values="0 0 0 0 0 0 0 0 0 0 0 0 0 0 0 0 0 0 127 0" result="hardAlpha"/>
<feOffset dy="20"/>
<feGaussianBlur stdDeviation="15"/>
<feComposite in2="hardAlpha" operator="out"/>
<feColorMatrix type="matrix" values="0 0 0 0 0.25474 0 0 0 0 0.517844 0 0 0 0 0.9125 0 0 0 0.07 0"/>
<feBlend mode="normal" in2="BackgroundImageFix" result="effect1_dropShadow_475_1141"/>
<feBlend mode="normal" in="SourceGraphic" in2="effect1_dropShadow_475_1141" result="shape"/>
</filter>
</defs>
</svg>
