<svg width="39" height="46" viewBox="0 0 39 46" fill="none" xmlns="http://www.w3.org/2000/svg">
<path d="M6.4999 0H32.5C36.09 0 39 2.57406 39 5.74959V44.0802C39 45.6159 37.0601 46.5281 35.6214 45.6686L27.3489 40.7296L22.2945 44.5019C20.6806 45.7066 18.3195 45.7066 16.7055 44.5019L11.6511 40.7296L3.37865 45.6686C1.93985 46.528 0 45.616 0 44.0802V5.74959C0 2.57406 2.91003 0 6.50002 0H6.4999ZM10.8332 15.3322H28.1666C29.3631 15.3322 30.3333 14.4741 30.3333 13.4157C30.3333 12.3573 29.3631 11.4992 28.1666 11.4992H10.8332C9.63673 11.4992 8.66657 12.3573 8.66657 13.4157C8.66657 14.4741 9.63673 15.3322 10.8332 15.3322ZM10.8332 22.9983H28.1666C29.3631 22.9983 30.3333 22.1402 30.3333 21.0818C30.3333 20.0234 29.3631 19.1653 28.1666 19.1653H10.8332C9.63673 19.1653 8.66657 20.0234 8.66657 21.0818C8.66657 22.1402 9.63673 22.9983 10.8332 22.9983ZM10.8332 30.6645H28.1666C29.3631 30.6645 30.3333 29.8063 30.3333 28.7479C30.3333 27.6896 29.3631 26.8314 28.1666 26.8314H10.8332C9.63673 26.8314 8.66657 27.6896 8.66657 28.7479C8.66657 29.8063 9.63673 30.6645 10.8332 30.6645Z" fill="white"/>
</svg>
