<svg width="39" height="45" viewBox="0 0 39 45" fill="none" xmlns="http://www.w3.org/2000/svg">
<path d="M5.31818 0C2.4027 0 0 2.34584 0 5.19231V39.8077C0 42.6542 2.4027 45 5.31818 45H33.6818C36.5973 45 39 42.6542 39 39.8077V5.19231C39 2.34584 36.5973 0 33.6818 0H5.31818ZM12.4091 6.92308H26.5909C29.5064 6.92308 31.9091 9.26891 31.9091 12.1154C31.9091 14.9619 29.5064 17.3077 26.5909 17.3077H12.4091C9.49361 17.3077 7.09091 14.9619 7.09091 12.1154C7.09091 9.26891 9.49361 6.92308 12.4091 6.92308ZM12.4091 20.7692C12.8792 20.7692 13.3303 20.9516 13.6627 21.2761C13.995 21.601 14.1818 22.041 14.1818 22.5C14.1818 22.959 13.995 23.3994 13.6627 23.7239C13.3303 24.0484 12.8792 24.2308 12.4091 24.2308C11.939 24.2308 11.4879 24.0484 11.1555 23.7239C10.8231 23.3994 10.6364 22.959 10.6364 22.5C10.6364 22.041 10.8231 21.601 11.1555 21.2761C11.4879 20.9516 11.939 20.7692 12.4091 20.7692ZM19.5 20.7692C19.9701 20.7692 20.4212 20.9516 20.7536 21.2761C21.086 21.601 21.2727 22.041 21.2727 22.5C21.2727 22.959 21.086 23.3994 20.7536 23.7239C20.4212 24.0484 19.9701 24.2308 19.5 24.2308C19.0299 24.2308 18.5788 24.0484 18.2464 23.7239C17.914 23.3994 17.7273 22.959 17.7273 22.5C17.7273 22.041 17.914 21.601 18.2464 21.2761C18.5788 20.9516 19.0299 20.7692 19.5 20.7692ZM26.5909 20.7692C27.061 20.7692 27.5121 20.9516 27.8445 21.2761C28.1769 21.601 28.3636 22.041 28.3636 22.5C28.3636 22.959 28.1769 23.3994 27.8445 23.7239C27.5121 24.0484 27.061 24.2308 26.5909 24.2308C26.1208 24.2308 25.6697 24.0484 25.3373 23.7239C25.005 23.3994 24.8182 22.959 24.8182 22.5C24.8182 22.041 25.005 21.601 25.3373 21.2761C25.6697 20.9516 26.1208 20.7692 26.5909 20.7692ZM12.4091 27.6923C12.8792 27.6923 13.3303 27.8747 13.6627 28.1992C13.995 28.5241 14.1818 28.9641 14.1818 29.4231C14.1818 29.882 13.995 30.3225 13.6627 30.647C13.3303 30.9715 12.8792 31.1538 12.4091 31.1538C11.939 31.1538 11.4879 30.9715 11.1555 30.647C10.8231 30.3225 10.6364 29.882 10.6364 29.4231C10.6364 28.9641 10.8231 28.5241 11.1555 28.1992C11.4879 27.8747 11.939 27.6923 12.4091 27.6923ZM19.5 27.6923C19.9701 27.6923 20.4212 27.8747 20.7536 28.1992C21.086 28.5241 21.2727 28.9641 21.2727 29.4231C21.2727 29.882 21.086 30.3225 20.7536 30.647C20.4212 30.9715 19.9701 31.1538 19.5 31.1538C19.0299 31.1538 18.5788 30.9715 18.2464 30.647C17.914 30.3225 17.7273 29.882 17.7273 29.4231C17.7273 28.9641 17.914 28.5241 18.2464 28.1992C18.5788 27.8747 19.0299 27.6923 19.5 27.6923ZM26.5909 27.6923C27.061 27.6923 27.5121 27.8747 27.8445 28.1992C28.1769 28.5241 28.3636 28.9641 28.3636 29.4231C28.3636 29.882 28.1769 30.3225 27.8445 30.647C27.5121 30.9715 27.061 31.1538 26.5909 31.1538C26.1208 31.1538 25.6697 30.9715 25.3373 30.647C25.005 30.3225 24.8182 29.882 24.8182 29.4231C24.8182 28.9641 25.005 28.5241 25.3373 28.1992C25.6697 27.8747 26.1208 27.6923 26.5909 27.6923ZM12.4091 34.6154C12.8792 34.6154 13.3303 34.7977 13.6627 35.1223C13.995 35.4472 14.1818 35.8872 14.1818 36.3462C14.1818 36.8051 13.995 37.2455 13.6627 37.5701C13.3303 37.8946 12.8792 38.0769 12.4091 38.0769C11.939 38.0769 11.4879 37.8946 11.1555 37.5701C10.8231 37.2455 10.6364 36.8051 10.6364 36.3462C10.6364 35.8872 10.8231 35.4472 11.1555 35.1223C11.4879 34.7977 11.939 34.6154 12.4091 34.6154ZM19.5 34.6154C19.9701 34.6154 20.4212 34.7977 20.7536 35.1223C21.086 35.4472 21.2727 35.8872 21.2727 36.3462C21.2727 36.8051 21.086 37.2455 20.7536 37.5701C20.4212 37.8946 19.9701 38.0769 19.5 38.0769C19.0299 38.0769 18.5788 37.8946 18.2464 37.5701C17.914 37.2455 17.7273 36.8051 17.7273 36.3462C17.7273 35.8872 17.914 35.4472 18.2464 35.1223C18.5788 34.7977 19.0299 34.6154 19.5 34.6154ZM26.5909 34.6154C27.061 34.6154 27.5121 34.7977 27.8445 35.1223C28.1769 35.4472 28.3636 35.8872 28.3636 36.3462C28.3636 36.8051 28.1769 37.2455 27.8445 37.5701C27.5121 37.8946 27.061 38.0769 26.5909 38.0769C26.1208 38.0769 25.6697 37.8946 25.3373 37.5701C25.005 37.2455 24.8182 36.8051 24.8182 36.3462C24.8182 35.8872 25.005 35.4472 25.3373 35.1223C25.6697 34.7977 26.1208 34.6154 26.5909 34.6154Z" fill="white"/>
</svg>
