<svg width="103" height="74" viewBox="0 0 103 74" fill="none" xmlns="http://www.w3.org/2000/svg">
<path d="M58.4896 74C56.2264 74 54.5918 73.2332 53.5859 71.6995C52.58 70.1658 52.2028 68.2487 52.4543 65.9482L60.7529 11.1192C61.2558 8.05182 62.2617 5.49568 63.7705 3.45078C65.5308 1.15026 68.1713 0 71.6918 0H96.5875C98.5993 0 100.108 0.766838 101.114 2.30051C102.371 3.57858 103 4.98445 103 6.51814C103 8.56303 102.497 10.6079 101.491 12.6528L81.8764 65.1814C80.8705 67.7375 79.4874 69.9102 77.7271 71.6995C76.2183 73.2332 73.8294 74 70.5602 74H58.4896ZM6.11075 74C4.09898 74 2.46442 73.2332 1.20706 71.6995C0.201177 70.1658 -0.17603 68.2487 0.0754415 65.9482L8.75119 11.1192C9.25414 8.05182 10.26 5.49568 11.7688 3.45078C13.5291 1.15026 16.0439 0 19.313 0H44.5858C46.3461 0 47.7292 0.766838 48.7351 2.30051C49.9925 3.57858 50.6211 4.98445 50.6211 6.51814C50.6211 8.56303 50.1182 10.6079 49.1123 12.6528L29.4976 65.1814C28.4917 67.7375 27.1086 69.9102 25.3483 71.6995C23.8395 73.2332 21.4505 74 18.1814 74H6.11075Z" fill="#E4F2FD"/>
</svg>
