<svg width="41" height="44" viewBox="0 0 41 44" fill="none" xmlns="http://www.w3.org/2000/svg">
<path d="M20.5016 0C17.6919 0 15.5297 2.13542 14.1386 4.89188C12.7475 7.64833 11.9597 11.2536 11.9597 15.2305V21.9669C11.9784 22.9015 11.2283 23.6739 10.2849 23.6921C9.31522 23.711 8.52435 22.9272 8.543 21.9669V13.5382H5.30667C4.4502 13.5393 3.72716 14.1679 3.6151 15.0092L0.0149341 42.0863C-0.120056 43.1006 0.677312 44.0008 1.70993 44H39.2901C40.3227 44.0008 41.1201 43.1006 40.9851 42.0863L37.3849 15.0092C37.2724 14.1679 36.5494 13.5394 35.6929 13.5382H32.4596V21.9669C32.4779 22.9015 31.7282 23.6743 30.7845 23.6921C29.8147 23.711 29.0239 22.9272 29.0429 21.9669V15.2305C29.0429 11.2532 28.2555 7.64794 26.864 4.89188C25.4729 2.13542 23.3108 0 20.5011 0H20.5016ZM20.5016 3.38465C21.4774 3.38465 22.7324 4.26782 23.8115 6.40588C24.7126 8.19113 25.346 10.7108 25.5401 13.5386H15.4636C15.6574 10.7108 16.2911 8.19074 17.1922 6.40588C18.2714 4.26823 19.5263 3.38465 20.5021 3.38465H20.5016Z" fill="white"/>
</svg>
