<svg width="43" height="42" viewBox="0 0 43 42" fill="none" xmlns="http://www.w3.org/2000/svg">
<path d="M41.9031 18.8186C41.3117 18.2118 40.0901 17.0373 40.0901 17.0373C34.8052 11.7869 29.5349 6.52241 24.2438 1.2778C22.5481 -0.401518 20.4958 -0.401518 18.8052 1.2778C15.1503 4.89332 11.5001 8.50929 7.84994 12.1303C5.57312 14.3872 3.29106 16.6441 1.02374 18.9108C-0.115043 20.0514 -0.320239 21.7941 0.49099 23.1142C1.34621 24.5122 2.98291 25.148 4.55154 24.6577C4.95715 24.5267 5.33345 24.3033 5.77315 24.0994V24.8033V39.869C5.77315 41.3496 6.43265 42 7.92799 42H15.6878C15.8685 42 16.0495 41.9855 16.2595 41.9756V41.3205V30.2106C16.2595 28.7013 16.8996 28.0702 18.4389 28.0702H24.6155C26.1009 28.0702 26.7556 28.7253 26.7556 30.2106V41.369V41.9321C26.8535 41.971 26.8876 41.9903 26.9169 41.9903C29.7606 41.9903 32.5995 42.0001 35.4436 41.9903C36.0786 41.9903 36.6506 41.7377 36.9338 41.17C37.1339 40.7671 37.2317 40.2721 37.2317 39.8157C37.2563 34.792 37.2464 29.7737 37.2464 24.75V24.0461L37.3161 24.0887C37.4634 24.1787 37.5522 24.233 37.6373 24.2837C39.2448 25.2158 41.1263 24.9003 42.2208 23.5121C43.364 22.0607 43.242 20.1776 41.9031 18.8186Z" fill="white"/>
</svg>
