<svg width="44" height="44" viewBox="0 0 44 44" fill="none" xmlns="http://www.w3.org/2000/svg">
<path d="M20.684 13.2H23.852V24.48H20.684V13.2ZM22.22 30.288C21.66 30.288 21.18 30.088 20.78 29.688C20.38 29.288 20.18 28.808 20.18 28.248C20.18 27.656 20.38 27.168 20.78 26.784C21.18 26.4 21.66 26.208 22.22 26.208C22.78 26.208 23.26 26.4 23.66 26.784C24.06 27.168 24.26 27.656 24.26 28.248C24.26 28.808 24.06 29.288 23.66 29.688C23.26 30.088 22.78 30.288 22.22 30.288Z" fill="#E02626"/>
<circle cx="22" cy="22" r="20.5" stroke="#E02626" stroke-width="3"/>
</svg>
