<svg width="36" height="48" viewBox="0 0 36 48" fill="none" xmlns="http://www.w3.org/2000/svg">
<path d="M0.000376044 18.3182C0.115155 30.4403 10.1316 41.8514 15.1731 46.8336C15.9285 47.5812 16.9455 48 18.0051 48C19.0642 48 20.0818 47.5812 20.8365 46.8336C25.9068 41.7729 36 30.3052 36 18.1069C36 13.3059 34.1041 8.7022 30.7295 5.30708C27.3555 1.91128 22.7784 0.00274881 18.0051 0H16.838C12.2462 0.341591 7.9547 2.42204 4.82965 5.8218C1.70392 9.22224 -0.0216613 13.6884 0.000205305 18.3182H0.000376044ZM18.0045 10.8624H18.0051C19.9157 10.8624 21.7481 11.6255 23.0987 12.9838C24.4493 14.3428 25.2088 16.1857 25.2088 18.1069C25.2088 20.0281 24.4494 21.8704 23.0987 23.2293C21.748 24.5876 19.9156 25.3514 18.0051 25.3514C16.0947 25.3514 14.2622 24.5877 12.9116 23.2293C11.5602 21.8703 10.8014 20.0281 10.8014 18.1069C10.8014 16.1857 11.5602 14.3427 12.9116 12.9838C14.2622 11.6255 16.0947 10.8624 18.0051 10.8624H18.0045Z" fill="white"/>
</svg>
