<svg width="44" height="44" viewBox="0 0 44 44" fill="none" xmlns="http://www.w3.org/2000/svg">
<path d="M9.97921 9.97916C0.707774 19.2506 -2.40815 30.1187 2.73137 35.2582L8.87513 41.402C13.7805 46.3074 25.0391 43.0025 34.0208 34.0208C43.0026 25.039 46.3074 13.7804 41.402 8.87508L35.2583 2.73131C30.1188 -2.40821 19.2507 0.707718 9.97921 9.97916ZM13.9862 13.9861C20.7228 7.24947 28.4264 4.03114 31.1924 6.79718C31.7722 7.37693 32.0747 8.18385 32.1516 9.14252C27.6575 10.3584 22.5818 13.4043 17.9931 17.993C13.4044 22.5817 10.3585 27.6574 9.14257 32.1515C8.18391 32.0746 7.37699 31.7721 6.79723 31.1924C4.03119 28.4263 7.24953 20.7227 13.9862 13.9861ZM13.9283 31.1536C15.2061 28.0338 17.5449 24.4517 20.9983 20.9982C24.4517 17.5448 28.0339 15.206 31.1536 13.9283C29.8507 17.0381 27.3661 20.6408 24.0035 24.0034C20.6409 27.366 17.0381 29.8506 13.9283 31.1536Z" fill="white"/>
</svg>
