<svg width="40" height="40" viewBox="0 0 40 40" fill="none" xmlns="http://www.w3.org/2000/svg">
<g clip-path="url(#clip0_78_342)">
<path d="M20 40C31.0457 40 40 31.0457 40 20C40 8.95432 31.0457 0 20 0C8.95432 0 0 8.95432 0 20C0 31.0457 8.95432 40 20 40Z" fill="#039DDF"/>
<path d="M8.32376 19.8265C8.32376 19.8265 18.3238 15.7225 21.7919 14.2774C23.1214 13.6994 27.6301 11.8496 27.6301 11.8496C27.6301 11.8496 29.711 11.0404 29.5376 13.0057C29.4798 13.815 29.0174 16.6473 28.555 19.7109C27.8613 24.0462 27.1098 28.786 27.1098 28.786C27.1098 28.786 26.9942 30.1155 26.0116 30.3467C25.029 30.5779 23.4104 29.5375 23.1214 29.3062C22.8902 29.1329 18.7862 26.5317 17.2833 25.26C16.8786 24.9132 16.4162 24.2196 17.341 23.4103C19.422 21.5028 21.9075 19.1329 23.4104 17.63C24.1041 16.9363 24.7977 15.3178 21.9075 17.2831C17.8035 20.1155 13.7573 22.7745 13.7573 22.7745C13.7573 22.7745 12.8324 23.3525 11.0983 22.8322C9.36416 22.3121 7.34104 21.6184 7.34104 21.6184C7.34104 21.6184 5.95384 20.7514 8.32376 19.8265Z" fill="white"/>
</g>
<defs>
<clipPath id="clip0_78_342">
<rect width="40" height="40" fill="white"/>
</clipPath>
</defs>
</svg>
