<svg width="47" height="47" viewBox="0 0 47 47" fill="none" xmlns="http://www.w3.org/2000/svg">
<path d="M4.94073 4.94072C8.10407 1.77738 12.3944 0 16.8683 0C21.3419 0 25.6325 1.77729 28.7958 4.94072C31.9592 8.10405 33.7365 12.3944 33.7365 16.8683C33.7365 21.3418 31.9592 25.6325 28.7958 28.7958C25.6325 31.9591 21.3421 33.7365 16.8683 33.7365C12.3943 33.7365 8.10407 31.9592 4.94073 28.7958C1.7774 25.6325 1.90735e-05 21.3421 1.90735e-05 16.8683C1.90735e-05 12.3943 1.77731 8.10405 4.94073 4.94072ZM9.23509 24.5165C11.6096 26.8838 14.9497 28.0124 18.2733 27.5711C21.5972 27.1298 24.5269 25.1682 26.2009 22.2633C27.8753 19.3583 28.1038 15.84 26.8194 12.7429C25.535 9.64592 22.8837 7.32189 19.6452 6.45414C16.4063 5.5863 12.9483 6.27394 10.2879 8.31407C7.62713 10.3542 6.06627 13.5155 6.06393 16.8686C6.06223 19.7383 7.20344 22.4905 9.23541 24.5167L9.23509 24.5165Z" fill="white"/>
<path d="M27.8631 32.8519L30.1251 35.1128C30.3725 35.3718 30.715 35.5183 31.0733 35.5189C31.4355 35.5186 31.7822 35.3721 32.035 35.1128L35.5566 31.5931C35.8102 31.3401 35.9526 30.9966 35.9526 30.6385C35.9526 30.2804 35.8102 29.9371 35.5566 29.6842L33.2812 27.41C32.5962 28.5051 31.7868 29.5183 30.8702 30.4288C29.9562 31.3404 28.9482 32.1527 27.8631 32.8519Z" fill="white"/>
<path d="M30.7051 33.7794L34.2224 30.2639C34.7058 29.7852 35.3513 29.5048 36.0312 29.4779C36.7112 29.451 37.3769 29.6795 37.8966 30.1185L43.6083 34.9071C45.275 36.2914 46.3026 38.2966 46.4526 40.4575C46.5451 41.9572 46.0006 43.4267 44.9527 44.5042C43.9387 45.4939 42.5698 46.036 41.1524 46.0087C41.0705 46.0087 40.987 46.006 40.9036 46.0036C38.7416 45.8537 36.7357 44.8263 35.3507 43.1604L30.5596 37.4505C30.1207 36.9311 29.8924 36.266 29.9193 35.5867C29.9462 34.9071 30.2265 34.2626 30.7051 33.7794Z" fill="white"/>
<circle cx="20.6701" cy="11.9626" r="2.76058" fill="white"/>
</svg>
