<svg width="0" height="0" class="hidden">
  <symbol fill="none" xmlns="http://www.w3.org/2000/svg" viewBox="0 0 40 40" id="ok">
    <circle cx="20" cy="20" r="20" fill="#039DDF"></circle>
    <path d="M26.2376 22.7928C26.7624 22.2681 26.8373 21.5185 26.3876 20.7689C26.0128 20.1692 25.3381 19.8694 24.5885 20.0193C24.2887 20.0942 23.9888 20.2442 23.689 20.469C21.3652 22.0432 18.2168 21.9683 15.893 20.3941C15.7431 20.3191 15.5932 20.2442 15.4433 20.1692C14.6187 19.7944 13.7941 19.9443 13.3444 20.6939C12.8196 21.4435 12.8946 22.2681 13.5692 22.9428C13.7192 23.0927 13.8691 23.1676 13.944 23.3176L14.019 23.3925C15.0685 24.2171 16.3428 24.7418 17.9919 24.9667L17.0174 25.9412C16.1929 26.7658 15.2933 27.6653 14.4688 28.4899C14.2439 28.7148 13.944 29.0896 13.944 29.6143C13.944 30.2889 14.3188 30.9636 14.9935 31.2634C15.2184 31.4133 15.4433 31.4133 15.6681 31.4133C16.0429 31.4133 16.4927 31.2634 16.7926 30.8886C17.917 29.7642 18.8165 28.8647 19.716 27.9651C19.791 27.8902 19.791 27.8902 19.791 27.8902C19.791 27.8902 19.866 27.8902 19.866 27.9651C20.4656 28.6398 21.1403 29.2395 21.74 29.9141C22.0398 30.214 22.3397 30.5138 22.6395 30.8137C23.0143 31.1885 23.3142 31.3384 23.7639 31.3384C24.4386 31.4134 25.1882 30.9636 25.488 30.2889C25.7879 29.6892 25.638 28.9396 25.1132 28.4899C24.3636 27.7403 23.614 26.9157 22.7894 26.1661L21.5151 24.8917C22.1898 24.8168 22.9394 24.6669 23.614 24.367C24.7384 23.9922 25.563 23.4675 26.2376 22.7928Z" fill="white"></path>
    <path d="M19.791 20.6939C23.0143 20.6939 25.638 18.1452 25.638 14.9219C25.638 13.3477 25.0383 11.8485 23.9138 10.7241C22.7894 9.59969 21.3652 9 19.866 9C16.6426 9 14.094 11.6236 14.019 14.772C14.019 16.3462 14.6187 17.7704 15.7431 18.8948C16.7926 20.0942 18.2168 20.6939 19.791 20.6939ZM18.1419 13.1978C18.5916 12.7481 19.1913 12.5232 19.791 12.5232C21.1403 12.5232 22.1148 13.5726 22.1148 14.847C22.1148 16.1963 21.0653 17.1707 19.791 17.1707C18.4417 17.1707 17.4672 16.1213 17.4672 14.847C17.4672 14.2473 17.6921 13.6476 18.1419 13.1978Z" fill="white"></path>
    <path d="M26.2376 22.7928C26.7624 22.2681 26.8373 21.5185 26.3876 20.7689C26.0128 20.1692 25.3381 19.8694 24.5885 20.0193C24.2887 20.0942 23.9888 20.2442 23.689 20.469C21.3652 22.0432 18.2168 21.9683 15.893 20.3941C15.7431 20.3191 15.5932 20.2442 15.4433 20.1692C14.6187 19.7944 13.7941 19.9443 13.3444 20.6939C12.8196 21.4435 12.8946 22.2681 13.5692 22.9428C13.7192 23.0927 13.8691 23.1676 13.944 23.3176L14.019 23.3925C15.0685 24.2171 16.3428 24.7418 17.9919 24.9667L17.0174 25.9412C16.1929 26.7658 15.2933 27.6653 14.4688 28.4899C14.2439 28.7148 13.944 29.0896 13.944 29.6143C13.944 30.2889 14.3188 30.9636 14.9935 31.2634C15.2184 31.4133 15.4433 31.4133 15.6681 31.4133C16.0429 31.4133 16.4927 31.2634 16.7926 30.8886C17.917 29.7642 18.8165 28.8647 19.716 27.9651C19.791 27.8902 19.791 27.8902 19.791 27.8902C19.791 27.8902 19.866 27.8902 19.866 27.9651C20.4656 28.6398 21.1403 29.2395 21.74 29.9141C22.0398 30.214 22.3397 30.5138 22.6395 30.8137C23.0143 31.1885 23.3142 31.3384 23.7639 31.3384C24.4386 31.4134 25.1882 30.9636 25.488 30.2889C25.7879 29.6892 25.638 28.9396 25.1132 28.4899C24.3636 27.7403 23.614 26.9157 22.7894 26.1661L21.5151 24.8917C22.1898 24.8168 22.9394 24.6669 23.614 24.367C24.7384 23.9922 25.563 23.4675 26.2376 22.7928Z" fill="white"></path>
  </symbol>
  <symbol fill="none" xmlns="http://www.w3.org/2000/svg" viewBox="0 0 36 48" id="place">
    <path d="M0.000376044 18.3182C0.115155 30.4403 10.1316 41.8514 15.1731 46.8336C15.9285 47.5812 16.9455 48 18.0051 48C19.0642 48 20.0818 47.5812 20.8365 46.8336C25.9068 41.7729 36 30.3052 36 18.1069C36 13.3059 34.1041 8.7022 30.7295 5.30708C27.3555 1.91128 22.7784 0.00274881 18.0051 0H16.838C12.2462 0.341591 7.9547 2.42204 4.82965 5.8218C1.70392 9.22224 -0.0216613 13.6884 0.000205305 18.3182H0.000376044ZM18.0045 10.8624H18.0051C19.9157 10.8624 21.7481 11.6255 23.0987 12.9838C24.4493 14.3428 25.2088 16.1857 25.2088 18.1069C25.2088 20.0281 24.4494 21.8704 23.0987 23.2293C21.748 24.5876 19.9156 25.3514 18.0051 25.3514C16.0947 25.3514 14.2622 24.5877 12.9116 23.2293C11.5602 21.8703 10.8014 20.0281 10.8014 18.1069C10.8014 16.1857 11.5602 14.3427 12.9116 12.9838C14.2622 11.6255 16.0947 10.8624 18.0051 10.8624H18.0045Z" fill="white"></path>
  </symbol>
  <symbol fill="none" xmlns="http://www.w3.org/2000/svg" viewBox="0 0 84 84" id="play--white">
    <circle cx="42" cy="42" r="42" fill="white"></circle>
    <path d="M52.947 40.4814L37.2322 30.3207C35.9554 29.4955 34 30.2963 34 32.3372V52.6538C34 54.4847 35.817 55.5882 37.2322 54.6703L52.947 44.5144C54.3488 43.6112 54.3532 41.3847 52.947 40.4814Z" fill="#039DDF"></path>
  </symbol>
  <symbol fill="none" xmlns="http://www.w3.org/2000/svg" viewBox="0 0 44 44" id="ring">
    <path d="M9.97921 9.97916C0.707774 19.2506 -2.40815 30.1187 2.73137 35.2582L8.87513 41.402C13.7805 46.3074 25.0391 43.0025 34.0208 34.0208C43.0026 25.039 46.3074 13.7804 41.402 8.87508L35.2583 2.73131C30.1188 -2.40821 19.2507 0.707718 9.97921 9.97916ZM13.9862 13.9861C20.7228 7.24947 28.4264 4.03114 31.1924 6.79718C31.7722 7.37693 32.0747 8.18385 32.1516 9.14252C27.6575 10.3584 22.5818 13.4043 17.9931 17.993C13.4044 22.5817 10.3585 27.6574 9.14257 32.1515C8.18391 32.0746 7.37699 31.7721 6.79723 31.1924C4.03119 28.4263 7.24953 20.7227 13.9862 13.9861ZM13.9283 31.1536C15.2061 28.0338 17.5449 24.4517 20.9983 20.9982C24.4517 17.5448 28.0339 15.206 31.1536 13.9283C29.8507 17.0381 27.3661 20.6408 24.0035 24.0034C20.6409 27.366 17.0381 29.8506 13.9283 31.1536Z" fill="white"></path>
  </symbol>
  <symbol fill="none" xmlns="http://www.w3.org/2000/svg" viewBox="0 0 40 40" id="tg">
    <g clip-path="url(#clip0_78_342)">
      <path d="M20 40C31.0457 40 40 31.0457 40 20C40 8.95432 31.0457 0 20 0C8.95432 0 0 8.95432 0 20C0 31.0457 8.95432 40 20 40Z" fill="#039DDF"></path>
      <path d="M8.32376 19.8265C8.32376 19.8265 18.3238 15.7225 21.7919 14.2774C23.1214 13.6994 27.6301 11.8496 27.6301 11.8496C27.6301 11.8496 29.711 11.0404 29.5376 13.0057C29.4798 13.815 29.0174 16.6473 28.555 19.7109C27.8613 24.0462 27.1098 28.786 27.1098 28.786C27.1098 28.786 26.9942 30.1155 26.0116 30.3467C25.029 30.5779 23.4104 29.5375 23.1214 29.3062C22.8902 29.1329 18.7862 26.5317 17.2833 25.26C16.8786 24.9132 16.4162 24.2196 17.341 23.4103C19.422 21.5028 21.9075 19.1329 23.4104 17.63C24.1041 16.9363 24.7977 15.3178 21.9075 17.2831C17.8035 20.1155 13.7573 22.7745 13.7573 22.7745C13.7573 22.7745 12.8324 23.3525 11.0983 22.8322C9.36416 22.3121 7.34104 21.6184 7.34104 21.6184C7.34104 21.6184 5.95384 20.7514 8.32376 19.8265Z" fill="white"></path>
    </g>
    <defs>
      <clipPath id="clip0_78_342">
        <rect width="40" height="40" fill="white"></rect>
      </clipPath>
    </defs>
  </symbol>
  <symbol fill="none" xmlns="http://www.w3.org/2000/svg" viewBox="0 0 40 40" id="vk">
    <circle cx="20" cy="20" r="20" fill="#039DDF"></circle>
    <path d="M20.9824 27C13.4659 27 9.17864 21.7447 9 13H12.7651C12.8888 19.4184 15.6645 22.1371 17.8631 22.6977V13H21.4086V18.5355C23.5797 18.2973 25.8605 15.7748 26.63 13H30.1754C29.5845 16.4194 27.111 18.9419 25.3521 19.979C27.111 20.8198 29.9282 23.02 31 27H27.0973C26.2591 24.3373 24.1706 22.2773 21.4086 21.997V27H20.9824Z" fill="white"></path>
  </symbol>
  <symbol fill="none" xmlns="http://www.w3.org/2000/svg" viewBox="0 0 47 47" id="zoom">
    <path d="M4.94073 4.94072C8.10407 1.77738 12.3944 0 16.8683 0C21.3419 0 25.6325 1.77729 28.7958 4.94072C31.9592 8.10405 33.7365 12.3944 33.7365 16.8683C33.7365 21.3418 31.9592 25.6325 28.7958 28.7958C25.6325 31.9591 21.3421 33.7365 16.8683 33.7365C12.3943 33.7365 8.10407 31.9592 4.94073 28.7958C1.7774 25.6325 1.90735e-05 21.3421 1.90735e-05 16.8683C1.90735e-05 12.3943 1.77731 8.10405 4.94073 4.94072ZM9.23509 24.5165C11.6096 26.8838 14.9497 28.0124 18.2733 27.5711C21.5972 27.1298 24.5269 25.1682 26.2009 22.2633C27.8753 19.3583 28.1038 15.84 26.8194 12.7429C25.535 9.64592 22.8837 7.32189 19.6452 6.45414C16.4063 5.5863 12.9483 6.27394 10.2879 8.31407C7.62713 10.3542 6.06627 13.5155 6.06393 16.8686C6.06223 19.7383 7.20344 22.4905 9.23541 24.5167L9.23509 24.5165Z" fill="white"></path>
    <path d="M27.8631 32.8519L30.1251 35.1128C30.3725 35.3718 30.715 35.5183 31.0733 35.5189C31.4355 35.5186 31.7822 35.3721 32.035 35.1128L35.5566 31.5931C35.8102 31.3401 35.9526 30.9966 35.9526 30.6385C35.9526 30.2804 35.8102 29.9371 35.5566 29.6842L33.2812 27.41C32.5962 28.5051 31.7868 29.5183 30.8702 30.4288C29.9562 31.3404 28.9482 32.1527 27.8631 32.8519Z" fill="white"></path>
    <path d="M30.7051 33.7794L34.2224 30.2639C34.7058 29.7852 35.3513 29.5048 36.0312 29.4779C36.7112 29.451 37.3769 29.6795 37.8966 30.1185L43.6083 34.9071C45.275 36.2914 46.3026 38.2966 46.4526 40.4575C46.5451 41.9572 46.0006 43.4267 44.9527 44.5042C43.9387 45.4939 42.5698 46.036 41.1524 46.0087C41.0705 46.0087 40.987 46.006 40.9036 46.0036C38.7416 45.8537 36.7357 44.8263 35.3507 43.1604L30.5596 37.4505C30.1207 36.9311 29.8924 36.266 29.9193 35.5867C29.9462 34.9071 30.2265 34.2626 30.7051 33.7794Z" fill="white"></path>
    <circle cx="20.6701" cy="11.9626" r="2.76058" fill="white"></circle>
  </symbol>
  <symbol fill="none" xmlns="http://www.w3.org/2000/svg" viewBox="0 0 39 46" id="blank">
    <path d="M6.4999 0H32.5C36.09 0 39 2.57406 39 5.74959V44.0802C39 45.6159 37.0601 46.5281 35.6214 45.6686L27.3489 40.7296L22.2945 44.5019C20.6806 45.7066 18.3195 45.7066 16.7055 44.5019L11.6511 40.7296L3.37865 45.6686C1.93985 46.528 0 45.616 0 44.0802V5.74959C0 2.57406 2.91003 0 6.50002 0H6.4999ZM10.8332 15.3322H28.1666C29.3631 15.3322 30.3333 14.4741 30.3333 13.4157C30.3333 12.3573 29.3631 11.4992 28.1666 11.4992H10.8332C9.63673 11.4992 8.66657 12.3573 8.66657 13.4157C8.66657 14.4741 9.63673 15.3322 10.8332 15.3322ZM10.8332 22.9983H28.1666C29.3631 22.9983 30.3333 22.1402 30.3333 21.0818C30.3333 20.0234 29.3631 19.1653 28.1666 19.1653H10.8332C9.63673 19.1653 8.66657 20.0234 8.66657 21.0818C8.66657 22.1402 9.63673 22.9983 10.8332 22.9983ZM10.8332 30.6645H28.1666C29.3631 30.6645 30.3333 29.8063 30.3333 28.7479C30.3333 27.6896 29.3631 26.8314 28.1666 26.8314H10.8332C9.63673 26.8314 8.66657 27.6896 8.66657 28.7479C8.66657 29.8063 9.63673 30.6645 10.8332 30.6645Z" fill="white"></path>
  </symbol>
  <symbol fill="none" xmlns="http://www.w3.org/2000/svg" viewBox="0 0 39 45" id="calc">
    <path d="M5.31818 0C2.4027 0 0 2.34584 0 5.19231V39.8077C0 42.6542 2.4027 45 5.31818 45H33.6818C36.5973 45 39 42.6542 39 39.8077V5.19231C39 2.34584 36.5973 0 33.6818 0H5.31818ZM12.4091 6.92308H26.5909C29.5064 6.92308 31.9091 9.26891 31.9091 12.1154C31.9091 14.9619 29.5064 17.3077 26.5909 17.3077H12.4091C9.49361 17.3077 7.09091 14.9619 7.09091 12.1154C7.09091 9.26891 9.49361 6.92308 12.4091 6.92308ZM12.4091 20.7692C12.8792 20.7692 13.3303 20.9516 13.6627 21.2761C13.995 21.601 14.1818 22.041 14.1818 22.5C14.1818 22.959 13.995 23.3994 13.6627 23.7239C13.3303 24.0484 12.8792 24.2308 12.4091 24.2308C11.939 24.2308 11.4879 24.0484 11.1555 23.7239C10.8231 23.3994 10.6364 22.959 10.6364 22.5C10.6364 22.041 10.8231 21.601 11.1555 21.2761C11.4879 20.9516 11.939 20.7692 12.4091 20.7692ZM19.5 20.7692C19.9701 20.7692 20.4212 20.9516 20.7536 21.2761C21.086 21.601 21.2727 22.041 21.2727 22.5C21.2727 22.959 21.086 23.3994 20.7536 23.7239C20.4212 24.0484 19.9701 24.2308 19.5 24.2308C19.0299 24.2308 18.5788 24.0484 18.2464 23.7239C17.914 23.3994 17.7273 22.959 17.7273 22.5C17.7273 22.041 17.914 21.601 18.2464 21.2761C18.5788 20.9516 19.0299 20.7692 19.5 20.7692ZM26.5909 20.7692C27.061 20.7692 27.5121 20.9516 27.8445 21.2761C28.1769 21.601 28.3636 22.041 28.3636 22.5C28.3636 22.959 28.1769 23.3994 27.8445 23.7239C27.5121 24.0484 27.061 24.2308 26.5909 24.2308C26.1208 24.2308 25.6697 24.0484 25.3373 23.7239C25.005 23.3994 24.8182 22.959 24.8182 22.5C24.8182 22.041 25.005 21.601 25.3373 21.2761C25.6697 20.9516 26.1208 20.7692 26.5909 20.7692ZM12.4091 27.6923C12.8792 27.6923 13.3303 27.8747 13.6627 28.1992C13.995 28.5241 14.1818 28.9641 14.1818 29.4231C14.1818 29.882 13.995 30.3225 13.6627 30.647C13.3303 30.9715 12.8792 31.1538 12.4091 31.1538C11.939 31.1538 11.4879 30.9715 11.1555 30.647C10.8231 30.3225 10.6364 29.882 10.6364 29.4231C10.6364 28.9641 10.8231 28.5241 11.1555 28.1992C11.4879 27.8747 11.939 27.6923 12.4091 27.6923ZM19.5 27.6923C19.9701 27.6923 20.4212 27.8747 20.7536 28.1992C21.086 28.5241 21.2727 28.9641 21.2727 29.4231C21.2727 29.882 21.086 30.3225 20.7536 30.647C20.4212 30.9715 19.9701 31.1538 19.5 31.1538C19.0299 31.1538 18.5788 30.9715 18.2464 30.647C17.914 30.3225 17.7273 29.882 17.7273 29.4231C17.7273 28.9641 17.914 28.5241 18.2464 28.1992C18.5788 27.8747 19.0299 27.6923 19.5 27.6923ZM26.5909 27.6923C27.061 27.6923 27.5121 27.8747 27.8445 28.1992C28.1769 28.5241 28.3636 28.9641 28.3636 29.4231C28.3636 29.882 28.1769 30.3225 27.8445 30.647C27.5121 30.9715 27.061 31.1538 26.5909 31.1538C26.1208 31.1538 25.6697 30.9715 25.3373 30.647C25.005 30.3225 24.8182 29.882 24.8182 29.4231C24.8182 28.9641 25.005 28.5241 25.3373 28.1992C25.6697 27.8747 26.1208 27.6923 26.5909 27.6923ZM12.4091 34.6154C12.8792 34.6154 13.3303 34.7977 13.6627 35.1223C13.995 35.4472 14.1818 35.8872 14.1818 36.3462C14.1818 36.8051 13.995 37.2455 13.6627 37.5701C13.3303 37.8946 12.8792 38.0769 12.4091 38.0769C11.939 38.0769 11.4879 37.8946 11.1555 37.5701C10.8231 37.2455 10.6364 36.8051 10.6364 36.3462C10.6364 35.8872 10.8231 35.4472 11.1555 35.1223C11.4879 34.7977 11.939 34.6154 12.4091 34.6154ZM19.5 34.6154C19.9701 34.6154 20.4212 34.7977 20.7536 35.1223C21.086 35.4472 21.2727 35.8872 21.2727 36.3462C21.2727 36.8051 21.086 37.2455 20.7536 37.5701C20.4212 37.8946 19.9701 38.0769 19.5 38.0769C19.0299 38.0769 18.5788 37.8946 18.2464 37.5701C17.914 37.2455 17.7273 36.8051 17.7273 36.3462C17.7273 35.8872 17.914 35.4472 18.2464 35.1223C18.5788 34.7977 19.0299 34.6154 19.5 34.6154ZM26.5909 34.6154C27.061 34.6154 27.5121 34.7977 27.8445 35.1223C28.1769 35.4472 28.3636 35.8872 28.3636 36.3462C28.3636 36.8051 28.1769 37.2455 27.8445 37.5701C27.5121 37.8946 27.061 38.0769 26.5909 38.0769C26.1208 38.0769 25.6697 37.8946 25.3373 37.5701C25.005 37.2455 24.8182 36.8051 24.8182 36.3462C24.8182 35.8872 25.005 35.4472 25.3373 35.1223C25.6697 34.7977 26.1208 34.6154 26.5909 34.6154Z" fill="white"></path>
  </symbol>
  <symbol fill="none" xmlns="http://www.w3.org/2000/svg" viewBox="0 0 44 44" id="checked--blue">
    <circle cx="22" cy="22" r="22" fill="#039DDF"></circle>
    <rect x="22.3053" y="27.2553" width="3" height="11" rx="1.5" transform="rotate(135 22.3053 27.2553)" fill="white"></rect>
    <rect width="3" height="17" rx="1.5" transform="matrix(0.707107 0.707107 0.707107 -0.707107 18.2258 27.2262)" fill="white"></rect>
  </symbol>
  <symbol fill="none" xmlns="http://www.w3.org/2000/svg" viewBox="0 0 41 44" id="goods">
    <path d="M20.5016 0C17.6919 0 15.5297 2.13542 14.1386 4.89188C12.7475 7.64833 11.9597 11.2536 11.9597 15.2305V21.9669C11.9784 22.9015 11.2283 23.6739 10.2849 23.6921C9.31522 23.711 8.52435 22.9272 8.543 21.9669V13.5382H5.30667C4.4502 13.5393 3.72716 14.1679 3.6151 15.0092L0.0149341 42.0863C-0.120056 43.1006 0.677312 44.0008 1.70993 44H39.2901C40.3227 44.0008 41.1201 43.1006 40.9851 42.0863L37.3849 15.0092C37.2724 14.1679 36.5494 13.5394 35.6929 13.5382H32.4596V21.9669C32.4779 22.9015 31.7282 23.6743 30.7845 23.6921C29.8147 23.711 29.0239 22.9272 29.0429 21.9669V15.2305C29.0429 11.2532 28.2555 7.64794 26.864 4.89188C25.4729 2.13542 23.3108 0 20.5011 0H20.5016ZM20.5016 3.38465C21.4774 3.38465 22.7324 4.26782 23.8115 6.40588C24.7126 8.19113 25.346 10.7108 25.5401 13.5386H15.4636C15.6574 10.7108 16.2911 8.19074 17.1922 6.40588C18.2714 4.26823 19.5263 3.38465 20.5021 3.38465H20.5016Z" fill="white"></path>
  </symbol>
  <symbol fill="none" xmlns="http://www.w3.org/2000/svg" viewBox="0 0 43 42" id="house">
    <path d="M41.9031 18.8186C41.3117 18.2118 40.0901 17.0373 40.0901 17.0373C34.8052 11.7869 29.5349 6.52241 24.2438 1.2778C22.5481 -0.401518 20.4958 -0.401518 18.8052 1.2778C15.1503 4.89332 11.5001 8.50929 7.84994 12.1303C5.57312 14.3872 3.29106 16.6441 1.02374 18.9108C-0.115043 20.0514 -0.320239 21.7941 0.49099 23.1142C1.34621 24.5122 2.98291 25.148 4.55154 24.6577C4.95715 24.5267 5.33345 24.3033 5.77315 24.0994V24.8033V39.869C5.77315 41.3496 6.43265 42 7.92799 42H15.6878C15.8685 42 16.0495 41.9855 16.2595 41.9756V41.3205V30.2106C16.2595 28.7013 16.8996 28.0702 18.4389 28.0702H24.6155C26.1009 28.0702 26.7556 28.7253 26.7556 30.2106V41.369V41.9321C26.8535 41.971 26.8876 41.9903 26.9169 41.9903C29.7606 41.9903 32.5995 42.0001 35.4436 41.9903C36.0786 41.9903 36.6506 41.7377 36.9338 41.17C37.1339 40.7671 37.2317 40.2721 37.2317 39.8157C37.2563 34.792 37.2464 29.7737 37.2464 24.75V24.0461L37.3161 24.0887C37.4634 24.1787 37.5522 24.233 37.6373 24.2837C39.2448 25.2158 41.1263 24.9003 42.2208 23.5121C43.364 22.0607 43.242 20.1776 41.9031 18.8186Z" fill="white"></path>
  </symbol>
</svg>