<svg width="0" height="0" class="hidden">
<!-- <svg width="0" height="0" class=""> -->
  <symbol fill="none" xmlns="http://www.w3.org/2000/svg" viewBox="0 0 40 40" id="vk--dark">
    <circle cx="20" cy="20" r="20" fill="#222222"></circle>
    <path d="M20.9824 27C13.4659 27 9.17864 21.7447 9 13H12.7651C12.8888 19.4184 15.6645 22.1371 17.8631 22.6977V13H21.4086V18.5355C23.5797 18.2973 25.8605 15.7748 26.63 13H30.1754C29.5845 16.4194 27.111 18.9419 25.3521 19.979C27.111 20.8198 29.9282 23.02 31 27H27.0973C26.2591 24.3373 24.1706 22.2773 21.4086 21.997V27H20.9824Z" fill="white"></path>
  </symbol>
  <symbol fill="none" xmlns="http://www.w3.org/2000/svg" viewBox="0 0 40 40" id="ok">
    <circle cx="20" cy="20" r="20" fill="#039DDF"></circle>
    <path d="M26.2376 22.7928C26.7624 22.2681 26.8373 21.5185 26.3876 20.7689C26.0128 20.1692 25.3381 19.8694 24.5885 20.0193C24.2887 20.0942 23.9888 20.2442 23.689 20.469C21.3652 22.0432 18.2168 21.9683 15.893 20.3941C15.7431 20.3191 15.5932 20.2442 15.4433 20.1692C14.6187 19.7944 13.7941 19.9443 13.3444 20.6939C12.8196 21.4435 12.8946 22.2681 13.5692 22.9428C13.7192 23.0927 13.8691 23.1676 13.944 23.3176L14.019 23.3925C15.0685 24.2171 16.3428 24.7418 17.9919 24.9667L17.0174 25.9412C16.1929 26.7658 15.2933 27.6653 14.4688 28.4899C14.2439 28.7148 13.944 29.0896 13.944 29.6143C13.944 30.2889 14.3188 30.9636 14.9935 31.2634C15.2184 31.4133 15.4433 31.4133 15.6681 31.4133C16.0429 31.4133 16.4927 31.2634 16.7926 30.8886C17.917 29.7642 18.8165 28.8647 19.716 27.9651C19.791 27.8902 19.791 27.8902 19.791 27.8902C19.791 27.8902 19.866 27.8902 19.866 27.9651C20.4656 28.6398 21.1403 29.2395 21.74 29.9141C22.0398 30.214 22.3397 30.5138 22.6395 30.8137C23.0143 31.1885 23.3142 31.3384 23.7639 31.3384C24.4386 31.4134 25.1882 30.9636 25.488 30.2889C25.7879 29.6892 25.638 28.9396 25.1132 28.4899C24.3636 27.7403 23.614 26.9157 22.7894 26.1661L21.5151 24.8917C22.1898 24.8168 22.9394 24.6669 23.614 24.367C24.7384 23.9922 25.563 23.4675 26.2376 22.7928Z" fill="white"></path>
    <path d="M19.791 20.6939C23.0143 20.6939 25.638 18.1452 25.638 14.9219C25.638 13.3477 25.0383 11.8485 23.9138 10.7241C22.7894 9.59969 21.3652 9 19.866 9C16.6426 9 14.094 11.6236 14.019 14.772C14.019 16.3462 14.6187 17.7704 15.7431 18.8948C16.7926 20.0942 18.2168 20.6939 19.791 20.6939ZM18.1419 13.1978C18.5916 12.7481 19.1913 12.5232 19.791 12.5232C21.1403 12.5232 22.1148 13.5726 22.1148 14.847C22.1148 16.1963 21.0653 17.1707 19.791 17.1707C18.4417 17.1707 17.4672 16.1213 17.4672 14.847C17.4672 14.2473 17.6921 13.6476 18.1419 13.1978Z" fill="white"></path>
    <path d="M26.2376 22.7928C26.7624 22.2681 26.8373 21.5185 26.3876 20.7689C26.0128 20.1692 25.3381 19.8694 24.5885 20.0193C24.2887 20.0942 23.9888 20.2442 23.689 20.469C21.3652 22.0432 18.2168 21.9683 15.893 20.3941C15.7431 20.3191 15.5932 20.2442 15.4433 20.1692C14.6187 19.7944 13.7941 19.9443 13.3444 20.6939C12.8196 21.4435 12.8946 22.2681 13.5692 22.9428C13.7192 23.0927 13.8691 23.1676 13.944 23.3176L14.019 23.3925C15.0685 24.2171 16.3428 24.7418 17.9919 24.9667L17.0174 25.9412C16.1929 26.7658 15.2933 27.6653 14.4688 28.4899C14.2439 28.7148 13.944 29.0896 13.944 29.6143C13.944 30.2889 14.3188 30.9636 14.9935 31.2634C15.2184 31.4133 15.4433 31.4133 15.6681 31.4133C16.0429 31.4133 16.4927 31.2634 16.7926 30.8886C17.917 29.7642 18.8165 28.8647 19.716 27.9651C19.791 27.8902 19.791 27.8902 19.791 27.8902C19.791 27.8902 19.866 27.8902 19.866 27.9651C20.4656 28.6398 21.1403 29.2395 21.74 29.9141C22.0398 30.214 22.3397 30.5138 22.6395 30.8137C23.0143 31.1885 23.3142 31.3384 23.7639 31.3384C24.4386 31.4134 25.1882 30.9636 25.488 30.2889C25.7879 29.6892 25.638 28.9396 25.1132 28.4899C24.3636 27.7403 23.614 26.9157 22.7894 26.1661L21.5151 24.8917C22.1898 24.8168 22.9394 24.6669 23.614 24.367C24.7384 23.9922 25.563 23.4675 26.2376 22.7928Z" fill="white"></path>
  </symbol>
  <symbol fill="none" xmlns="http://www.w3.org/2000/svg" viewBox="0 0 40 40" id="ok--dark">
    <circle cx="20" cy="20" r="20" fill="#222222"></circle>
    <path d="M26.2376 22.7928C26.7624 22.2681 26.8373 21.5185 26.3876 20.7689C26.0128 20.1692 25.3381 19.8694 24.5885 20.0193C24.2887 20.0942 23.9888 20.2442 23.689 20.469C21.3652 22.0432 18.2168 21.9683 15.893 20.3941C15.7431 20.3191 15.5932 20.2442 15.4433 20.1692C14.6187 19.7944 13.7941 19.9443 13.3444 20.6939C12.8196 21.4435 12.8946 22.2681 13.5692 22.9428C13.7192 23.0927 13.8691 23.1676 13.944 23.3176L14.019 23.3925C15.0685 24.2171 16.3428 24.7418 17.9919 24.9667L17.0174 25.9412C16.1929 26.7658 15.2933 27.6653 14.4688 28.4899C14.2439 28.7148 13.944 29.0896 13.944 29.6143C13.944 30.2889 14.3188 30.9636 14.9935 31.2634C15.2184 31.4133 15.4433 31.4133 15.6681 31.4133C16.0429 31.4133 16.4927 31.2634 16.7926 30.8886C17.917 29.7642 18.8165 28.8647 19.716 27.9651C19.791 27.8902 19.791 27.8902 19.791 27.8902C19.791 27.8902 19.866 27.8902 19.866 27.9651C20.4656 28.6398 21.1403 29.2395 21.74 29.9141C22.0398 30.214 22.3397 30.5138 22.6395 30.8137C23.0143 31.1885 23.3142 31.3384 23.7639 31.3384C24.4386 31.4134 25.1882 30.9636 25.488 30.2889C25.7879 29.6892 25.638 28.9396 25.1132 28.4899C24.3636 27.7403 23.614 26.9157 22.7894 26.1661L21.5151 24.8917C22.1898 24.8168 22.9394 24.6669 23.614 24.367C24.7384 23.9922 25.563 23.4675 26.2376 22.7928Z" fill="white"></path>
    <path d="M19.791 20.6939C23.0143 20.6939 25.638 18.1452 25.638 14.9219C25.638 13.3477 25.0383 11.8485 23.9138 10.7241C22.7894 9.59969 21.3652 9 19.866 9C16.6426 9 14.094 11.6236 14.019 14.772C14.019 16.3462 14.6187 17.7704 15.7431 18.8948C16.7926 20.0942 18.2168 20.6939 19.791 20.6939ZM18.1419 13.1978C18.5916 12.7481 19.1913 12.5232 19.791 12.5232C21.1403 12.5232 22.1148 13.5726 22.1148 14.847C22.1148 16.1963 21.0653 17.1707 19.791 17.1707C18.4417 17.1707 17.4672 16.1213 17.4672 14.847C17.4672 14.2473 17.6921 13.6476 18.1419 13.1978Z" fill="white"></path>
    <path d="M26.2376 22.7928C26.7624 22.2681 26.8373 21.5185 26.3876 20.7689C26.0128 20.1692 25.3381 19.8694 24.5885 20.0193C24.2887 20.0942 23.9888 20.2442 23.689 20.469C21.3652 22.0432 18.2168 21.9683 15.893 20.3941C15.7431 20.3191 15.5932 20.2442 15.4433 20.1692C14.6187 19.7944 13.7941 19.9443 13.3444 20.6939C12.8196 21.4435 12.8946 22.2681 13.5692 22.9428C13.7192 23.0927 13.8691 23.1676 13.944 23.3176L14.019 23.3925C15.0685 24.2171 16.3428 24.7418 17.9919 24.9667L17.0174 25.9412C16.1929 26.7658 15.2933 27.6653 14.4688 28.4899C14.2439 28.7148 13.944 29.0896 13.944 29.6143C13.944 30.2889 14.3188 30.9636 14.9935 31.2634C15.2184 31.4133 15.4433 31.4133 15.6681 31.4133C16.0429 31.4133 16.4927 31.2634 16.7926 30.8886C17.917 29.7642 18.8165 28.8647 19.716 27.9651C19.791 27.8902 19.791 27.8902 19.791 27.8902C19.791 27.8902 19.866 27.8902 19.866 27.9651C20.4656 28.6398 21.1403 29.2395 21.74 29.9141C22.0398 30.214 22.3397 30.5138 22.6395 30.8137C23.0143 31.1885 23.3142 31.3384 23.7639 31.3384C24.4386 31.4134 25.1882 30.9636 25.488 30.2889C25.7879 29.6892 25.638 28.9396 25.1132 28.4899C24.3636 27.7403 23.614 26.9157 22.7894 26.1661L21.5151 24.8917C22.1898 24.8168 22.9394 24.6669 23.614 24.367C24.7384 23.9922 25.563 23.4675 26.2376 22.7928Z" fill="white"></path>
  </symbol>
  <symbol fill="none" xmlns="http://www.w3.org/2000/svg" viewBox="0 0 40 40" id="tg">
    <g clip-path="url(#clip0_78_342)">
      <path d="M20 40C31.0457 40 40 31.0457 40 20C40 8.95432 31.0457 0 20 0C8.95432 0 0 8.95432 0 20C0 31.0457 8.95432 40 20 40Z" fill="#039DDF"></path>
      <path d="M8.32376 19.8265C8.32376 19.8265 18.3238 15.7225 21.7919 14.2774C23.1214 13.6994 27.6301 11.8496 27.6301 11.8496C27.6301 11.8496 29.711 11.0404 29.5376 13.0057C29.4798 13.815 29.0174 16.6473 28.555 19.7109C27.8613 24.0462 27.1098 28.786 27.1098 28.786C27.1098 28.786 26.9942 30.1155 26.0116 30.3467C25.029 30.5779 23.4104 29.5375 23.1214 29.3062C22.8902 29.1329 18.7862 26.5317 17.2833 25.26C16.8786 24.9132 16.4162 24.2196 17.341 23.4103C19.422 21.5028 21.9075 19.1329 23.4104 17.63C24.1041 16.9363 24.7977 15.3178 21.9075 17.2831C17.8035 20.1155 13.7573 22.7745 13.7573 22.7745C13.7573 22.7745 12.8324 23.3525 11.0983 22.8322C9.36416 22.3121 7.34104 21.6184 7.34104 21.6184C7.34104 21.6184 5.95384 20.7514 8.32376 19.8265Z" fill="white"></path>
    </g>
    <defs>
      <clipPath id="clip0_78_342">
        <rect width="40" height="40" fill="white"></rect>
      </clipPath>
    </defs>
  </symbol>
  <symbol fill="none" xmlns="http://www.w3.org/2000/svg" viewBox="0 0 40 40" id="tg--dark">
    <g clip-path="url(#clip0_78_342)">
      <path d="M20 40C31.0457 40 40 31.0457 40 20C40 8.95432 31.0457 0 20 0C8.95432 0 0 8.95432 0 20C0 31.0457 8.95432 40 20 40Z" fill="#222222"></path>
      <path d="M8.32376 19.8265C8.32376 19.8265 18.3238 15.7225 21.7919 14.2774C23.1214 13.6994 27.6301 11.8496 27.6301 11.8496C27.6301 11.8496 29.711 11.0404 29.5376 13.0057C29.4798 13.815 29.0174 16.6473 28.555 19.7109C27.8613 24.0462 27.1098 28.786 27.1098 28.786C27.1098 28.786 26.9942 30.1155 26.0116 30.3467C25.029 30.5779 23.4104 29.5375 23.1214 29.3062C22.8902 29.1329 18.7862 26.5317 17.2833 25.26C16.8786 24.9132 16.4162 24.2196 17.341 23.4103C19.422 21.5028 21.9075 19.1329 23.4104 17.63C24.1041 16.9363 24.7977 15.3178 21.9075 17.2831C17.8035 20.1155 13.7573 22.7745 13.7573 22.7745C13.7573 22.7745 12.8324 23.3525 11.0983 22.8322C9.36416 22.3121 7.34104 21.6184 7.34104 21.6184C7.34104 21.6184 5.95384 20.7514 8.32376 19.8265Z" fill="white"></path>
    </g>
    <defs>
      <clipPath id="clip0_78_342">
        <rect width="40" height="40" fill="white"></rect>
      </clipPath>
    </defs>
  </symbol>
  <symbol fill="none" xmlns="http://www.w3.org/2000/svg" viewBox="0 0 40 40" id="vk">
    <circle cx="20" cy="20" r="20" fill="#039DDF"></circle>
    <path d="M20.9824 27C13.4659 27 9.17864 21.7447 9 13H12.7651C12.8888 19.4184 15.6645 22.1371 17.8631 22.6977V13H21.4086V18.5355C23.5797 18.2973 25.8605 15.7748 26.63 13H30.1754C29.5845 16.4194 27.111 18.9419 25.3521 19.979C27.111 20.8198 29.9282 23.02 31 27H27.0973C26.2591 24.3373 24.1706 22.2773 21.4086 21.997V27H20.9824Z" fill="white"></path>
  </symbol>
</svg>